<svg width="19" height="20" viewBox="0 0 19 20" xmlns="http://www.w3.org/2000/svg"><title>9C53B7AD-720D-472E-A080-3672C2BBF4A8</title><path d="M14.835 0H3.367A3.367 3.367 0 0 0 0 3.366v9.453a3.367 3.367 0 0 0 3.367 3.366c.8 0 1.128.429 1.118.952l-.035 1.756c-.008.423.5.646.806.353l2.875-2.754c.206-.197.479-.307.764-.307h5.94a3.366 3.366 0 0 0 3.366-3.366V3.366A3.366 3.366 0 0 0 14.835 0zm-9.32 9.415a1.26 1.26 0 1 1 0-2.52 1.26 1.26 0 0 1 0 2.52zm3.586 0a1.26 1.26 0 1 1 0-2.521 1.26 1.26 0 0 1 0 2.521zm3.586 0a1.26 1.26 0 1 1-.002-2.52 1.26 1.26 0 0 1 .002 2.52z" fill="#68878F" fill-rule="evenodd"/></svg>