<svg width="107" height="20" viewBox="0 0 107 20" xmlns="http://www.w3.org/2000/svg" xmlns:xlink="http://www.w3.org/1999/xlink"><title>8916C9C4-7361-40DB-B2BD-47467C16EA0A</title><defs><path id="a" d="M0 .145v17.973h14.442V.145H0z"/><path id="c" d="M11.483 11.105V.106H.41v10.999z"/><path id="e" d="M11.541.093H.475v12.64H11.54V.094z"/></defs><g fill="none" fill-rule="evenodd"><path fill="#4BBABB" d="M27.21.284L16.861 18.31h8.824v-3.232h-3.252l4.775-8.316 4.775 8.316h-3.042v3.232h8.621z"/><path fill="#1D2636" d="M64.543.284V18.31h3.853V8.234l4.486 3.546v.053l4.5-3.547V18.31h3.853V.336l-8.353 6.57V6.86zM47.937 6.625L41.645.336 38.923 3.06l7.058 7.06v8.19h3.852v-8.138l7.11-7.112-2.72-2.723z"/><g transform="translate(0 .192)"><mask id="b" fill="#fff"><use xlink:href="#a"/></mask><path d="M3.853 3.992v3.213h5.134c.445 0 .824-.157 1.131-.464.314-.315.472-.694.472-1.139a1.55 1.55 0 0 0-.472-1.139 1.525 1.525 0 0 0-1.131-.47H3.853zM0 .145h8.987c1.504 0 2.793.53 3.852 1.597 1.066 1.066 1.603 2.355 1.603 3.86s-.537 2.794-1.603 3.86c-1.06 1.06-2.348 1.597-3.852 1.597H3.853v7.06H0V.144z" fill="#1D2636" mask="url(#b)"/></g><path d="M102.486 13.868a6.38 6.38 0 0 0 .17-1.46 6.205 6.205 0 0 0-4.84-6.058l2.963-5.53a9.04 9.04 0 0 1 5.723 6.49 5.985 5.985 0 0 1-.105 2.153c-.471 2.015-1.956 3.572-3.911 4.404" fill="#495266"/><path d="M97.593 12.134c-1.242 2.283-1.962 3.657-3.015 5.62a8.628 8.628 0 0 1-1.772-.89 11.645 11.645 0 0 1-1.707-1.44 8.752 8.752 0 0 1-1.642-2.499l-.014-.04.007-.012a.6.6 0 0 1-.032-.105c-.203-.765-.426-2.12-.25-3.16l.06-.268c.464-1.806 1.687-3.259 3.329-4.162a6.366 6.366 0 0 0 5.036 6.955" fill="#6AC3CA"/><g transform="translate(95.235 7.205)"><mask id="d" fill="#fff"><use xlink:href="#c"/></mask><path d="M2.372 7.199L.41 10.869c.15.033.3.066.457.098a12.49 12.49 0 0 0 1.688.138c4.938-.04 8.928-4.056 8.928-9.01 0-.687-.072-1.348-.216-1.989a5.984 5.984 0 0 1-.105 2.153c-.824 3.5-4.683 5.62-8.79 4.94" fill="#1D2636" mask="url(#d)"/></g><g transform="translate(88.224 .192)"><mask id="f" fill="#fff"><use xlink:href="#e"/></mask><path d="M11.541.328l-2.02 3.697c-4.023-.458-7.634 1.694-8.517 5.123-.294 1.132.007 2.8.229 3.586A9.108 9.108 0 0 1 .475 9.22a10.11 10.11 0 0 1 1.059-4.357A9.028 9.028 0 0 1 11.54.328" fill="#38AAAB" mask="url(#f)"/></g></g></svg>