<svg width="24" height="24" viewBox="0 0 24 24" xmlns="http://www.w3.org/2000/svg"><title>489F4718-8FAC-4173-8FA3-EC29BF0459D7</title><g fill="none" fill-rule="evenodd"><path d="M0 0h24v24H0z"/><path d="M12.816 14.34l8.248-6.244c.378-.287.936-.028.936.434v8.764c0 .627-.53 1.135-1.185 1.135H3.185C2.53 18.429 2 17.92 2 17.294V8.532c0-.463.558-.721.936-.434l8.232 6.242a1.376 1.376 0 0 0 1.648 0zM3.672 6c-.542 0-.775.66-.345.976l8.093 5.947a.97.97 0 0 0 1.14.001l8.11-5.948c.43-.317.197-.976-.345-.976H3.672z" fill="#ACC1C7"/></g></svg>