<svg id="Слой_1" xmlns="http://www.w3.org/2000/svg" viewBox="0 0 50 20"><style>.st0{fill:#d24a43}.st0,.st1,.st2,.st3{fill-rule:evenodd;clip-rule:evenodd}.st1{fill:#f0bc44}.st2{fill:#4d59a1}.st3{fill:#fff}</style><path class="st0" d="M17.1 10c0-5.4 4.3-9.7 9.7-9.7 5.4 0 9.7 4.3 9.7 9.7 0 5.4-4.3 9.7-9.7 9.7-5.3 0-9.7-4.4-9.7-9.7z"/><path class="st1" d="M30.3 10c0-5.4 4.3-9.7 9.7-9.7 5.3 0 9.7 4.3 9.7 9.7 0 5.4-4.3 9.7-9.7 9.7-5.4 0-9.7-4.4-9.7-9.7z"/><path class="st0" d="M35.1 4.9h-5.3v-1h4.6c.2.3.4.6.7 1zM36 7h-6.3V6h5.9c.2.3.3.6.4 1zm.5 2h-6.7V8h6.6c0 .3 0 .7.1 1zm0 2.1h-6.7v-1h6.8c-.1.3-.1.6-.1 1zm-.5 2h-6.3v-1h6.6c-.1.3-.2.7-.3 1zm-1 2.1h-5.3v-1h5.8c-.1.3-.3.7-.5 1zm-1.7 2h-3.5v-1h4.5c-.3.4-.7.7-1 1z"/><path class="st2" d="M22.4 8.6l-1.6 4h-.6l-.8-4-.4 4h-.8l.5-4.8H20l.6 3.6h.1l1.4-3.6h1.2l-.5 4.8H22l.4-4zm3 2.5c-.1.6-.3 1-.8 1-.3 0-.5-.2-.5-.5.1-.5.5-.7 1.2-.7h.1v.2zM23.9 10c.2-.1.6-.3 1-.3.5 0 .6.3.6.7v.1h-.2c-1.1 0-1.9.2-2 1.2-.1.7.4 1 1 1 .5 0 .8-.2 1.1-.5v.5h.8v-.6l.2-1.6c0-1-.2-1.5-1.3-1.5-.5 0-.9.2-1.2.3v.7zm2.6 1.8c.1.1.5.2.9.2.3 0 .6-.1.6-.4 0-.1 0-.3-.3-.5l-.4-.1c-.3-.2-.7-.4-.7-1 .1-.5.6-1 1.3-1 .5 0 .8.1.9.1l-.1.7c-.2-.1-.4-.2-.7-.2-.3 0-.5.1-.5.3 0 .2.1.3.4.5l.4.3c.4.3.6.5.6.9-.1.7-.7 1.1-1.4 1.1-.4 0-.8-.1-1-.2v-.7zm3.2-3.5l.9-.3-.1 1h.7l-.1.6h-.7l-.2 1.9c0 .4.1.5.3.5.2 0 .3 0 .3-.1l-.1.6c-.1.1-.3.1-.6.1-.6 0-1-.3-.9-1l.2-2H29l.1-.6h.6v-.7zm2.3 2.2c0-.5.3-1 .7-1 .4 0 .6.3.5 1H32zm1.7 1.3c-.2.1-.4.3-1 .3-.7 0-.9-.4-.8-1H34v-.2c.2-1.5-.4-1.9-1.2-1.9-.9 0-1.6.8-1.7 1.9-.1 1 .3 1.8 1.5 1.8.5 0 .9-.2 1.1-.2v-.7zm.8-2.2V9h.8v.7c.1-.3.4-.7 1-.7h.1l-.1.8h-.2c-.4 0-.8.2-.8.9l-.2 2h-.9l.3-3.1zm5 2.9c-.2.1-.6.2-1.1.2-1.5 0-2.1-1.1-2-2.5.1-1.4 1-2.5 2.5-2.5.5 0 .9.1 1.1.2l-.1.8c-.2-.1-.4-.3-.9-.3-.7 0-1.4.5-1.6 1.8-.1 1.3.4 1.8 1.2 1.8.4 0 .7-.1.9-.2v.7zm2.3-1.4c-.1.6-.3 1-.8 1-.3 0-.5-.2-.5-.5.1-.5.5-.7 1.2-.7h.1v.2zM40.3 10c.2-.1.6-.3 1-.3.5 0 .6.3.6.7v.1h-.2c-1.1 0-1.9.2-2 1.2-.1.7.4 1 1 1 .5 0 .8-.2 1.1-.5v.5h.8v-.6l.2-1.6c0-1-.2-1.5-1.3-1.5-.5 0-.9.2-1.2.3v.7zm3-.4V9h.8v.7c.1-.3.4-.7.9-.7h.1l-.1.8h-.2c-.4 0-.8.2-.8.9l-.2 2h-.9l.4-3.1zm2.6 1.2c.1-.7.3-1.2.8-1.2s.6.5.5 1.2c-.1.7-.3 1.2-.8 1.2-.5.1-.6-.4-.5-1.2zm1.7-3.4l-.2 2.1c-.2-.2-.4-.5-.9-.5-.8 0-1.3.7-1.4 1.8-.1 1 .2 1.8 1.1 1.8.6 0 .8-.3 1-.6v.6h.8V12l.5-4.6h-.9z"/><path class="st3" d="M22.6 8.4L21 12.5h-.7l-.7-4.1-.4 4.1h-.8l.5-4.9h1.3l.6 3.6 1.4-3.6h1.3l-.5 4.9h-.8l.4-4.1zm3 2.5c-.1.6-.3 1-.8 1-.3 0-.5-.2-.5-.5.1-.5.5-.7 1.2-.7h.1v.2zM24 9.8c.2-.1.6-.3 1-.3.5 0 .6.3.6.7v.1h-.2c-1.1 0-1.9.2-2 1.2-.1.7.4 1 1 1 .5 0 .8-.2 1.1-.5v.5h.8v-.6l.2-1.6c.1-.9-.1-1.4-1.2-1.4-.5 0-.9.2-1.2.3l-.1.6zm2.7 1.8c.1.1.5.2.9.2.3 0 .6-.1.6-.4 0-.1 0-.3-.3-.5l-.3-.2c-.3-.2-.7-.4-.7-1 .1-.5.6-1 1.3-1 .5 0 .8.1.9.1l-.1.7c-.2-.1-.4-.2-.7-.2-.3 0-.5.1-.5.3 0 .2.1.3.4.5l.4.3c.4.3.6.5.6.9-.1.7-.7 1.1-1.4 1.1-.4 0-.8-.1-1-.2l-.1-.6z"/><path class="st3" d="M29.9 8.1l.9-.3-.1 1h.7l-.1.6h-.7l-.2 1.9c0 .4.1.5.3.5.2 0 .3 0 .3-.1v.7c-.1.1-.3.1-.6.1-.6 0-1-.3-.9-1l.2-2h-.6l.1-.6h.6l.1-.8zm2.3 2.3c0-.5.3-1 .7-1 .4 0 .6.3.5 1h-1.2zm1.7 1.2c-.2.1-.4.3-1 .3-.7 0-.9-.4-.8-1h2.1v-.2c.2-1.5-.5-1.9-1.2-1.9-.9 0-1.6.8-1.7 1.9-.1 1 .3 1.8 1.5 1.8.5 0 .9-.2 1.1-.2v-.7zm.8-2.1v-.6h.8v.7c.1-.3.4-.7 1-.7h.1l-.1.8h-.2c-.4 0-.8.2-.8.9l-.2 2h-.9l.3-3.1zm5 2.9c-.2.1-.6.2-1.1.2-1.5 0-2.1-1.1-2-2.5.1-1.4 1-2.5 2.5-2.5.5 0 .9.1 1.1.2l-.2.7c-.2-.1-.4-.3-.9-.3-.7 0-1.4.5-1.6 1.8-.1 1.3.4 1.8 1.2 1.8.4 0 .7-.1.9-.2l.1.8zm2.3-1.5c-.1.6-.3 1-.8 1-.3 0-.5-.2-.5-.5.1-.5.5-.7 1.2-.7h.1v.2zm-1.5-1.1c.2-.1.6-.3 1-.3.5 0 .6.3.6.7v.1h-.2c-1.1 0-1.9.2-2 1.2-.1.7.4 1 1 1 .5 0 .8-.2 1.1-.5v.5h.8v-.6l.2-1.6c.1-.9-.1-1.4-1.2-1.4-.5 0-.9.2-1.2.3l-.1.6zm2.9-.3v-.6h.8v.7c.1-.3.4-.7 1-.7h.1l-.1.8H45c-.4 0-.8.2-.8.9l-.2 2h-.9l.3-3.1zm2.7 1.1c.1-.7.3-1.2.8-1.2s.6.5.5 1.2c-.1.7-.3 1.2-.8 1.2-.5.1-.6-.3-.5-1.2zm1.6-3.3l-.2 2.1c-.1-.3-.3-.6-.9-.6-.8 0-1.3.7-1.4 1.8-.1 1 .2 1.8 1.1 1.8.6 0 .8-.3 1-.6v.6h.8v-.6l.5-4.6h-.9v.1z"/></svg>