<svg xmlns="http://www.w3.org/2000/svg" width="98.3" height="17.3" viewBox="0 0 98.3 17.3"><defs><style>.cls-1{fill:#fff}</style></defs><title>Ресурс 1</title><g id="Слой_2" data-name="Слой 2"><g id="Layer_1" data-name="Layer 1"><g id="layer1"><g id="g16480"><g id="g13802"><path id="path13804" class="cls-1" d="M39.2 16.9l.4-2.8h-.8c-1.1 0-1.3-.6-1.2-1.1l1.1-5.6h1.7l.4-3.2h-1.6l.3-1.9h-3.4c-.1.1-2 10.8-2 12.1a2.5 2.5 0 0 0 2.6 2.8 7.7 7.7 0 0 0 2.5-.3z"/><path id="path13806" class="cls-1" d="M40.3 11.5c0 4.7 3.1 5.8 5.7 5.8a9.6 9.6 0 0 0 3.7-.6l.6-3.2a11.9 11.9 0 0 1-3.7.8c-3.5 0-2.9-2.6-2.9-2.6h6.8a24.4 24.4 0 0 0 .4-3 4.5 4.5 0 0 0-4.8-4.8c-3.4 0-5.8 3.6-5.8 7.6zM46 6.9c1.9 0 1.5 2.1 1.5 2.3h-3.7c.1-.3.5-2.3 2.2-2.3z"/><path id="path13808" class="cls-1" d="M66.9 16.9l.6-3.6a7.9 7.9 0 0 1-2.7.8c-2.3 0-3.3-1.8-3.3-3.7 0-3.9 2-6 4.2-6a5.8 5.8 0 0 1 3 .9l.5-3.5A7.5 7.5 0 0 0 65.9.6c-5.1 0-8.1 3.6-8.1 9.8 0 4.1 2.2 6.9 6.1 6.9a17.6 17.6 0 0 0 3-.4z"/><path id="path13810" class="cls-1" d="M21.1 4a11.5 11.5 0 0 0-4 .7l-.5 2.8a9.9 9.9 0 0 1 3.6-.6c1.2 0 2.1.1 2.1 1.1a2 2 0 0 1-.1.8h-1.4c-3.2 0-5.8 1.2-5.8 4.9s2 3.5 3.2 3.5a4.2 4.2 0 0 0 3.3-1.5V17h2.9l1.3-9.1C25.6 4.1 22.3 4 21.1 4zm.5 7.4c.1.6-.1 3.2-2.1 3.2a1.2 1.2 0 0 1-1.3-1.2c0-.9.5-2 2.9-2z"/><path id="path13812" class="cls-1" d="M28.7 17.2c.7 0 5 .2 5-4.2s-3.9-3.3-3.9-4.9.6-1.1 1.8-1.1h2.2l.4-2.9a13.6 13.6 0 0 0-3-.3c-2.4 0-4.9 1-4.9 4.3s4.1 3.4 4.1 5-1.2 1.1-2 1.1a9.8 9.8 0 0 1-2.9-.5l-.4 2.9c0 .2.9.6 3.6.6z"/><path id="path13814" class="cls-1" d="M94.1 1.4l-.6 4.4a4.3 4.3 0 0 0-3.2-1.7c-3.7 0-5.5 3.6-5.5 7.8 0 2.7 1.3 5.3 4.1 5.3a4.1 4.1 0 0 0 3.1-1.4V17h3.2l2.4-15.7zM92.6 10c0 1.7-.9 4.1-2.6 4.1s-1.7-1-1.7-2.6 1.1-4.2 2.6-4.2 1.7.8 1.7 2.7z"/><path id="path13816" class="cls-1" d="M3.3 17.1l2-11.8.3 11.8h2.3l4.2-11.9-1.9 11.9h3.4l2.6-15.7h-5.4l-3.2 9.5V1.3h-5L0 17.1z"/><path id="path13818" class="cls-1" d="M54 17.1c1-5.4 1.3-9.8 4.1-8.9a20.3 20.3 0 0 1 1.8-4.8s-.1-.2-1-.2-3.4 3-3.4 3l.3-1.9h-3.1l-2.1 12.8z"/><g id="use14699"><path id="path13810-2" data-name="path13810" class="cls-1" d="M73.8 4a11.5 11.5 0 0 0-4 .7l-.5 2.8a9.9 9.9 0 0 1 3.6-.6C74.1 6.9 75 7 75 8a2 2 0 0 1-.1.8h-1.4c-3.2 0-5.8 1.2-5.8 4.9s2 3.5 3.2 3.5a4.2 4.2 0 0 0 3.3-1.5v1.2h2.9l1.3-9.1C78.3 4.1 75 4 73.8 4zm.5 7.4c.1.6-.1 3.2-2.1 3.2a1.2 1.2 0 0 1-1.3-1.2c0-.9.5-2 2.9-2z"/></g><path id="use14701" class="cls-1" d="M81.7 17.1c.5-4 1.5-9.6 4.1-8.9.4-2.1 0-2.1-.8-2.1h-1.8l.3-1.9h-3.1l-2.1 12.9z"/></g><g id="g10289"><path id="path4157" class="cls-1" d="M40 15.9l.4-2.8h-.8c-1.1 0-1.3-.6-1.2-1.1l.9-5.7H41l.4-3.1h-1.6l.3-1.9h-3.3c-.1.1-1.9 10.8-1.9 12.1a2.5 2.5 0 0 0 2.6 2.8 7.7 7.7 0 0 0 2.5-.3z"/><path id="path4155" class="cls-1" d="M41.1 10.5c0 4.7 3.1 5.8 5.7 5.8a9.3 9.3 0 0 0 3.5-.5l.6-3.2a10.1 10.1 0 0 1-3.5.8c-3.5 0-2.9-2.6-2.9-2.6h6.7a24.4 24.4 0 0 0 .4-3c0-2.2-1.1-4.8-4.7-4.8s-5.8 3.5-5.8 7.5zm5.8-4.6c1.9 0 1.5 2.1 1.5 2.3h-3.7c0-.3.4-2.3 2.2-2.3z"/><path id="path4151" class="cls-1" d="M67.7 15.9l.6-3.6a7.9 7.9 0 0 1-2.7.8c-2.3 0-3.3-1.8-3.3-3.7 0-3.9 2-6 4.2-6a5.8 5.8 0 0 1 3 .9L70 .8a11.9 11.9 0 0 0-3.7-.8c-3.8 0-7.5 3.3-7.5 9.5 0 4.1 2 6.8 5.9 6.8a17.6 17.6 0 0 0 3-.4z"/><path id="path4149" class="cls-1" d="M21.9 3a11.5 11.5 0 0 0-4 .7l-.5 2.8a9.9 9.9 0 0 1 3.6-.6c1.2 0 2.1.1 2.1 1.1a2 2 0 0 1-.1.8h-1.4c-2.8.2-5.8 1.4-5.8 5s2 3.5 3.2 3.5a4.6 4.6 0 0 0 3.4-1.5V16h2.9l1.3-9.1C26.5 3.1 23.1 3 21.9 3zm.7 7.4c.1.6-.3 3.2-2.3 3.2a1.2 1.2 0 0 1-1.3-1.2c0-.9.5-2 2.9-2a1.2 1.2 0 0 1 .7 0z"/><path id="path4145" class="cls-1" d="M29.5 16.2c.7 0 5 .2 5-4.2s-3.9-3.3-3.9-4.9.6-1.1 1.8-1.1h2.2l.4-2.8a13.6 13.6 0 0 0-3-.3c-2.4 0-4.9 1-4.9 4.3s4.1 3.4 4.1 5-1.2 1.1-2 1.1a9.8 9.8 0 0 1-2.9-.5l-.5 3a12.1 12.1 0 0 0 3.7.4z"/><path id="path4139" class="cls-1" d="M95 .4l-.7 4.4a4.3 4.3 0 0 0-3.2-1.7c-3 0-5.5 3.6-5.5 7.8 0 2.7 1.3 5.3 4.1 5.3a4.1 4.1 0 0 0 3.1-1.4V16h3.1L98.3.3zM93.5 9c0 1.7-.9 4.1-2.6 4.1s-1.7-1-1.7-2.6 1.1-4.2 2.6-4.2 1.7.8 1.7 2.7z"/><path id="path4133" class="cls-1" d="M4.1 16l2-11.8.3 11.8h2.3l4.2-11.8L11 16h3.4L17 .3h-5.2L8.6 9.9 8.4.4H3.6L.9 16z"/><path id="path4131" class="cls-1" d="M54.8 16.1c1-5.4 1.1-9.9 3.4-9.1a14 14 0 0 1 1.2-3.8h-.6c-1.5 0-2.6 2-2.6 2l.3-1.9h-3.1l-2.1 12.8z"/><g id="use8523"><path id="path4149-2" data-name="path4149" class="cls-1" d="M75.4 3a11.5 11.5 0 0 0-4 .7l-.5 2.8a9.9 9.9 0 0 1 3.6-.6c1.2 0 2.1.1 2.1 1.1a2 2 0 0 1-.1.8h-1.4c-2.8 0-5.8 1.2-5.8 4.9s2 3.5 3.2 3.5a4.6 4.6 0 0 0 3.4-1.5V16h2.9L80 6.8C79.9 3.1 76.6 3 75.4 3zm.7 7.4c.1.6-.3 3.2-2.3 3.2a1.2 1.2 0 0 1-1.3-1.2c0-.9.5-2 2.9-2a1.2 1.2 0 0 1 .7 0z"/></g><g id="use8525"><path id="path4131-2" data-name="path4131" class="cls-1" d="M82.5 16.1c1-5.4 1.1-9.9 3.4-9.1a14 14 0 0 1 1.2-3.8h-.6c-1.5 0-2.6 2-2.6 2l.3-1.9h-3.1L79 16.1z"/></g></g></g></g></g></g></svg>