<svg xmlns="http://www.w3.org/2000/svg" width="26" height="16.1" viewBox="0 0 26 16.1"><defs><style>.cls-1{fill:#fff}</style></defs><title>Ресурс 3</title><g id="Слой_2" data-name="Слой 2"><g id="Слой_1-2" data-name="Слой 1"><g id="elements_logos" data-name="elements/logos"><g id="logos_mc" data-name="logos/mc"><g id="elements_logos_mastercard" data-name="elements/logos/mastercard"><path id="mc_vrt_solid_rev" data-name="mc vrt solid rev" class="cls-1" d="M13 1.7l-.3.3a8 8 0 0 0 0 12.1l.3.3.3-.3a8 8 0 0 0 0-12.1l-.3-.3zM18 0a8 8 0 0 0-4.4 1.3l.2.2a8.6 8.6 0 0 1 0 13.1l-.2.2A8 8 0 1 0 18 0zm-5.7 14.6l.2.2a8 8 0 1 1 0-13.4l-.2.2a8.6 8.6 0 0 0 0 13.1z"/></g></g></g></g></g></svg>