<svg xmlns="http://www.w3.org/2000/svg" viewBox="0 0 39 24"><path d="M19.5 2.6c-.2.1-.3.2-.5.4-2.5 2.2-4.1 5.5-4.1 9.1s1.6 6.9 4.1 9.1c.1.1.3.3.5.4.2-.1.3-.2.5-.4 2.5-2.2 4.1-5.5 4.1-9.1S22.5 5.2 20 3c-.2-.2-.3-.3-.5-.4zM26.9 0c-2.5 0-4.8.7-6.7 2 .1.1.2.2.3.2 2.8 2.5 4.5 6 4.5 9.8s-1.6 7.3-4.5 9.8c-.1.1-.2.2-.3.2 1.9 1.3 4.2 2 6.7 2 6.7.1 12.1-5.3 12.1-11.9C39 5.4 33.6 0 26.9 0zm-8.5 21.8c.1.1.2.2.3.2-1.9 1.3-4.2 2-6.7 2-6.6.1-12-5.3-12-11.9S5.4 0 12.1 0c2.5 0 4.8.7 6.7 2-.1.1-.2.2-.3.2-2.9 2.5-4.5 6.1-4.5 9.9 0 3.7 1.6 7.3 4.4 9.7z"/></svg>