<svg id="Слой_1" xmlns="http://www.w3.org/2000/svg" viewBox="0 0 39 24.1"><style>.st0{fill:none}.st1{fill:#fff}</style><title>logos/mc</title><g id="elements_x2F_logos"><g id="logos_x2F_mc"><path id="Rectangle" class="st0" d="M-5-12h48v48H-5z"/><g id="elements_x2F_logos_x2F_mastercard" transform="translate(5 12)"><path id="mc_vrt_solid_rev" class="st1" d="M14.5-9.4c-.2.1-.3.2-.5.4C11.5-6.8 9.9-3.5 9.9.1S11.5 7 14 9.2c.1.1.3.3.5.4.2-.1.3-.2.5-.4C17.5 7 19.1 3.7 19.1.1S17.5-6.8 15-9c-.2-.2-.3-.3-.5-.4zm7.4-2.6c-2.5 0-4.8.7-6.7 2 .1.1.2.2.3.2C18.3-7.3 20-3.8 20 0s-1.6 7.3-4.5 9.8c-.1.1-.2.2-.3.2 1.9 1.3 4.2 2 6.7 2C28.6 12.1 34 6.7 34 .1 34-6.6 28.6-12 21.9-12zM13.4 9.8c.1.1.2.2.3.2-1.9 1.3-4.2 2-6.7 2C.4 12.1-5 6.7-5 .1S.4-12 7.1-12c2.5 0 4.8.7 6.7 2-.1.1-.2.2-.3.2C10.6-7.3 9-3.7 9 .1c0 3.7 1.6 7.3 4.4 9.7z"/></g></g></g></svg>