<svg id="Слой_1" xmlns="http://www.w3.org/2000/svg" width="48" height="48" viewBox="0 0 48 48"><style>.st0{fill:none}</style><title>logos/mir</title><g id="elements_x2F_logos"><g id="logos_x2F_mir"><path id="Rectangle" class="st0" d="M0 0h48v48H0z"/><g id="mir" transform="translate(5 19)"><g id="_x31_I4Dc1_1_"><g id="Group"><path id="Shape" d="M0 5.5V.3C0 .1.1 0 .3 0h3.1c1.1 0 1.7.4 2 1.4.5 1.5.9 2.9 1.3 4.4 0 .2.1.4.1.6 0 .1 0 .2.2.2.1 0 .1-.1.1-.2.3-.9.5-1.7.8-2.6.2-.8.4-1.5.7-2.3C8.8.8 9.2.3 10 .1h3.7c.2 0 .3 0 .3.3v10.4c0 .2-.1.3-.3.3h-2.9c-.2 0-.3-.1-.3-.3V4.7c0-.1 0-.2-.1-.2s-.2.1-.2.2c-.2.6-.4 1.3-.7 2-.4 1.3-.9 2.7-1.3 4-.1.2-.1.3-.3.2H6c-.2 0-.3-.1-.3-.2-.6-2-1.3-4-1.9-6 0-.1-.1-.2-.1-.2 0-.1-.1-.1-.2-.1s-.1.1-.1.1v6.1c0 .2-.1.3-.3.3H.3c-.2 0-.3-.1-.3-.3V5.5z"/><path id="Shape_1_" d="M26.4 5.5v5.2c0 .2-.1.3-.3.3h-2.8c-.2 0-.3 0-.3-.3V4.4c-.1-.1-.3 0-.4.2-.4.9-.8 1.7-1.2 2.6l-1.2 2.7-.3.6c-.2.3-.5.5-.9.5h-3.1c-.2 0-.3 0-.3-.2V.4c0-.2.1-.2.3-.2h2.9c.2 0 .3.1.3.3v6.2c0 .1.1.1.1.1.1 0 .2-.1.2-.2.2-.4.4-.7.5-1.1.6-1.4 1.3-2.7 1.9-4.1l.3-.6c.2-.5.6-.8 1.1-.8h2.9c.3 0 .3.1.3.3v5.2z"/><path id="Shape_2_" d="M31.8.1h3.7c.8 0 1.6.3 2.2.9 1 .9 1.4 2 1.3 3.3 0 .1 0 .3-.2.3h-6c-.9 0-1.8-.3-2.6-.8-1.3-.8-2.1-1.9-2.4-3.4-.2-.4-.1-.4.1-.4 1.3.1 2.6.1 3.9.1z"/><path id="Shape_3_" d="M33.4 5h5c.3 0 .3 0 .2.3-.7 1.4-1.8 2.1-3.3 2.2h-3.4c-.4 0-.4 0-.4.4v2.8c0 .2 0 .3-.3.3h-2.9c-.2 0-.2 0-.2-.2V5.3c0-.3 0-.3.2-.3h5.1z"/></g></g></g></g></g></svg>