<svg width="234" height="15" viewBox="0 0 234 15" xmlns="http://www.w3.org/2000/svg"><title>B93EF934-EB98-40FD-9F38-3C0E09DD65C2</title><g fill="#B9C8CD" fill-rule="evenodd"><path d="M34.683 6.389c-.09 0-.181-.022-.27.003.089-.026.18-.003.27-.003.119 0 .237-.02.355.005-.118-.025-.236-.004-.355-.005zM.59 6.385c.223-.008.446-.002.669-.002.296 0 .3-.01.34-.308.042-.319.094-.637.145-.955.119-.744.235-1.49.363-2.232.022-.13.005-.276.104-.394.004.42.052.834.06 1.25.013.797.031 1.594.041 2.39.002.182.064.268.26.252.144-.013.292-.01.437 0 .12.006.178-.05.214-.153l.971-2.846c.106-.31.215-.618.322-.927.069.232-.01.45-.043.67-.15 1.022-.317 2.043-.48 3.064-.02.13.017.195.162.19.244-.005.487 0 .731 0 .33 0 .336-.014.386-.34.158-1.043.322-2.085.486-3.127.114-.717.231-1.434.35-2.15.027-.163-.008-.237-.2-.232-.486.013-.974.008-1.461 0-.143-.002-.215.05-.257.182-.275.863-.554 1.725-.833 2.587-.063.197-.134.392-.21.613-.063-.095-.038-.164-.04-.228-.02-.982.026-1.966-.036-2.948-.01-.17-.075-.207-.229-.205-.431.007-.863.01-1.294-.002C1.368.529 1.3.6 1.276.763c-.12.778-.246 1.555-.37 2.333a773.78 773.78 0 0 1-.502 3.083c-.026.157.028.212.186.206z"/><path d="M36.01.538c-.27.001-.542.01-.812-.002-.18-.008-.245.063-.265.233-.047.401-.112.8-.17 1.2-.018.116-.073.122-.152.047-.04-.038-.077-.08-.118-.117-.399-.372-.864-.442-1.366-.264-.499.177-.81.56-1.056 1.004a3.549 3.549 0 0 0-.429 1.45c-.044.552-.012 1.1.265 1.604.147.265.342.489.625.613.525.23 1.014.157 1.46-.202.034-.029.061-.086.12-.06.038.016.033.059.026.09-.048.235.085.268.274.25.09-.008.181-.001.271-.001.119 0 .237-.007.355.002.166.012.252-.037.275-.22.059-.461.138-.92.21-1.38.21-1.36.42-2.719.638-4.077.023-.144-.032-.17-.15-.17zm-1.75 4.069a1.087 1.087 0 0 1-.408.509c-.394.272-.859.034-.92-.465-.015-.13-.002-.261-.002-.392a1.83 1.83 0 0 1 .298-1.175c.278-.412.76-.467 1.033-.13.119.146.148.325.163.502a2.57 2.57 0 0 1-.163 1.15zm-1.668 3.141c-.27.002-.541.02-.811-.013-.107-.013-.136.07-.148.16-.056.413-.115.826-.172 1.24-.007.051.016.12-.052.142-.064.019-.097-.043-.135-.081-.147-.145-.286-.297-.494-.367-.539-.185-1.133.015-1.52.52-.51.666-.71 1.43-.726 2.251a3.12 3.12 0 0 0 .053.697c.075.338.193.66.42.93.415.49 1.134.533 1.706.11.042-.03.072-.104.136-.072.06.03.03.1.026.151-.008.116.038.16.156.157.25-.007.5-.006.751-.001.116.003.163-.052.178-.155.097-.664.198-1.326.294-1.99.108-.744.21-1.489.317-2.233.06-.42.123-.84.185-1.259.02-.126-.016-.188-.164-.187zm-1.6 4.062c-.147.393-.415.614-.726.612-.272-.002-.457-.19-.513-.525-.076-.455-.023-.9.129-1.332a1 1 0 0 1 .216-.372c.172-.177.357-.309.623-.227.263.082.36.3.398.533.07.444.034.886-.126 1.31zM28.74 6.094c.096-.65.204-1.3.288-1.951.06-.455.156-.906.138-1.37a1.257 1.257 0 0 0-1.004-1.206c-.653-.137-1.28-.022-1.905.157-.097.028-.13.081-.144.174-.034.245-.08.487-.117.73-.034.23-.028.239.205.17.465-.135.932-.199 1.416-.122.303.048.446.261.36.548-.027.09-.07.123-.165.106a2.588 2.588 0 0 0-.787.006c-1.116.146-1.732.852-1.648 1.962.069.925.698 1.296 1.585 1.095.276-.062.497-.224.694-.414.07.062.049.122.043.17-.022.182.05.252.235.237.159-.013.32-.003.48-.003.287 0 .284 0 .327-.289zm-.971-1.49a1.43 1.43 0 0 1-.238.521c-.165.214-.442.323-.676.27-.203-.047-.276-.195-.307-.373-.042-.24.099-.516.319-.646.141-.084.36-.13.622-.13.322-.003.361.045.28.358zm-19.66-1.3c-.513-.012-1.017.028-1.471.29-.747.432-.912 1.158-.788 1.945.032.206.136.383.265.551.364.476 1.206.418 1.628.159.122-.075.235-.164.384-.268 0 .084.007.132-.001.178-.029.17.036.238.214.227.208-.013.418-.004.626-.003.121 0 .182-.037.198-.176.053-.442.134-.88.188-1.322.085-.707.26-1.403.234-2.123-.023-.626-.405-1.077-1.023-1.197-.632-.122-1.239-.01-1.845.153-.13.036-.159.122-.177.224-.044.256-.081.513-.123.77-.017.104.011.14.123.108.287-.084.578-.144.876-.167.279-.021.557-.035.819.083.17.077.238.29.17.501-.058.184-.195.07-.297.067zM8.24 4.31c-.036.358-.13.718-.44.944-.27.197-.61.178-.744-.04-.156-.254-.052-.713.207-.868a1.3 1.3 0 0 1 .677-.204h.19c.078 0 .118.09.11.168zm9.336.107c-.255 0-.51.007-.767.003.256.004.512-.003.767-.003.245 0 .49-.013.735-.005-.245-.008-.49.005-.735.005z"/><path d="M15.228 4.898c.094.64.412 1.144 1.037 1.387.687.267 1.39.19 2.088.014.093-.023.131-.103.146-.185.05-.276.1-.552.139-.83.03-.215.004-.225-.201-.147-.521.197-1.049.32-1.598.109a.699.699 0 0 1-.457-.673c0-.128.047-.166.172-.164l.256.004c.255.001.51-.001.766-.001.246 0 .49-.004.736-.002.081 0 .163.002.245.005.141.004.215-.031.246-.176.102-.473.152-.95.075-1.427-.065-.401-.24-.76-.59-1.008-.78-.555-1.908-.344-2.485.468-.565.795-.715 1.682-.575 2.626zm2.07-2.294c.32.028.58.408.49.712-.026.091-.086.11-.171.11-.16-.004-.318-.002-.478-.002h-.498c-.08.001-.132-.017-.13-.113.01-.355.433-.737.786-.707zm9.903 6.358c-.926-.39-1.964-.002-2.434.882a3.484 3.484 0 0 0-.405 1.722c.003.22.001.438.043.656.095.508.277.968.724 1.273.795.546 2.179.3 2.696-.734.203-.405.307-.83.351-1.28.053-.533.046-1.055-.141-1.562-.156-.42-.407-.777-.834-.957zm-.2 1.942c-.004.563-.057 1.024-.339 1.425-.263.374-.758.35-.965-.043-.308-.583-.118-1.693.367-2.15.272-.257.636-.193.81.137.12.229.134.472.126.63zM14.721 8.87c-.25.007-.501.015-.75-.002-.187-.013-.263.058-.288.232-.098.697-.197 1.394-.307 2.09-.051.32-.15.629-.354.891-.15.192-.424.283-.629.213-.178-.062-.27-.234-.272-.51-.003-.427.103-.84.154-1.262.06-.495.148-.988.222-1.481.017-.11-.029-.17-.148-.169-.188.002-.376 0-.564 0-.643.004-.468-.079-.57.529-.113.68-.194 1.367-.285 2.052-.067.507-.068 1.01.107 1.5.129.362.349.66.751.728.496.083.892-.128 1.204-.504.055-.066.088-.154.207-.176-.013.161-.015.31-.04.455-.018.099.013.124.102.123h.855c.079 0 .13-.02.14-.112.023-.238.048-.476.081-.713.12-.846.24-1.692.364-2.538.057-.393.12-.784.18-1.176.02-.125-.03-.174-.16-.17zM3.772 7.79a3.048 3.048 0 0 0-1.814-.081 1.523 1.523 0 0 0-1.017.85 2.248 2.248 0 0 0-.203.772c-.067.692.118 1.294.8 1.676.228.128.468.239.654.436.315.334.202.877-.235 1.027-.476.164-.932.075-1.36-.163-.137-.076-.18-.05-.207.093a16.75 16.75 0 0 1-.19.884c-.028.118-.003.176.115.217.387.136.774.268 1.21.235.082 0 .18.009.276-.002.728-.076 1.302-.38 1.596-1.078.149-.354.182-.73.165-1.11-.026-.595-.259-1.073-.797-1.38a9.294 9.294 0 0 1-.604-.366c-.205-.139-.264-.35-.22-.582.043-.222.199-.343.419-.37.368-.047.733-.061 1.078.12.216.113.226.106.284-.133.063-.26.111-.524.184-.78.042-.145.006-.217-.134-.265zm18.142-2.76c.233.859.965 1.474 1.999 1.442.29.015.58-.06.87-.132.072-.018.148-.042.162-.137.056-.373.117-.745.17-1.118.015-.099-.011-.142-.127-.083a2.61 2.61 0 0 1-.608.213c-.561.128-1.08-.145-1.254-.686-.252-.788-.12-1.54.314-2.227.3-.477.762-.682 1.341-.577.227.041.444.11.648.218.119.062.172.038.192-.101.045-.326.103-.65.156-.975.015-.092-.012-.145-.107-.19-.16-.076-.33-.106-.495-.154-1.009-.296-2.017.007-2.633.845-.817 1.11-.983 2.356-.628 3.663zm-2.541 6.65c-.267 0-.535.011-.803 0 .268.01.536 0 .803 0 .314 0 .626-.006.94.004-.314-.01-.626-.003-.94-.003z"/><path d="M19.178 8.79c-.765-.018-1.267.39-1.61 1.012-.42.763-.516 1.588-.378 2.436.08.494.276.946.734 1.215.706.415 1.449.339 2.193.109.062-.02.097-.073.107-.141.042-.29.078-.583.132-.872.036-.191-.027-.2-.175-.126-.364.183-.753.23-1.154.204-.47-.03-.767-.328-.768-.756 0-.142.052-.197.196-.194l.115.002c.268.003.535 0 .803 0 .313 0 .626-.002.94.001.092.001.161-.01.182-.118.125-.63.208-1.262-.03-1.884a1.393 1.393 0 0 0-1.287-.888zm.37 1.877c-.037.067-.099.079-.161.079h-.917c-.071 0-.118-.029-.115-.116.015-.358.4-.728.75-.719.323.01.593.47.442.756zm-12.185-.401c-.05-.471-.193-.906-.602-1.196-.719-.508-1.721-.313-2.24.432-.59.85-.728 1.796-.554 2.793.084.479.289.9.738 1.163.7.41 1.424.323 2.155.112.072-.02.114-.074.125-.15.043-.284.09-.568.127-.853.008-.057.064-.128.004-.174-.066-.05-.131.014-.193.04-.435.193-.885.269-1.356.152a.697.697 0 0 1-.545-.732c.004-.12.045-.178.171-.175.626.017 1.252-.032 1.877.028.117.01.188-.031.205-.15.046-.318.113-.635.09-.972 0-.098.01-.209-.002-.318zm-1.36.48h-.29c-.153 0-.306-.01-.458-.013-.12-.001-.163-.061-.115-.176.064-.159.121-.323.23-.46a.61.61 0 0 1 .622-.184c.18.053.32.265.328.488.012.335.012.345-.317.345zm28.9.938c-.225 0-.449.003-.673.001h.673c.23 0 .459-.014.688-.006-.229-.008-.459.005-.688.005z"/><path d="M35.365 8.966c-.702-.376-1.585-.148-2.064.527-.614.865-.742 1.831-.557 2.847.082.45.288.853.699 1.102.71.431 1.46.345 2.211.12a.147.147 0 0 0 .102-.122c.046-.304.09-.61.133-.914.02-.146-.04-.17-.167-.106-.35.178-.723.226-1.11.209-.482-.022-.729-.242-.823-.707-.042-.206.047-.244.216-.243h.898c.23 0 .459-.004.688-.001.077 0 .153.002.23.004.14.006.19-.046.22-.175a3.85 3.85 0 0 0 .09-1.288c-.057-.524-.271-.987-.766-1.253zm-.275 1.672c-.023.062-.066.085-.127.085l-.96.001c-.061 0-.107-.013-.113-.088-.025-.327.366-.737.704-.736.358.002.62.393.496.738zm-11.101 1.636a3.04 3.04 0 0 1-.362.156c-.556.206-1.065-.005-1.31-.54a1.645 1.645 0 0 1-.127-.816c-.024-.422.066-.814.21-1.197.223-.6.71-.954 1.282-.925.269.015.513.113.747.238.106.057.167.048.184-.084.025-.21.06-.42.083-.631.06-.52.058-.52-.468-.685-.966-.304-1.925.001-2.49.833-.78 1.148-.89 2.415-.567 3.726.113.458.388.847.816 1.105.609.369 1.24.318 1.886.123.078-.024.104-.073.115-.15.05-.352.107-.703.16-1.055.024-.152-.035-.164-.159-.098zM9.775 6.355c.315.056.632.095.953.077.256-.005.511.01.765-.058.732-.197 1.105-.662 1.13-1.411.014-.484-.095-.915-.5-1.229-.193-.15-.418-.244-.633-.355-.167-.087-.316-.188-.263-.412.043-.18.194-.29.427-.29.277 0 .556-.025.83.037.113.026.179-.004.193-.14.03-.265.07-.53.124-.79.031-.151-.023-.206-.163-.213-.366-.018-.729-.075-1.098-.05-.735.05-1.391.339-1.55 1.219-.11.599.01 1.179.596 1.549.175.11.358.207.542.304.183.096.336.21.286.445-.05.23-.25.274-.44.32-.04.01-.083.004-.125.007-.345.026-.676-.053-1.004-.142-.121-.033-.176-.027-.192.114-.027.238-.078.473-.114.71-.039.258-.031.262.236.308zm.677 2.579a1.9 1.9 0 0 0-2.15.586c-.479.6-.677 1.279-.645 2.033 0 .144-.013.29.002.432.061.58.264 1.103.743 1.466.528.4 1.116.335 1.703.131.094-.033.133-.105.142-.206.025-.266.059-.53.094-.795.01-.073.07-.16.007-.214-.078-.07-.152.024-.222.053-.615.262-1.163-.045-1.263-.691-.033-.21-.013-.41.015-.61.036-.258.09-.517.266-.726.35-.417.736-.486 1.282-.215.154.077.21.043.237-.114.03-.175.075-.348.114-.521.103-.444.104-.447-.325-.609zM14.147.912c.115 0 .23.002.344 0-.114.003-.23 0-.344 0-.146 0-.292.008-.438-.003.146.012.292.003.438.003z"/><path d="M13.337 6.359c.43.206.866.102 1.293-.039.056-.018.074-.077.082-.134.041-.27.085-.54.124-.812.023-.165-.086-.135-.187-.117-.402.072-.574-.109-.504-.508.087-.492.145-.99.24-1.48.105-.545-.039-.464.507-.463.127 0 .19-.032.203-.169.019-.21.055-.42.09-.63.068-.392.07-.396-.333-.391-.147.001-.247-.007-.182-.196.037-.11.05-.227.074-.34.024-.113-.016-.172-.138-.17h-.459c-.146 0-.292.003-.438 0-.118-.004-.182.048-.199.163-.026.17-.054.338-.081.507l-.404 2.555c-.076.48-.177.958-.15 1.45.017.339.146.622.462.774zm7.923-3.354c.127.007.162-.055.19-.164.081-.325.159-.652.299-.961.04-.088.155-.205.077-.277-.094-.085-.252-.048-.377-.01-.078.024-.148.075-.22.116-.186.105-.282.297-.462.493.02-.173.02-.297.052-.414.042-.155-.031-.177-.159-.175-.25.003-.5.01-.75-.003-.146-.007-.199.057-.219.183l-.212 1.338c-.157 1.015-.309 2.03-.475 3.042-.027.162.005.215.167.212.284-.006.57-.007.855 0 .139.005.197-.044.218-.18.072-.494.15-.988.235-1.48.086-.499.157-1.003.39-1.464.08-.16.201-.266.391-.256zm8.13 3.38c.27-.008.542-.011.813.001.168.008.236-.06.26-.218.064-.447.133-.893.208-1.339.08-.473.155-.947.322-1.4.088-.24.209-.438.511-.427.098.004.135-.067.15-.143.078-.392.194-.77.371-1.13.06-.122.004-.157-.116-.163a.713.713 0 0 0-.562.22c-.115.115-.224.235-.359.377-.012-.15.02-.259.045-.369.027-.118-.015-.184-.149-.181-.215.004-.43 0-.647 0-.324 0-.314.002-.361.33-.11.764-.23 1.529-.349 2.293-.101.65-.208 1.298-.313 1.947-.022.135.02.206.175.202zM17.392 8.87c-.081-.084-.212-.05-.317-.021-.078.02-.147.074-.22.112-.201.102-.272.32-.464.459l.068-.358c.023-.127-.02-.195-.164-.192-.23.006-.46.006-.688 0-.12-.003-.175.043-.19.163-.032.237-.08.472-.113.708-.108.745-.21 1.49-.318 2.234-.072.501-.149 1.001-.223 1.502-.014.094.023.141.125.14.292-.002.584-.002.876 0 .102 0 .147-.043.16-.146.051-.407.107-.813.169-1.219.075-.5.144-1.003.295-1.489.074-.24.17-.483.466-.52.145-.019.18-.084.203-.207.06-.317.152-.625.27-.926.03-.078.14-.16.065-.24zm63.32-4.033a2.528 2.528 0 0 0-1.171-.265c-1.122 0-1.796.52-2.07.731l.403-2.356h-1.587l-1.104 6.446h1.587l.602-3.515c.398-.301.883-.557 1.408-.557.274 0 .511.082.666.22.291.255.237.638.162 1.077l-.476 2.775h1.587l.53-3.095c.07-.41.182-1.059-.537-1.46zm4.204-.32c-1.813 0-2.428.804-2.768 1.252l.38.155c.28-.247.787-.694 1.801-.694.453 0 1.113.118 1.315.612.079.195.077.403.057.608h.034l-.25 1.451h-.027l-.093.542c-.336.156-.75.338-1.31.338-.8 0-1.025-.429-.956-.83.102-.594.77-.877 1.475-.877.216 0 .401.024.572.06l.116-.679a4.576 4.576 0 0 0-.982-.102c-1.42 0-2.68.603-2.865 1.68-.144.84.53 1.497 1.771 1.497 1.134 0 1.809-.456 2.107-.666l-.09.53h1.538l.484-2.822c.074-.43.168-1.05-.349-1.516-.299-.273-.922-.538-1.96-.538zm13.918 4.474c-.12 0-.597 0-.813-.41-.092-.156-.131-.347-.064-.74l.365-2.13h1.734l.17-.992h-1.734l.218-1.27h-1.587l-.218 1.27h-1.67l-1.448 2.328-.255.438c-.088-.247-.093-.292-.175-.511l-.83-2.255h-.525l-2.06 2.757c-.044-.228-.059-.283-.106-.493l-.614-2.264h-1.659l1.46 4.71h.584l2.078-2.72 1.144 2.72h.573l2.455-3.718h.878l-.397 2.322c-.071.41-.082.822.303 1.15.405.356 1.032.383 1.319.383.787 0 1.253-.21 1.639-.374l-.141-.292c-.199.046-.374.091-.624.091zm3.279-2.529c-.021.032-.067.13-.12.436a3.52 3.52 0 0 0-.037.277h4.235c.075-.512.212-1.38-.522-2.036-.643-.567-1.587-.63-2.112-.63-2.16 0-3.496 1.113-3.73 2.483-.246 1.433.713 2.593 2.908 2.593 2.1 0 2.754-.959 3.104-1.47l-.37-.146c-.487.41-1.002.84-2.112.84-1.617 0-1.834-.948-1.863-1.436-.007-.019-.034-.116.02-.44.054-.33.125-.458.139-.481.257-.537.6-1.177 1.737-1.177 1.193 0 1.193.767 1.192 1.187h-2.47zM73.87 3.45h-1.587l-.785 4.583c-.07.41-.081.822.304 1.15.404.356 1.032.384 1.318.384.787 0 1.253-.21 1.64-.375l-.142-.292c-.198.046-.373.091-.624.091-.12 0-.596 0-.812-.41-.093-.156-.132-.347-.064-.74l.365-2.13h1.284l.169-.986h-1.284l.218-1.275zM63.522.273c-3.35 0-6.066 2.683-6.066 5.993 0 3.31 2.716 5.993 6.066 5.993 3.35 0 6.066-2.683 6.066-5.993 0-3.31-2.715-5.993-6.066-5.993zm0 10.795c-2.684 0-4.86-2.15-4.86-4.802 0-2.652 2.175-4.802 4.86-4.802 2.685 0 4.861 2.15 4.861 4.802 0 2.652-2.176 4.802-4.86 4.802zm.587-7.726h-1.587l-.785 4.583c-.07.411-.082.822.304 1.15.404.357 1.032.384 1.318.384.788 0 1.253-.21 1.64-.374l-.142-.292c-.198.045-.373.091-.624.091-.119 0-.596 0-.812-.41-.093-.156-.132-.348-.064-.74l.365-2.13h1.284l.169-.986H63.89l.218-1.276zm42.894.545h-.399v1.017h-.33V3.887h-.398v-.244h1.126v.244zm1.536 1.017h-.33v-.845l-.236.548h-.226l-.235-.548v.845h-.311V3.643h.383l.286.633.284-.633h.385v1.26zm1.801 5.595h-.3v.762h-.247V10.5h-.298v-.184h.845v.184zm1.278.762h-.248v-.634l-.176.412h-.17l-.176-.412v.634h-.233v-.946h.287l.215.475.213-.475h.288v.946zm-24.293-.478c-.14 0-.266.094-.28.205a.169.169 0 0 0 .056.148.25.25 0 0 0 .172.061c.138 0 .262-.094.276-.209.014-.11-.089-.205-.224-.205zm-.475 2.023h.45l.177-1.425h-.45l-.177 1.425zm1.57-1.812h-.449l-.048.387h-.274l-.028.223h.274l-.098.787c-.015.125-.014.25.099.35.118.11.296.118.377.118.224 0 .353-.064.46-.114l-.042-.09a.618.618 0 0 1-.176.028c-.034 0-.17 0-.235-.125-.028-.047-.04-.105-.026-.225l.09-.73h.396l.028-.222h-.396l.049-.387zm.71-.153l-.29.787.132.026.65-.813h-.491zm.865.693c.341 0 .408.145.432.195l.122-.028a.332.332 0 0 0-.107-.225c-.097-.092-.265-.156-.495-.156-.504 0-.758.25-.786.478-.032.26.218.34.283.36.075.024.15.038.227.053.215.038.322.075.36.167a.17.17 0 0 1 .01.069c-.002.008-.018.14-.213.19a.632.632 0 0 1-.172.019c-.19 0-.345-.053-.43-.131-.042-.04-.058-.078-.074-.114l-.12.022c.001.067.008.17.112.268.066.06.226.164.564.164.497 0 .766-.232.796-.48a.344.344 0 0 0-.098-.294c-.088-.084-.216-.114-.308-.134a4.146 4.146 0 0 0-.188-.036c-.148-.034-.3-.07-.283-.198.01-.092.121-.189.368-.189zm4.638-.54h-.45l-.048.387h-.274l-.027.223h.274l-.099.787c-.015.125-.014.25.099.35.118.11.296.118.378.118.223 0 .352-.064.46-.114l-.043-.09a.618.618 0 0 1-.176.028c-.033 0-.169 0-.235-.125-.028-.047-.04-.105-.025-.225l.09-.73h.396l.027-.222h-.395l.048-.387zm1.013.565l.022-.178h-.452l-.178 1.425h.453l.137-1.105a.733.733 0 0 1 .357-.097c.126 0 .21.033.29.066l.04-.323a.983.983 0 0 0-.128-.008.729.729 0 0 0-.54.22zm1.784.907a.585.585 0 0 1-.375.16c-.223 0-.295-.13-.272-.315l.116-.93h-.453l-.122.982c-.016.128-.061.487.524.487a.767.767 0 0 0 .562-.22l-.022.176h.453l.177-1.425h-.453l-.135 1.085zm1.643-.932c.341 0 .408.145.432.195l.122-.028a.329.329 0 0 0-.107-.225c-.097-.092-.265-.156-.495-.156-.504 0-.758.25-.786.478-.032.26.218.34.283.36.075.024.15.038.227.053.215.038.322.075.361.167a.168.168 0 0 1 .008.069c0 .008-.017.14-.213.19a.627.627 0 0 1-.17.019c-.19 0-.346-.053-.431-.131-.042-.04-.058-.078-.074-.114l-.121.022c.002.067.01.17.112.268.067.06.227.164.565.164.497 0 .766-.232.797-.48a.344.344 0 0 0-.1-.294c-.087-.084-.215-.114-.307-.134a4.146 4.146 0 0 0-.188-.036c-.148-.034-.3-.07-.284-.198.012-.092.122-.189.37-.189zm1.475-.54h-.45l-.048.387h-.273l-.028.223h.274l-.098.787c-.015.125-.014.25.098.35.119.11.297.118.378.118.223 0 .353-.064.46-.114l-.042-.09a.624.624 0 0 1-.176.028c-.034 0-.17 0-.235-.125-.028-.047-.041-.105-.026-.225l.09-.73h.396l.028-.222h-.396l.048-.387zm1.946 0h-.45l-.048.387h-.274l-.027.223h.273l-.097.787c-.016.125-.014.25.098.35.119.11.297.118.378.118.223 0 .352-.064.46-.114l-.043-.09a.618.618 0 0 1-.176.028c-.033 0-.169 0-.234-.125-.028-.047-.041-.105-.026-.225l.09-.73h.396l.027-.222h-.395l.048-.387zm1.924.423a.693.693 0 0 0-.335-.08c-.318 0-.503.158-.58.222l.09-.718h-.45l-.244 1.965h.45l.133-1.071c.11-.092.244-.17.393-.17.078 0 .146.025.191.066.085.078.074.195.057.328l-.105.847h.45l.117-.944c.016-.125.04-.322-.167-.445zm.889-.634c-.14 0-.266.094-.28.205a.17.17 0 0 0 .057.148c.042.04.104.061.171.061.139 0 .262-.094.276-.209.014-.11-.09-.205-.224-.205zm-.475 2.023h.45l.177-1.425h-.45l-.177 1.425zm2.008-1.467c-.328 0-.495.145-.593.229l.023-.187h-.45l-.177 1.425h.45l.132-1.06c.086-.073.21-.176.397-.176.162 0 .236.086.253.167a.415.415 0 0 1 0 .145l-.116.924h.453l.12-.963c.015-.12.022-.262-.093-.373-.081-.078-.22-.13-.399-.13zm2.114.042l-.02.153c-.062-.073-.18-.214-.493-.214a.82.82 0 0 0-.838.729c-.058.465.28.701.622.701a.904.904 0 0 0 .493-.15.756.756 0 0 0 .093-.075c-.018.173-.041.362-.224.498a.688.688 0 0 1-.421.128.597.597 0 0 1-.406-.136c-.03-.03-.056-.067-.097-.123l-.113.042c.012.067.03.17.13.262.112.102.326.175.594.175.28 0 .544-.078.7-.194.223-.168.255-.393.281-.577l.151-1.22h-.452zm-.123.982a.62.62 0 0 1-.398.162c-.21 0-.39-.156-.35-.476.04-.323.235-.507.485-.507.207 0 .284.11.342.19l-.079.631zm-16.6-1.043c-.514 0-.68.244-.771.381l.109.047c.077-.075.216-.211.503-.211.129 0 .317.036.38.186.028.07.025.145.02.217-.131-.033-.236-.06-.402-.06-.403 0-.753.183-.794.511-.032.256.167.457.518.457a.909.909 0 0 0 .59-.203l-.02.16h.436l.107-.86c.016-.13.036-.32-.115-.461-.088-.084-.267-.164-.56-.164zm.17 1.196a.776.776 0 0 1-.369.104c-.226 0-.295-.131-.28-.253.023-.182.21-.268.41-.268a.84.84 0 0 1 .283.053l-.045.364zm63.212-5.84c.126.079.306.14.499.14.288 0 .455-.147.455-.366 0-.199-.115-.316-.409-.425-.355-.127-.574-.312-.574-.612 0-.334.28-.583.702-.583.22 0 .384.05.479.105l-.078.226a.802.802 0 0 0-.409-.101c-.297 0-.41.175-.41.321 0 .2.132.3.433.415.367.144.55.315.55.631 0 .331-.244.622-.758.622-.21 0-.438-.064-.554-.14l.074-.233m2.626-.586c.003-.176-.074-.457-.39-.457-.29 0-.415.261-.435.456h.825zm-.83.2c.007.38.248.535.532.535.204 0 .33-.034.435-.077l.05.198c-.1.045-.274.1-.522.1-.478 0-.769-.316-.769-.778 0-.469.281-.836.737-.836.509 0 .642.443.642.727a.745.745 0 0 1-.01.134l-1.094-.003zm2.569.67c-.075.034-.24.089-.448.089-.472 0-.779-.316-.779-.791 0-.475.33-.823.84-.823.168 0 .316.042.392.083l-.064.214a.686.686 0 0 0-.328-.074c-.358 0-.553.265-.553.587 0 .357.234.578.544.578.16 0 .267-.04.347-.075l.05.212m1.637-.368c0 .16.005.3.014.421h-.253l-.014-.251h-.007a.586.586 0 0 1-.517.287c-.245 0-.539-.138-.539-.677V5.47h.284v.851c0 .294.094.495.349.495a.41.41 0 0 0 .375-.26.378.378 0 0 0 .026-.142V5.47h.282v1.122m.476-.641c0-.181-.003-.337-.013-.481h.248l.013.304h.01c.071-.207.245-.339.435-.339a.32.32 0 0 1 .078.01v.262a.747.747 0 0 0-.1-.007c-.2 0-.342.15-.38.357a.799.799 0 0 0-.01.134v.822h-.284l.003-1.062m1.346 1.062h-.282V5.471h.282v1.542zm-.147-1.826a.176.176 0 0 1-.178-.182c0-.1.075-.179.184-.179.11 0 .18.08.18.179 0 .099-.07.182-.182.182h-.004zm.962-.086v.37h.406v.213h-.406v.833c0 .19.056.3.213.3a.532.532 0 0 0 .165-.02l.012.214a.783.783 0 0 1-.252.038.404.404 0 0 1-.305-.118c-.078-.086-.11-.223-.11-.406v-.84h-.242V5.47h.241v-.284l.278-.086m.857.37l.34.912c.04.102.077.224.103.316h.007c.028-.092.061-.21.099-.322l.31-.906h.3l-.426 1.1c-.203.53-.342.8-.535.97a.805.805 0 0 1-.349.178l-.07-.236a.642.642 0 0 0 .248-.137.89.89 0 0 0 .239-.313c.012-.028.022-.047.022-.066a.154.154 0 0 0-.022-.07L164.8 5.47h.31m-9.497 4.393c.126.08.306.14.499.14.288 0 .455-.146.455-.367 0-.197-.115-.314-.409-.423-.355-.127-.574-.312-.574-.613 0-.334.28-.582.702-.582.22 0 .384.05.479.105l-.078.226a.807.807 0 0 0-.409-.101c-.297 0-.41.174-.41.32 0 .202.132.3.433.415.367.144.55.316.55.632 0 .332-.244.621-.758.621-.21 0-.438-.063-.554-.14l.074-.233m1.946-1.574v.37h.406v.213h-.406v.832c0 .192.055.3.213.3a.524.524 0 0 0 .165-.02l.013.214a.757.757 0 0 1-.252.039.408.408 0 0 1-.307-.118c-.077-.085-.11-.223-.11-.405v-.842h-.242v-.214h.242v-.283l.278-.086m1.549 1.126c-.31-.007-.662.048-.662.347 0 .185.123.267.264.267.207 0 .34-.127.385-.258a.276.276 0 0 0 .013-.09v-.266zm.277.417c0 .134.007.264.022.37h-.254l-.027-.194h-.009a.58.58 0 0 1-.478.228c-.315 0-.477-.22-.477-.442 0-.373.335-.577.939-.574v-.032c0-.127-.036-.36-.355-.357-.148 0-.3.041-.41.115l-.065-.19c.13-.079.32-.132.517-.132.481 0 .597.322.597.63v.578zm.455-.756a4.78 4.78 0 0 0-.013-.417h.252l.017.252h.005a.579.579 0 0 1 .516-.287c.217 0 .552.127.552.656v.922h-.283v-.89c0-.248-.095-.459-.362-.459a.41.41 0 0 0-.4.418v.93h-.284V9.077m2.856.209a.474.474 0 0 0-.014-.12.417.417 0 0 0-.41-.323c-.294 0-.468.256-.468.594 0 .315.159.573.463.573.19 0 .364-.127.415-.334a.45.45 0 0 0 .014-.122v-.268zm.284-1.349v1.866c0 .138.002.293.012.398h-.255l-.013-.267h-.007a.57.57 0 0 1-.528.302c-.378 0-.671-.315-.671-.784-.004-.516.323-.828.7-.828.24 0 .403.11.47.233h.008v-.92h.284zm1.294 1.478c-.31-.007-.662.048-.662.347 0 .185.123.267.265.267a.395.395 0 0 0 .384-.258.312.312 0 0 0 .013-.09v-.266zm.277.417c0 .134.006.264.023.37h-.255l-.026-.194h-.01a.586.586 0 0 1-.477.228c-.317 0-.478-.22-.478-.442 0-.373.335-.577.939-.574v-.032c0-.127-.036-.36-.355-.357-.148 0-.3.041-.41.115l-.065-.19c.13-.079.321-.132.517-.132.481 0 .597.322.597.63v.578zm.459-.692c0-.182-.005-.338-.013-.482h.248l.012.304h.01c.071-.208.245-.338.436-.338.028 0 .052.002.078.008v.263a.75.75 0 0 0-.101-.007c-.199 0-.342.15-.38.357a.855.855 0 0 0-.01.134v.823h-.285l.004-1.062m2.098.146a.42.42 0 0 0-.422-.443c-.295 0-.468.256-.468.594 0 .315.157.573.46.573a.43.43 0 0 0 .43-.456v-.268zm.283-1.349v1.866c0 .138.004.293.014.398h-.255l-.013-.267h-.006a.574.574 0 0 1-.53.302c-.378 0-.67-.315-.67-.784-.004-.516.322-.828.699-.828.242 0 .404.11.472.233h.006v-.92h.283zm.434 1.981a.8.8 0 0 0 .376.108c.204 0 .3-.099.3-.229 0-.134-.08-.208-.286-.284-.284-.102-.417-.252-.417-.437 0-.248.208-.452.539-.452.158 0 .297.04.382.095l-.068.202a.639.639 0 0 0-.32-.09c-.167 0-.259.096-.259.21 0 .13.092.188.294.264.268.1.41.234.41.466 0 .274-.215.465-.58.465a.904.904 0 0 1-.44-.108l.069-.21m3.526.217c-.1.051-.31.101-.574.101-.613 0-1.071-.382-1.071-1.09 0-.676.461-1.128 1.135-1.128.268 0 .441.057.516.096l-.07.226a1.003 1.003 0 0 0-.435-.09c-.51 0-.85.322-.85.887 0 .53.306.864.832.864.175 0 .349-.035.464-.09l.053.224m.949-.109c.271 0 .475-.251.475-.602 0-.261-.133-.59-.469-.59-.333 0-.478.306-.478.6 0 .337.195.592.469.592h.003zm-.01.21c-.42 0-.748-.306-.748-.793 0-.516.345-.819.774-.819.448 0 .75.322.75.791 0 .573-.402.821-.772.821h-.003zm2.443-.455c0 .16.003.3.012.42h-.25l-.017-.252h-.006a.587.587 0 0 1-.518.287c-.244 0-.538-.136-.538-.676v-.902h.284v.851c0 .294.093.495.35.495a.41.41 0 0 0 .373-.258.369.369 0 0 0 .025-.143v-.945h.285v1.123m.471-.705c0-.163-.003-.289-.013-.417h.25l.018.252h.007a.578.578 0 0 1 .516-.287c.216 0 .551.127.551.656v.922h-.283v-.89c0-.248-.094-.459-.363-.459a.41.41 0 0 0-.399.418v.93h-.284V9.077m2.904 1.071a1.111 1.111 0 0 1-.448.089c-.471 0-.778-.315-.778-.79 0-.475.328-.823.84-.823a.89.89 0 0 1 .392.082l-.064.215a.696.696 0 0 0-.327-.074c-.36 0-.554.265-.554.587 0 .356.232.577.543.577a.824.824 0 0 0 .348-.074l.048.21m.615.054h-.283V8.658h.283V10.2zm-.147-1.826c-.107 0-.177-.083-.177-.182 0-.1.074-.18.183-.18.11 0 .18.08.18.18 0 .099-.07.182-.184.182h-.002zm.619 1.826h.35V7.937h-.35zM154.17 9.176l-16.7 5.188-4.872-13.09L150.13.301l4.04 8.875zm-5.667 1.073h2.181v-5.62h-2.181v5.62zm-1.594-.004a6.166 6.166 0 0 1-1.135.094c-.6 0-1.136-.068-1.608-.204a3.565 3.565 0 0 1-1.196-.578 2.482 2.482 0 0 1-.745-.911 2.764 2.764 0 0 1-.255-1.199 2.59 2.59 0 0 1 1.039-2.109c.33-.255.724-.452 1.18-.591a5.186 5.186 0 0 1 1.507-.208c.423 0 .815.012 1.158.086.345.074.352.084.626.182l-.004 1.508a3.577 3.577 0 0 0-.722-.297 3.033 3.033 0 0 0-.857-.119c-.49 0-.888.134-1.197.4-.307.266-.461.646-.461 1.14a1.39 1.39 0 0 0 .534 1.152c.163.129.354.225.573.29.22.065.454.098.707.098.26 0 .514-.027.762-.082.248-.054.513-.133.795-.236l.004 1.408c-.344.1-.372.113-.705.176zm4.01-7.376c0 .378-.128.675-.381.89-.254.216-.568.324-.941.324-.374 0-.688-.108-.942-.323-.254-.216-.38-.513-.38-.891 0-.387.126-.688.38-.903.254-.216.568-.324.942-.324.373 0 .687.108.941.324.253.215.38.516.38.903zm-9.376 3.683c0 .331-.074.622-.224.875a1.824 1.824 0 0 1-.627.63c-.27.17-.593.296-.973.38-.38.084-.8.126-1.262.126h-.34v1.686h-2.17v-5.62h2.543c.95 0 1.698.16 2.24.477.542.317.813.8.813 1.446zm-2.085.023c0-.487-.365-.732-1.096-.732h-.266V7.35h.245c.361 0 .638-.063.83-.188.192-.125.287-.32.287-.587zm74.499 1.578l-1.638 4.366-.175-.887c-.408-1.088-1.292-2.23-2.32-2.692l1.498 5.607h1.773l2.635-6.394h-1.773m1.405 6.401l1.048-6.407h1.674l-1.048 6.407h-1.674m7.748-6.249a4.18 4.18 0 0 0-1.5-.27c-1.657 0-2.82.87-2.83 2.114-.012.921.831 1.436 1.465 1.742.653.313.872.514.87.794-.007.43-.523.625-1.004.625-.669 0-1.025-.096-1.574-.335l-.218-.102-.234 1.434c.392.179 1.115.333 1.867.341 1.757 0 2.9-.86 2.914-2.188.007-.73-.44-1.284-1.407-1.74-.583-.298-.944-.495-.939-.796 0-.265.303-.55.96-.55.548-.01.942.115 1.252.246l.15.073.227-1.388m4.295-.152h-1.294c-.4 0-.701.113-.879.532l-2.485 5.87h1.759s.287-.79.352-.963l2.144.004c.051.224.203.96.203.96h1.555l-1.355-6.403zm-2.065 4.129c.139-.368.667-1.791.667-1.791-.01.017.137-.37.222-.61l.112.552.389 1.849h-1.39z"/><path d="M210.799 8.15h-2.7l-.016.11c2.099.53 3.484 1.833 4.061 3.374l-.587-2.945c-.1-.405-.395-.525-.758-.54m-7.765-1.548h-1.068l-1.232-5.485 1.18-.195.843 4.293 2.146-4.236h1.134L203.034 6.6m5.552-1.792h-2.546c-.07.763.289 1.096.897 1.096.509 0 .957-.187 1.439-.487l-.004.762a3.097 3.097 0 0 1-1.66.48c-1.108 0-1.84-.626-1.62-2.038.198-1.274 1.09-2.044 2.125-2.044 1.19 0 1.587.884 1.414 1.996-.013.08-.036.178-.045.235zm-1.499-1.558c-.394 0-.762.308-.936.95h1.577c.029-.61-.164-.95-.64-.95zm3.158 1.08l-.35 2.247h-.985l.61-3.92h.838v.788c.334-.455.788-.836 1.409-.868l.005.965a2.196 2.196 0 0 0-1.527.787m1.515 2.248l.61-3.92h.985l-.61 3.92h-.986zM212.972 2c-.328 0-.555-.227-.505-.551a.686.686 0 0 1 .68-.569c.32 0 .546.236.494.569-.05.324-.348.551-.669.551zm3.113-.414c-.337 0-.54.146-.595.496l-.09.576h.756v.795h-.88l-.486 3.124h-.977l.486-3.124h-.574l.123-.795h.575l.105-.674c.135-.868.744-1.193 1.557-1.193.173 0 .302.017.398.033l.007.795a2.529 2.529 0 0 0-.405-.033m.011 4.991l.61-3.92h.986l-.61 3.92h-.986zM217.31 2c-.329 0-.556-.227-.506-.551a.686.686 0 0 1 .68-.569c.32 0 .547.236.495.569-.05.324-.35.551-.67.551zm4.203 2.808h-2.546c-.07.763.289 1.096.897 1.096.509 0 .957-.187 1.439-.487l-.004.762a3.097 3.097 0 0 1-1.66.48c-1.108 0-1.84-.626-1.62-2.038.198-1.274 1.09-2.044 2.125-2.044 1.19 0 1.587.884 1.414 1.996-.013.08-.036.178-.045.235zm-1.499-1.558c-.394 0-.762.308-.936.95h1.577c.029-.61-.165-.95-.64-.95zm4.418 3.327l.002-.544c-.33.333-.762.625-1.312.625-.83 0-1.4-.608-1.194-1.931.227-1.46 1.141-2.11 2.061-2.11.378 0 .672.065.897.146l.295-1.89 1.01-.155-.913 5.86h-.846zm.33-3.01a1.461 1.461 0 0 0-.746-.171c-.518 0-.96.414-1.094 1.274-.119.763.154 1.12.59 1.12.36 0 .673-.21.986-.536l.263-1.688zm3.535 3.047a3.54 3.54 0 0 1-1.2-.197l.647-4.161.765-.117-.28 1.801c.223-.197.534-.393.913-.393.635 0 1.06.467.904 1.463-.17 1.094-.853 1.604-1.749 1.604zm.55-2.416c-.248 0-.498.166-.72.388l-.209 1.346c.147.055.25.08.46.08.473 0 .804-.283.909-.96.089-.571-.103-.854-.44-.854zm2.958 2.539c-.381.731-.759.959-1.337.959a.928.928 0 0 1-.27-.03l-.004-.61c.096.025.198.044.342.044a.595.595 0 0 0 .534-.314l.099-.197-.633-2.925.793-.099.367 2.115.995-2.072h.74l-1.626 3.129"/></g></svg>