<svg width="24" height="24" viewBox="0 0 24 24" xmlns="http://www.w3.org/2000/svg"><title>6C3E89C0-C610-40CA-8157-996CB0EF0BC6</title><g fill="none" fill-rule="evenodd"><path d="M0 0h24v24H0z"/><path d="M8.216 15.784c4.671 4.67 8.854 6.075 9.436 6.158.582.083 1.535.27 2.919-1.113 1.62-1.62 1.783-2.47.891-3.362-.891-.891-3.106-2.24-3.708-2.588-.603-.348-1.114-.236-1.548.067-.434.302-.935.687-1.4 1.023-.463.336-1.043.478-1.665.084a16.926 16.926 0 0 1-2.868-2.326 16.853 16.853 0 0 1-2.326-2.868c-.394-.622-.252-1.202.084-1.666.336-.464.72-.965 1.023-1.399.303-.434.414-.945.067-1.548-.348-.602-1.697-2.817-2.588-3.708-.892-.892-1.743-.728-3.362.891-1.384 1.384-1.196 2.337-1.114 2.919.084.582 1.488 4.765 6.16 9.436" fill="#ACC1C7"/></g></svg>