<svg width="59" height="20" viewBox="0 0 59 20" xmlns="http://www.w3.org/2000/svg"><title>213F9238-B418-4BD8-97E0-F87152869BBE</title><g fill="#FFF" fill-rule="evenodd"><path d="M16.768.61l-4.636 12.714-.494-2.583c-1.155-3.168-3.654-6.49-6.565-7.837l4.24 16.325 5.014-.003L21.783.611h-5.015m3.973 18.636L23.705.593h4.736l-2.966 18.654h-4.734M42.657 1.053c-.936-.376-2.412-.785-4.244-.785-4.685 0-7.977 2.532-8.005 6.155-.03 2.683 2.353 4.18 4.145 5.07 1.85.913 2.467 1.498 2.461 2.315-.018 1.25-1.48 1.819-2.838 1.819-1.893 0-2.902-.281-4.454-.975l-.615-.297-.663 4.174c1.108.52 3.154.97 5.28.994 4.972 0 8.207-2.504 8.246-6.37.02-2.129-1.246-3.74-3.98-5.07-1.652-.864-2.673-1.438-2.658-2.314.002-.774.857-1.604 2.714-1.604a8.16 8.16 0 0 1 3.545.718l.422.213.644-4.043M54.804.612h-3.658c-1.135 0-1.985.329-2.486 1.548l-7.03 17.093h4.974s.813-2.3.997-2.805c.543 0 5.374.011 6.064.011.146.65.576 2.794.576 2.794h4.399L54.804.613zm-5.84 12.02c.393-1.07 1.887-5.213 1.887-5.213-.03.05.388-1.08.63-1.778l.315 1.608 1.1 5.384h-3.932z"/><path d="M7.832.601H.193L.148.923c5.94 1.544 9.858 5.337 11.49 9.823l-1.66-8.573C9.692.993 8.86.643 7.832.6"/></g></svg>