<svg xmlns="http://www.w3.org/2000/svg" width="58.5" height="18" viewBox="0 0 58.5 18"><defs><style>.cls-1{fill:#45619d}.cls-2{fill:#e59d44}</style></defs><title>Ресурс 1</title><g id="Слой_2" data-name="Слой 2"><g id="Слой_1-2" data-name="Слой 1"><path class="cls-1" d="M20.6 17.7l3-17.4h4.7l-2.9 17.4h-4.8zm22-17a12.2 12.2 0 0 0-4.3-.7c-4.7 0-8 2.4-8 5.7s2.4 3.9 4.2 4.7 2.5 1.4 2.5 2.2-1.5 1.7-2.8 1.7a9.9 9.9 0 0 1-4.5-.9l-.6-.3-.8 3.9a15 15 0 0 0 5.3.9c5 0 8.2-2.3 8.3-5.9 0-2-1.2-3.5-4-4.7S35.2 6 35.2 5.1s.9-1.5 2.7-1.5a8.7 8.7 0 0 1 3.5.7l.4.2.8-3.8zM54.7.3H51a2.4 2.4 0 0 0-2.5 1.4l-7 15.9h5l1-2.6h6.1l.6 2.6h4.4L54.7.3zm-5.8 11.2l1.9-4.9.6-1.6.3 1.5 1.1 5zM16.7.3L12 12.2l-.5-2.4a13.6 13.6 0 0 0-6.6-7.3l4.3 15.2h5L21.7.3z"/><path class="cls-2" d="M7.7.3H.1v.4c5.8 1.4 9.8 4.9 11.4 9.1l-1.7-8A2 2 0 0 0 7.7.3z"/></g></g></svg>