<svg id="Слой_1" xmlns="http://www.w3.org/2000/svg" width="48" height="48" viewBox="0 0 48 48"><style>.st0{fill:none}.st1{fill:#fff}</style><title>logos/visa</title><g id="elements_x2F_logos"><g id="logos_x2F_visa"><path id="Rectangle" class="st0" d="M0 0h48v48H0z"/><g id="VbyV_en_2c" transform="translate(5 18)"><path id="Fill-1" class="st1" d="M10.8.4l-3 8.3L7.5 7c-.7-2.1-2.4-4.2-4.2-5.1L6 12.5h3.2L14 .4h-3.2"/><path id="Fill-2" class="st1" d="M13.4 12.5L15.3.4h3l-1.9 12.1h-3"/><path id="Fill-3" class="st1" d="M27.5.7c-.6-.2-1.6-.5-2.7-.5-3 0-5.1 1.6-5.2 4 0 1.7 1.5 2.7 2.7 3.3 1.2.6 1.6 1 1.6 1.5 0 .8-1 1.2-1.8 1.2-1.2 0-1.9-.2-2.9-.6l-.4-.2-.5 2.6c.7.3 2 .6 3.4.6 3.2 0 5.3-1.6 5.3-4.1 0-1.4-.8-2.4-2.6-3.3-1.1-.6-1.7-.9-1.7-1.5 0-.5.6-1 1.7-1 1 0 1.7.2 2.3.5l.3.1.5-2.6"/><path id="Fill-4" class="st1" d="M35.3.4h-2.4c-.7 0-1.3.2-1.6 1l-4.5 11.1H30l.6-1.8h3.9c.1.4.4 1.8.4 1.8h2.8L35.3.4zm-3.8 7.8c.3-.7 1.2-3.4 1.2-3.4s.3-.7.4-1.2l.2 1s.6 2.9.7 3.5h-2.5v.1z"/><path id="Fill-5" class="st1" d="M5 .4H.1v.2c3.8 1 6.3 3.5 7.4 6.4L6.4 1.4C6.2.6 5.7.4 5 .4"/></g></g></g></svg>