<svg width="48" height="48" viewBox="0 0 48 48" xmlns="http://www.w3.org/2000/svg"><title>F562706E-9FC8-4EED-95F1-F4B9B821CF8C</title><path d="M24 11c1.677 0 2.204 1.196 2.645 2.393.187.506 4.543 12.38 4.673 12.736.037.098.013.262-.141.32-.154.059-2.418.935-2.543.982a.246.246 0 0 1-.312-.146c-.047-.123-.985-2.711-1.091-3.001h-6.455l-1.098 3c-.043.12-.179.2-.311.147-.133-.053-2.407-.93-2.541-.981a.25.25 0 0 1-.144-.321c.16-.446 4.45-12.129 4.67-12.736C21.776 12.215 22.323 11 24 11zm.315 3.947L22 21.527h4.667l-2.323-6.58h-.029zm-8.068 17.764a.249.249 0 0 0-.247.25v2.788c0 .14.11.251.247.251h15.507a.247.247 0 0 0 .246-.25V32.96c0-.138-.11-.25-.246-.25H16.247z" fill="#ED3523" fill-rule="evenodd"/></svg>