<?xml version="1.0" encoding="utf-8"?>
<!-- Generator: Adobe Illustrator 17.1.0, SVG Export Plug-In . SVG Version: 6.00 Build 0)  -->
<!DOCTYPE svg PUBLIC "-//W3C//DTD SVG 1.1//EN" "http://www.w3.org/Graphics/SVG/1.1/DTD/svg11.dtd">
<svg version="1.1" id="Слой_1" xmlns="http://www.w3.org/2000/svg" xmlns:xlink="http://www.w3.org/1999/xlink" x="0px" y="0px"
	 viewBox="12 5 24 38" enable-background="new 12 5 24 38" xml:space="preserve">
<title>710A527E-2D1F-40A4-8D93-9F35B12D2262</title>
<g>
	<path fill="none" d="M0,0h48v48H0V0z"/>
	<path fill="#FFFFFF" d="M24,5c2.5,0,3.3,1.9,4,3.7c0.3,0.8,6.9,19.2,7.1,19.7c0.1,0.2,0,0.4-0.2,0.5c-0.2,0.1-3.7,1.5-3.9,1.5
		c-0.2,0.1-0.4,0-0.5-0.2c0,0,0,0,0,0c-0.1-0.2-1.5-4.2-1.7-4.7h-9.8c-0.2,0.5-1.6,4.5-1.7,4.7s-0.3,0.3-0.5,0.2s-3.7-1.4-3.9-1.5
		c-0.2-0.1-0.3-0.3-0.2-0.5c0.2-0.7,6.8-18.8,7.1-19.7C20.6,6.9,21.5,5,24,5L24,5z M24,11l-3.3,10.1h6.7L24,11L24,11L24,11z
		 M12.4,37.9c-0.2,0-0.4,0.2-0.4,0.4c0,0,0,0,0,0v4.3c0,0.2,0.2,0.4,0.4,0.4h23.3c0.2,0,0.4-0.2,0.4-0.4c0,0,0,0,0,0v-4.3
		c0-0.2-0.2-0.4-0.4-0.4c0,0,0,0,0,0H12.4L12.4,37.9z"/>
</g>
</svg>
