<svg width="48" height="48" viewBox="0 0 48 48" xmlns="http://www.w3.org/2000/svg"><title>8686A151-92C7-40F8-9A09-A6E888990965</title><g fill="none" fill-rule="evenodd"><path d="M0 0h48v48H0z"/><path d="M16.31 11h.158c1.365 1.196 2.549 2.567 3.402 4.027 2.712 4.636 1.105 8.394-3.59 8.394 4.695 0 10.698 3.758 13.41 8.393.865 1.478 1.285 2.865 1.31 4.072l-.066.114H16.31L9 23.5 16.31 11z" fill="#173583"/><path d="M31.464 29.08c-1.288-2.159-3.302-4.124-5.572-5.615.49-1.49.153-3.457-1.133-5.617-1.69-2.83-4.633-5.32-7.759-6.848h14.508L39 23.544 32.757 34c.206-1.384-.196-3.082-1.293-4.92" fill="#6CAEDF"/></g></svg>