<?xml version="1.0" encoding="utf-8"?>
<!-- Generator: Adobe Illustrator 17.1.0, SVG Export Plug-In . SVG Version: 6.00 Build 0)  -->
<!DOCTYPE svg PUBLIC "-//W3C//DTD SVG 1.1//EN" "http://www.w3.org/Graphics/SVG/1.1/DTD/svg11.dtd">
<svg version="1.1" id="Слой_1" xmlns="http://www.w3.org/2000/svg" xmlns:xlink="http://www.w3.org/1999/xlink" x="0px" y="0px"
	 viewBox="2 5 44 38" enable-background="new 2 5 44 38" xml:space="preserve">
<title>4803D2B0-CF8B-451B-8F46-D7ACCC34A6F8</title>
<g>
	<path fill="none" d="M0,0h48v48H0V0z"/>
	<path fill="#FFFFFF" d="M13,5h0.2c2.1,1.8,3.8,3.9,5.1,6.1c4.1,7,1.7,12.8-5.4,12.8c7.1,0,16.1,5.7,20.2,12.8
		c1.3,2.2,1.9,4.4,2,6.2L35,43H13L2,24L13,5z M34.9,32.4c-1.9-3.3-4.9-6.2-8.2-8.5c0.7-2.3,0.2-5.2-1.7-8.5
		C22.6,11.1,18.3,7.3,13.7,5H35l11,19l-9.2,15.8C37.1,37.7,36.5,35.2,34.9,32.4L34.9,32.4z"/>
</g>
</svg>
