<svg width="48" height="48" viewBox="0 0 48 48" xmlns="http://www.w3.org/2000/svg"><title>5B09D423-E181-4726-B5FC-2036642FBA32</title><g fill="none" fill-rule="evenodd"><path d="M0 0h48v48H0z"/><path d="M16.249 11h.156c1.353 1.196 2.527 2.567 3.374 4.027 2.689 4.636 1.095 8.394-3.561 8.394 4.656.001 10.608 3.758 13.299 8.393.856 1.478 1.274 2.865 1.298 4.072l-.066.114h-14.5L9 23.5 16.249 11zm14.456 18.016c-1.248-2.151-3.197-4.11-5.395-5.595.474-1.485.149-3.445-1.097-5.597-1.635-2.82-4.485-5.302-7.51-6.824h14.044L38 23.5l-6.044 10.419c.2-1.38-.19-3.072-1.251-4.903z" fill="#000000"/></g></svg>