<?xml version="1.0" encoding="utf-8"?>
<!-- Generator: Adobe Illustrator 17.1.0, SVG Export Plug-In . SVG Version: 6.00 Build 0)  -->
<!DOCTYPE svg PUBLIC "-//W3C//DTD SVG 1.1//EN" "http://www.w3.org/Graphics/SVG/1.1/DTD/svg11.dtd">
<svg version="1.1" id="Слой_1" xmlns="http://www.w3.org/2000/svg" xmlns:xlink="http://www.w3.org/1999/xlink" x="0px" y="0px"
	 viewBox="5.1 5.1 37.9 37.9" enable-background="new 5.1 5.1 37.9 37.9" xml:space="preserve">
<title>7542A8F5-CF83-4F74-B770-337BB5461D8A</title>
<g>
	<path fill="none" d="M0,0h48v48H0V0z"/>
	<g>
		<path fill="#000000" d="M24,43C34.5,43,43,34.5,43,24c0-8.2-5.2-15.1-12.5-17.8l0.1,0.4c7,2.6,12,9.4,12,17.4
			c0,10.3-8.3,18.6-18.6,18.6C13.8,42.6,5.5,34.3,5.5,24C5.5,13.8,13.8,5.5,24,5.5c1.1,0,2.2,0.1,3.2,0.3l0.6-0.3
			c-1.3-0.3-2.6-0.4-3.9-0.4C13.6,5.1,5.1,13.6,5.1,24C5.1,34.5,13.6,43,24,43"/>
		<path fill="#000000" d="M30.6,6.7c7,2.6,12,9.4,12,17.4c0,10.3-8.3,18.6-18.6,18.6C13.8,42.6,5.5,34.3,5.5,24
			C5.5,13.8,13.8,5.5,24,5.5c1.1,0,2.2,0.1,3.2,0.3l0.6-0.3c-1.3-0.3-2.6-0.4-3.9-0.4C13.6,5.1,5.1,13.6,5.1,24
			C5.1,34.5,13.6,43,24,43C34.5,43,43,34.5,43,24c0-8.2-5.2-15.1-12.5-17.8C30.5,6.2,30.6,6.7,30.6,6.7z"/>
		<path fill="#000000" d="M33.8,11.9c-0.2,1.2-0.6,1.1-0.8,1c-0.2-0.1-0.3-0.1-0.9-0.2c-0.2,0-1.1-0.1-0.6,0.3
			c0.8,0.6,1.5,1.9,1.5,1.9c0.1-0.4-0.1-1-0.2-1.2c-0.1-0.2,0-0.3,0.2-0.2c0.2,0,0.2,0.1,0.5,0.2c0.3,0.1,0.4,0.1,0.5-0.2
			C33.9,13.1,33.9,12.5,33.8,11.9C33.8,11.9,33.8,11.8,33.8,11.9z M26.8,10.5c-1.6,1.3-4.1,4.3-5.3,7.1c-0.1,0.2,0,0.2,0.3,0.1
			c0.3-0.2,1.2-0.6,1.6-0.7c0,0-0.5,1.6-0.6,2.4c-0.1,0.7,0.5,0.7,0.8,0.6s1.9-0.1,2.2-0.2c0,0-1.4-0.3-1.6-0.9
			c-0.1-0.6,0.3-1.8,0.5-2.7c0.1-0.2,0-0.4-0.3-0.3c-0.3,0.1-0.7,0.2-0.9,0.3C23.5,16.1,24.8,12.9,26.8,10.5L26.8,10.5L26.8,10.5z
			 M28.8,7.2c0.1-0.1,0-0.2-0.2,0c-0.2,0.1-1.3,0.8-2,2c-0.1,0.1,0,0.4,0.3,0.2c0.4-0.1,0.8-0.2,1.1-0.3c0.2,0,0.2-0.2,0.1-0.2
			c-0.1-0.1-0.2-0.1-0.1-0.4C28,8.3,28.4,7.6,28.8,7.2z M15,27.6c0.2-0.2,0.6-0.5,1.1-0.8c0.7-0.4,2.8-0.6,3.9-0.6
			c0.7,0,1.1,0.3,1.4,0.6c0.3,0.3-0.2,0.4-0.5,0.1c-0.2-0.2-0.6-0.3-0.9-0.3c-0.3,0-0.6,0.1-0.8,0.3C19,27,19,27.2,18.6,27.4
			C18,27.5,17.4,27,17.4,27c0.4,0.8,1.2,0.8,1.6,0.7c0.3-0.1,0.4-0.2,0.9-0.2c0.7,0,1,0.4,1,0.4c-0.9,0-2.4,0.5-3.1,0.7
			c-0.9,0.2-1.8,0.2-1.8,0.2c0.6,0.7,1.4,0.7,2.1,0.7c0.6,0,2.6-0.1,3.9,0c1.5,0.1,2.7,1.1,2.7,2.6c0,1.5-1,2.3-1,2.3
			c1.3-0.4,1.8-1.4,1.8-1.4c0.7,2.7-0.7,4.8-2.1,5.7c-1.1,0.7-4.4,1.5-6.9,0.3c-2.8-1.3-3.8-2.6-3.8-2.6c6.1,0.5,9-1.2,9-1.2
			c-5.5,0.3-9.3-1.1-11.8-2.1c-1-1.6-1.7-3.3-2.1-5.1v0c4.5,3.4,8.5,4,8.5,4c-4.9-2.6-7.3-5.6-8.9-8.6c0.1-1.7,0.4-3.3,1-4.9l0,0
			c1.8,4.8,3.8,6.3,3.8,6.3c-2-4.5-2-7.7-1.8-10.1c0.7-1.1,1.6-2,2.6-2.9l0,0c-0.8,4.3,0.2,7.1,0.2,7.1c0-3.4,1.9-7.5,3.4-9.5
			c0.9-0.5,1.9-0.9,3-1.1h0c-1.4,1.7-2,3.4-2,3.4c2.9-2.7,7.6-4.3,8.3-4.5c0.7-0.2,2.8-0.9,3.4-1.1C29.8,5.7,30.1,6,30,6.3
			c0,0.4-0.2,1.1-0.2,1.1c1.6,0.4,2.3,1.2,2.3,1.2C32,8.4,32,8,32,8c2.2,1.9,2.8,2.9,2.8,4.6c0.1,1.8,0.8,2,1.3,2.3
			c0.5,0.2,1.6,0.9,1.9,1.2c0.3,0.2,0.2,0.5,0,0.7c-0.1,0.2-0.1,0.2-0.2,0.4c-0.1,0.9-0.5,1.3-1.1,1.5c-0.6,0.2-1.2-0.1-1.2-0.1
			c-0.6,0.7-0.7,0.2-0.8,0c0-0.3-0.4-0.1-0.6,0c-0.2,0.1-0.3-0.2-0.3-0.2c-1.1-0.1-1.6,0.5-1.6,0.5c1,0.1,1.5,0.8,1.5,1.1
			c0,0.3,0.5,0.1,0.5,0.1s0-0.1,0.2-0.2c0.2-0.1,0.2,0,0.2,0.2c0,0.2-0.1,0.4-0.1,0.4l0.5,0.3c-0.2,1.2-0.7,1.2-1,1
			c-1.7-0.9-4.8-1-4.8-1c0.2-0.3,0.6-0.6,0.6-0.6c-7.9,0-9.2,1-9.6,1.5c-0.3,0.4,0,0.9,0,0.9c-0.9,0.2-3.3,0.8-4.2,1.6
			c-0.9,0.8-1.2,2.7-1.2,3.4C14.8,27.7,15,27.7,15,27.6L15,27.6z"/>
		<path fill="#000000" d="M35.8,36c-0.7-2.4-2.6-3.9-3.7-5.2c-0.4-0.4-0.7-0.9-1.1-1.3c0.6,0.4,1.8,0.5,1.8,0.5
			c-0.3-0.3-1.1-1.2-1.4-1.5c-0.8-1-2.3-2.1-3.4-2.6c-2.1-1-4.3-1.1-4.6-1.1c-0.3-0.1-0.9,0.1-0.5-0.5c0.4-0.6,2.7-2.4,2.7-2.4
			c-0.5,0-2.6,0.2-3.2,0.3c-0.6,0.1-0.8-0.1-0.8-0.5c0,0-1.3,1.2-0.7,1.8c0.1,0.1,0.4,0.1,0.7,0c0.3-0.1,1-0.4,1.2-0.4
			c0,0-0.5,0.8-0.7,1.2C22,24.6,22,24.8,22.6,25c0.6,0.2,3.4,1.1,5.2,2.3c1.8,1.2,3.6,2.7,4.9,5.5c1.3,2.8,0.6,4.9,0.4,5.3
			C34.1,37.5,35,36.8,35.8,36L35.8,36z M39.7,30c-1.7-1.4-4.8-3.9-8.5-4.8c0,0,5.3,2.1,7.2,7.4C38.9,31.9,39.3,31,39.7,30"/>
		<path fill="#000000" d="M29.3,39.9c0.6-1.3,1.2-4.5,0.5-6.9c0,0,0.1,5.7-3.8,7.6C27.1,40.5,28.3,40.3,29.3,39.9L29.3,39.9z
			 M40.8,23.8c-0.5-0.2-3.6-1.1-3.6-1.1c1-0.1,1.5-0.8,1.5-0.8c-1,0.3-2.5,0.4-3.7,0.2c0,0,2.9,1.3,5.8,4v0c0.1-0.7,0.1-1.3,0.1-2
			C40.8,24,40.8,23.9,40.8,23.8"/>
	</g>
</g>
</svg>
