<?xml version="1.0" encoding="utf-8"?>
<!-- Generator: Adobe Illustrator 17.1.0, SVG Export Plug-In . SVG Version: 6.00 Build 0)  -->
<!DOCTYPE svg PUBLIC "-//W3C//DTD SVG 1.1//EN" "http://www.w3.org/Graphics/SVG/1.1/DTD/svg11.dtd">
<svg version="1.1" id="Слой_1" xmlns="http://www.w3.org/2000/svg" xmlns:xlink="http://www.w3.org/1999/xlink" x="0px" y="0px"
	 viewBox="13 5 21.9 38" enable-background="new 13 5 21.9 38" xml:space="preserve">
<title>1158A8EA-B820-48B0-BE93-86EEEC8D4AC6</title>
<g>
	<path fill="none" d="M0,0h48v48H0V0z"/>
	<path fill="#000000" d="M20.3,26c5.7,2,11.9-1,14-6.6c2-5.6-1-11.8-6.7-13.8c-5.7-2-11.9,1-14,6.6C11.6,17.8,14.6,24,20.3,26
		 M23.9,29.7c-6,0-10.9,1.7-10.9,3.8l0,1.1c0,2.1,4.9,3.7,11,3.7c6,0,10.9-1.7,10.9-3.8l0-1.1C34.9,31.3,30,29.7,23.9,29.7
		 M23.9,41.1c-6,0-10.9,0.3-10.9,0.6v0.6c0,0.3,4.9,0.6,10.9,0.6c6,0,10.9-0.3,10.9-0.6v-0.6C34.9,41.4,30,41.1,23.9,41.1"/>
</g>
</svg>
