<svg width="48" height="48" viewBox="0 0 48 48" xmlns="http://www.w3.org/2000/svg"><title>331B082F-26A9-445C-B149-A5CAC443782F</title><g fill="none" fill-rule="evenodd"><path d="M0 0h48v48H0z"/><g fill="#DD2633"><path d="M21.983 24.808c3.886 1.305 8.147-.635 9.516-4.338 1.37-3.702-.67-7.759-4.554-9.064-3.887-1.305-8.147.637-9.518 4.339-1.371 3.702.669 7.757 4.556 9.063M24.455 27.234c-4.122.014-7.458 1.133-7.453 2.502l.002.715c.006 1.367 3.35 2.462 7.47 2.45 4.122-.016 7.456-1.135 7.45-2.5v-.719c-.006-1.366-3.35-2.46-7.469-2.448M24.464 34.777c-4.12 0-7.461.198-7.461.399v.427c0 .198 3.34.395 7.461.395 4.12 0 7.46-.197 7.46-.395v-.427c0-.2-3.34-.4-7.46-.4"/></g></g></svg>