<svg width="48" height="48" viewBox="0 0 48 48" xmlns="http://www.w3.org/2000/svg"><title>9E80A9A2-62B1-4E7C-9C36-62D493608A0C</title><g fill="none" fill-rule="evenodd"><path d="M0 0h48v48H0z"/><path d="M36 23.5C36 30.402 30.403 36 23.5 36S11 30.403 11 23.5 16.597 11 23.5 11 36 16.597 36 23.5zm-18.356-.12l5.737-5.735 5.736 5.735-5.736 5.736-5.737-5.736zm-5.878 0c0 6.417 5.2 11.617 11.615 11.617 6.416 0 11.617-5.2 11.617-11.617 0-6.414-5.201-11.614-11.617-11.614-6.414 0-11.615 5.2-11.615 11.614z" fill="#FFF"/></g></svg>