<svg width="48" height="48" viewBox="0 0 48 48" xmlns="http://www.w3.org/2000/svg"><title>60359BDE-9D7F-4DAA-8380-E55FF322B7C7</title><g fill="none" fill-rule="evenodd"><path d="M0 0h48v48H0z"/><g fill="#000000"><path d="M33.644 12.445l.175-.083c-.082.04-.14.066-.175.083zm2.242-.813c-.139-.15-2.014.704-2.014.704l.085-.055c.368-.214.954-.52.735-.77-.11-.122-.357-.068-1.073.337-.335.191-2.09.874-3.906 1.592-1.497.607-4.216 1.706-4.46 1.958l-.02.023c-.025.04-.049.088-.074.137-.093.197-.188.498-.28.877l-.01.036-.016.07a33.9 33.9 0 0 0-.32 1.797c-.32 2.065-.647 5.137-.647 5.137s-.082 2.092-.294 3.09c-.042.19-.09.322-.126.417a1.898 1.898 0 0 1-.053.153v-.002c-.073.186-.171.36-.307.497-.42.43-1.451.292-1.736.26-.666-.077-1.32-.511-1.41-.626-.086-.117-.547-.692-1.138-.746-.175-.015-.89.101-1.124.095-.235-.007-.564-.316-.934-.353-.378-.043-.977.31-.977.31s1.474.512 1.654.743c.179.233.622.817 1.158 1.045.537.23 2.412 2.206 2.412 2.206s.383.364 1.018.84a8.295 8.295 0 0 1-1.75.374c-4.193.429-7.776-2.143-8.244-5.97a6.294 6.294 0 0 1 .179-2.47c.26-.961.657-1.883 1.356-2.681a7.637 7.637 0 0 1 5.048-2.622 8.261 8.261 0 0 1 3.656.471c-.01-.123-.018-.245-.026-.366a8.46 8.46 0 0 0-3.692-.433c-2.087.214-3.956 1.155-5.264 2.653-.93 1.06-1.494 2.31-1.663 3.629-.034.182-.039.314-.06.553-.038.449-.025 1.3.031 1.764.477 3.884 4.31 6.679 8.564 6.244a8.331 8.331 0 0 0 2.536-.669c.618.41 1.361.843 2.171 1.17 2.001.813 4.457.9 5.004.962 1.146.137 2.172 1.474 2.492 1.741.313.264 2.46-.155 2.46-.155s-.155-.402-.245-.916c-.09-.513-.703-.744-.823-.877-.12-.132-2.882-1.283-3.324-1.538-.438-.253-.995-.782-1.573-1.68-.57-.9-.328-1.571-.233-1.74.102-.167.323-.203.452-.426.136-.225.028-.242.015-.356-.011-.115.037-.198.154-.394.119-.195.07-.178.07-.178l.025-.243c.024-.244 0 0 .051-.083l.048-.086s-.012-.116.04-.2c.047-.081-.06-.169-.04-.27.021-.098.049-.083.09-.279.035-.198.016-.1.023-.313.012-.213.067-.114.185-.235.11-.126-.118-.278-.118-.278s.016-.096.204-.472c.186-.38 0 0 .053-.154.053-.157-.066-.29-.09-.442-.026-.162.02-.104.055-.3.035-.198 0 0 .069-.183.067-.181.04-.269.04-.269l-.127-.387.067-.11c.068-.114-.002-.33-.002-.33l-.172-.445s.007-.212.028-.312c.019-.101-.152-.545-.152-.545l.11-.451-.16-.656-.107-.558s-.018-.841-.018-1.168a6.759 6.759 0 0 1 .057-1.163c.06-.439 1.448-.976 1.599-1.231.146-.25-.842.019-.842.019s1.743-.472 1.863-.672c.09-.15-1.14.071-1.14.071-.11.02 0 0 0 0 .474-.098 1.731-.38 2.16-.718.482-.394-.846-.09-1.06-.038.218-.054 1.68-.417 1.881-.82.118-.231-1.093-.063-1.093-.063.606-.143 1.327-.339 1.768-.543.87-.399.921-.7.746-.785-.176-.085-1.613.359-1.613.359l-.075.024c.04-.014.075-.024.075-.024.415-.147.873-.326 1.138-.488.554-.337 1.238-.757 1-1.02z"/><path d="M14.105 20.083l1.403-1.82-1.711 1.559-.782-2.628.137 2.67-1.435-.868 1.31 1.242-1.828.46 1.852-.084-1.53 1.955 1.82-1.656.753 2.429-.131-2.424 1.379.82-1.33-1.259 1.831-.476-1.738.08zm18.07-8.973c-.136-.143-1.025.269-1.025.269s-5.421 2.382-7.81 3.566c-.515.254-1.151.655-1.156 1.422-.012 2.464.519 6.092.787 8.002.268 1.91.45 2.703.441 2.766.01-.067.109-.236.18-.57.212-.998.294-3.09.294-3.09s.327-3.072.647-5.137c.22-1.374.407-2.484.706-2.926.194-.282 4.568-1.999 5.332-2.324.932-.397 1.036-.501 1.055-.785.02-.284-.976.031-.976.031s.858-.423 1.17-.624c.315-.199.49-.458.354-.6z"/></g></g></svg>