<?xml version="1.0" encoding="utf-8"?>
<!-- Generator: Adobe Illustrator 17.1.0, SVG Export Plug-In . SVG Version: 6.00 Build 0)  -->
<!DOCTYPE svg PUBLIC "-//W3C//DTD SVG 1.1//EN" "http://www.w3.org/Graphics/SVG/1.1/DTD/svg11.dtd">
<svg version="1.1" id="Слой_1" xmlns="http://www.w3.org/2000/svg" xmlns:xlink="http://www.w3.org/1999/xlink" x="0px" y="0px"
	 viewBox="5.3 5.1 37.6 37.6" enable-background="new 5.3 5.1 37.6 37.6" xml:space="preserve">
<title>9DC8E607-A84E-461A-AABF-2485DBDCCF08</title>
<g>
	<path fill="none" d="M0,0h48v48H0V0z"/>
	<g>
		<path fill="#FFFFFF" d="M39.4,7.2l0.3-0.1C39.6,7.1,39.5,7.2,39.4,7.2z M42.8,6C42.6,5.7,39.8,7,39.8,7l0.1-0.1
			c0.6-0.3,1.5-0.8,1.1-1.2c-0.2-0.2-0.5-0.1-1.6,0.5c-0.5,0.3-3.2,1.3-5.9,2.4c-2.3,0.9-6.4,2.6-6.8,3c0,0,0,0,0,0
			c0,0.1-0.1,0.1-0.1,0.2c-0.1,0.3-0.3,0.8-0.4,1.3l0,0.1l0,0.1c-0.2,0.8-0.3,1.7-0.5,2.7c-0.5,3.1-1,7.8-1,7.8s-0.1,3.2-0.4,4.7
			c0,0.2-0.1,0.4-0.2,0.6c0,0.1-0.1,0.2-0.1,0.2v0c-0.1,0.3-0.3,0.5-0.5,0.8c-0.6,0.7-2.2,0.4-2.6,0.4c-1-0.1-2-0.8-2.1-1
			c-0.1-0.2-0.8-1.1-1.7-1.1c-0.3,0-1.4,0.2-1.7,0.1c-0.4,0-0.9-0.5-1.4-0.5c-0.6-0.1-1.5,0.5-1.5,0.5s2.2,0.8,2.5,1.1
			c0.3,0.4,0.9,1.2,1.8,1.6c0.8,0.3,3.7,3.4,3.7,3.4s0.6,0.6,1.5,1.3c-0.8,0.3-1.7,0.5-2.7,0.6c-6.4,0.7-11.8-3.3-12.5-9.1
			c-0.2-1.3-0.1-2.5,0.3-3.8c0.4-1.5,1-2.9,2.1-4.1c1.9-2.2,4.6-3.7,7.7-4c1.9-0.2,3.8,0.1,5.6,0.7c0-0.2,0-0.4,0-0.6
			c-1.8-0.6-3.7-0.9-5.6-0.7c-3.2,0.3-6,1.8-8,4c-1.4,1.6-2.3,3.5-2.5,5.5c-0.1,0.3-0.1,0.5-0.1,0.8c-0.1,0.7,0,2,0,2.7
			c0.7,5.9,6.5,10.2,13,9.5c1.4-0.1,2.7-0.5,3.9-1c0.9,0.6,2.1,1.3,3.3,1.8c3,1.2,6.8,1.4,7.6,1.5c1.7,0.2,3.3,2.2,3.8,2.6
			c0.5,0.4,3.7-0.2,3.7-0.2S41,41.8,40.8,41c-0.1-0.8-1.1-1.1-1.3-1.3c-0.2-0.2-4.4-2-5.1-2.3c-0.7-0.4-1.5-1.2-2.4-2.6
			c-0.9-1.4-0.5-2.4-0.4-2.6c0.2-0.3,0.5-0.3,0.7-0.6c0.2-0.3,0-0.4,0-0.5c0-0.2,0.1-0.3,0.2-0.6c0.2-0.3,0.1-0.3,0.1-0.3l0-0.4
			c0-0.4,0,0,0.1-0.1l0.1-0.1c0,0,0-0.2,0.1-0.3c0.1-0.1-0.1-0.3-0.1-0.4c0-0.1,0.1-0.1,0.1-0.4c0.1-0.3,0-0.2,0-0.5
			c0-0.3,0.1-0.2,0.3-0.4c0.2-0.2-0.2-0.4-0.2-0.4s0-0.1,0.3-0.7c0.3-0.6,0,0,0.1-0.2c0.1-0.2-0.1-0.4-0.1-0.7c0-0.2,0-0.2,0.1-0.5
			c0.1-0.3,0,0,0.1-0.3c0.1-0.3,0.1-0.4,0.1-0.4l-0.2-0.6l0.1-0.2c0.1-0.2,0-0.5,0-0.5l-0.3-0.7c0,0,0-0.3,0-0.5
			c0-0.2-0.2-0.8-0.2-0.8l0.2-0.7l-0.2-1L33,18.5c0,0,0-1.3,0-1.8c0-0.6,0-1.2,0.1-1.8c0.1-0.7,2.2-1.5,2.4-1.9c0.2-0.4-1.3,0-1.3,0
			s2.7-0.7,2.8-1c0.1-0.2-1.7,0.1-1.7,0.1c-0.2,0,0,0,0,0c0.7-0.1,2.6-0.6,3.3-1.1c0.7-0.6-1.3-0.1-1.6-0.1c0.3-0.1,2.6-0.6,2.9-1.2
			c0.2-0.4-1.7-0.1-1.7-0.1c0.9-0.2,2-0.5,2.7-0.8c1.3-0.6,1.4-1.1,1.1-1.2c-0.3-0.1-2.5,0.5-2.5,0.5l-0.1,0l0.1,0
			c0.6-0.2,1.3-0.5,1.7-0.7C42.1,7,43.2,6.4,42.8,6L42.8,6z"/>
		<path fill="#FFFFFF" d="M9.7,18.8l2.1-2.8l-2.6,2.4l-1.2-4l0.2,4.1l-2.2-1.3l2,1.9l-2.8,0.7l2.8-0.1l-2.3,3l2.8-2.5l1.1,3.7
			l-0.2-3.7l2.1,1.2l-2-1.9l2.8-0.7L9.7,18.8L9.7,18.8z M37.2,5.2c-0.2-0.2-1.6,0.4-1.6,0.4S27.4,9.2,23.8,11C23,11.4,22,12,22,13.2
			c0,3.7,0.8,9.3,1.2,12.2c0.4,2.9,0.7,4.1,0.7,4.2c0-0.1,0.2-0.4,0.3-0.9c0.3-1.5,0.4-4.7,0.4-4.7s0.5-4.7,1-7.8
			c0.3-2.1,0.6-3.8,1.1-4.4c0.3-0.4,6.9-3,8.1-3.5c1.4-0.6,1.6-0.8,1.6-1.2c0-0.4-1.5,0-1.5,0s1.3-0.6,1.8-0.9
			C37.1,5.8,37.4,5.4,37.2,5.2z"/>
	</g>
</g>
</svg>
