<svg width="48" height="48" viewBox="0 0 48 48" xmlns="http://www.w3.org/2000/svg"><title>690973B8-4EE2-43EF-932B-8003AF66117B</title><g fill="none" fill-rule="evenodd"><path d="M0 0h48v48H0z"/><path d="M11 11c8.333.002 16.667-.004 25 .004v24.993c-8.333.004-16.667.003-25 0V11.002zm10.903 12.563c-1.795.186-3.578.731-5.083 1.745a9.206 9.206 0 0 0-3.24 3.815c-.814 1.752-1.109 3.708-1.058 5.629 1.017-.002 2.033 0 3.05 0-.038-1.202.096-2.414.46-3.561.45-1.428 1.299-2.747 2.5-3.654 1.369-1.052 3.118-1.515 4.827-1.521 1.56-.033 3.15.312 4.486 1.137 1.252.765 2.228 1.945 2.81 3.286.593 1.351.82 2.843.773 4.312h3.05c.053-1.86-.243-3.753-1.02-5.455a9.481 9.481 0 0 0-2.546-3.37c-1.366-1.151-3.057-1.877-4.805-2.207-1.383-.262-2.805-.296-4.204-.156zm-5.28-9.745v5.069c.024.384.134.763.33 1.094.512.835 1.37 1.386 2.25 1.771 1.518.645 3.19.858 4.829.802 1.421-.069 2.855-.342 4.139-.976.633-.319 1.233-.735 1.67-1.3.329-.407.523-.92.536-1.445-.003-1.671-.001-3.343-.002-5.015-.952-.003-1.904 0-2.856-.001v5.013c.012.29-.122.564-.31.775-.32.347-.758.558-1.197.714-.94.317-1.944.398-2.93.365-.664-.036-1.33-.12-1.967-.323-.437-.14-.867-.333-1.212-.641-.246-.225-.435-.543-.423-.886v-5.017c-.951 0-1.904-.002-2.856.001zm6.576-1.52a2.736 2.736 0 0 0-1.69.82 2.771 2.771 0 0 0-.778 2.304 2.79 2.79 0 0 0 4.857 1.499c.518-.586.788-1.4.682-2.177a2.748 2.748 0 0 0-.807-1.652 2.77 2.77 0 0 0-2.264-.793z" fill="#000000"/></g></svg>