<svg width="48" height="48" viewBox="0 0 48 48" xmlns="http://www.w3.org/2000/svg"><title>0B5ECE15-3670-4B0E-803E-23B81584F0FF</title><g fill="none" fill-rule="evenodd"><path d="M0 0h48v48H0z"/><path d="M22.858 24.064c-1.846.188-3.679.74-5.227 1.768a9.366 9.366 0 0 0-3.33 3.866c-.838 1.776-1.141 3.758-1.089 5.704 1.046-.002 2.09 0 3.135 0-.038-1.218.1-2.446.474-3.609.462-1.446 1.336-2.783 2.57-3.702 1.408-1.066 3.207-1.535 4.964-1.542 1.603-.033 3.24.316 4.612 1.153 1.288.775 2.292 1.97 2.89 3.33.61 1.369.843 2.88.795 4.369h3.136c.054-1.886-.25-3.803-1.05-5.527a9.623 9.623 0 0 0-2.617-3.415c-1.404-1.167-3.143-1.903-4.94-2.237-1.422-.265-2.884-.3-4.323-.158M17.43 14.189v5.136c.024.39.136.774.338 1.11.527.845 1.408 1.404 2.313 1.794 1.561.653 3.28.87 4.966.813 1.461-.07 2.936-.347 4.256-.99.651-.323 1.267-.744 1.718-1.317.337-.413.537-.933.55-1.464-.003-1.694 0-3.388-.001-5.082-.98-.003-1.959 0-2.938-.001l.001 5.08c.011.293-.126.57-.319.785-.33.351-.78.566-1.23.724-.967.32-2 .403-3.014.37-.683-.037-1.368-.123-2.023-.328-.449-.142-.891-.338-1.245-.65-.254-.228-.448-.55-.435-.897v-5.084c-.979 0-1.958-.002-2.938 0" fill="#005A51"/><path d="M24.19 12.65a2.873 2.873 0 0 1 2.329.803 2.77 2.77 0 0 1 .83 1.674c.109.788-.17 1.613-.702 2.206-.53.592-1.32.95-2.122.95a2.893 2.893 0 0 1-1.915-.698 2.816 2.816 0 0 1-.957-1.771 2.783 2.783 0 0 1 .8-2.333 2.83 2.83 0 0 1 1.737-.832" fill="#EE7900"/></g></svg>