<?xml version="1.0" encoding="utf-8"?>
<!-- Generator: Adobe Illustrator 17.1.0, SVG Export Plug-In . SVG Version: 6.00 Build 0)  -->
<!DOCTYPE svg PUBLIC "-//W3C//DTD SVG 1.1//EN" "http://www.w3.org/Graphics/SVG/1.1/DTD/svg11.dtd">
<svg version="1.1" id="Слой_1" xmlns="http://www.w3.org/2000/svg" xmlns:xlink="http://www.w3.org/1999/xlink" x="0px" y="0px"
	 viewBox="5 5 38 38" enable-background="new 5 5 38 38" xml:space="preserve">
<title>31935664-41B2-43CA-A13C-31BB9B6044E2</title>
<g>
	<path fill="none" d="M0,0h48v48H0V0z"/>
	<path fill="#FFFFFF" d="M5,5c12.7,0,25.3,0,38,0v38c-12.7,0-25.3,0-38,0V5z M21.6,24.1c-2.7,0.3-5.4,1.1-7.7,2.7
		c-2.1,1.4-3.8,3.4-4.9,5.8c-1.2,2.7-1.7,5.6-1.6,8.6c1.5,0,3.1,0,4.6,0c-0.1-1.8,0.1-3.7,0.7-5.4c0.7-2.2,2-4.2,3.8-5.6
		c2.1-1.6,4.7-2.3,7.3-2.3c2.4,0,4.8,0.5,6.8,1.7c1.9,1.2,3.4,3,4.3,5c0.9,2.1,1.2,4.3,1.2,6.6c1.5,0,3.1,0,4.6,0
		c0.1-2.8-0.4-5.7-1.6-8.3c-0.9-2-2.2-3.7-3.9-5.1c-2.1-1.8-4.6-2.9-7.3-3.4C25.9,23.9,23.7,23.9,21.6,24.1L21.6,24.1z M13.5,9.3V17
		c0,0.6,0.2,1.2,0.5,1.7c0.8,1.3,2.1,2.1,3.4,2.7c2.3,1,4.8,1.3,7.3,1.2c2.2-0.1,4.3-0.5,6.3-1.5c1-0.5,1.9-1.1,2.5-2
		c0.5-0.6,0.8-1.4,0.8-2.2c0-2.5,0-5.1,0-7.6c-1.4,0-2.9,0-4.3,0c0,2.5,0,5.1,0,7.6c0,0.4-0.2,0.9-0.5,1.2c-0.5,0.5-1.2,0.8-1.8,1.1
		c-1.4,0.5-3,0.6-4.5,0.6c-1-0.1-2-0.2-3-0.5c-0.7-0.2-1.3-0.5-1.8-1c-0.4-0.3-0.7-0.8-0.6-1.3c0-2.5,0-5.1,0-7.6
		C16.4,9.3,15,9.3,13.5,9.3z M23.5,7c1.3-0.1,2.6,0.3,3.4,1.2c0.7,0.7,1.1,1.6,1.2,2.5c0.2,1.2-0.3,2.4-1,3.3
		c-1.5,1.7-4.2,1.9-6,0.4c-0.8-0.7-1.3-1.6-1.4-2.7c-0.2-1.3,0.3-2.6,1.2-3.5C21.7,7.5,22.6,7.1,23.5,7L23.5,7z"/>
</g>
</svg>
