<?xml version="1.0" encoding="utf-8"?>
<!-- Generator: Adobe Illustrator 17.1.0, SVG Export Plug-In . SVG Version: 6.00 Build 0)  -->
<!DOCTYPE svg PUBLIC "-//W3C//DTD SVG 1.1//EN" "http://www.w3.org/Graphics/SVG/1.1/DTD/svg11.dtd">
<svg version="1.1" id="Слой_1" xmlns="http://www.w3.org/2000/svg" xmlns:xlink="http://www.w3.org/1999/xlink" x="0px" y="0px"
	 viewBox="4 5.1 38.9 36.3" enable-background="new 4 5.1 38.9 36.3" xml:space="preserve">
<title>F9D26A46-8354-427F-83A0-3150BDDDA530</title>
<g>
	<path fill="none" d="M0,0h48v48H0V0z"/>
	<g>
		<path fill="#FFFFFF" d="M23.6,20.8c-0.4,0-0.4,0.4-0.5,0.6c-3.2,5.7-6.4,11.4-9.6,17c-1.6,2.8-4.7,3.7-7.3,2
			c-2.3-1.5-2.9-4.5-1.5-7.1c2.6-4.6,5.2-9.3,7.8-13.9c1.9-3.4,3.8-6.8,5.7-10.3c0.1-0.2,0.3-0.4,0.4-0.6c0.2,0.2,0.1,0.5,0.1,0.7
			c-0.1,1.4,0,2.8,0.8,4.1c1.4,2.3,2.7,4.7,4,7C23.6,20.5,23.7,20.6,23.6,20.8"/>
		<path fill="#FFFFFF" d="M23.6,20.8l-0.1-0.2c0.3-1,0.9-1.9,1.4-2.8c0.9-1.6,1.8-3.3,2.8-4.9c0.7-1.1,0.7-2.3,0.6-3.5
			c0-0.3-0.2-0.5,0.1-0.8c1.5,2.6,2.9,5.2,4.4,7.8c3.2,5.7,6.4,11.4,9.6,17.1c1.6,2.8,0.5,6.2-2.4,7.5c-2.3,1-5,0-6.3-2.3
			c-2.1-3.8-4.3-7.6-6.4-11.4C25.9,25.1,24.8,22.9,23.6,20.8"/>
		<path fill="#FFFFFF" d="M28.3,8.6c0.4,2,0,3.8-1.1,5.5C26,15.9,25,17.9,24,19.8c-0.1,0.3-0.3,0.5-0.5,0.7c-1.5-2.7-3-5.3-4.5-8
			c-0.7-1.3-0.5-2.6-0.3-4c0.9-2,2.3-3.3,4.6-3.4C25.7,5.1,27.3,6.4,28.3,8.6 M28.6,36.1c0,3-2.2,5.3-5.1,5.3
			c-2.9,0-5.2-2.3-5.1-5.3c0-3,2.2-5.3,5.1-5.3C26.4,30.8,28.6,33.1,28.6,36.1"/>
	</g>
</g>
</svg>
