<svg width="48" height="48" viewBox="0 0 48 48" xmlns="http://www.w3.org/2000/svg"><title>C556D907-104E-4C75-8482-B5EA3A750828</title><g fill="none" fill-rule="evenodd"><path d="M0 0h48v48H0z"/><path d="M23.049 21.666c-.246.027-.267.27-.356.43-2.127 3.835-4.245 7.675-6.368 11.513-1.049 1.896-3.16 2.473-4.84 1.326-1.51-1.029-1.93-3.072-.974-4.807 1.723-3.129 3.457-6.252 5.184-9.378 1.278-2.312 2.552-4.626 3.83-6.938.08-.144.177-.276.266-.414.135.145.067.314.05.477-.097.976.033 1.88.54 2.751a167.67 167.67 0 0 1 2.635 4.75c.042.093.087.185.033.29" fill="#00ABE8"/><path d="M23.049 21.666l-.076-.168c.196-.682.584-1.265.928-1.864.626-1.094 1.19-2.225 1.834-3.309.44-.74.442-1.558.391-2.386-.01-.177-.105-.364.047-.526.978 1.751 1.962 3.499 2.934 5.254 2.131 3.847 4.261 7.695 6.382 11.548 1.05 1.905.304 4.209-1.612 5.044-1.549.674-3.31.03-4.194-1.558-1.43-2.567-2.845-5.14-4.264-7.713-.793-1.44-1.58-2.882-2.37-4.322" fill="#0054A7"/><path d="M26.173 13.413c.275 1.352.003 2.549-.738 3.715-.787 1.24-1.424 2.585-2.132 3.88-.095.173-.22.328-.33.49-1.001-1.797-2.02-3.584-2.995-5.397-.457-.85-.357-1.784-.187-2.703.598-1.375 1.56-2.244 3.054-2.295 1.62-.055 2.68.814 3.328 2.31" fill="#043775"/><path d="M26.396 32.035c0 2.02-1.483 3.59-3.4 3.596-1.944.007-3.436-1.564-3.433-3.613.004-2.018 1.49-3.564 3.424-3.563 1.926.001 3.408 1.558 3.409 3.58" fill="#FCAF3B"/></g></svg>