<svg width="48" height="48" viewBox="0 0 48 48" xmlns="http://www.w3.org/2000/svg"><title>D02F51B1-DB9F-4028-9C3F-CDCFD26F9B18</title><g fill="none" fill-rule="evenodd"><path d="M0 0h48v48H0z"/><g fill="#000000"><path d="M23.049 21.385c-.246.027-.267.262-.356.418-2.127 3.735-4.245 7.474-6.368 11.211-1.049 1.846-3.16 2.407-4.84 1.291-1.51-1.002-1.93-2.991-.974-4.68 1.723-3.047 3.457-6.088 5.184-9.132 1.278-2.25 2.552-4.504 3.83-6.755.08-.14.177-.269.266-.403.135.141.067.306.05.465-.097.95.033 1.83.54 2.678a162.047 162.047 0 0 1 2.635 4.625c.042.09.087.18.033.282"/><path d="M23.049 21.385l-.076-.163c.196-.665.584-1.232.928-1.816.626-1.065 1.19-2.166 1.834-3.22.44-.722.442-1.518.391-2.324-.01-.173-.105-.355.047-.512.978 1.705 1.962 3.406 2.934 5.115 2.131 3.746 4.261 7.492 6.382 11.244 1.05 1.855.304 4.099-1.612 4.911-1.549.657-3.31.03-4.194-1.516-1.43-2.5-2.845-5.006-4.264-7.51-.793-1.402-1.58-2.806-2.37-4.209"/><path d="M26.173 13.35c.275 1.316.003 2.481-.738 3.617-.787 1.208-1.424 2.517-2.132 3.778-.095.168-.22.319-.33.477-1.001-1.75-2.02-3.49-2.995-5.256-.457-.827-.357-1.736-.187-2.631.598-1.339 1.56-2.185 3.054-2.234 1.62-.054 2.68.792 3.328 2.249M26.396 31.481c0 1.968-1.483 3.495-3.4 3.502-1.944.006-3.436-1.523-3.433-3.518.004-1.965 1.49-3.47 3.424-3.47 1.926.002 3.408 1.518 3.409 3.486"/></g></g></svg>