<?xml version="1.0" encoding="UTF-8"?>
<svg width="109px" height="20px" viewBox="0 0 109 20" version="1.1" xmlns="http://www.w3.org/2000/svg" xmlns:xlink="http://www.w3.org/1999/xlink">
    <!-- Generator: Sketch 42 (36781) - http://www.bohemiancoding.com/sketch -->
    <title>logo_black</title>
    <desc>Created with Sketch.</desc>
    <defs>
        <polygon id="path-1" points="0 0.145357784 0 18.1184064 14.7116247 18.1184064 14.7116247 0.145357784 0 0.145357784"></polygon>
        <polygon id="path-3" points="11.6977349 11.1048203 11.6977349 0.106256715 0.417283096 0.106256715 0.417283096 11.1048203"></polygon>
        <polygon id="path-5" points="11.7568962 0.0929307905 0.48352701 0.0929307905 0.48352701 12.7336224 11.7568962 12.7336224 11.7568962 0.0929307905"></polygon>
    </defs>
    <g id="Symbols" stroke="none" stroke-width="1" fill="none" fill-rule="evenodd">
        <g id="logo_black">
            <g id="logos/paymo">
                <g id="Group">
                    <g id="logo" transform="translate(0.000000, 0.000000)">
                        <polygon id="Fill-1" fill="#4BBABB" points="27.7179895 0.284397831 17.1772911 18.3100488 26.1657511 18.3100488 26.1657511 15.0779276 22.8535554 15.0779276 27.7179895 6.76208306 32.5818284 15.0779276 29.4833035 15.0779276 29.4833035 18.3100488 38.2652348 18.3100488"></polygon>
                        <polygon id="Fill-2" fill="#1D2636" points="65.7496743 0.284397831 65.7496743 18.3100488 69.6743138 18.3100488 69.6743138 8.23436394 74.2447273 11.7803457 74.2447273 11.8329481 78.82883 8.28638181 78.82883 18.3100488 82.7534694 18.3100488 82.7534694 0.336415694 74.2447273 6.90586277 74.2447273 6.85968961"></polygon>
                        <polygon id="Fill-3" fill="#1D2636" points="48.8328355 6.62455717 42.4233052 0.336240353 39.6509409 3.05870338 46.8407566 10.1185211 46.8407566 18.3098735 50.7648009 18.3098735 50.7648009 10.1711234 58.0075879 3.05870338 55.2358187 0.336240353"></polygon>
                        <g id="Group-17" transform="translate(0.000000, 0.191584)">
                            <g id="Group-6">
                                <mask id="mask-2" fill="white">
                                    <use xlink:href="#path-1"></use>
                                </mask>
                                <g id="Clip-5"></g>
                                <path d="M3.92452043,3.99234183 L3.92452043,7.20517551 L9.15499233,7.20517551 C9.60792691,7.20517551 9.99420095,7.04795297 10.3072674,6.74052155 C10.6274761,6.42607649 10.7875804,6.04675521 10.7875804,5.60197325 C10.7875804,5.15719129 10.6274761,4.77728555 10.3072674,4.46342495 C9.99420095,4.14956436 9.60792691,3.99234183 9.15499233,3.99234183 L3.92452043,3.99234183 Z M-0.000119036684,0.145357784 L9.15499233,0.145357784 C10.6875896,0.145357784 11.9999691,0.674887948 13.0790366,1.74154639 C14.1652464,2.80820484 14.7116247,4.09696202 14.7116247,5.60197325 C14.7116247,7.10698448 14.1652464,8.39574167 13.0790366,9.46240012 C11.9999691,10.5220449 10.6875896,11.0585887 9.15499233,11.0585887 L3.92452043,11.0585887 L3.92452043,18.1184064 L-0.000119036684,18.1184064 L-0.000119036684,0.145357784 Z" id="Fill-4" fill="#1D2636" mask="url(#mask-2)"></path>
                            </g>
                            <path d="M104.401362,13.675964 C104.515042,13.2048809 104.57456,12.7139257 104.57456,12.2171259 C104.57456,9.25269214 102.468801,6.77979796 99.6440607,6.15792148 L102.662236,0.629416153 C105.573873,1.66275978 107.799264,4.10993727 108.492653,7.11995973 C108.585501,7.82658442 108.559313,8.5530811 108.38552,9.27256414 C107.905802,11.287818 106.393441,12.8448471 104.401362,13.675964" id="Fill-7" fill="#495266"></path>
                            <path d="M99.4175339,11.9420742 C98.1515787,14.2255999 97.4189079,15.5996898 96.3457922,17.5623413 C95.7059701,17.3332289 95.1000733,17.0328112 94.5406009,16.6727774 C93.934109,16.267155 93.3478534,15.7761998 92.801475,15.2332269 C92.1015393,14.4938718 91.5420669,13.6691841 91.1290096,12.733447 L91.1153203,12.6942875 L91.1224626,12.6814292 C91.1087733,12.6486988 91.0956793,12.6095393 91.0891323,12.576809 C90.8826036,11.8111528 90.6558387,10.4569349 90.8355841,9.41657764 C90.8558204,9.33124496 90.8754614,9.24006758 90.8956977,9.14830573 C91.3688685,7.34229226 92.6145874,5.88988336 94.2870528,4.98687663 C94.2602695,5.22241819 94.2471755,5.46438893 94.2471755,5.70635966 C94.2471755,8.78184281 96.4660193,11.3464988 99.4175339,11.9420742" id="Fill-9" fill="#6AC3CA"></path>
                            <g id="Group-13" transform="translate(97.014897, 7.013645)">
                                <mask id="mask-4" fill="white">
                                    <use xlink:href="#path-3"></use>
                                </mask>
                                <g id="Clip-12"></g>
                                <path d="M2.41590902,7.19880478 L0.417283096,10.8692788 C0.570245235,10.9020091 0.723207374,10.9347395 0.883311713,10.9674698 C1.46956738,11.0528025 2.04272902,11.0983912 2.60279661,11.1048203 C7.6326917,11.0656608 11.6977945,7.04859589 11.6977945,2.09520942 C11.6977945,1.40845672 11.6239917,0.747420722 11.4775766,0.106256715 C11.5710204,0.812881405 11.5442371,1.53937809 11.3710388,2.25886113 C10.531235,5.75925423 6.60004846,7.8791283 2.41590902,7.19880478" id="Fill-11" fill="#1D2636" mask="url(#mask-4)"></path>
                            </g>
                            <g id="Group-16" transform="translate(89.872696, 0.000000)">
                                <mask id="mask-6" fill="white">
                                    <use xlink:href="#path-5"></use>
                                </mask>
                                <g id="Clip-15"></g>
                                <path d="M11.7568962,0.328238566 L9.69815672,4.02501372 C5.60031887,3.56737341 1.92208534,5.71939335 1.02276319,9.14848107 C0.723385929,10.2800157 1.02990539,11.9486787 1.25607509,12.7336224 C0.782904271,11.6675484 0.496621046,10.4565258 0.48352701,9.22037093 C0.509715081,7.7352317 0.863254032,6.22320682 1.56259455,4.86255978 C3.52848539,1.25053283 7.71917185,-0.594055695 11.7568962,0.328238566" id="Fill-14" fill="#38AAAB" mask="url(#mask-6)"></path>
                            </g>
                        </g>
                    </g>
                </g>
            </g>
        </g>
    </g>
</svg>