<svg width="48" height="48" viewBox="0 0 48 48" xmlns="http://www.w3.org/2000/svg"><title>8101D0F0-524A-46DF-BCBA-232D00E4A3B5</title><g fill="none" fill-rule="evenodd"><path d="M0 0h48v48H0z"/><g fill="#FFF"><path d="M5.04 24.5c0-1.733.005-3.461-.006-5.194 0-.206.044-.262.257-.262 1.033.012 2.067.006 3.1.006 1.051 0 1.654.411 1.973 1.417.458 1.466.883 2.939 1.324 4.41.05.167.1.34.151.506.028.09.028.223.168.217.117-.006.117-.128.145-.211.257-.861.514-1.722.765-2.578.224-.755.442-1.511.676-2.261.224-.733.632-1.3 1.442-1.467.117-.022.24-.033.358-.033 1.1 0 2.195.006 3.296-.006.196 0 .268.023.268.25a2146.28 2146.28 0 0 0 0 10.39c0 .205-.05.26-.257.26a99.366 99.366 0 0 0-2.877 0c-.235.006-.268-.077-.268-.283.005-1.944.005-3.889.005-5.833v-.167c0-.1.011-.217-.134-.233-.14-.017-.195.072-.229.189-.218.689-.436 1.377-.654 2.06-.424 1.34-.855 2.679-1.274 4.023-.056.178-.117.25-.318.244a36.096 36.096 0 0 0-1.9 0c-.195.006-.268-.055-.324-.238-.626-1.995-1.257-3.99-1.888-5.978a1.183 1.183 0 0 0-.09-.234c-.039-.072-.117-.088-.195-.066-.073.016-.107.066-.112.139v.194c0 1.961-.006 3.928.005 5.889 0 .228-.055.294-.29.294-.95-.01-1.9-.016-2.85 0-.229.006-.268-.072-.268-.277.006-1.723 0-3.445 0-5.167zM31.406 24.494c0 1.723-.006 3.445.006 5.167 0 .239-.073.289-.297.283-.95-.01-1.9-.01-2.85 0-.206 0-.267-.044-.262-.255.011-2 .006-4 .006-6 0-.089.028-.189-.034-.272-.095-.117-.262-.05-.352.155-.396.867-.787 1.74-1.184 2.606-.42.91-.833 1.816-1.257 2.722-.095.2-.224.383-.347.567-.229.322-.525.489-.944.483a117.488 117.488 0 0 0-3.129 0c-.19 0-.251-.039-.251-.239.005-3.472.005-6.944 0-10.417 0-.2.055-.244.251-.244.961.011 1.917.011 2.878 0 .217 0 .279.05.279.272-.011 1.961-.006 3.928-.006 5.89 0 .082 0 .166.011.25.012.077.068.105.14.105.112.005.168-.061.207-.15.173-.367.352-.734.525-1.1.648-1.356 1.29-2.706 1.939-4.061.095-.2.207-.395.324-.584.274-.422.631-.65 1.185-.628.955.04 1.916.023 2.877.006.263-.006.296.083.296.311-.011 1.706-.011 3.422-.011 5.133zM36.753 19.05c1.23 0 2.459-.006 3.688 0 .844.006 1.587.322 2.207.878.966.866 1.408 1.95 1.28 3.25-.012.139.016.3-.224.3-2-.022-4 .044-6.001-.04a5.63 5.63 0 0 1-2.626-.771c-1.319-.773-2.123-1.911-2.42-3.406-.044-.217.062-.217.219-.217 1.29.012 2.58.006 3.877.006zM38.407 24.011h5.029c.313 0 .318.006.178.278-.698 1.361-1.793 2.128-3.346 2.161-1.146.028-2.291.006-3.437.006-.447 0-.38-.028-.38.394 0 .944-.005 1.889.006 2.833 0 .2-.034.273-.257.267-.967-.011-1.939-.011-2.905 0-.18 0-.24-.039-.24-.228.005-1.822.005-3.65 0-5.472 0-.211.094-.233.267-.233 1.693-.006 3.386-.006 5.085-.006z"/></g></g></svg>