<?xml version="1.0" encoding="utf-8"?>
<!-- Generator: Adobe Illustrator 17.1.0, SVG Export Plug-In . SVG Version: 6.00 Build 0)  -->
<!DOCTYPE svg PUBLIC "-//W3C//DTD SVG 1.1//EN" "http://www.w3.org/Graphics/SVG/1.1/DTD/svg11.dtd">
<svg version="1.1" id="Слой_1" xmlns="http://www.w3.org/2000/svg" xmlns:xlink="http://www.w3.org/1999/xlink" x="0px" y="0px"
	 viewBox="5 4.4 38 38.6" enable-background="new 5 4.4 38 38.6" xml:space="preserve">
<title>4FE31626-0903-486B-B52A-9B9287E7076A</title>
<g>
	<path fill="none" d="M0,0h48v48H0V0z"/>
	<path fill="#000000" d="M36.9,25c0,4.6-2.4,8.8-6.3,10.8l-0.9,0.4c-0.3,0.1-0.6,0.2-0.9,0.2c-0.6,0-1.1-0.3-1.4-0.7
		c-0.2-0.4-0.3-0.8-0.2-1.3c0.1-0.7,0.7-1,0.8-1.1c2.3-1,3.8-3.4,3.8-6v-6.7c0-2.6-1.5-4.9-3.7-5.9c0,0-0.7-0.3-0.8-1.1
		c-0.1-0.5,0-0.9,0.2-1.3c0.3-0.5,0.8-0.7,1.4-0.7c0.3,0,0.6,0.1,0.9,0.2c0,0,0.8,0.4,0.9,0.4c3.9,2.1,6.3,6.2,6.3,10.8V25z
		 M20,33.3c0.2,0.1,0.7,0.4,0.8,1.1c0.1,0.5,0,0.9-0.2,1.3c-0.3,0.5-0.8,0.7-1.4,0.7c-0.3,0-0.6-0.1-0.9-0.2l-0.9-0.4
		c-3.9-2.1-6.3-6.2-6.3-10.8V23c0-4.6,2.4-8.8,6.3-10.8c0,0,0.9-0.4,0.9-0.4c0.3-0.1,0.6-0.2,0.9-0.2c0.6,0,1.1,0.3,1.4,0.7
		c0.2,0.4,0.3,0.8,0.2,1.3c-0.2,0.8-0.8,1.1-0.8,1.1c-2.3,1-3.7,3.4-3.7,5.9v6.7C16.2,30,17.7,32.3,20,33.3L20,33.3z M24,5
		C13.5,5,5,13.5,5,24c0,10.5,8.5,19,19,19c10.5,0,19-8.5,19-19C43,13.5,34.5,5,24,5z"/>
</g>
</svg>
