<svg width="48" height="48" viewBox="0 0 48 48" xmlns="http://www.w3.org/2000/svg"><title>923825C5-A181-415F-8135-A030A57EC505</title><g fill="none" fill-rule="evenodd"><path d="M0 0h48v48H0z"/><path d="M31.963 24.127c0 3.04-1.582 5.77-4.132 7.12l-.585.277a1.48 1.48 0 0 1-.61.139c-.397 0-.712-.169-.9-.477a1.164 1.164 0 0 1-.134-.843 1.08 1.08 0 0 1 .529-.71c1.503-.682 2.47-2.216 2.47-3.914v-4.436c0-1.698-.963-3.23-2.45-3.905-.004-.004-.448-.216-.549-.721-.059-.315-.017-.59.133-.842.19-.305.504-.477.902-.477.205 0 .417.046.61.137l.571.27c2.562 1.358 4.145 4.088 4.145 7.128v1.254zm-11.095 5.507c.1.054.441.273.53.709.06.314.02.588-.133.843-.188.308-.504.477-.902.477-.204 0-.414-.05-.61-.139l-.584-.277c-2.55-1.35-4.133-4.08-4.133-7.12v-1.254c0-3.04 1.588-5.77 4.144-7.129.025-.008.573-.27.573-.27.196-.09.406-.136.608-.136.398 0 .716.172.904.477.153.252.193.527.134.842-.101.505-.544.717-.548.72-1.488.676-2.45 2.208-2.45 3.906v4.436c0 1.698.963 3.232 2.467 3.915zM23.5 11C16.597 11 11 16.597 11 23.5S16.597 36 23.5 36C30.402 36 36 30.403 36 23.5S30.402 11 23.5 11z" fill="#000000"/></g></svg>