<?xml version="1.0" encoding="utf-8"?>
<!-- Generator: Adobe Illustrator 17.1.0, SVG Export Plug-In . SVG Version: 6.00 Build 0)  -->
<!DOCTYPE svg PUBLIC "-//W3C//DTD SVG 1.1//EN" "http://www.w3.org/Graphics/SVG/1.1/DTD/svg11.dtd">
<svg version="1.1" id="Слой_1" xmlns="http://www.w3.org/2000/svg" xmlns:xlink="http://www.w3.org/1999/xlink" x="0px" y="0px"
	 viewBox="0 -3.5 39 31" enable-background="new 0 -3.5 39 31" xml:space="preserve">
<title>AFE16187-61A4-4992-8EEC-628D5DF3539E</title>
<g>
	<path fill="none" d="M-5-12h48v48H-5V-12z"/>
	<path fill="#FFFFFF" d="M19.5,2.6c-2.9,2.3-4.6,5.8-4.6,9.5c0,3.7,1.7,7.2,4.6,9.5c2.9-2.3,4.6-5.8,4.6-9.5
		C24.1,8.4,22.4,4.9,19.5,2.6L19.5,2.6z M26.9,0c-2.5,0-4.8,0.7-6.7,2c0.1,0.1,0.2,0.2,0.3,0.2c2.8,2.5,4.5,6,4.5,9.8
		c0,3.8-1.6,7.3-4.5,9.8c-0.1,0.1-0.2,0.2-0.3,0.2c2,1.3,4.3,2,6.7,2c6.7,0,12.1-5.4,12.1-12.1C39,5.4,33.6,0,26.9,0z M18.4,21.8
		c0.1,0.1,0.2,0.2,0.3,0.2c-2,1.3-4.3,2-6.7,2C5.4,24.1,0,18.7,0,12.1S5.4,0,12.1,0c2.5,0,4.8,0.7,6.7,2c-0.1,0.1-0.2,0.2-0.3,0.2
		c-2.8,2.5-4.5,6-4.5,9.8C14,15.8,15.6,19.4,18.4,21.8z"/>
</g>
</svg>
