<svg width="48" height="48" viewBox="0 0 48 48" xmlns="http://www.w3.org/2000/svg"><title>B2101334-79C3-4E8F-B6EF-B0A751AB7607</title><g fill="none" fill-rule="evenodd"><path d="M0 0h48v48H0z"/><path d="M26.466 11.604c5.324 1.163 9.307 5.844 9.307 11.446 0 5.602-3.983 10.284-9.307 11.446v-5.898h-2.58v-.006c-2.489 0-4.767-1.634-5.435-4.12-.796-2.961.993-5.998 3.994-6.784.482-.125.966-.179 1.441-.18v-.006h2.58v-5.898zM16.63 23.05c0 3.954 3.249 7.158 7.256 7.158.177 0 .352-.008.525-.02v4.575c-.174.008-.349.013-.525.013C17.322 34.776 12 29.526 12 23.05c0-6.476 5.322-11.726 11.886-11.726.176 0 .351.006.525.014v4.574a7.586 7.586 0 0 0-.525-.02c-4.007 0-7.256 3.205-7.256 7.158z" fill="#000000"/></g></svg>