<?xml version="1.0" encoding="utf-8"?>
<!-- Generator: Adobe Illustrator 17.1.0, SVG Export Plug-In . SVG Version: 6.00 Build 0)  -->
<!DOCTYPE svg PUBLIC "-//W3C//DTD SVG 1.1//EN" "http://www.w3.org/Graphics/SVG/1.1/DTD/svg11.dtd">
<svg version="1.1" id="Слой_1" xmlns="http://www.w3.org/2000/svg" xmlns:xlink="http://www.w3.org/1999/xlink" x="0px" y="0px"
	 viewBox="6 5.5 35.6 35.6" enable-background="new 6 5.5 35.6 35.6" xml:space="preserve">
<title>FE059775-9BF9-41C0-9289-E04E3C4F7EE7</title>
<g>
	<path fill="none" d="M0,0h48v48H0V0z"/>
	<path fill="#FFFFFF" d="M27.7,5.9v9h-3.9v0c-0.7,0-1.4,0.1-2.2,0.3c-4.5,1.2-7.2,5.8-6,10.3c0,0,0,0,0,0c1,3.8,4.4,6.3,8.2,6.3v0
		h3.9v9c8-1.8,14-8.9,14-17.4C41.7,14.8,35.7,7.7,27.7,5.9z M12.9,23.3c0-6,4.9-10.9,10.9-10.9c0.3,0,0.5,0,0.8,0v-7
		c-0.3,0-0.5,0-0.8,0C14,5.5,6,13.5,6,23.3c0,9.8,8,17.8,17.8,17.8c0.3,0,0.5,0,0.8,0v-7c-0.3,0-0.5,0-0.8,0
		C17.8,34.2,12.9,29.3,12.9,23.3z"/>
</g>
</svg>
