<svg width="48" height="48" viewBox="0 0 48 48" xmlns="http://www.w3.org/2000/svg"><title>8F9575D3-928B-4538-A7C7-636CEAE84C8C</title><g fill="none" fill-rule="evenodd"><path d="M0 0h48v48H0z"/><path d="M26.466 11.62v6.058h-2.58v.007a5.56 5.56 0 0 0-1.44.184c-3.002.807-4.79 3.926-3.995 6.967a5.632 5.632 0 0 0 5.435 4.231v.007h2.58v6.057c5.324-1.194 9.307-6.002 9.307-11.755 0-5.753-3.983-10.561-9.307-11.755" fill="#00467F"/><path d="M16.63 23.376c0-4.06 3.249-7.352 7.256-7.352.177 0 .352.009.525.021v-4.698a11.913 11.913 0 0 0-.525-.014C17.322 11.333 12 16.725 12 23.376c0 6.651 5.322 12.043 11.886 12.043.176 0 .351-.006.525-.014v-4.698a7.388 7.388 0 0 1-.525.02c-4.007 0-7.256-3.29-7.256-7.351" fill="#DA251D"/></g></svg>