<svg width="48" height="48" viewBox="0 0 48 48" xmlns="http://www.w3.org/2000/svg"><title>B92B4D4C-B279-41A2-BB22-97C7F27D9757</title><g fill="none" fill-rule="evenodd"><path d="M0 0h48v48H0z"/><g fill="#006881"><path d="M26.154 35.323a11.231 11.231 0 0 1-7.339-1.38h-.958a11.738 11.738 0 0 0 6.594 2.008c2.454 0 4.73-.745 6.59-2.008h-.947a11.16 11.16 0 0 1-3.94 1.38M22.749 14.745c-.247.038-.487.087-.731.139l-2.886 6.166h2.431l2.888-6.166 2.885 6.166h2.438l-2.894-6.17a11.362 11.362 0 0 0-4.131-.135M34.252 30.622a11.102 11.102 0 0 1-3.212 3.321h3.086c.366 0 .715-.18.913-.474.2-.297.234-.671.08-.994l-.867-1.853M13.867 33.469c.202.294.547.474.914.474h3.076a11.175 11.175 0 0 1-3.202-3.321l-.867 1.853a1.01 1.01 0 0 0 .079.994M26.62 14.317l-1.176-2.503a1.081 1.081 0 0 0-.993-.614c-.426 0-.819.237-.993.614l-1.172 2.503c.702-.13 1.428-.2 2.165-.2.74 0 1.463.07 2.168.2"/><path d="M13.05 25.035c0 2.044.587 3.953 1.605 5.587l.264-.565a9.99 9.99 0 0 1-1.212-3.392c-.471-2.844.31-5.596 1.94-7.753 1.504-1.978 3.725-3.45 6.371-4.028l.268-.567c-5.268.968-9.236 5.397-9.236 10.718M26.62 14.317l.26.562c1.441.317 2.792.909 3.97 1.728 2.255 1.57 3.884 3.956 4.35 6.797a9.973 9.973 0 0 1-1.214 6.65l.266.568a10.497 10.497 0 0 0 1.608-5.587c0-5.321-3.978-9.75-9.24-10.718"/><path d="M19.713 31.78h-3.168l2.155-4.61v-5.192l-3.78 8.08a10.585 10.585 0 0 0 3.896 3.885h4.458a5.927 5.927 0 0 1-3.56-2.163M30.17 21.908V27.1l2.195 4.68H29.17a5.908 5.908 0 0 1-3.557 2.163h4.481a10.786 10.786 0 0 0 3.164-2.785c.268-.353.506-.722.728-1.104l-3.815-8.146"/><path d="M27.338 21.458v7.42c0 1.394-1.275 2.546-2.887 2.55-1.608-.004-2.888-1.156-2.888-2.55l-.001-7.411h-2.42v7.411c.002 2.628 2.389 4.734 5.309 4.737h.006c2.915 0 5.303-2.109 5.305-4.737v-7.42h-2.424"/></g></g></svg>