<?xml version="1.0" encoding="utf-8"?>
<!-- Generator: Adobe Illustrator 17.1.0, SVG Export Plug-In . SVG Version: 6.00 Build 0)  -->
<!DOCTYPE svg PUBLIC "-//W3C//DTD SVG 1.1//EN" "http://www.w3.org/Graphics/SVG/1.1/DTD/svg11.dtd">
<svg version="1.1" id="Слой_1" xmlns="http://www.w3.org/2000/svg" xmlns:xlink="http://www.w3.org/1999/xlink" x="0px" y="0px"
	 viewBox="7.1 5.3 33.7 37.6" enable-background="new 7.1 5.3 33.7 37.6" xml:space="preserve">
<title>7D802D0D-D8FA-41B0-90BD-A523B4B70833</title>
<g>
	<path fill="none" d="M0,0h48v48H0V0z"/>
	<g>
		<path fill="#000000" d="M26.4,42c-3.7,0.6-7.6-0.2-10.8-2.1h-1.4c2.9,2,6.3,3.1,9.7,3.1c3.5,0,6.9-1.1,9.7-3h-1.4
			C30.5,40.9,28.5,41.7,26.4,42 M21.4,10.7c-0.4,0.1-0.7,0.1-1.1,0.2l-4.3,9.4h3.6l4.3-9.4l4.3,9.4h3.6l-4.3-9.4
			C25.5,10.4,23.4,10.4,21.4,10.7"/>
		<path fill="#000000" d="M38.4,34.8c-1.2,2-2.8,3.7-4.7,5h4.6c0.5,0,1.1-0.3,1.3-0.7c0.3-0.5,0.3-1,0.1-1.5L38.4,34.8 M8.3,39.2
			c0.3,0.4,0.8,0.7,1.4,0.7h4.5c-1.9-1.3-3.5-3.1-4.7-5l-1.3,2.8C7.9,38.1,8,38.7,8.3,39.2 M27.1,10l-1.7-3.8
			c-0.3-0.6-0.8-0.9-1.5-0.9c-0.6,0-1.2,0.4-1.5,0.9L20.7,10c1.1-0.2,2.1-0.3,3.2-0.3C25,9.7,26.1,9.8,27.1,10"/>
		<path fill="#000000" d="M7.1,26.3c0,3.1,0.9,6,2.4,8.5L9.8,34c-0.9-1.6-1.5-3.3-1.8-5.2c-0.7-4.3,0.5-8.5,2.9-11.8
			c2.3-3.1,5.6-5.3,9.4-6.1l0.4-0.9C12.9,11.5,7.1,18.2,7.1,26.3 M27.1,10l0.4,0.9c2.1,0.5,4.1,1.4,5.9,2.6c3.3,2.4,5.7,6,6.4,10.3
			c0.6,3.5-0.1,7-1.8,10.1l0.4,0.9c1.6-2.6,2.4-5.5,2.4-8.5C40.8,18.2,34.9,11.5,27.1,10"/>
		<path fill="#000000" d="M16.9,36.6h-4.7l3.2-7v-7.9L9.8,34c1.1,2,2.7,3.8,4.6,5.2c0.4,0.3,0.7,0.5,1.1,0.7h6.6
			C20.1,39.5,18.2,38.3,16.9,36.6 M32.4,21.6v7.9l3.2,7.1h-4.7c-1.3,1.7-3.2,2.9-5.3,3.3h6.6c1.8-1.1,3.4-2.5,4.7-4.2
			c0.4-0.5,0.8-1.1,1.1-1.7L32.4,21.6"/>
		<path fill="#000000" d="M28.2,20.9v11.3c0,2.1-1.9,3.9-4.3,3.9c-2.4,0-4.3-1.8-4.3-3.9l0-11.3h-3.6v11.3c0,4,3.5,7.2,7.8,7.2h0
			c4.3,0,7.8-3.2,7.8-7.2V20.9H28.2"/>
	</g>
</g>
</svg>
