<?xml version="1.0" encoding="utf-8"?>
<!-- Generator: Adobe Illustrator 17.1.0, SVG Export Plug-In . SVG Version: 6.00 Build 0)  -->
<!DOCTYPE svg PUBLIC "-//W3C//DTD SVG 1.1//EN" "http://www.w3.org/Graphics/SVG/1.1/DTD/svg11.dtd">
<svg version="1.1" id="Слой_1" xmlns="http://www.w3.org/2000/svg" xmlns:xlink="http://www.w3.org/1999/xlink" x="0px" y="0px"
	 viewBox="0.3 16.9 47.7 14.3" enable-background="new 0.3 16.9 47.7 14.3" xml:space="preserve">
<title>A9BBC0BD-DADC-4D1A-9F04-3BCCCAAFB16B</title>
<g>
	<path fill="#000000" d="M17.1,31l2.4-13.9h3.9L20.9,31H17.1 M35,17.5c-1.1-0.4-2.3-0.6-3.5-0.6c-3.8,0-6.5,1.9-6.5,4.6
		c0,2,1.9,3.1,3.4,3.8c1.5,0.7,2,1.1,2,1.7c0,0.9-1.2,1.4-2.3,1.4c-1.5,0-2.4-0.2-3.6-0.7l-0.5-0.2l-0.5,3.1
		c0.9,0.4,2.6,0.7,4.3,0.7c4.1,0,6.7-1.9,6.7-4.7c0-1.6-1-2.8-3.2-3.8C29.8,22,29,21.6,29,21c0-0.6,0.7-1.2,2.2-1.2
		c1,0,2,0.2,2.9,0.5l0.3,0.2L35,17.5 M44.9,17.1h-3c-0.9,0-1.6,0.2-2,1.1L34.1,31h4.1c0,0,0.7-1.7,0.8-2.1l4.9,0
		c0.1,0.5,0.5,2.1,0.5,2.1H48L44.9,17.1 M40.1,26.1c0.5-1.3,1-2.6,1.5-3.9c0,0,0.3-0.8,0.5-1.3l0.3,1.2l0.9,4H40.1 M13.8,17.1
		l-3.8,9.5l-0.4-1.9c-0.7-2.2-2.9-4.6-5.4-5.8L7.8,31l4.1,0l6.1-13.8H13.8"/>
	<path fill="#000000" d="M6.6,17.1H0.3l0,0.3c4.8,1.1,8.1,3.9,9.4,7.3l-1.4-6.4C8.1,17.4,7.4,17.2,6.6,17.1"/>
</g>
</svg>
