<svg width="48" height="48" viewBox="0 0 48 48" xmlns="http://www.w3.org/2000/svg"><title>C277AD5C-FFD7-4428-AF3B-DCA81C08AAB3</title><g fill="none" fill-rule="evenodd"><path d="M0 0h48v48H0z"/><path d="M20.412 34.27L15 34.317l6.286 6.422c1.163 1.192 3.46 2.158 5.101 2.154l5.489.034-6.361-6.503c-1.163-1.185-3.459-2.156-5.103-2.156m3.081.086l-.004-9.19c0-1.677-.953-4.025-2.112-5.208l-3.863-3.876v9.084c0 1.682.953 4.02 2.117 5.207l3.862 3.983zm8.469-23.825L31.915 5l-6.286 6.426c-1.164 1.185-2.113 3.533-2.106 5.21l-.031 5.604 6.359-6.5c1.164-1.188 2.11-3.528 2.11-5.211" fill="#FFF"/></g></svg>