<svg width="48" height="48" viewBox="0 0 48 48" xmlns="http://www.w3.org/2000/svg"><title>710A527E-2D1F-40A4-8D93-9F35B12D2262</title><g fill="none" fill-rule="evenodd"><path d="M0 0h48v48H0z"/><path d="M24.001 5c2.546 0 3.346 1.853 4.015 3.708.284.785 6.896 19.188 7.093 19.74.056.152.02.407-.214.497-.235.09-3.67 1.45-3.86 1.521a.37.37 0 0 1-.474-.226c-.07-.191-1.494-4.202-1.655-4.652h-9.797c-.16.45-1.6 4.468-1.666 4.652-.066.184-.272.307-.473.226-.201-.081-3.653-1.44-3.857-1.52a.391.391 0 0 1-.218-.498c.244-.69 6.755-18.798 7.088-19.74C20.627 6.883 21.457 5 24 5zm-.02 6.01l-3.313 10.11h6.68l-3.325-10.11h-.041zm-11.61 26.918a.379.379 0 0 0-.371.387v4.299c0 .214.166.386.371.386h23.26a.377.377 0 0 0 .369-.386v-4.3a.377.377 0 0 0-.368-.386h-23.26z" fill="#FFF"/></g></svg>