<svg width="48" height="48" viewBox="0 0 48 48" xmlns="http://www.w3.org/2000/svg"><title>2E42BD30-4335-4943-BDDB-9E9B32D4A433</title><g fill="none" fill-rule="evenodd"><path d="M0 0h48v48H0z"/><path d="M42.637 23.22c-.398-1.766-2.9-2.724-4.506-1.664 1.719-.016 3.308.296 4.506 1.663m-27.618 8.888l.33-.22c-.128-.323-.19-.698-.395-.96-.88-1.131-1.766-2.262-2.728-3.321-.352-.389-.9-.623-1.399-.836-.134-.057-.41.222-.622.346l.139.22c.244-.107.488-.214.94-.41.476.634 1.003 1.257 1.44 1.937.528.82.954 1.707 1.48 2.53.188.292.539.479.815.714m22.446-6.641c.915.616 1.709.63 2.495.434.614-.154.915-.63.704-1.257-.208-.621-.746-.872-1.306-.566-.649.355-1.208.875-1.893 1.389m-21.938-10.04c.332.024.504.087.633.037 1.178-.461 2.322-.925 3.033-2.12.925-1.553 2.601-1.586 3.514-.147-.027-.961-.76-1.56-2.13-1.864-1.833 1.209-3.005 2.991-5.05 4.095m4.17 20.36l-.013.243c.722-.062 1.45-.085 2.164-.192 2.234-.332 4.211-1.186 5.624-3.033.959-1.254 1.397-2.696 1.362-4.286-.007-.338.112-.68.173-1.019l.256.045c.336.965-.06 2.211 1.073 2.993l1.073-1.385.222.102v1.134c.628-.736.55-1.11-.325-1.729l-1.097 1.47c-.155-.474-.3-.77-.34-1.079-.056-.426.009-.87-.053-1.294-.094-.648-.437-.98-1.198-.7-.477 5.453-3.139 8.708-8.922 8.73m3.234-8.95c.418.27.67.414.9.588 1.244.943 3.277.752 3.941-.378.69-1.173.69-1.173 1.944-.952 1.117-1.063 2.25-2.115 3.344-3.208.168-.169.23-.532.204-.792-.092-.915-.2-1.834-.385-2.734-.304-1.483-1.277-2.322-2.615-2.37l-1.109.914-2.446-1.69c-.208 1.656.007 3.333-1.12 4.82.32.897-.144 1.608-.708 2.305-.17.21-.327.507-.328.764-.004 1.082-.328 1.978-1.622 2.732M11.005 28.67c-.346.744-.67 1.498-1.042 2.227-.347.678-.568 1.551-1.615 1.285-.796 1.04-3.041 1.277-4.022.478-.446-.364-.404-.802-.056-1.12.567-.518 1.174-1.024 1.843-1.39.974-.533 1.937-1.034 2.373-2.101.302-.097.547-.174.875-.278.038-.249.07-.527.124-.8.132-.67.581-1.024 1.203-1.219.623-.194 1.055.06 1.411.547.282.384.578.758.994 1.15.274-1.455 1.352-2.283 2.186-3.295.484-.588.78-1.328 1.22-1.959.406-.582.81-1.217 1.36-1.638 1.309-1 2.38-2.15 2.92-3.733-1.608-1.193-2.905-.123-4.036.754-.543-.365-.898-.632-1.278-.853-.603-.35-.784-.902-.747-1.538.035-.618.604-.628 1-.888.902-.593 1.702-1.345 2.535-2.043.403-.338.788-.698 1.322-1.173V10c.845.354 1.581.719 2.355.965.565.18 1.177.262 1.77.282.718.023 1.077.332 1.299 1.012.145.447.526.813.784 1.227.171.276.37.556.449.862.091.351.065.732.098 1.22l3.69-1.448.371 1.11c1.191.573 2.808.675 3.515 2.037.638 1.23 1.005 2.601 1.49 3.907 1.009-.32 1.995-.737 3.023-.942 3.313-.658 6.112 1.902 5.495 5.664-.248 1.52-1.463 2.576-3.067 2.894-1.744.346-3.37.088-4.997-1.002l-1.037 1.583 1.477.778.073.255c-.53.272-1.035.703-1.593.786-1.654.25-2.787 1.216-4.025 2.262-3.969 3.352-8.492 4.56-13.497 2.619-2.806-1.09-4.52-3.276-5.38-6.15-.126-.42-.315-.822-.474-1.232l-.39-.02" fill="#FFF"/></g></svg>