<svg width="48" height="48" viewBox="0 0 48 48" xmlns="http://www.w3.org/2000/svg"><title>4803D2B0-CF8B-451B-8F46-D7ACCC34A6F8</title><g fill="none" fill-rule="evenodd"><path d="M0 0h48v48H0z"/><path d="M12.998 5h.237c2.054 1.818 3.835 3.901 5.12 6.122 4.078 7.046 1.66 12.757-5.404 12.757 7.065.002 16.096 5.713 20.178 12.759 1.3 2.247 1.933 4.354 1.97 6.188l-.1.174H12.998L2 23.999 12.998 5zM34.93 32.385c-1.892-3.27-4.85-6.247-8.185-8.506.72-2.256.226-5.235-1.664-8.506C22.6 11.086 18.278 7.313 13.686 5h21.31L46 24l-9.17 15.836c.303-2.096-.287-4.668-1.899-7.451z" fill="#FFF"/></g></svg>