<svg width="48" height="48" viewBox="0 0 48 48" xmlns="http://www.w3.org/2000/svg"><title>7542A8F5-CF83-4F74-B770-337BB5461D8A</title><g fill="none" fill-rule="evenodd"><path d="M0 0h48v48H0z"/><g fill="#FFF"><path d="M24.043 42.976c10.458 0 18.934-8.48 18.934-18.938 0-8.178-5.187-15.149-12.456-17.796l.077.428c7.016 2.645 12.008 9.425 12.008 17.368 0 10.252-8.311 18.564-18.563 18.564-10.251 0-18.559-8.312-18.559-18.564 0-10.249 8.308-18.558 18.56-18.558 1.103 0 2.188.096 3.242.28l.641-.255a19.248 19.248 0 0 0-3.884-.395C13.59 5.11 5.11 13.583 5.11 24.038c0 10.458 8.479 18.938 18.933 18.938"/><path d="M30.598 6.67c7.016 2.645 12.008 9.425 12.008 17.368 0 10.252-8.311 18.564-18.563 18.564-10.251 0-18.559-8.312-18.559-18.564 0-10.249 8.308-18.558 18.56-18.558 1.103 0 2.188.096 3.242.28l.641-.255a19.248 19.248 0 0 0-3.884-.395C13.59 5.11 5.11 13.583 5.11 24.038c0 10.458 8.479 18.938 18.933 18.938 10.458 0 18.934-8.48 18.934-18.938 0-8.179-5.187-15.149-12.456-17.796l.077.428z"/><path d="M33.756 11.904c-.152 1.179-.584 1.074-.779 1.017-.21-.062-.267-.15-.897-.209-.2-.019-1.12-.122-.627.266.79.632 1.463 1.915 1.463 1.915.091-.418-.122-1.015-.237-1.224-.118-.212.031-.27.176-.24.152.028.237.086.512.24.267.147.446.12.508-.24.05-.312.034-.948-.027-1.522-.008-.043-.076-.063-.092-.003zm-6.97-1.44c-1.555 1.26-4.114 4.27-5.321 7.09-.092.21 0 .242.298.061.301-.182 1.168-.598 1.585-.718 0 0-.45 1.562-.6 2.423-.118.709.47.653.837.57.367-.083 1.887-.15 2.154-.182 0 0-1.405-.33-1.554-.9-.15-.565.252-1.83.538-2.687.061-.183-.03-.448-.329-.332-.301.119-.717.208-.927.332 0 0 1.317-3.23 3.35-5.565l-.031-.091zM28.76 7.24c.088-.1 0-.18-.236-.029-.241.147-1.296.781-2.006 1.971-.087.15-.034.374.344.245a6.4 6.4 0 0 1 1.15-.275c.21-.031.21-.178.061-.235-.149-.063-.183-.12-.119-.361.057-.239.478-.928.806-1.316zM15.013 27.572c.184-.226.566-.543 1.07-.791.718-.363 2.765-.6 3.9-.584.672.007 1.123.313 1.436.626.313.313-.225.359-.493.134a1.334 1.334 0 0 0-.882-.298c-.313 0-.645.122-.821.252-.18.137-.225.32-.673.45-.542.153-1.168-.336-1.168-.336.44.83 1.195.802 1.616.7.305-.08.4-.222.851-.23.718-.011 1.032.405 1.032.405-.898-.046-2.418.516-3.14.672-.898.199-1.75.226-1.75.226.58.718 1.437.718 2.067.718.626 0 2.643-.15 3.854-.046 1.52.126 2.734 1.123 2.734 2.601s-1.027 2.284-1.027 2.284c1.299-.4 1.838-1.432 1.838-1.432.691 2.666-.745 4.797-2.06 5.668-1.092.726-4.37 1.474-6.886.271-2.784-1.333-3.839-2.631-3.839-2.631 6.054.492 9.015-1.185 9.015-1.185-5.47.317-9.286-1.066-11.754-2.146a16.363 16.363 0 0 1-2.123-5.138v.004c4.526 3.407 8.54 3.991 8.54 3.991-4.888-2.646-7.321-5.61-8.937-8.566.084-1.726.427-3.34.993-4.889l.011-.027c1.815 4.827 3.808 6.264 3.808 6.264-1.974-4.49-1.96-7.703-1.78-10.125a16.548 16.548 0 0 1 2.598-2.892l.015-.017c-.764 4.309.153 7.109.153 7.109 0-3.408 1.913-7.462 3.438-9.528a16.15 16.15 0 0 1 2.956-1.137h.003c-1.39 1.748-2 3.444-2 3.444 2.853-2.716 7.577-4.347 8.295-4.53.718-.176 2.785-.94 3.37-1.072.534-.128.793.212.76.537-.046.422-.226 1.123-.226 1.123 1.585.386 2.273 1.165 2.273 1.165-.061-.21-.031-.57-.031-.57 2.185 1.945 2.78 2.871 2.842 4.634.061 1.764.836 2.034 1.283 2.272.45.24 1.559.871 1.914 1.17.267.225.152.477 0 .656-.149.178-.149.239-.176.447-.134.917-.543 1.287-1.108 1.494-.57.208-1.2-.119-1.2-.119-.625.688-.744.239-.774-.028-.027-.27-.36-.06-.596.028-.24.09-.329-.238-.329-.238-1.138-.15-1.634.523-1.634.523.989.133 1.485.806 1.527 1.075.046.275.493.09.493.09s.042-.09.226-.178c.179-.09.225-.046.179.178-.046.223-.092.404-.092.404l.497.316c-.183 1.213-.718 1.16-.99 1.03-1.722-.862-4.797-1.03-4.797-1.03.18-.27.611-.615.611-.615-7.891 0-9.224.958-9.629 1.465-.279.351-.038.895-.038.895-.94.18-3.323.782-4.236 1.619-.879.802-1.172 2.685-1.203 3.38-.008.145.134.141.194.058z"/><path d="M35.75 36.005c-.703-2.353-2.643-3.854-3.72-5.156a84.67 84.67 0 0 0-1.089-1.276c.63.359 1.826.538 1.826.538-.328-.27-1.077-1.164-1.375-1.527-.833-.997-2.276-2.112-3.35-2.598-2.108-.955-4.305-1.077-4.602-1.134-.302-.061-.929.057-.543-.543.39-.598 2.663-2.36 2.663-2.36-.478 0-2.571.183-3.201.268-.627.092-.772-.118-.806-.534 0 0-1.26 1.186-.657 1.791.092.09.359.12.691-.029.325-.15.982-.36 1.223-.387 0 0-.54.835-.657 1.194-.12.36-.15.539.416.718.569.176 3.441 1.078 5.202 2.273 1.764 1.196 3.59 2.723 4.94 5.53 1.343 2.816.602 4.947.392 5.337a16.347 16.347 0 0 0 2.663-2.116l-.016.011zm3.934-5.959c-1.73-1.405-4.767-3.914-8.471-4.778 0 0 5.286 2.113 7.173 7.43.512-.845.939-1.72 1.298-2.652"/><path d="M29.306 39.916c.566-1.317 1.188-4.45.532-6.875 0 0 .121 5.706-3.794 7.59 1.1-.13 2.231-.375 3.255-.711l.007-.004zm11.49-16.099c-.508-.206-3.636-1.092-3.636-1.092 1.046-.057 1.466-.832 1.466-.832-.985.265-2.483.385-3.735.206 0 0 2.899 1.255 5.787 3.994v-.027c.076-.66.122-1.336.122-2.028 0-.084 0-.13-.004-.221"/></g></g></svg>