<svg width="48" height="48" viewBox="0 0 48 48" xmlns="http://www.w3.org/2000/svg"><title>1158A8EA-B820-48B0-BE93-86EEEC8D4AC6</title><g fill="none" fill-rule="evenodd"><path d="M0 0h48v48H0z"/><path d="M20.308 25.988c5.7 1.984 11.95-.966 13.957-6.593 2.009-5.627-.982-11.794-6.68-13.777-5.7-1.984-11.947.967-13.958 6.594-2.012 5.627.98 11.79 6.68 13.776m3.627 3.688c-6.045.021-10.939 1.722-10.931 3.802l.003 1.088c.009 2.077 4.912 3.742 10.955 3.725 6.046-.026 10.936-1.726 10.928-3.8l-.002-1.094c-.008-2.077-4.912-3.74-10.953-3.72m.014 11.463c-6.044 0-10.944.302-10.944.607v.649c0 .302 4.9.602 10.944.602 6.043 0 10.941-.3 10.941-.602v-.649c0-.305-4.898-.607-10.941-.607" fill="#FFF"/></g></svg>