<svg width="48" height="48" viewBox="0 0 48 48" xmlns="http://www.w3.org/2000/svg"><title>634F0B0B-9ED1-4401-BAEA-E526E408B95A</title><g fill="none" fill-rule="evenodd"><path d="M0 0h48v48H0z"/><path d="M43 23.999C43 34.493 34.493 43 24 43S5 34.493 5 23.999C5 13.507 13.507 5 24 5s19 8.507 19 18.999zm-27.9-.18l8.72 8.717 8.718-8.718-8.719-8.718-8.72 8.718zm-8.936 0c0-9.75 7.905-17.655 17.655-17.655 9.752 0 17.658 7.904 17.658 17.654 0 9.754-7.906 17.657-17.658 17.657-9.75 0-17.655-7.903-17.655-17.657z" fill="#FFF"/></g></svg>