<svg width="48" height="48" viewBox="0 0 48 48" xmlns="http://www.w3.org/2000/svg"><title>41037620-11E8-465F-950B-CD7F1066FC95</title><g fill="none" fill-rule="evenodd"><path d="M0 0h48v48H0z"/><g fill="#FFF"><path d="M15.758 29.512c-.901 1.05-2.3 1.72-3.863 1.72-2.727 0-4.933-2.035-4.933-4.543 0-2.51 2.206-4.542 4.933-4.542 1.48 0 2.81.6 3.711 1.552l1.85-2.166c-1.425-1.308-3.39-2.113-5.561-2.113C7.535 19.42 4 22.675 4 26.69c0 4.013 3.536 7.266 7.895 7.266 2.18 0 4.151-.813 5.578-2.125l-1.715-2.319zm3.296 4.285h3.33V19.714h-3.33zm18.161.073h3.33V19.788h-3.33zm-5.698.07c-2.863 0-3.548-2.253-3.617-3.52h-.021v-8.05H24.95v-2.58h2.928v-2.733l2.967-1.662-.08 2.094v2.3h3.006v2.582h-3.006v7.143a1.64 1.64 0 0 0 0 .614v.161c.114.624.57 1.142 1.184 1.385.241.095.507.148.786.148a2.07 2.07 0 0 0 1.548-.674 1.81 1.81 0 0 0 .216-.3l.004-.002s.06 3.094-2.987 3.094"/><path d="M30.343 11c-5.65 0-10.628 2.65-13.548 6.675h4.71c2.278-2.05 5.4-3.318 8.838-3.318 3.438 0 6.56 1.267 8.838 3.318h4.71C40.97 13.65 35.993 11 30.343 11"/></g></g></svg>