<svg width="48" height="48" viewBox="0 0 48 48" xmlns="http://www.w3.org/2000/svg"><title>9DC8E607-A84E-461A-AABF-2485DBDCCF08</title><g fill="none" fill-rule="evenodd"><path d="M0 0h48v48H0z"/><g fill="#FFF"><path d="M39.42 7.197l.264-.127c-.124.06-.211.1-.264.127zm3.407-1.236c-.21-.228-3.061 1.07-3.061 1.07l.128-.085c.56-.324 1.451-.79 1.118-1.169-.167-.186-.543-.103-1.63.512-.51.29-3.179 1.329-5.938 2.42-2.276.922-6.409 2.593-6.778 2.976a.199.199 0 0 0-.03.035c-.04.06-.076.133-.114.208-.142.3-.286.757-.426 1.333l-.014.054-.026.108c-.168.763-.32 1.697-.485 2.731-.487 3.138-.984 7.807-.984 7.807s-.125 3.18-.447 4.697a4.195 4.195 0 0 1-.191.635 2.885 2.885 0 0 1-.082.233v-.003c-.11.282-.26.547-.467.755-.637.652-2.205.444-2.638.394-1.012-.116-2.005-.776-2.142-.95-.132-.178-.832-1.053-1.73-1.135-.266-.023-1.353.155-1.71.145-.357-.011-.856-.48-1.42-.536-.573-.066-1.484.47-1.484.47s2.24.779 2.514 1.13c.272.354.945 1.241 1.76 1.589.817.347 3.667 3.353 3.667 3.353s.582.552 1.548 1.276c-.845.277-1.735.473-2.66.568-6.375.652-11.82-3.257-12.532-9.075a9.567 9.567 0 0 1 .272-3.754c.394-1.46 1-2.862 2.061-4.075 1.935-2.22 4.583-3.672 7.673-3.984 1.883-.195 3.798.075 5.557.716-.014-.188-.028-.373-.04-.558a12.86 12.86 0 0 0-5.612-.657c-3.17.325-6.012 1.755-8 4.033-1.414 1.61-2.271 3.511-2.527 5.515-.053.277-.06.477-.093.841-.057.682-.038 1.977.049 2.682.724 5.902 6.549 10.151 13.016 9.49 1.38-.14 2.68-.495 3.854-1.017.94.623 2.07 1.282 3.3 1.778 3.043 1.236 6.776 1.368 7.607 1.463 1.741.207 3.301 2.241 3.787 2.647.476.4 3.74-.237 3.74-.237s-.235-.61-.372-1.392c-.136-.78-1.069-1.131-1.251-1.333-.184-.2-4.381-1.95-5.053-2.338-.666-.384-1.513-1.189-2.39-2.552-.866-1.37-.499-2.39-.355-2.646.154-.255.491-.308.687-.647.206-.342.043-.369.023-.541-.017-.175.056-.302.235-.6.18-.296.105-.27.105-.27l.039-.37c.037-.37 0 0 .077-.126l.073-.13s-.019-.176.06-.303c.072-.125-.092-.258-.06-.41.032-.15.074-.128.136-.425.054-.302.026-.154.036-.476.018-.324.102-.174.28-.358.167-.191-.178-.423-.178-.423s.024-.145.31-.717c.282-.578 0 0 .08-.234.081-.238-.1-.44-.138-.671-.039-.247.032-.159.085-.456.053-.302 0 0 .104-.279.102-.275.06-.409.06-.409l-.191-.588.101-.167c.103-.173-.003-.502-.003-.502l-.262-.677s.01-.322.043-.474c.029-.153-.231-.828-.231-.828l.167-.686-.244-.997-.16-.848s-.028-1.278-.029-1.774a10.273 10.273 0 0 1 .087-1.769c.092-.667 2.2-1.483 2.43-1.872.222-.38-1.28.03-1.28.03s2.65-.718 2.832-1.022c.136-.226-1.733.109-1.733.109-.166.029 0 0 0 0 .722-.15 2.632-.579 3.283-1.092.734-.599-1.285-.138-1.61-.058.331-.082 2.553-.633 2.86-1.246.178-.351-1.662-.096-1.662-.096.92-.217 2.016-.515 2.687-.825 1.323-.606 1.4-1.065 1.133-1.194-.267-.128-2.45.546-2.45.546l-.115.037.114-.037c.631-.222 1.327-.495 1.73-.742.842-.512 1.882-1.15 1.52-1.55z"/><path d="M9.72 18.807l2.133-2.769L9.25 18.41l-1.189-3.994.209 4.06-2.182-1.32 1.991 1.887-2.777.7 2.815-.13-2.327 2.973 2.768-2.518 1.143 3.692-.198-3.684 2.096 1.247-2.021-1.913 2.783-.725-2.642.123zm27.465-13.64c-.206-.218-1.558.409-1.558.409s-8.239 3.621-11.871 5.42c-.782.387-1.75.996-1.757 2.162-.017 3.745.789 9.26 1.196 12.163.408 2.904.685 4.109.672 4.205.014-.102.164-.36.273-.868.322-1.517.447-4.697.447-4.697s.497-4.67.984-7.807c.333-2.089.617-3.775 1.073-4.448.294-.428 6.943-3.038 8.103-3.532 1.417-.603 1.576-.762 1.604-1.194.03-.431-1.482.048-1.482.048s1.303-.643 1.776-.949c.48-.302.746-.696.54-.912z"/></g></g></svg>