<svg width="48" height="48" viewBox="0 0 48 48" xmlns="http://www.w3.org/2000/svg"><title>5A61E85C-B8E5-4761-8E24-C235C9834026</title><g fill="none" fill-rule="evenodd"><path d="M0 0h48v48H0z"/><g fill="#FFF"><path d="M5.05 23.595V5.224h37.766v18.32s-5.723-7.166-9.44-9.331c-7.044-4.103-13.965-3.714-20.666.841-2.873 1.953-5.096 4.55-6.964 7.46l-.696 1.081"/><path d="M5.053 30.097v-3.04c9.088-13.3 27.787-13.986 37.64-.042v2.963c-1.458-1.127-2.87-2.338-4.4-3.377-3.434-2.33-7.235-3.789-11.344-4.396-3.414-.504-6.752-.02-10.023.96-4.381 1.314-8.29 3.466-11.556 6.711-.075.075-.176.124-.317.221M42.7 39.902v2.921H5.1c-.165-1.003-.085-2.023-.045-3.027 8.954-2.896 29.388-2.743 37.646.106"/><path d="M42.734 33.448c0 .692.003 1.434-.002 2.176-.002.258-.026.515-.04.785-12.555-5.34-25.073-5.322-37.63-.018-.016-.17-.045-.35-.046-.53-.005-.818-.002-1.635-.002-2.407 10.017-8.048 27.303-8.267 37.72-.006"/></g></g></svg>