<svg width="48" height="48" viewBox="0 0 48 48" xmlns="http://www.w3.org/2000/svg"><title>1FA43275-BC30-44E7-A10D-BC5738A0E2E2</title><g fill="none" fill-rule="evenodd"><path d="M0 0h48v48H0z"/><g fill="#FFF"><path d="M5 23.763c0 10.346 8.24 18.764 18.37 18.764 10.129 0 18.37-8.418 18.37-18.764C41.74 13.418 33.5 5 23.37 5S5 13.418 5 23.763m.635 0c0-9.987 7.955-18.115 17.735-18.115 9.782 0 17.736 8.128 17.736 18.115 0 9.988-7.954 18.116-17.736 18.116-9.78 0-17.735-8.128-17.735-18.116"/><path d="M11.049 18.828c4.66-3.163 9.81-5.002 18.54-3.443.484-.29.75-.563.874-1.153-2.18-.813-4.544-1.101-7.6-1.046-2.754.074-7.7 1.134-10.338 2.747l.802-1.036c1.85-1.12 6.664-2.612 10.27-2.683 2.547-.05 3.869.095 6.889.938-.26-.536-.893-.803-1.805-1.227-2.93-1.36-8.398-1.487-12.88.551.568-.381 1.123-.737 1.848-1.082 1.477-.698 3.894-1.376 6.916-1.325 2.417.043 5.284.912 7.042 2.718.292.356.46.735.535 1.037 1.392.729 2.197 1.41 2.654 2.217.183.409.263.864.18 1.369.578.36.852.66 1.136 1.05.21.335.362.705.402 1.052.054.45.102.957-.353 1.547.482.24.85.92.91 1.225.219 1.084-.455 2.139-1.347 2.963-1.02.93-3.277 2.029-5.114 2.514-3.652.951-6.876 1.356-9.44 1.844 1.143.281 2.708.667 5.265.667 5.443 0 10.263-2.667 10.263-2.667s-.112.353-.217.653c-3.456 2.169-8.968 3.083-11.312 2.972-2.393-.113-4.395-.479-6.36-1.103a11.53 11.53 0 0 0-1.768.624c2.991 1.407 5.249 1.723 7.808 1.917 2.607.196 6.925-.453 10.57-1.82-.165.171-.251.446-.42.607-1.866 1.008-5.815 2.03-7.795 2.115-1.972.084-4.38.009-6.471-.405-1.807-.358-3.27-.95-4.808-1.646a1.19 1.19 0 0 0-.469.795c5.999 3.243 11.621 3.314 18.012 1.26l-.584.58c-7.04 2.952-12.545 1.81-16.804-.317-.133-.066-.308-.135-.429-.217.39.713 3.648 3.17 7.283 3.477 2.506.214 5.567-.23 7.381-.984l-1.06.576c-.881.449-3.208 1.462-6.47 1.24-4.342-.305-6.783-2.291-7.878-3.331-.51-.484-.75-1.051-.904-1.741-.982-.533-1.598-1.082-2.108-1.905-.3-.486-.242-1.03-.167-1.486.027-.144.061-.277.115-.411-.472-.351-.948-.73-1.153-1.11-.427-.8-.164-1.49.133-2.022-.258-.303-.494-.604-.604-.916a2.855 2.855 0 0 1-.102-1.105c.081-.675.43-1.292.876-1.824.95-1.133 2.437-2.012 4.996-2.888 2.498-.857 3.506-.988 5.392-1.44 2.201-.526 4.831-.695 7.039-1.491-6.143-1.119-12.523-.104-17.726 3.605l.355-1.036zm20.926-3.92c-.08.313-.406.675-.63.921.67.183 1.344.436 1.992.688-.08-.613-.774-1.21-1.362-1.61zM13.048 27.614a12.823 12.823 0 0 1-1-.632c-.18.405.154.848.516 1.06.151-.155.325-.284.484-.428zm20.708-8.31c.44.225.837.39 1.224.67.28-.548.109-.905-.47-1.413a5.45 5.45 0 0 1-.754.742zm-1.314.83c-.899.43-2.184.875-4.028 1.354-1.508.391-5.193.94-9.147 1.829-1.258.282-4.648 1.11-6.314 2.576.464.386.751.483 1.272.783.693-.457 1.622-.889 3.018-1.276 2.43-.672 4.239-.96 6.423-1.315 2.17-.356 6.243-1.237 8.502-2.076.735-.275 1.42-.625 1.93-1.034-.157-.183-1.61-.909-1.656-.84zm-17.094 9.777a8.01 8.01 0 0 1 1.196-.599 43.95 43.95 0 0 1-1.94-.881c-.298.19-.563.396-.774.607.502.3 1.003.596 1.518.873zm-2.09.216c-.007.42.238.796.783 1.252.068-.227.164-.394.326-.612a17.543 17.543 0 0 1-1.108-.64zm3.07-7.764c4.444-1.348 9.116-1.763 13.84-3.07-1.846-.517-2.857-.732-4.81-.495-2.837.344-5.955.984-8.624 1.804-1.044.32-6.556 1.935-4.965 4.195 0 .028.946-1.341 4.558-2.434zm16.675-4.71a16.891 16.891 0 0 0-2.59-.935c-.429.356-.933.667-1.647.954 1.197.22 2.101.565 3.109.868.183.094.999-.701 1.128-.888zm2.192 4.426c-.137.12-.286.24-.449.369-1.007.8-2.596 1.44-4.803 2.052-4.577 1.27-7.898 1.46-11.68 2.418a15.47 15.47 0 0 0-2.216.745c.714.363 1.47.707 2.251 1.012 1.53-.45 2.27-.659 4.495-1.05.846-.147 3.451-.62 5.343-1.034 3.398-.75 8.384-2.378 7.059-4.512z"/></g></g></svg>