<svg width="48" height="48" viewBox="0 0 48 48" xmlns="http://www.w3.org/2000/svg"><title>31935664-41B2-43CA-A13C-31BB9B6044E2</title><g fill="none" fill-rule="evenodd"><path d="M0 0h48v48H0z"/><path d="M5 5.001c12.667.003 25.334-.007 38 .005v37.99c-12.666.006-25.333.004-38 0V5.001zm16.573 19.095c-2.73.283-5.439 1.111-7.727 2.651a13.993 13.993 0 0 0-4.924 5.8c-1.238 2.664-1.686 5.637-1.608 8.556 1.545-.003 3.09 0 4.634-.001-.057-1.826.147-3.668.7-5.412.683-2.17 1.975-4.175 3.8-5.554 2.081-1.598 4.74-2.302 7.338-2.312 2.37-.05 4.788.474 6.818 1.73 1.903 1.161 3.387 2.955 4.273 4.994.9 2.053 1.245 4.32 1.174 6.553 1.545.002 3.09-.001 4.636.002.08-2.83-.37-5.706-1.552-8.293-.89-1.964-2.21-3.74-3.87-5.122-2.075-1.75-4.646-2.854-7.303-3.354-2.101-.399-4.263-.45-6.39-.238zM13.548 9.283v7.705c.036.583.202 1.16.5 1.664.78 1.269 2.082 2.106 3.42 2.691 2.307.98 4.849 1.304 7.34 1.22 2.16-.105 4.341-.52 6.292-1.485.962-.484 1.874-1.117 2.54-1.975.498-.62.794-1.4.812-2.196-.004-2.54 0-5.082-.001-7.624-1.448-.004-2.895 0-4.342-.001.001 2.54-.002 5.08.001 7.62.016.439-.186.856-.472 1.177-.487.528-1.152.849-1.82 1.086-1.428.482-2.954.604-4.454.555-1.01-.054-2.022-.184-2.99-.491-.663-.214-1.318-.507-1.841-.975-.375-.342-.662-.825-.643-1.346.002-2.542 0-5.084.001-7.626-1.447 0-2.896-.003-4.343.001zm9.994-2.31c1.25-.144 2.56.305 3.442 1.206a4.177 4.177 0 0 1 1.227 2.512c.161 1.181-.25 2.419-1.037 3.309a4.249 4.249 0 0 1-5.967.378 4.242 4.242 0 0 1-1.416-2.657 4.212 4.212 0 0 1 1.183-3.5 4.158 4.158 0 0 1 2.568-1.247z" fill="#FFF"/></g></svg>