<svg width="48" height="48" viewBox="0 0 48 48" xmlns="http://www.w3.org/2000/svg"><title>3A45A48C-ECF4-429B-B201-DF313F1AEACD</title><g fill="none" fill-rule="evenodd"><path d="M0 0h48v48H0z"/><g fill="#FFF"><path d="M4 24.09c0-2.014 2.44-3.623 3.821-3.622 6.427.006 12.854-.001 19.281.004.285 0 .57.067.966.118.023.493.063.944.063 1.396.004 5.88.006 16.211.006 17.639 0 1.428-1.284 4.188-3.53 4.188l-8.34.01.064-11.63L4 32.207V24.09z"/><path d="M43.615 17.418s.04 7.618.07 10.795c.034 3.412-2.707 6.533-5.945 6.828-1.343.123-2.7.193-4.047.154-1.233-.035-1.582-.516-1.5-1.693.064-.926.392-1.259 1.363-1.29.888-.03 1.778-.002 2.667-.011 2.648-.028 4.532-1.965 4.419-4.513-.086-1.945-.065-7.24-.065-7.24l-12.44.02-.002-12.452s-5.407.015-7.524.055c-2.335.043-3.918 1.414-4.243 3.717-.135.955-.124 1.944-.06 2.91.042.654-.016 1.302-.603 1.527-.548.21-1.262.218-1.827.055-.307-.089-.633-.713-.649-1.108-.074-1.897-.21-3.816.496-5.647.69-1.788 1.96-3.027 3.666-3.859 1.005-.49 2.042-.683 3.17-.665 3.049.051 6.098.018 9.147.018.42 0 1.08-.019 1.665-.019.032.5-.076 12.293-.076 12.293l12.318.125z"/></g></g></svg>