<svg width="48" height="48" viewBox="0 0 48 48" xmlns="http://www.w3.org/2000/svg"><title>B7AC823A-4239-47D7-98DB-948886452CFB</title><g fill="none" fill-rule="evenodd"><path d="M0 0h48v48H0z"/><path d="M5 23.795c.213-4.038 1.258-7.74 3.854-10.936 2.71-3.337 5.994-5.789 10.127-7.024 1.172-.35 2.377-.5 3.6-.597 1.882-.15 5.576.373 7.496 1.152 1.227.498 2.383 1.174 3.567 1.777.155.079.296.188.432.297.247.197.242.41.01.617-.471.422-.953.831-1.414 1.264-1.462 1.373-2.907 2.764-4.375 4.13-2.368 2.204-4.757 4.385-7.121 6.592-2.52 2.353-5.019 4.73-7.535 7.087-1.642 1.539-3.3 3.061-4.95 4.591-.077.072-.148.152-.23.217-.42.332-.67.325-.948-.138a14.21 14.21 0 0 1-.967-1.874C5.792 29.126 5 26.53 5 23.795M20.165 42.51c-1.578-.38-3.094-.843-4.473-1.703-.453-.282-.446-.538-.046-.91 1.753-1.627 3.504-3.255 5.256-4.884 2.806-2.609 5.612-5.22 8.42-7.828 1.777-1.65 3.558-3.298 5.335-4.948 1.779-1.65 3.554-3.304 5.333-4.953.938-.87 1.233-.816 1.647.363.558 1.59.936 3.214 1.153 4.901.554 4.292-.483 8.205-2.828 11.717-2.458 3.682-5.77 6.405-10.013 7.847-2.583 1.153-8.621.677-9.784.397m21.538-30.682c.03.72-.21 1.102-.553 1.425-.743.7-1.496 1.388-2.24 2.086-2.539 2.387-5.072 4.781-7.616 7.164-1.72 1.61-3.458 3.204-5.184 4.81-2.988 2.782-5.97 5.57-8.958 8.352-1.7 1.582-3.413 3.15-5.103 4.742-.438.412-.922.622-1.511.607-.612-.015-.941-.326-.839-.935.066-.391.244-.837.52-1.105 1.21-1.175 2.475-2.294 3.72-3.434.13-.119.262-.235.39-.356 1.56-1.477 3.113-2.96 4.678-4.432 2.102-1.977 4.21-3.948 6.32-5.917 1.852-1.73 3.706-3.456 5.564-5.178 2.658-2.464 5.319-4.924 7.982-7.382.31-.285.645-.542.96-.822.455-.407.988-.383 1.474-.164.225.102.338.454.396.539M7.235 37.007c.162-.295.263-.654.495-.875 1.58-1.503 3.185-2.978 4.783-4.462.129-.12.26-.237.388-.358 1.56-1.474 3.116-2.953 4.681-4.422 2-1.878 4.006-3.75 6.012-5.622a4791.91 4791.91 0 0 1 5.714-5.32c1.776-1.653 3.546-3.313 5.338-4.949a76.227 76.227 0 0 1 2.868-2.48c.466-.385.865-.333 1.315.06.396.346.47.838.167 1.328-.166.267-.35.537-.576.751-1.045.994-2.106 1.971-3.165 2.95-.257.238-.537.45-.793.69-2.54 2.384-5.072 4.776-7.615 7.156-1.771 1.658-3.557 3.301-5.333 4.954-2.935 2.732-5.863 5.472-8.803 8.197-1.108 1.028-2.243 2.026-3.365 3.036-.131.118-.253.253-.4.342-.367.221-.757.427-1.184.184-.427-.244-.48-.665-.527-1.16" fill="#FFF"/></g></svg>