<svg width="48" height="48" viewBox="0 0 48 48" xmlns="http://www.w3.org/2000/svg"><title>F9D26A46-8354-427F-83A0-3150BDDDA530</title><g fill="none" fill-rule="evenodd"><path d="M0 0h48v48H0z"/><g fill="#FFF"><path d="M23.573 20.786c-.368.04-.4.398-.534.635-3.19 5.677-6.368 11.36-9.551 17.04-1.573 2.807-4.74 3.66-7.262 1.963-2.264-1.523-2.894-4.547-1.46-7.115 2.586-4.63 5.186-9.252 7.777-13.88 1.916-3.42 3.828-6.845 5.745-10.267.119-.213.265-.41.399-.614.202.216.1.466.076.708-.147 1.444.048 2.782.807 4.07 1.364 2.315 2.665 4.67 3.954 7.03.062.138.13.275.049.43"/><path d="M23.573 20.786l-.114-.248c.294-1.01.876-1.873 1.392-2.76.94-1.619 1.786-3.293 2.751-4.896.66-1.097.664-2.307.587-3.532-.016-.263-.157-.539.07-.778 1.468 2.591 2.944 5.178 4.402 7.774a7243.144 7243.144 0 0 1 9.573 17.092c1.573 2.82.456 6.23-2.419 7.465-2.323.998-4.965.045-6.291-2.306-2.143-3.798-4.268-7.608-6.395-11.415-1.19-2.13-2.371-4.264-3.556-6.396"/><path d="M28.26 8.572c.412 2 .004 3.772-1.107 5.498-1.181 1.836-2.137 3.825-3.2 5.743-.14.255-.328.484-.493.725-1.502-2.66-3.031-5.306-4.494-7.989-.685-1.258-.534-2.64-.28-4 .897-2.035 2.34-3.32 4.581-3.396 2.43-.082 4.022 1.204 4.992 3.419m.334 27.56c.001 2.99-2.224 5.312-5.1 5.322-2.915.01-5.153-2.315-5.148-5.347.005-2.986 2.234-5.275 5.136-5.274 2.888.002 5.112 2.307 5.112 5.299"/></g></g></svg>