<svg width="48" height="48" viewBox="0 0 48 48" xmlns="http://www.w3.org/2000/svg"><title>805CD620-361A-4DE6-82C1-E14D3DE7CB64</title><g fill="none" fill-rule="evenodd"><path d="M0 0h48v48H0z"/><path d="M38.56 12.064h5.409v2.082c-.849.002-1.697-.002-2.545.002-.458.009-.957.054-1.322.36-.382.322-.48.85-.485 1.324l-.001 19.825h-8.087V19.72c-.014-1.575.315-3.195 1.189-4.529a6.619 6.619 0 0 1 2.84-2.418c.941-.432 1.97-.65 3.001-.71M8.36 31.53c.003-6.39-.005-12.782.004-19.173 2.691.004 5.383.004 8.074 0 .006 5.348.001 10.697.003 16.046.001 1.34-.243 2.702-.872 3.896a6.518 6.518 0 0 1-2.452 2.591c-1.148.687-2.484 1.033-3.817 1.077-1.765.006-3.53-.005-5.294.005-.012-.711-.002-1.423-.006-2.134h2.483c.419-.006.861-.033 1.23-.25.256-.148.437-.4.526-.676.15-.444.117-.92.121-1.381m11.615-19.172c2.682 0 5.365.002 8.047-.002.006 7.767.001 15.534.002 23.3-2.68 0-5.362-.002-8.043.002-.012-7.767 0-15.533-.006-23.3" fill="#FFF"/></g></svg>