<svg width="48" height="48" viewBox="0 0 48 48" xmlns="http://www.w3.org/2000/svg"><title>359340E6-68DC-4EA4-9455-9BD50F9E9301</title><g fill="none" fill-rule="evenodd"><path d="M0 0h48v48H0z"/><g fill="#FFF"><path d="M8.502 39.821c.622-1.777 1.422-3.5 1.822-5.31 1.044-4.725.325-9.35-1.229-13.87-1.074-3.126-2.56-6.038-4.726-8.58-.1-.118-.177-.257-.369-.54 2.437-.47 4.757-.973 7.096-1.36 4.795-.797 9.622-1.303 14.489-.994 1.687.107 3.395.366 5.023.81 3.583.976 4.864 3.303 3.984 6.902-.638 2.61-1.98 4.876-3.643 6.943-5.83 7.253-13.176 12.477-21.882 15.854-.151.06-.307.11-.464.151-.058.016-.126-.008-.101-.006"/><path d="M36.86 9c1.464.354 2.683 1.249 3.7 2.42 2.132 2.452 3.247 5.356 3.368 8.54.246 6.5-1.847 12.359-5.326 17.795-.43.671-.848.76-1.609.503-3.601-1.22-7.34-1.329-11.079-1.016-3.122.26-6.226.732-9.23 1.096 1.476-.95 3.111-1.93 4.67-3.017 5.485-3.83 10.389-8.246 13.901-13.993 1.616-2.643 2.801-5.46 2.481-8.637-.124-1.23-.567-2.427-.877-3.691"/></g></g></svg>