<svg width="48" height="48" viewBox="0 0 48 48" xmlns="http://www.w3.org/2000/svg"><title>4FE31626-0903-486B-B52A-9B9287E7076A</title><g fill="none" fill-rule="evenodd"><path d="M0 0h48v48H0z"/><path d="M36.864 24.953c0 4.622-2.404 8.77-6.281 10.823l-.889.42a2.25 2.25 0 0 1-.926.211c-.604 0-1.083-.256-1.37-.724-.23-.387-.292-.804-.203-1.282.135-.662.651-.995.804-1.078 2.285-1.038 3.755-3.37 3.755-5.95V20.63c0-2.581-1.464-4.91-3.725-5.936-.006-.006-.68-.328-.834-1.095-.09-.479-.026-.897.203-1.28.287-.464.766-.726 1.37-.726.312 0 .634.07.926.209 0 0 .835.396.87.41 3.893 2.064 6.3 6.214 6.3 10.835v1.906zm-16.865 8.37c.153.083.671.416.807 1.078.09.478.03.895-.204 1.282-.285.468-.765.724-1.37.724-.31 0-.63-.076-.927-.21l-.889-.421c-3.876-2.053-6.281-6.2-6.281-10.823v-1.906c0-4.62 2.414-8.771 6.3-10.836.037-.013.87-.41.87-.41.298-.138.617-.208.924-.208.604 0 1.088.262 1.373.725.233.384.294.802.204 1.28-.153.768-.826 1.09-.833 1.096-2.261 1.026-3.723 3.355-3.723 5.936v6.743c0 2.58 1.464 4.912 3.75 5.95zM24 5C13.508 5 5 13.507 5 23.999 5 34.493 13.508 43 24 43c10.491 0 19-8.507 19-19.001C43 13.507 34.491 5 24 5z" fill="#FFF"/></g></svg>