<svg width="48" height="48" viewBox="0 0 48 48" xmlns="http://www.w3.org/2000/svg"><title>6795B564-BF91-4657-AA1D-3B7522B2A555</title><g fill="none" fill-rule="evenodd"><path d="M0 0h48v48H0z"/><g fill="#FFF"><path d="M34.485 8.931a4.587 4.587 0 1 1-4.589 4.584 4.585 4.585 0 0 1 4.59-4.584z"/><path d="M23.886 5.116V5C13.45 5.063 5 13.547 5 24c0 10.493 8.51 19 19 19 10.467 0 18.955-8.465 19-18.92h-6.872c-.04 6.664-5.453 12.053-12.128 12.053-6.7 0-12.132-5.436-12.132-12.132 0-6.664 5.373-12.071 12.018-12.134V5.116z"/><path d="M24 15.483a8.518 8.518 0 1 1 0 17.035 8.518 8.518 0 0 1 0-17.035z"/></g></g></svg>