<svg width="48" height="48" viewBox="0 0 48 48" xmlns="http://www.w3.org/2000/svg"><title>79D2AE0E-AAF5-49F6-B2AB-1C6C0E9FF705</title><g fill="none" fill-rule="evenodd"><path d="M0 0h48v48H0z"/><g fill="#FFF"><path d="M6.146 18.552c4.165.072 8.33-.007 12.495.026l.158.013c-.066 3.805-.026 7.616-.02 11.428 3.483-.04 6.97.092 10.453-.1.523.692 1.193 1.445.928 2.418-.014 3.465-.014 6.93-.034 10.394-8.004-.066-16.015.02-24.02-.047.093-8.042.014-16.09.04-24.132"/><path d="M6 5.832c12.222-.014 24.445 0 36.674 0 .026 12.313 0 24.627.013 36.946-3.35-3.265-6.592-6.63-9.921-9.901a18.397 18.397 0 0 1-2.845-3.491c.418-3.539.079-7.11.225-10.668-3.78-.167-7.566.047-11.347-.126l-.158-.014C14.449 14.307 10.205 10.09 6 5.832"/></g></g></svg>