<svg width="48" height="48" viewBox="0 0 48 48" xmlns="http://www.w3.org/2000/svg"><title>32E366D5-EA9C-4A02-821D-7B28357ABD2C</title><g fill="none" fill-rule="evenodd"><path d="M0 0h48v48H0z"/><g fill="#FFF"><path d="M32.01 19.392c.464-.097.82-.24 1.169-.228.623.02.621.08.378.617-.07.155-.179.298-.294.424-.114.125-.259.222-.392.333.277.076.557.123.812.23.357.15.399.303.11.548-.3.254-.666.429-1.001.637.262.25.59.547.572 1.134l-1.286-.09c.044.12.134.299.17.487.065.33.074.734-.203.899-.154.092-.519-.12-.762-.247-.172-.09-.299-.267-.437-.396-.062.217-.112.451-.2.67-.073.185-.217.275-.409.133-.194-.144-.382-.296-.548-.426l-.887.637a3.746 3.746 0 0 1-.128-.062l-.12-.94-.638-.187.6-1.071c.583.183 1.193.239 1.808.093.156-.036.31-.1.453-.173.237-.119.357-.332.28-.583-.152-.495-.32-.987-.52-1.464-.337-.806-.225-1.254.493-1.76.71-.501 1.38-1.049 1.9-1.756.167-.228.306-.476.497-.776.165 1.392-.252 2.474-1.417 3.317m-12.48 3.1l.604 1.07-.652.192c-.026.237-.047.498-.084.757-.024.173-.14.23-.285.136-.26-.168-.51-.353-.76-.527-.158.122-.352.28-.554.428-.176.129-.317.054-.388-.122-.088-.214-.145-.442-.195-.601-.308.176-.648.378-.994.567-.195.107-.287-.001-.359-.183-.176-.446-.08-.857.124-1.224l-1.296.111c-.04-.593.307-.89.638-1.219-.46-.091-.843-.253-1.131-.605-.177-.215-.152-.37.097-.466.28-.108.574-.185.782-.251-.207-.299-.455-.631-.675-.982-.133-.213-.062-.342.207-.394.467-.09.881.053 1.337.187-.206-.207-.434-.397-.615-.624-.194-.244-.384-.507-.506-.791a3.194 3.194 0 0 1-.21-.889c-.034-.3-.007-.609-.007-.934.042.02.075.024.084.041.538 1.052 1.404 1.787 2.345 2.448.326.228.627.486.64.915.008.236-.044.485-.122.71-.15.433-.363.844-.503 1.28-.198.61-.027.898.602 1.053a3.25 3.25 0 0 0 1.775-.057c.036-.011.074-.02.101-.026m19.38-10.118c-1.284.866-1.996 2.233-3.008 3.33l-.089-.026c.056-.256.061-.539.176-.765 1.002-1.968 2.21-3.788 3.84-5.3l.3-.278c.065.393.126.717.168 1.043.143 1.11-.032 2.155-.652 3.107-.857 1.316-1.923 2.43-3.224 3.305-.41.275-.867.482-1.35.664l.12-.183c.15-.241.365-.465.437-.728.122-.449.426-.703.749-.99.852-.756 1.74-1.488 2.247-2.553.098-.207.19-.417.286-.626m-26.698 3.307c-1.078-1.081-1.795-2.435-3.007-3.345l-.07.04c.128.268.243.542.385.801.598 1.091 1.554 1.846 2.464 2.646.135.119.227.293.319.453.177.307.337.624.509.934.046.083.111.156.125.291-.383-.2-.785-.372-1.146-.606a10.99 10.99 0 0 1-3.548-3.69c-.708-1.206-.62-2.49-.32-3.828.088.064.147.099.196.144 1.709 1.562 2.969 3.455 3.998 5.513.093.185.066.43.095.647m-4.698-.594c.407.39.772.845 1.232 1.158.846.578 1.752 1.066 2.623 1.608.203.125.366.315.547.474l-.07.116c-.424-.116-.86-.2-1.27-.355a12.063 12.063 0 0 1-3.683-2.182c-1.056-.912-1.359-2.078-1.23-3.492.257.12.508.185.698.33a51.92 51.92 0 0 1 2.26 1.812c.77.666 1.483 1.4 2.259 2.058.343.293.445.652.567 1.083-1.309-.922-2.427-2.041-3.854-2.703l-.08.093M40.45 15c-1.427.657-2.542 1.778-3.86 2.702.137-.45.25-.814.603-1.112.778-.655 1.488-1.392 2.258-2.058.722-.624 1.48-1.207 2.238-1.79.185-.142.428-.209.705-.339.066 1.145-.022 2.169-.774 3.02-.718.813-1.604 1.41-2.543 1.93-.856.474-1.75.86-2.72 1.041-.057.01-.114.012-.17.017l-.06-.082c.19-.165.358-.373.575-.487 1.173-.616 2.346-1.229 3.283-2.197.181-.187.347-.388.52-.583l-.055-.063m-27.867 4.115c-.234.074-.405.144-.582.178-.137.027-.296.047-.423.003-1.037-.357-2.06-.763-3.16-.9a.955.955 0 0 0-.42.022c.099.055.195.114.296.163.98.472 2.019.748 3.083.936.22.039.379.096.477.34.087.215.28.387.417.565-.619-.17-1.26-.353-1.905-.52-1.052-.272-2.118-.498-3.158-.81-1.03-.31-1.99-.784-2.722-1.617-.138-.158-.247-.34-.426-.59h.433c1.262.01 2.49.243 3.682.637 1.36.45 2.702.955 4.051 1.438.103.037.202.087.357.155m23.218 1.306c.152-.228.298-.482.48-.707.076-.094.22-.15.344-.185.888-.253 1.781-.486 2.666-.749.268-.079.514-.23.77-.349l-.024-.103c-.466.086-.943.135-1.397.266-.75.218-1.486.49-2.23.733a.466.466 0 0 1-.258.019c-.209-.061-.41-.146-.706-.255 2.788-1.024 5.449-2.224 8.525-2.212-.151.226-.25.408-.381.564-.645.766-1.497 1.241-2.423 1.53-1.22.381-2.473.658-3.71.985-.568.15-1.13.315-1.656.462M21.642 39.748l.406.31-1.262.5V39.21l.418.248 1.9-2.88 1.877 3.408 3.663-5.157-.371-.313 1.237-.474v1.366l-.438-.267-4.136 5.817-1.877-3.35-1.417 2.14m13.019-5.823c-.232-.704-.455-1.414-1.36-1.651.865-.287 1.454-.82 1.836-1.514.14.45.257.942.44 1.408.542 1.373.252 2.576-.668 3.677-.193.23-.335.502-.512.747a.28.28 0 0 1-.192.102c-.356.012-.713.023-1.068.004-.092-.005-.178-.118-.267-.182.09-.063.178-.131.273-.187.03-.018.08-.006.12-.006.942.007 1.226-.637 1.25-1.237.03-.716-.539-1.359-1.225-1.452-.764-.102-1.663.422-1.646 1.56-.38-.402-.408-.736-.099-1.17.712-1 2.016-1.107 2.885-.235.056.057.104.123.156.184l.077-.048m-21.248.029c.37-.376.77-.665 1.308-.735a1.872 1.872 0 0 1 1.942 1.082c.117.265.045.525-.27.925.033-.648-.216-1.131-.76-1.438-.524-.296-1.256-.184-1.665.235-.473.484-.575 1.185-.255 1.749a.99.99 0 0 0 .808.528c.151.014.309.003.454.042.077.02.134.12.2.184-.061.058-.121.164-.185.166a21.04 21.04 0 0 1-1.22-.002c-.043-.001-.096-.062-.126-.108-.153-.224-.281-.468-.453-.677-.67-.815-1.14-1.702-.957-2.8.07-.418.229-.821.346-1.232l.306-1.08c.218.25.458.588.762.85.3.26.667.445.991.654-.789.203-1.024.917-1.226 1.657m22.589-13.327c2.547-.88 5.15-1.216 7.828-.852l.026.078c-.066.051-.128.109-.198.154-1.534.982-3.209 1.464-5.03 1.418-.498-.012-.995-.047-1.493-.047-.242 0-.413-.065-.49-.294l3.498-.464-.011-.151c-.575 0-1.154-.043-1.723.01-.645.061-1.28.217-1.922.311-.156.023-.323-.036-.485-.057v-.106m-24.571.398c-.119.287-.285.36-.53.352-1.054-.03-2.115.02-3.162-.081-1.305-.128-2.46-.713-3.54-1.47 2.69-.419 5.299-.078 7.853.802l.005.111c-.192.011-.393.066-.572.025a11.491 11.491 0 0 0-3.205-.308c-.12.006-.239.03-.36.073 1.14.32 2.305.45 3.511.496m1.055 1.279c-.25.13-.487.323-.752.379-1.926.404-3.868.654-5.841.466-.326-.03-.648-.106-1.02-.17 1.95-1.381 4.156-1.17 6.286-1.326.1-.007.206.084.303.167-.992.146-1.991.186-2.931.55.801.093 1.593.035 2.379-.118.16-.03.327-.042.476-.1.363-.144.708-.097 1.054.049l.046.103m30.634.703c-.491.065-.98.166-1.473.187-1.798.078-3.575-.124-5.33-.512-.266-.059-.503-.248-.738-.425.318-.134.593-.245.937-.15.508.138 1.034.23 1.558.28.473.046.954.01 1.43.01l.021-.088c-.481-.1-.96-.22-1.446-.294-.49-.076-.988-.106-1.483-.157l-.023-.083c.129-.04.26-.121.386-.115 1.087.053 2.177.089 3.26.195 1.045.103 1.99.535 2.899 1.038l.001.114m-6.927-.073c.315.049.63.094.944.146.912.148 1.831.257 2.68.663.776.37 1.387.918 1.84 1.646.047.075.078.16.123.253-.555.127-1.084.075-1.59-.07a15.276 15.276 0 0 1-1.687-.607c-.98-.41-1.948-.85-2.921-1.279.285-.106.548-.198.912-.056.696.271 1.43.441 2.15.647.105.03.22.021.34.003-.84-.634-1.846-.9-2.824-1.226l.033-.12M6.253 25.645a4.22 4.22 0 0 1 1.937-1.883c.863-.425 1.805-.536 2.736-.684.308-.05.616-.097.944-.088-.953.39-1.956.659-2.801 1.323.247-.034.502-.038.74-.106.575-.163 1.16-.313 1.704-.554.362-.16.647-.096.979.04-.75.317-1.479.632-2.214.932-.788.322-1.572.656-2.376.932-.51.175-1.054.202-1.649.088m3.861 3.269c.103-.985.433-1.826 1.095-2.487.655-.653 1.368-1.248 2.065-1.857.075-.065.22-.073.33-.07.169.006.337.046.599.085-.168.17-.282.314-.423.422-.595.458-1.208.893-1.793 1.362-.183.147-.3.377-.408.607.908-.433 1.629-1.105 2.326-1.807l.096.025c-.029.144-.013.322-.093.426-.55.721-1.122 1.425-1.681 2.138-.53.677-1.217 1.055-2.113 1.156m23.712-4.328c.299-.045.478-.086.658-.093.1-.004.228.02.299.082.695.611 1.407 1.207 2.062 1.859.662.66.982 1.503 1.093 2.471-.872-.076-1.552-.445-2.08-1.1-.587-.73-1.17-1.463-1.74-2.206-.074-.096-.055-.265-.08-.4l.078-.025c.373.338.732.691 1.122 1.008.382.31.794.583 1.193.872l.093-.099c-.191-.239-.348-.521-.58-.71-.536-.433-1.11-.818-1.663-1.232-.144-.107-.265-.247-.455-.427m6.222 2.979c-.913 0-1.71-.229-2.377-.81-.93-.81-1.841-1.639-2.77-2.468.085-.218.181-.086.288-.017.785.505 1.571 1.008 2.36 1.508.076.049.167.073.252.104.015.006.037-.01.078-.022-.655-1.08-1.826-1.43-2.85-1.98l.057-.094c.13.046.261.088.389.14.8.327 1.604.643 2.395.989 1.097.48 1.733 1.379 2.15 2.463.018.046.015.099.028.187M10.203 25.91c.216-.099.45-.172.647-.3.675-.434 1.337-.889 2.006-1.332.073-.048.164-.07.246-.103l.053.104c-.295.259-.592.516-.885.778-.637.57-1.263 1.155-1.912 1.712-.67.574-1.465.802-2.356.794.011-.087.007-.15.028-.204.425-1.08 1.064-1.977 2.163-2.451.822-.354 1.653-.684 2.48-1.023.089-.036.183-.055.275-.083l.038.078c-.092.058-.181.123-.278.173-.521.274-1.07.505-1.56.827-.38.25-.686.61-1.026.92l.08.11"/><path d="M32.096 36.692l-.632.1c-.575-1.622-1.173-3.203-3.018-3.77.136-.394.19-.404.842-.155.009-.016.022-.03.027-.047l.13-.396c.212.072.508.08.62.228.318.42.58.886.828 1.354.239.449.417.93.65 1.383.312.603.509.644 1.073.272.54-.356 1.1-.27 1.509.275-.12.058-.227.154-.339.158-.633.023-1.174.29-1.7.607l.01-.01zM15.95 36.7c-.521-.328-1.067-.58-1.697-.607-.11-.005-.215-.104-.328-.163.339-.518 1.06-.62 1.463-.3.071.057.151.103.23.15.35.2.554.16.764-.186.133-.216.229-.454.348-.679.386-.728.773-1.455 1.167-2.178a.609.609 0 0 1 .203-.221c.368-.227.596-.106.652.356.302-.085.655-.422.868.141-1.854.565-2.457 2.141-3.035 3.777l-.645-.1.01.01zm3.944-22.505l.507-.35h-.69l.183.35m-.795-.865c.63.032 1.242.093 1.854.083.616-.01 1.23-.09 1.889-.144l-.294.334.31.185-.45.367.98.498c-.334.323-.922.229-1.535-.287l-.029.29-.318-.088.042.285-.361-.064-.036.245c-.168-.068-.327-.123-.48-.195-.145-.069-.283-.154-.44-.24l-.044.21c-.61-.042-1.04-.638-1.088-1.479m9.044.856l.196-.349h-.712l.516.35m.808-.952c-.029.872-.41 1.433-1.065 1.6l-.063-.22-.92.44-.043-.269-.34.072.02-.292-.3.097-.056-.284c-.6.49-1.116.583-1.575.257.192-.069.37-.115.532-.196.16-.08.304-.195.47-.305l-.379-.36.326-.212c-.135-.08-.256-.154-.377-.227l.059-.077c1.23.114 2.46.355 3.711-.024M15 25.59c-.117.142-.206.247-.29.355-.443.568-.896 1.128-1.32 1.71-.117.162-.145.39-.213.586l.08.058c.125-.104.273-.19.374-.314.332-.412.683-.815.955-1.265.202-.335.403-.51.791-.365-.423.716-.81 1.469-1.293 2.155-.41.585-1.044.917-1.806 1.188.039-.356.049-.654.106-.943.174-.865.65-1.575 1.19-2.248.126-.16.274-.303.396-.466.24-.322.535-.516 1.03-.451m19.87 2.648c-.069-.197-.096-.424-.213-.585-.423-.583-.877-1.143-1.32-1.71-.084-.108-.173-.212-.289-.353.411-.035.687.056.932.337.72.827 1.417 1.665 1.668 2.77.069.303.083.619.134 1.011-.846-.32-1.538-.704-1.982-1.42-.39-.629-.744-1.282-1.111-1.92.466-.128.445-.113.717.274.344.49.724.957 1.096 1.426.072.091.184.15.278.224l.09-.054M12.463 14.746c.793.238 1.31.752 1.64 1.466.115.247.17.522.254.784l.505 1.589c-1.543-.412-2.764-2.305-2.399-3.839m23.122.033c.488 1.65-.858 3.094-2.424 3.837.16-.477.329-.966.49-1.458.104-.319.177-.649.3-.96.281-.706 1.015-1.33 1.634-1.42m-3.218 13.84c.135-.44.07-.854-.055-1.265-.12-.395-.238-.792-.36-1.204.88.21 1.618 3.069 1.028 3.935-.55-.293-1.022-.661-1.232-1.28-.336-.988-.367-2.018-.426-3.078.272.09.363.235.41.49.128.7.301 1.39.468 2.082.027.114.11.214.167.32m-15.635-2.914c-.037.525-.055 1-.11 1.47-.051.435-.12.87-.222 1.295-.19.79-.581 1.241-1.332 1.604-.613-.781.104-3.636 1.032-3.938-.128.43-.272.83-.364 1.242-.09.408-.129.828-.19 1.243l.13.034c.092-.208.219-.407.27-.624.142-.604.272-1.212.367-1.825.039-.248.151-.375.42-.501m7.292 7.809c.552 1.19 1.505 1.92 2.326 2.762l-.05.092c-.448-.214-.904-.412-1.338-.65-.157-.086-.265-.138-.437-.05a1.052 1.052 0 0 1-.997.005c-.165-.084-.277-.054-.438.037a8.77 8.77 0 0 1-1.357.61c.783-.897 1.744-1.622 2.291-2.806"/><path d="M25.146 33.664c-.537.105-.821-.177-1.112-.492-.3.274-.58.619-1.102.487.775-.567.742-.956.335-1.795-.243-.501-.325-.983-.043-1.488.019-.034.047-.063.087-.115l.664 1.688.1-.002.662-1.692c.26.369.344.752.215 1.165-.073.231-.194.448-.289.673-.305.723-.217 1.047.483 1.571m-5.4-6.594l-.721-2.245.439.098.248-1 .57-.247c.602.38.742.808.437 1.481-.286.631-.591 1.253-.888 1.879l-.085.033m8.021-3.393l.6.264c.035.2.071.429.115.656.056.284.217.363.478.239.034-.016.074-.02.067-.019l-.725 2.25-.092-.01c-.324-.718-.68-1.424-.959-2.159-.197-.523-.048-.984.516-1.22m-8.794 11.461l-.429.267v-1.359l1.222.464-.35.31c.05.08.097.166.153.245l2.004 2.819c.27.38.268.391-.103.764l-2.497-3.51M11.53 17.151c1.247.288 2.254.963 3.21 1.769-1.541.669-2.841-.045-3.21-1.769m21.77 1.773c.956-.806 1.964-1.478 3.252-1.783-.269.735-.587 1.362-1.193 1.8-.676.488-1.353.299-2.06-.017m-18.455 3.131c-.455 1.033-1.426 1.603-2.398 1.416-.09-.017-.175-.048-.262-.075-.189-.06-.219-.166-.132-.346.216-.448.543-.756 1.027-.882.58-.15 1.162-.246 1.765-.113m18.336-.001c.716-.134 1.38-.036 2.026.2.381.14.617.443.792.804.092.189.036.278-.143.343-.627.23-1.194.04-1.752-.236-.457-.227-.67-.659-.923-1.111m-4.923 5.68c.568-1.12.5-2.444 1.441-3.392.068.102.17.186.178.279.093.931.068 1.84-.552 2.623-.258.325-.587.482-1.067.49m.264-7.834c.348.405.302 1.084-.074 1.47-.378.39-.802.407-1.245.03-.736-.627-1.114-1.453-1.258-2.41.092.126.172.261.277.376.308.336.59.71.947.986.536.416.94.293 1.266-.301.024-.044.05-.087.087-.151m-9.003.01c.023.018.034.023.039.032.43.767.929.855 1.566.229.374-.368.689-.796 1.065-1.238-.238 1.057-.64 1.968-1.516 2.593-.358.255-.773.17-1.094-.18-.357-.387-.39-1.055-.06-1.437"/><path d="M27.298 33.596c-1.011-.076-1.331-.981-1.932-1.51l-.11.074c.102.243.157.526.319.72.258.308.577.567.888.826.27.223.535.438.61.838-.378.036-.682-.12-.958-.317-.662-.473-1.005-1.16-1.23-1.92a.343.343 0 0 1 .022-.204c.084-.217.18-.43.301-.714.16.162.343.291.452.466.266.43.633.74 1.048 1.007.259.166.486.364.59.734m-4.677-1.555c-.097.138-.181.289-.295.412-.295.32-.584.65-.913.932-.154.133-.394.164-.595.241l-.093-.122c.165-.188.3-.42.501-.556.488-.329.928-.691 1.241-1.2.082-.132.227-.224.36-.35.267.497.43.94.147 1.478-.33.627-.683 1.212-1.348 1.525-.187.088-.397.127-.64.203.04-.445.306-.656.57-.875.288-.24.586-.474.845-.744.217-.228.355-.515.32-.85l-.1-.094m-2.832-4.307c-.474-.008-.797-.16-1.05-.472-.626-.766-.648-1.668-.577-2.587.008-.107.096-.208.166-.348.969.956.893 2.288 1.46 3.407m-5.57-6.074c-.94.545-2.142.469-2.841-.194.315-.497.787-.7 1.351-.729.7-.035 1.24.206 1.49.923m-.65 8.322c.065.021.19.041.293.099.506.281.924.661 1.232 1.156.136.218.163.447-.007.654-.171.209-.405.184-.616.088a2.85 2.85 0 0 1-1.38-1.287c-.183-.35.052-.718.478-.71m20.265-8.329c.257-.729.804-.946 1.487-.916.557.025 1.022.233 1.345.707-.527.668-1.994.764-2.832.21m-.51 10.388c-.354-.002-.592-.336-.439-.652a2.692 2.692 0 0 1 1.487-1.372c.137-.052.388.005.492.108.104.102.171.365.112.49a2.626 2.626 0 0 1-1.528 1.403c-.047.017-.1.018-.124.023m.059-11.597c.165-.312.314-.608.479-.895.03-.052.124-.085.192-.093.38-.042.762-.1 1.144-.102.302-.002.605.069.898.106-.028 1-1.923 1.465-2.713.984"/><path d="M11.935 19.55c.734-.486 1.483.077 2.16-.106l.574.975c-.852.549-2.456.062-2.734-.869m12.095 8.697c.932 1.033.512 2.052.011 3.065-.763-.887-.777-2.297-.01-3.065m-6.029-1.427c-.123 1.17-.123 2.286-.623 3.35-.292-.232-.38-.519-.441-.814-.182-.867-.109-1.736-.038-2.664.257.255.397.476.333.809-.084.433-.035.864.118 1.368.236-.462.28-.876.277-1.297-.003-.385-.01-.385.374-.753m12.776 1.964c.02-.409.089-.824.042-1.226-.04-.344.042-.59.276-.815.35.745.107 2.901-.423 3.428-.511-1.054-.5-2.18-.633-3.35.251.218.396.378.394.688-.002.428.088.857.138 1.285l.206-.01"/><path d="M30.805 24.672c.548.73.447 1.811-.243 2.395-.594-.495-.758-1.503-.401-2.236l.644-.159m-13.553.003l.638.158c.352.74.188 1.738-.405 2.234-.7-.59-.796-1.768-.233-2.392m2.429-9.909c-.367.13-.615.308-.958.111-.3-.172-.657-.127-.961.053-.176.104-.279.048-.388-.083-.221-.267-.266-.662-.104-.945.133-.234.461-.346.813-.269.062.014.118.063.17.103.252.194.497.397.754.584.2.146.413.274.674.446m8.675-.008c.288-.179.515-.305.726-.455.242-.173.495-.343.698-.558.228-.24.897-.153 1.004.2.07.23.037.519-.032.757-.07.24-.231.341-.539.207-.246-.107-.605-.14-.843-.038-.35.15-.615.065-1.014-.113M21.99 25.445a2.57 2.57 0 0 1-.802-1.263c-.022-.079-.027-.192.013-.254.193-.297.403-.582.608-.871.876.817.931 1.458.181 2.388m4.247-2.398c.198.285.388.55.567.823.045.07.094.174.075.245-.142.52-.401.971-.82 1.323-.75-.86-.7-1.503.178-2.391m-.633-1.847c.758.843.73 1.29-.148 2.341-.197-.338-.463-.649-.568-1.008-.151-.518.162-1.02.716-1.332m-3.149-.004c.465.262.748.641.719 1.198-.008.148-.09.3-.164.436-.129.239-.277.467-.418.7-.856-.92-.898-1.556-.137-2.334m8.617 3.162c.883.115 1.438.594 1.827 1.294.049.088.113.186.11.278-.002.073-.09.2-.15.206-.602.068-1.569-.552-1.742-1.133-.063-.208-.033-.443-.045-.645"/><path d="M14.976 26.129c.318-1.023.976-1.57 1.945-1.783.176.389.052.74-.22 1.047-.438.491-.972.778-1.725.736m17.404-2.806l1.175-.203a.132.132 0 0 1 .081.012c.37.209.742.414 1.105.634.17.103.183.268.003.354-.23.11-.487.237-.728.229-.552-.02-1.038-.26-1.423-.667-.102-.108-.157-.262-.212-.359m-16.73-.003c-.016.048-.033.15-.082.232-.317.521-1.315.92-1.912.768a.835.835 0 0 1-.196-.078c-.367-.203-.376-.36-.014-.578.303-.184.62-.345.933-.514a.188.188 0 0 1 .108-.029c.38.063.76.13 1.163.2m9.423 6.026c-.95-.904-.915-1.932-.234-2.453.79.69.85 1.323.234 2.453m-1.877-2.463c.746.659.653 1.677-.208 2.453-.578-.995-.722-1.364.208-2.453m1.392-1.358c-.538-.868-.604-1.678.224-2.394.708.441.615 1.721-.224 2.394m-1.13-.016c-.838-.572-.942-1.817-.202-2.412.732 1.038.778 1.583.202 2.412m1.955-.51c.72.76.974 1.397-.028 2.25-.694-.783-.69-1.296.028-2.25m-2.747 2.26c-.86-.695-.87-1.375-.043-2.245.724.804.738 1.34.043 2.245m.504-10.48c.156.414.338.82.454 1.243.042.151-.034.372-.126.515-.19.297-.428.564-.655.854-.373-.376-.356-.815-.228-1.257.13-.448.297-.886.448-1.328l.107-.026m1.851.009c.16.607.335 1.212.474 1.825.068.297-.084.55-.289.782-.227-.29-.454-.563-.66-.852a.658.658 0 0 1-.129-.369c.016-.52.266-.955.509-1.389l.095.003zm-1.302 3.3h.596c.45.481.447 1.193-.053 1.596-.173.14-.311.136-.482-.003-.49-.4-.502-1.036-.061-1.593m1.174 9.434a4.01 4.01 0 0 0 1.545 1.18c.17.075.392.355.363.494-.048.234-.338.376-.587.308a1.717 1.717 0 0 1-.675-.37c-.469-.423-.626-.995-.646-1.612m.836 9.191l-.738-1.096-.544.942c-.357-.452-.358-.452-.111-.897.19-.345.384-.688.607-1.088.357.543.706 1.028.993 1.548.059.106-.113.341-.206.591M21.33 21.251c.545.764.484 1.624-.218 2.39-.142-.467-.28-.883-.394-1.306-.145-.541.305-.763.612-1.084m1.826 8.362c.082.587-.473 1.6-1.078 1.846-.1.04-.233.085-.322.051-.19-.072-.36-.194-.54-.296.116-.168.198-.381.353-.495.266-.196.592-.31.865-.498.271-.188.509-.426.722-.608m3.726-6.009c-.68-.857-.721-1.63-.158-2.349.175.164.385.305.513.5.089.135.081.344.088.522.018.488-.231.886-.443 1.327m5.633.268c.382.235.757.462 1.125.699.065.04.133.118.147.189.038.192.087.4.044.581-.014.06-.304.09-.459.07-.471-.065-.807-.36-1.077-.732-.037-.052-.04-.154-.02-.219.057-.172.135-.336.24-.588"/><path d="M15.57 23.96c.007.007.019.012.02.02.061.227.234.508.157.669a1.303 1.303 0 0 1-.927.723c-.199.04-.53.06-.602-.047-.152-.223-.071-.537.157-.71.357-.27.747-.497 1.123-.742l.072.087zm3.437 4.764a5042 5042 0 0 0-.047-.964c.28.012.403.16.424.433.041.57.076 1.138-.217 1.706-.788-.875-.812-1.954-.975-3.056.307.29.359.614.423.942.064.325.175.64.265.959l.127-.02m3.313 10.222l.744 1.035.544-.953c.342.437.342.437.1.868l-.597 1.059c-.352-.495-.7-.942-.989-1.425-.058-.097.105-.328.197-.584m1.715-11.554c-.845-.98-.676-1.227-.007-2.145.654.94.823 1.116.007 2.145m5.041.368v.976l.086.016.537-1.87c.282.617-.268 2.468-.854 3.022-.067-.26-.158-.484-.178-.714-.029-.324-.009-.652-.004-.977.004-.271.124-.441.413-.452m-4.439 6.095c.365-.11.527.042.698.286.513.733 1.143 1.354 1.919 1.813.078.046.152.098.245.16l-.229.33c-1.135-.608-1.957-1.505-2.633-2.589m-3.859 2.595a842.04 842.04 0 0 1-.198-.29c.48-.392.96-.752 1.399-1.157.29-.268.547-.582.764-.912.17-.257.357-.316.67-.24-.672 1.082-1.493 1.973-2.635 2.6m3.245-12.692c-.204-.31-.398-.583-.567-.87-.159-.267-.113-.517.092-.684a.718.718 0 0 1 .955.001c.209.172.251.412.089.686-.17.286-.365.558-.569.866m-.617-12.367l-.586.193c-.186-.554-.385-1.094-.546-1.645-.07-.24.161-.302.332-.356.193-.062.384-.03.44.197.13.531.24 1.067.36 1.611m1.822.189l-.59-.184c.127-.552.24-1.113.39-1.663.064-.232.287-.197.464-.138.175.06.36.151.28.392-.172.527-.357 1.05-.544 1.593m-5.311 25.318c-.598.137-1.192.292-1.794.405-.407.076-.824.102-1.238.13-.324.023-.374-.06-.287-.419 1.017.005 2.005-.191 2.983-.476.094-.027.242.132.365.205l-.03.155m8.217-.08c.098-.284.243-.33.519-.244.843.263 1.707.437 2.597.43.157 0 .286.036.247.203-.022.091-.161.222-.245.22a9.902 9.902 0 0 1-3.037-.547c-.026-.008-.046-.035-.081-.062m3.175-22.809c-.102-.382-.236-.692-.258-1.01-.024-.334.03-.682.102-1.013.073-.332.211-.65.324-.983.433.06.512.172.383.623a1.534 1.534 0 0 1-.128.342c-.193.335-.225.688-.17 1.064.05.334-.053.639-.253.976m-14.739-3.017c.12.353.265.679.34 1.02.07.33.114.68.087 1.013-.025.315-.158.62-.253.965a1.356 1.356 0 0 1-.25-.987c.044-.374.014-.73-.185-1.06-.052-.086-.081-.187-.11-.284-.142-.474-.105-.536.37-.667m4.675 13.95c.725.908.75 1.288.138 2.166-.658-.594-.71-1.412-.138-2.166m2.793-6.989c-.192-.317-.371-.575-.512-.853-.21-.413-.002-.891.446-.964.144-.024.364.122.472.254.106.128.197.37.145.506-.133.356-.348.68-.551 1.057m2.64 9.165c-.632-.984-.589-1.29.12-2.168.581.638.534 1.5-.12 2.168m3.128-14.204c.263-.383.151-.692-.042-1.002-.106-.171-.187-.36-.273-.543-.158-.337-.047-.605.203-.825.222.396.449.783.658 1.178.307.579.137.982-.546 1.192m-11.455-2.361c.304.279.357.442.209.819a4.401 4.401 0 0 1-.306.597c-.2.344-.216.534-.05.89-.418-.011-.709-.327-.63-.726.04-.204.138-.402.234-.59.17-.333.358-.656.543-.99m7.774 16.266c.653.493.722 1.143.204 1.923-.66-.789-.73-1.269-.204-1.923m3.735 4.779c-.39.184-.724.25-1.123.007-.408-.247-.849-.425-1.073-.88.673-.055 1.833.398 2.196.873m-4.144-12.526c.132.682.38 1.296.767 1.855.047.068-.03.24-.076.353-.05.117-.132.22-.208.342-.658-1.092-.984-2.065-.483-2.55m-3.78 7.738c.488.69.482 1.087-.21 1.939-.52-.78-.455-1.415.21-1.94m-3.753 4.786c.569-.757 1.456-.655 2.204-.907-.186.329-.4.615-.76.752-.123.047-.255.093-.354.175-.368.304-.713.14-1.09-.02m5.243-9.941c-1.18-.673-1.085-1.265-.114-2.275.149.242.217.519.088.742-.296.509-.284.995.026 1.533m3.829 18.9c-.417-.166-.81-.32-1.255-.498l.38-.286c-.154-.354-.154-.354.174-.726l.304.406.397-.236v1.34z"/><path d="M21.87 21.671c-.126-.22-.229-.371-.301-.536-.03-.068-.027-.187.014-.244.387-.54.62-1.142.75-1.832.232.229.265.486.244.745-.053.67-.41 1.22-.706 1.867m2.81-.085l.102-.273c.125-.34.147-.674-.053-.998-.183-.296-.144-.599-.007-.962.368.412.779.761.761 1.327-.014.48-.42.692-.803.906m1.146 6.862c.21.263.399.473.557.705.195.284-.021.876-.345.978-.04.013-.097-.002-.137-.023a.788.788 0 0 1-.359-.964c.084-.217.175-.43.284-.696m-3.607 0c.118.29.227.53.312.779.105.302-.123.786-.411.898a.185.185 0 0 1-.114.007c-.322-.1-.54-.692-.345-.978.158-.232.348-.442.559-.706m3.884-9.638c-.742-.946-.806-1.359-.339-2.062.526.194.571 1.224.34 2.062m-3.83-2.065c.48.687.395 1.226-.32 2.032-.243-.631-.236-1.814.32-2.032m-1.172 15.908c-.2.41-.516.554-.83.412-.27-.123-.413-.508-.226-.818.173-.288.414-.55.674-.766.187-.156.438-.135.645.136-.1.023-.179.042-.257.058-.275.053-.508.182-.612.448-.05.128-.071.328-.004.424.063.092.257.096.397.126.055.012.116-.01.213-.02m5.84.009c.07 0 .112.008.149-.001.164-.04.435-.045.466-.135.053-.15.013-.417-.095-.521-.2-.191-.478-.3-.735-.45.139-.211.395-.23.59-.075.258.203.494.458.666.737.2.323.067.72-.213.847-.316.142-.624.002-.828-.402m.898-17.192c.166-.193.293-.349.43-.494.035-.037.106-.057.16-.055.746.025 1.137.745.735 1.43-.242-.578-.698-.83-1.325-.88M15.94 36.69c.086.051.175.098.258.154.166.114.252.243.04.41.25.15.207.33.056.509-.252.3-.59.345-.94.35l-.073-.096.74-.783c-.117-.04-.307-.073-.462-.165-.102-.06-.153-.206-.227-.314.116-.03.23-.072.347-.085.089-.01.181.018.271.03l-.01-.01m4.24-21.218c-.599.059-1.06.288-1.287.874-.33-.505-.258-.907.183-1.213.476-.33.68-.273 1.103.34m3.853 2.815c.571.964.571 1.1.017 1.6-.606-.342-.614-.733-.017-1.6M32.086 36.7c.11-.015.222-.048.33-.04.1.006.196.055.294.085-.051.099-.078.24-.16.287-.17.1-.37.15-.527.208l.763.79c-.402.146-.885-.025-1.076-.326-.116-.183-.102-.262.08-.44-.19-.202-.093-.336.104-.447.069-.04.134-.083.202-.125l-.01.009M20.195 19.54c.707-.062 1.128-.493 1.396-1.131.2.483.012 1.161-.377 1.439-.378.27-.856.13-1.019-.308m6.233-1.183c.3.676.707 1.123 1.414 1.18-.07.485-.763.539-1.053.28-.329-.292-.482-.797-.361-1.46m-6.318 4.906c-.19-.485-.365-.927-.554-1.405l.998.083c.024.455.108.928-.444 1.322m7.835-.013c-.458-.331-.544-.632-.437-1.314l.976-.075-.539 1.39m-3.958-12.428c-.122-.354-.272-.701-.351-1.064-.031-.142.056-.366.167-.464.088-.077.347-.079.435-.003.113.097.206.322.176.462-.08.365-.231.714-.354 1.069h-.073m-2.643 18.526l.191.631c-.469.328-1.015.478-1.652.624.406-.597.922-.931 1.461-1.255m5.18.591l.164-.55c.412.11 1.181.733 1.381 1.233l-1.577-.583.032-.1m-6.456-14.127c.22-.141.404-.105.57.053.285.273.569.546.848.826.034.034.052.109.043.158a5.43 5.43 0 0 1-.256.94c-.116-.292-.253-.577-.343-.877-.221-.736-.212-.739-.862-1.1m-5.433 20.946l.479.169c-.117.128-.217.279-.354.379a2.335 2.335 0 0 1-.514.265c-.274.11-.446.002-.538-.308-.082-.28.109-.333.305-.383.089-.022.179-.041.27-.052.11-.013.223-.015.335-.021l.017-.05m18.803.029c.228.04.458.07.683.12.164.035.285.129.22.323-.063.192-.14.46-.384.377-.337-.115-.655-.307-.953-.507-.15-.101-.115-.257.097-.285.11-.014.222-.002.333-.002l.004-.026M26.72 17.76c-.066-.296-.135-.591-.195-.889-.011-.052-.006-.133.026-.165.294-.293.595-.58.896-.865.162-.154.337-.152.557-.007-.597.16-.797.598-.908 1.13-.059.28-.207.543-.315.813l-.062-.017m-1.179-4.865l.068-.104-.557-.337-.057.094.546.347m.664.257c-.722.106-1.432-.277-1.641-.887.567-.202 1.533.338 1.641.887m-3.144-.607l-.067-.103-.551.365.059.091.559-.353m-1.221.603c.19-.608 1.037-1.032 1.64-.906-.094.615-1.028 1.032-1.64.906m.941 3.634c-.288-.62-.585-1.254-.901-1.932.84.208 1.254 1.194.901 1.932m3.385-1.925l-.887 1.897c-.4-.623.044-1.698.887-1.897"/><path d="M14.836 38.151c-.135-.086-.32-.144-.377-.263-.038-.077.077-.286.179-.363a2.71 2.71 0 0 1 .66-.365c.084-.034.229.037.318.1.027.019-.02.187-.07.262a2.72 2.72 0 0 1-.363.45c-.081.08-.209.11-.347.18m18.361.003c-.141-.08-.265-.128-.361-.21-.1-.083-.19-.19-.25-.305-.068-.13-.097-.28-.143-.423.162-.001.338-.043.484.006.177.06.349.174.486.304.095.09.21.29.17.366-.06.119-.244.174-.386.262m-4.092-5.568c-.448-.232-.651.012-.815.331-.172-.226-.184-.391.05-.5a14.9 14.9 0 0 1 1.58-.603c.053-.018.175.175.265.27-.079.055-.151.14-.237.156-.127.024-.262 0-.394-.005-.224-.007-.44-.002-.449.351m-9.337.367c-.173-.375-.396-.58-.822-.385-.01-.351-.246-.339-.477-.332-.122.003-.249.028-.365.004-.088-.018-.164-.098-.245-.15.1-.095.228-.289.293-.269.503.154 1.001.33 1.484.54.217.094.342.294.132.592m8.014-1.777c-.513.148-.591.086-.871-.267-.191-.241-.478-.405-.736-.615.072-.148.19-.192.392-.102.482.218.853.56 1.215.984m-7.514.004c.369-.458.77-.82 1.298-1.008.092-.033.227.058.341.092-.294.239-.581.403-.772.644-.279.353-.354.415-.867.272m5.187-16.207c-.279.526-.546.992-1.18 1.078.022-.639.486-1.076 1.18-1.078m-3.257 1.494l-1.13-1.277.226.03.06-.224c.219-.042.345.047.438.255.103.23.228.457.377.66.15.205.146.384.03.556m4.493-1.479l.047.237.246-.04-1.135 1.279c-.111-.152-.124-.327.015-.531a4.28 4.28 0 0 0 .392-.686c.089-.2.215-.277.435-.26M20.14 12.74c.066-.258.103-.513.198-.744.051-.123.19-.236.315-.291.09-.04.267-.017.328.05.05.054.017.227-.029.324-.085.184-.215.346-.31.526-.106.203-.254.24-.501.135m7.766-.002c-.284.129-.42.029-.526-.168-.106-.197-.237-.381-.334-.583-.095-.194.005-.352.21-.302.165.04.367.156.44.297.119.225.144.499.21.756m-8.142.008c-.244.102-.387.05-.492-.149-.108-.207-.247-.398-.35-.607-.096-.196.002-.353.207-.305.165.039.315.175.45.293.059.052.071.166.09.255.037.168.063.338.095.513m4 3.276c-.482-.023-.928-.427-1.132-1.027.587-.086 1.114.392 1.132 1.027m4.504-3.287c.06-.246.086-.497.184-.714.063-.137.22-.251.36-.325.074-.04.244-.004.297.06.048.056.02.211-.021.3-.086.184-.211.349-.307.528-.109.206-.254.277-.513.151m-.207 2.339l-1.435 1.225c-.016-.644.552-1.161 1.435-1.225m-8.009-.069c.853.177 1.354.631 1.383 1.305l-1.448-1.232.065-.073m3.085-5.701c.524.573.512 1.324.676 2.017l-.074.084c-.084-.053-.228-.094-.242-.163-.133-.643-.243-1.29-.36-1.938m6.735 1.022c.191.008.402-.032.567.037.256.107.488.279.714.445.062.047.068.17.1.26-.083.013-.177.059-.248.035a2.239 2.239 0 0 1-.493-.222c-.22-.138-.425-.302-.636-.456l-.004-.099zm-11.682.109c-.329.21-.649.437-.99.621-.107.057-.273.001-.412-.003.068-.114.11-.265.21-.333.23-.157.478-.3.738-.397.127-.047.296.019.446.034l.008.078m6.042.905c.161-.708.157-1.456.606-2.06l.08.024c-.104.534-.208 1.068-.31 1.602-.017.09-.031.18-.037.271-.014.188-.1.256-.34.164m.376 24.604l-.586.838-.585-.838h1.17zm-5.558-4.083c.47-.233.837-.544 1.342-.438-.167.21-.31.418-.486.593-.07.069-.223.102-.321.08-.163-.037-.313-.133-.535-.235m9.166-20.497c-.406.094-.225-.24-.276-.327l-.33-.217.267-.204c.084-.113-.004-.406.35-.272l.02.259.336.21-.331.228-.036.323M27.61 31.43c.555-.104.922.199 1.38.425-.089.048-.118.067-.15.08-.54.234-.539.232-.925-.22-.078-.09-.175-.165-.305-.286m-7.905-20.456l-.239-.143.258-.208.053.049.048-.318c.266-.049.266-.049.301.238l.314.244-.258.154-.218.396-.259-.412m4.46-2.649l.378.243-.043.093-.262.044c-.16.12.071.44-.234.419-.072-.005-.127-.243-.192-.379l-.28-.2.333-.2.027-.257c.355-.151.238.174.273.237m3.921 4.154c-.124-.263-.23-.449-.294-.648-.025-.079.03-.26.077-.27.146-.033.31-.025.457.01.041.01.086.182.061.255-.068.199-.174.385-.301.653m-8.126.002c-.125-.265-.23-.452-.298-.65-.025-.075.02-.25.054-.257.158-.029.327-.03.485-.002.035.006.081.181.056.256-.068.199-.172.386-.297.653m7.849 10.913l-.695.465-.091-.08.364-.785.422.4M31.74 13.04l-.026-.547.102-.067.718.66-.794-.046m-15.407-.54l-.03.533-.777.06.694-.668.113.075zm3.917 10.903l.398-.426.383.794-.083.086-.697-.454"/></g></g></svg>