<svg width="48" height="48" viewBox="0 0 48 48" xmlns="http://www.w3.org/2000/svg"><title>D566BB60-4010-43EF-8C46-FC07E6C4A2CD</title><g fill="none" fill-rule="evenodd"><path d="M0 0h48v48H0z"/><g fill="#FFF"><path d="M31.361 19.43v-.039c.716-.226 1.67-.822 1.67-2.387 0-1.763-1.431-2.573-3.446-2.573h-3.423v4.218H24.15c-2.705 0-3.263 1.895-3.263 2.93 0 1.47.85 2.121 2.415 2.9.954.479 2.092.77 2.092 1.859 0 .57-.527 1.26-1.668 1.26h-2.122c.318-.545.45-1.139.45-1.659 0-.673-.238-3.38-4.005-3.38h-3.075v10.435h2.095v-4.547l.848.848h5.73c2.675 0 3.948-1.377 3.948-3.022 0-.583-.106-1.05-.292-1.431h2.15c3.313 0 4.083-1.646 4.083-2.934 0-1.309-.849-2.28-2.175-2.478zm-13.312 8.168h-.98v-3.41h.98c1.22 0 1.778.742 1.778 1.645 0 .837-.504 1.765-1.778 1.765zm8.113-6.47v2.53c-.503-.302-1.084-.542-1.694-.807-.664-.291-1.379-.663-1.379-1.5 0-.425.266-1.059 1.538-1.059h2.359l-.824.836zm2.095-5.065h.956c1.618 0 1.697.995 1.697 1.299 0 .45-.239 1.287-1.618 1.287h-1.035v-2.586zm1.195 7.133h-1.195v-2.904h1.195c1.458 0 1.856.704 1.856 1.446 0 .743-.53 1.458-1.856 1.458z"/><path d="M42.64 14.197a9.032 9.032 0 0 0-9.033-9.033h-12.76c-4.118 0-7.63 2.774-8.696 6.611h15.426c5.933 0 8.452 2.76 8.452 9.238v14.64c3.826-1.067 6.611-4.59 6.611-8.693V14.197M5.515 33.23a9.033 9.033 0 0 0 9.033 9.033H27.31c4.118 0 7.629-2.774 8.695-6.61H20.58c-5.934 0-8.453-2.761-8.453-9.238v-14.64c-3.826 1.066-6.61 4.59-6.61 8.692V33.23"/></g></g></svg>