<svg width="48" height="48" viewBox="0 0 48 48" xmlns="http://www.w3.org/2000/svg"><title>5501CAB4-5DC2-4A4D-B314-E324EBA5F73D</title><g fill="none" fill-rule="evenodd"><path d="M0 0h48v48H0z"/><path d="M4.796 36.947l5.602 5.776 13.124-13.469L37.085 43l5.683-5.693-13.427-13.579 2.582-2.527v-5.387l1.62-1.389v4.221l2.087 1.722 6.232-6.304 2.004 1.555c1.18-4.415-5.656-14.44-11.312-8.887l-6.59 6.61 1.346 1.638-3.35 3.305-3.24-3.222 1.703-1.556-7.221-7.053C9.766 1.927 4.192 8.815 4 15.535l1.976-1.666 6.068 6.61 2.168-1.832v-4.055l1.345 1.027v5.305l2.636 2.665L4.796 36.947z" fill="#FFF"/></g></svg>