<svg width="48" height="48" viewBox="0 0 48 48" xmlns="http://www.w3.org/2000/svg"><title>C7D4F62E-3507-4F14-9DBD-B9FC2FEF001A</title><g fill="none" fill-rule="evenodd"><path d="M0 0h48v48H0z"/><g fill="#FFF"><path d="M7.06 13.88v4.542c0 3.272 2.165 7.026 5.045 7.026h9.474v-8.811c0-1.642-2.337-2.757-4.22-2.757H7.06zm16.07 2.086v26.953h1.476V15.962c.012-5.172 4.152-9.384 9.288-9.482V5c-5.952.092-10.765 4.97-10.765 10.966"/><path d="M34.682 7.813c-4.835 0-8.744 3.924-8.744 8.77v8.865h11.536c1.785 0 3.079-1.538 3.079-3.058V7.813h-5.871zM7 26.982v3.86c0 .135.004.268.01.4.208 3.909 3.433 7.01 7.384 7.01h6.244v4.662h.941V29.749c0-1.631-2.342-2.767-4.23-2.767H7zm23.437 0c-2.556 0-4.624 2.08-4.624 4.639v11.293h1.338v-4.662h6.243c3.248 0 6.996-1.97 6.996-5.019v-6.25h-9.953z"/></g></g></svg>