<svg width="48" height="48" viewBox="0 0 48 48" xmlns="http://www.w3.org/2000/svg"><title>F11558AC-0987-4663-95E0-CB41D83F369D</title><g fill="none" fill-rule="evenodd"><path d="M0 0h48v48H0z"/><g fill="#FFF"><path d="M23.996 20.754c.495 0 .98-.043 1.473-.103.667.706.934.711 1.86.756v6.065c-1.117.585-2.08 1.07-3.333 1.318l-.103-.019c-1.156-.23-2.198-.758-3.228-1.3v-6.064c.922-.045 1.192-.05 1.858-.756.494.06.977.103 1.473.103m0 .325c-.453 0-.9-.032-1.35-.086-.507.536-.934.69-1.659.723v5.559c.967.508 1.93.97 3.009 1.185 1.079-.214 2.043-.677 3.01-1.185v-5.559c-.725-.034-1.152-.187-1.66-.723-.45.054-.899.086-1.35.086"/><path d="M19.768 25.075a20.858 20.858 0 0 1-1.891 1.655l-.009.007-.157.12a.677.677 0 0 0 .89.056 22.651 22.651 0 0 0 1.784-1.618 1.089 1.089 0 0 1-.617-.22zm-1.833-.64c-.574.517-1.18.999-1.814 1.442l-.236.163c.218.225.55.315.881.103.63-.46 1.22-.949 1.775-1.461a1.092 1.092 0 0 1-.606-.247zm-3.121 1.27a17.59 17.59 0 0 1-4.285 1.92c.202.382.512.427.849.356l.015-.005a18.902 18.902 0 0 0 3.972-1.92 1.075 1.075 0 0 1-.551-.35zm2.267-1.666c-.563.486-1.157.94-1.776 1.351-.092.06-.18.12-.271.176a.673.673 0 0 0 .875.127 19.75 19.75 0 0 0 1.775-1.397 1.078 1.078 0 0 1-.603-.257zm-3.083 1.149A16.758 16.758 0 0 1 8.7 27.183c.165.393.465.473.806.434l.02-.004c.248-.059.494-.123.737-.192a17.897 17.897 0 0 0 4.28-1.87 1.092 1.092 0 0 1-.546-.363zm2.271-1.59a16.99 16.99 0 0 1-1.743 1.268c-.1.064-.202.126-.303.189a.676.676 0 0 0 .873.148c.626-.42 1.217-.863 1.767-1.336a1.102 1.102 0 0 1-.594-.27zm-3.043 1.036a15.87 15.87 0 0 1-6.352 1.928c.125.416.417.523.763.516l.014-.002a17.3 17.3 0 0 0 .795-.123 16.89 16.89 0 0 0 5.317-1.942 1.097 1.097 0 0 1-.537-.377zm2.27-1.521a16.01 16.01 0 0 1-2.043 1.394.676.676 0 0 0 .867.167 17.703 17.703 0 0 0 1.77-1.282 1.116 1.116 0 0 1-.594-.28zm-3.001.935a15.046 15.046 0 0 1-7.453 1.7l.002.006c.018.114.06.22.128.314.135.18.357.255.6.28.288-.007.573-.02.857-.039 2.309-.182 4.468-.823 6.396-1.873a1.086 1.086 0 0 1-.53-.388zm2.273-1.46c-.643.498-1.326.946-2.045 1.336a.675.675 0 0 0 .861.19c.63-.383 1.22-.795 1.773-1.237a1.108 1.108 0 0 1-.589-.288zm4.065 2.194a19.236 19.236 0 0 1-2.048 1.683.845.845 0 0 0 .341.202.694.694 0 0 0 .54-.115c.629-.49 1.22-.999 1.773-1.536a1.077 1.077 0 0 1-.606-.234zm1.095-1.527l.283.086c-.378.438-.775.86-1.191 1.26a.672.672 0 0 0 .888-.054c.327-.34.64-.686.935-1.035l.144.035v.213c-.33.39-.675.768-1.033 1.132a.676.676 0 0 0 .89-.078l.143-.158v.4l-.059.066c.02.01.037.024.06.035v.28a1.174 1.174 0 0 1-.239-.127 21.984 21.984 0 0 1-1.934 1.778l-.007.006a2.934 2.934 0 0 0-.123.098.669.669 0 0 0 .892.029c.494-.424.964-.86 1.41-1.31v.386c-.386.38-.785.75-1.198 1.102l-.09.077c.248.208.606.256.923-.021l.365-.408v.228l.147.077.01.007-.292.325c-.492.44-1.08.317-1.429-.022-.395.12-.783-.036-1.035-.303-.388.083-.757-.087-.992-.361a1.024 1.024 0 0 1-.852-.3 19.267 19.267 0 0 1-3.165 1.776c-.572.253-1.061-.004-1.306-.398-.15.056-.307.116-.462.161a2.022 2.022 0 0 1-.529.093c-.337 0-.65-.138-.855-.562a6.579 6.579 0 0 1-.483.123 2.2 2.2 0 0 1-.54.046c-.346-.028-.652-.195-.819-.642a8.564 8.564 0 0 1-.504.077c-.19.02-.382.027-.559-.002-.356-.058-.651-.256-.774-.73a15.6 15.6 0 0 1-.772.03c-.773.012-1.072-.568-1.065-1.205v-.055h.055a14.75 14.75 0 0 0 10.586-3.727c.057-.05.296-.27.296-.27.734-.663 1.53-1.168 2.583-1.098.72.048 1.358.357 1.451 1.315.029.284.149.465.503.599.007.003.023.006.03.008.24.083.503.135.772.146v.324a3.054 3.054 0 0 1-.867-.159l-.041-.013c-.465-.173-.677-.456-.716-.874-.084-.858-.707-1.057-1.418-1.02-.886.04-1.492.483-2.08 1.013l-.3.272c-.192.173-.39.34-.593.5a.672.672 0 0 0 .88.032c.282-.246.557-.504.82-.773.08.054.159.105.239.153-.385.39-.79.76-1.211 1.11a.675.675 0 0 0 .884.016c.057-.054.12-.108.175-.16.23-.212.45-.43.67-.656.082.05.163.094.245.14-.276.287-.561.565-.856.83-.115.107-.232.209-.35.311.24.196.58.246.885.002.144-.134.284-.266.418-.4.151-.153.304-.306.449-.464.086.044.175.084.257.123-.283.308-.581.607-.89.893l-.31.284a.673.673 0 0 0 .886-.016 15.39 15.39 0 0 0 .892-.914c.088.036.179.07.271.107a17.8 17.8 0 0 1-.927.956c-.09.088-.179.175-.272.26a.672.672 0 0 0 .887-.034c.325-.321.625-.643.914-.971zm-6.679 4.92l.006-.002.006-.003.006-.001.009-.005.012-.005.005-.003.007-.002.013-.006.012-.007.007-.001.006-.005.007-.002.004-.001.009-.004.006-.003.013-.005.011-.005.013-.007.013-.005.008-.003.006-.003.012-.007.01-.005.013-.004.012-.008h.008l.01-.008.015-.003.009-.006.011-.006.01-.005.014-.007.01-.004.012-.006.012-.003.01-.006.015-.006.008-.005.013-.007.01-.004.012-.006.012-.006.009-.004.01-.004.012-.004.01-.009.01-.003.011-.004.012-.004.01-.008.011-.004.01-.005.012-.006.009-.005.012-.005.009-.003.011-.007.009-.005.01-.002.01-.005.011-.006.008-.004.012-.006.009-.007.01-.004.01-.003.008-.008.01-.003.011-.003.01-.005.008-.004.021-.011.008-.006.012-.006.01-.005.011-.004.01-.004.01-.006.006-.005.015-.005.01-.005.01-.005.004-.004.01-.004.011-.003.01-.008.01-.002.007-.006.008-.005.01-.004.01-.005.01-.005.007-.005.01-.004.007-.004a19.2 19.2 0 0 0 2.031-1.203c-.208-.041-.396-.164-.562-.337a18.405 18.405 0 0 1-3.307 1.72c.08.12.177.22.287.278a.691.691 0 0 0 .597-.003l.006-.004zm18.67-4.767l-.021-.016.02.016zm.766-.488l-.013-.014c.055.046.11.09.166.133.498.384 1.02.74 1.57 1.074a.672.672 0 0 0 .86-.19 15.26 15.26 0 0 1-2.044-1.334 1.104 1.104 0 0 1-.59.288l.038.03-.04-.03.053.043zm-5.078 2.375c.558.563 1.15 1.101 1.786 1.618.322.23.66.157.89-.055l-.159-.12-.006-.008a21.055 21.055 0 0 1-1.896-1.655 1.08 1.08 0 0 1-.615.22zm3.6 1.17c-.063-.046-.131-.092-.192-.14a19.326 19.326 0 0 1-1.853-1.543 1.103 1.103 0 0 1-.61.234 21.163 21.163 0 0 0 1.777 1.536.686.686 0 0 0 .537.115.838.838 0 0 0 .341-.202zm3.76-2.029c1.929 1.05 4.086 1.691 6.395 1.873.283.02.57.032.857.038.243-.024.465-.1.602-.277a.712.712 0 0 0 .127-.319c-.153 0-.31.003-.47.003a15.04 15.04 0 0 1-6.978-1.706 1.116 1.116 0 0 1-.533.388zm-.74.575a16.902 16.902 0 0 0 5.32 1.942c.265.047.528.088.793.123l.015.002c.347.007.639-.1.762-.516a15.85 15.85 0 0 1-6.35-1.928c-.153.183-.331.319-.54.377zm-2.32-1.613c.057.045.113.093.172.138.502.404 1.035.783 1.594 1.138a.675.675 0 0 0 .867-.167 16.26 16.26 0 0 1-2.045-1.394 1.105 1.105 0 0 1-.595.28l.006.005zm1.862 1.657c-.1-.063-.202-.125-.302-.189-.608-.385-1.19-.81-1.744-1.268a1.1 1.1 0 0 1-.596.269 18.84 18.84 0 0 0 1.77 1.336.675.675 0 0 0 .872-.148zm-.32.496a17.934 17.934 0 0 0 4.28 1.87c.243.069.489.133.736.192l.02.004c.341.04.642-.041.807-.434a16.722 16.722 0 0 1-5.298-1.995c-.155.179-.34.311-.546.363zm-.49.015a17.812 17.812 0 0 1-2.047-1.527 1.085 1.085 0 0 1-.6.257c.552.493 1.14.958 1.77 1.397.335.2.665.102.877-.127zm-.328.49a18.79 18.79 0 0 0 3.969 1.92l.013.005c.339.071.647.026.85-.356a17.585 17.585 0 0 1-4.282-1.92c-.16.177-.347.301-.55.35zm-2.766-1.797a9.033 9.033 0 0 1-.271-.259 17.619 17.619 0 0 1-.928-.956c.09-.036.181-.069.27-.105.11.117.218.234.327.347.182.192.372.38.568.565a.672.672 0 0 0 .885.016l-.313-.284a18.225 18.225 0 0 1-.891-.893c.086-.039.172-.08.256-.122.158.166.32.329.48.489.127.123.256.248.392.374.304.244.643.194.886-.002a16.678 16.678 0 0 1-1.21-1.141c.084-.045.166-.09.248-.137a19.667 19.667 0 0 0 .843.813c.309.24.65.183.886-.015-.421-.35-.827-.72-1.209-1.111.078-.048.154-.099.233-.15.267.266.542.524.824.77.31.232.645.17.88-.031a13.31 13.31 0 0 1-.595-.501c-.1-.091-.2-.18-.298-.272-.587-.53-1.196-.972-2.082-1.014-.71-.036-1.332.163-1.417 1.021-.038.418-.252.699-.713.874a.333.333 0 0 1-.045.013 3.026 3.026 0 0 1-.866.16v-.325c.27-.011.53-.063.773-.146l.031-.008c.354-.134.473-.315.502-.599.09-.958.732-1.267 1.451-1.315 1.053-.07 1.849.435 2.582 1.098l.296.27a14.747 14.747 0 0 0 10.584 3.727h.056l.002.055c.006.637-.294 1.217-1.063 1.204a15.77 15.77 0 0 1-.777-.028c-.12.473-.42.671-.771.73a2.193 2.193 0 0 1-.56.001 8.213 8.213 0 0 1-.505-.077c-.167.447-.47.614-.817.642a2.238 2.238 0 0 1-.54-.045 6.912 6.912 0 0 1-.485-.124c-.206.424-.515.562-.856.562a2.007 2.007 0 0 1-.526-.093c-.156-.045-.315-.105-.462-.16-.245.393-.735.65-1.306.397a19.394 19.394 0 0 1-3.17-1.775c-.216.214-.52.343-.85.299-.234.274-.601.444-.992.36-.25.267-.64.423-1.033.304-.351.34-.936.461-1.428.022l-.294-.325.012-.007.146-.077v-.228l.362.408c.318.277.678.229.928.021l-.093-.077a22.756 22.756 0 0 1-1.197-1.102v-.387c.444.45.915.887 1.41 1.31.318.243.66.18.894-.028-.043-.034-.082-.066-.125-.098l-.006-.006a21.849 21.849 0 0 1-1.936-1.778 1.195 1.195 0 0 1-.237.127v-.28l.06-.035-.06-.065v-.4l.147.157c.283.276.63.254.887.078a19.81 19.81 0 0 1-1.034-1.132v-.213l.144-.035c.294.35.605.694.933 1.035.293.267.64.239.89.054a19.751 19.751 0 0 1-1.19-1.26c.093-.028.185-.058.28-.086.29.328.594.65.917.972.296.258.637.22.886.032zm2.243 1.78a18.951 18.951 0 0 1-2.05-1.604 1.09 1.09 0 0 1-.606.247c.555.512 1.143 1 1.774 1.461a.67.67 0 0 0 .882-.104zm2.634 2.136c.23.102.438.09.604.007a.81.81 0 0 0 .286-.277 18.457 18.457 0 0 1-3.306-1.72 1.092 1.092 0 0 1-.563.336c.715.479 1.433.904 2.195 1.287l.008.004.013.004.006.005.009.005.011.005.004.003.013.005.013.006.01.004.008.005.012.005.013.005.008.006.01.005.019.009.018.01.016.009.026.01c.186.091.376.177.567.262zm-2.057-5.255l-.052-.042.039.028.013.014zm-.043-.038l.196.157a9.089 9.089 0 0 1-.166-.133l-.03-.024zm-6.756-2.948l.02-.02c-.007.006-.013.015-.02.02zm-3.797-.02l.022.02c-.007-.005-.015-.014-.022-.02zm-1.51.493l-.047-.077-.114-.207-.501.248a.82.82 0 0 0 .38.083.857.857 0 0 0 .282-.047zm1.023-.74c-.076.018-.154.03-.236.035l.41.53c.117.136.35.01.197-.169-.002-.004-.01-.011-.015-.016l-.356-.38zm-.807-.492h-.688l.194.347h.999c.272-.017.537-.084.645-.347h-1.15zm-.052 1.145l.224.404c.093.159.337.025.268-.114l-.227-.365a.824.824 0 0 1-.265.075zm.417-.186l.228.366.005.008c.09.14.343-.021.232-.166l-.33-.422a.59.59 0 0 1-.135.214zm-.997-.472l-.107-.194c-.324.043-.801.181-.73.602.212-.116.457-.167.697-.167h.272l-.132-.241zm1.109-.676h.365v-.2h-1.363v.197l.998.003zm-.607-.96l.143.57h.295l.143-.572a.323.323 0 0 1-.29.183.329.329 0 0 1-.29-.182zm.292-.278a.135.135 0 1 0 0 .27c.071 0 .131-.06.131-.135a.134.134 0 0 0-.131-.135zm-.518.146a.409.409 0 0 0-.259.702h.434l-.175-.702zm.859.702h.434a.407.407 0 0 0-.261-.702l-.173.702zm-.6 1.326l-.121-.208h-.17l.235.424c.35-.016.494-.202.524-.427-.06.003-.119.003-.179.003a.32.32 0 0 1-.29.208zm6.723.485a.82.82 0 0 0 .279.047.81.81 0 0 0 .379-.083l-.5-.248-.115.207-.043.077zm-1.028-.74l-.354.38c-.006.005-.01.012-.017.016-.151.178.081.305.196.17l.411-.53a1.435 1.435 0 0 1-.236-.036zm.81-.492h-1.151c.106.263.373.33.643.346l1 .001.194-.347h-.687zm.046 1.145a.86.86 0 0 1-.263-.075l-.223.365c-.07.14.173.273.264.114l.222-.404zm-.414-.186a.618.618 0 0 1-.136-.214l-.327.422c-.11.145.142.306.23.166l.006-.008.227-.366zm.999-.472l-.134.241h.274c.24 0 .483.051.697.167.069-.42-.406-.56-.73-.602l-.107.194zm-1.109-.676l.996-.003v-.198H26.36v.201h.365zm.606-.96a.321.321 0 1 1-.58-.001l.142.57h.295l.143-.57zm-.291-.278a.136.136 0 0 0-.134.135c0 .074.062.135.134.135.074 0 .134-.06.134-.135a.135.135 0 0 0-.134-.135zm.516.146l-.175.702h.436a.408.408 0 0 0-.261-.702zm-.857.702l-.175-.702a.407.407 0 0 0-.384.406c0 .117.047.222.123.296h.436zm.6 1.326a.32.32 0 0 1-.29-.208c-.06 0-.12 0-.178-.003.032.225.172.41.524.427l.237-.424h-.17l-.123.208zm-3.303-3.25a.183.183 0 1 0 0 .367.183.183 0 0 0 0-.366zm1.788 1.461a.852.852 0 0 0-.608-.816l-.449 1.67h.21a.85.85 0 0 0 .847-.854zm-.997-1.017l-.502 1.87h.247l.504-1.87h-.249zm-.97.066l.179.655.182-.655a.38.38 0 0 1-.361 0zm-.554 1.804l-.447-1.67a.85.85 0 0 0-.608.817c0 .47.38.853.848.853h.207zm.692.189h-.969v.2h2.025v-.2h-1.056zm-.51-1.893l.456 1.704h.188l.46-1.704h-.202l-.351 1.263-.348-1.263h-.204zm-.488-.166l.502 1.87h.248l-.5-1.87h-.25zm1.132-1.134v.216h.217v.19h-.217v.107a.373.373 0 0 1 .192.597h.317l.045-.167h.637l-.057.217c.436.14.749.486.749.991v.007a.591.591 0 0 1 .571-.435h.13l.046.19v-.012a.32.32 0 0 1 .254-.315v-.096h-.161v-.135h.16v-.161h.134v.16h.16v.136h-.16v.096c.148.028.255.16.255.315v.013l.05-.19h.127a.595.595 0 0 1 .371 1.058v.22h.303l-.173.307c.426.073.903.293.819.803-.02.1-.058.178-.101.265 0 0-.105-.08-.132-.098a1.263 1.263 0 0 0-.651-.17h-.033l.512.253c-.257.19-.42.3-.753.3-.134 0-.259-.023-.374-.068l-.131.233-.004.01-.44.791c-.071-.007-.136-.017-.2-.025l.331-.6a.29.29 0 0 1-.144-.04.371.371 0 0 1-.117-.109l-.41.66a1.773 1.773 0 0 1-.174-.074l.419-.676a.339.339 0 0 1-.26-.178l-.494.638a2.097 2.097 0 0 1-.144-.122l.473-.613a.347.347 0 0 1-.122-.049.303.303 0 0 1-.103-.125l-.58.623c-.095.012-.192.02-.287.028l.947-1.014c.007-.005.013-.014.02-.02l.293-.313c-.197-.098-.339-.28-.37-.615h.342v-.222a.608.608 0 0 1-.22-.422c-.078.387-.372.7-.751.8v.423h-2.401v-.423a1.034 1.034 0 0 1-.755-.787.609.609 0 0 1-.218.41v.221h.34c-.03.335-.171.517-.368.615l.291.313c.007.006.015.015.022.02l.947 1.014c-.095-.008-.192-.016-.286-.028l-.584-.623a.282.282 0 0 1-.226.174l.473.61a2.447 2.447 0 0 1-.142.124l-.495-.637a.286.286 0 0 1-.103.119.356.356 0 0 1-.156.06l.419.673a1.819 1.819 0 0 1-.175.076l-.407-.66a.371.371 0 0 1-.117.11.292.292 0 0 1-.146.038l.333.598a2.842 2.842 0 0 1-.2.028l-.44-.79-.006-.011-.13-.233c-.116.045-.24.069-.373.069-.335 0-.498-.112-.755-.301l.51-.253h-.029c-.222 0-.46.052-.651.17-.027.017-.134.098-.134.098-.041-.087-.082-.165-.101-.265-.082-.51.395-.73.82-.803l-.172-.308h.3v-.219a.592.592 0 0 1-.218-.464c0-.329.264-.595.592-.595h.125l.05.19-.002-.012c0-.155.111-.287.256-.315v-.096h-.162v-.135h.162v-.161h.136v.16h.161v.136h-.16v.096a.32.32 0 0 1 .255.315v.013l.044-.19h.13c.267 0 .491.177.568.42.002-.47.316-.866.744-.991l-.055-.21h.636l.046.167h.316a.364.364 0 0 1-.082-.236.37.37 0 0 1 .274-.36v-.108h-.214v-.19h.214v-.216h.188zM11.14 29.624v2.286h.487v-.686h1.04v-1.6H11.14zm.487 1.11h.553v-.62h-.553v.62zm2.03 1.176h1.528v-2.286h-1.527v2.286zm.488-.489h.554v-1.307h-.554v1.307zm2.048-1.797v2.286h1.528v-.71h-.487v.222h-.554v-1.308h.554v.22h.487v-.71h-1.528zm2.502 0v2.286h.487v-1.796h.862v-.49h-1.35zm2.234 2.286h1.531v-2.286h-1.53v2.286zm.488-.489h.556v-1.307h-.556v1.307zm2.05-1.797v2.286h1.526v-.71h-.486v.222h-.552v-1.308h.552v.22h.486v-.71h-1.526zm2.5 0v2.286h1.528v-.71h-.488v.222h-.551v-1.308h.551v.22h.488v-.71h-1.528zm2.333 0v.49h.523v1.796h.486v-1.796h.522v-.49H28.3zm2.422 0v2.286h.487v-.686h1.04v-1.6h-1.527zm.487 1.11h.554v-.62h-.554v.62zm2.08-1.11l-.218 2.286h.485l.05-.535h.535l.047.535h.49l-.222-2.286h-1.168zm.36 1.258l.069-.768h.308l.072.768h-.45zm2.709.121l.3.907h.52l-.421-1.152.386-1.134h-.518l-.267.889h-.132l-.265-.889h-.52l.388 1.134-.422 1.152h.521l.298-.907h.132z"/><path d="M38.183 33H9.653v-.158c0-.417-.368-.443-.441-.443l-.157-.004-.002-.156v-3.102h.159c.414 0 .44-.37.442-.443v-.158l.155-.002h28.533v.16c0 .416.365.442.44.443l.156.003.002.155V32.4h-.16c-.414 0-.438.368-.438.443l-.004.157-.155.001zm-28.225-.319h28.08c.048-.234.207-.526.585-.588V29.44c-.237-.048-.524-.208-.586-.586H9.954c-.05.236-.207.526-.585.59v2.652c.235.047.523.207.589.585zm14.038-4.441c-.962-.192-1.896-.623-2.795-1.095v-5.221a2.251 2.251 0 0 0 1.527-.703c.416.05.84.073 1.268.073.43 0 .85-.023 1.268-.073.387.41.928.673 1.528.703v5.222c-.901.47-1.834.902-2.796 1.094zm-1.51-2.922h-.195v-1.533h-.473v.285h.218v1.248h-.218v.252h.668v-.252zm3.687.252h-.669v-.252h.216V24.07h-.216v-.285h.47v1.533h.199v.252zm-2.307-1.785h-1.088v.986h.835v.547h-.835v.252h1.088v-1.785zm-.834.701h.58v-.416h-.58v.416zm2.14 1.084h-1.016v-1.084h.804v-.416h-.804v-.285h1.057v.986h-.805v.547h.764v.252zm-3.781 1.365c.834.43 1.682.825 2.605 1.018.925-.193 1.773-.588 2.604-1.018v-.158c-.807.42-1.704.845-2.604 1.036-.9-.19-1.794-.616-2.605-1.036v.158zm.08-4.755l-.08.01v.14c.565-.088 1.044-.284 1.473-.672a11.438 11.438 0 0 0 2.264 0c.428.388.909.584 1.472.672v-.14l-.078-.01a2.46 2.46 0 0 1-1.328-.666c-.4.041-.796.066-1.198.066-.401 0-.798-.025-1.197-.066-.38.356-.815.585-1.328.666z"/></g></g></svg>