<svg width="48" height="48" viewBox="0 0 48 48" xmlns="http://www.w3.org/2000/svg" xmlns:xlink="http://www.w3.org/1999/xlink"><title>A18B49EB-81F2-4A15-AED7-CE273F43D88E</title><defs><path id="a" d="M29.962 14.795V.111H0v14.684h29.962z"/><path id="c" d="M.028 20.68h29.886V.06H.028v20.62z"/></defs><g fill="none" fill-rule="evenodd"><path d="M0 0h48v48H0z"/><g transform="translate(9 5.148)"><mask id="b" fill="#fff"><use xlink:href="#a"/></mask><path d="M4.075 4.888C6.77 1.962 10.637.194 14.583.12c4.142-.14 8.314 1.564 11.166 4.63 2.596 2.65 4.055 6.323 4.213 10.043-2.225.007-4.452 0-6.676.002-.191-2.502-1.46-4.896-3.488-6.343-2.782-2.09-6.857-2.087-9.634.01-2.028 1.442-3.274 3.844-3.49 6.333-2.225-.002-4.45.003-6.674-.002.17-3.653 1.579-7.254 4.075-9.904" fill="#FFF" mask="url(#b)"/></g><g transform="translate(9 22.209)"><mask id="d" fill="#fff"><use xlink:href="#c"/></mask><path d="M.028.06c2.28.002 4.558-.006 6.836.005.626 2.62 2.466 4.924 4.938 5.948 2.867 1.256 6.396.644 8.7-1.497 1.312-1.158 2.163-2.763 2.603-4.457 2.253.006 4.503-.007 6.755.008-.47 3.875-2.458 7.533-5.456 9.976 3.168 2.582 5.215 6.517 5.51 10.637-2.235-.002-4.47.003-6.702-.002-.443-3.1-2.665-5.853-5.606-6.815-1.617-.615-3.371-.32-5.04-.635-2.112-.331-4.118-1.184-5.91-2.358 0 3.27-.003 6.54.003 9.81-2.21-.002-4.422-.002-6.631 0V.06z" fill="#FFF" mask="url(#d)"/></g></g></svg>