<svg width="48" height="48" viewBox="0 0 48 48" xmlns="http://www.w3.org/2000/svg"><title>45C0434E-1550-4C92-BA58-FD1AFA5EE98E</title><g fill="none" fill-rule="evenodd"><path d="M0 0h48v48H0z"/><path d="M21.302 5.01c-1.705 0-3.003 1.365-3.003 3.067v31.856c0 1.713 1.298 3.067 3.003 3.067 1.674 0 3.006-1.343 2.984-3.067V8.077c.022-1.735-1.31-3.066-2.984-3.066zM28.864 5c-1.893 0-2.95 1.604-2.95 2.967v32.174c0 .73.541 2.859 2.928 2.859 1.18 0 2.467-.545 2.467-2.423V30.55h-.74v10.267c0 .512-.605 1.254-1.407 1.254-.694 0-1.365-.557-1.365-1.419V7.323c0-.84.671-1.385 1.376-1.385.616 0 1.396.448 1.396 1.255v10.32h.75V5.284h-.461c-.069.186-.222.142-.289.175-.307-.163-.737-.458-1.705-.458zm4.48 37.464v.382h4.83v-.382h-.01c-.67 0-1.365-.545-1.365-1.188V6.113a1.36 1.36 0 0 1 .354-.044 1.09 1.09 0 0 1 1.1 1.124v10.32H39V5.318h-6.472v12.197h.738V7.193a1.106 1.106 0 0 1 1.1-1.124c.123 0 .232.011.355.044l.009 35.163c0 .643-.704 1.188-1.376 1.188h-.01zm-23.344 0v.382h4.645v-.382h-.01c-.685 0-1.355-.589-1.355-1.254l.012-12.58c.186.012.373.022.57.022h.33c2.477-.065 2.708-1.985 2.708-2.377V7.858c0-1.45-1.254-2.553-2.62-2.553H10v.382h.01c.729 0 1.356.633 1.356 1.331v34.115c0 .699-.627 1.331-1.356 1.331H10zm11.292-.392c-.615-.044-1.1-.448-1.1-1.102V7.04c0-.654.485-1.058 1.1-1.102.628.044 1.11.47 1.11 1.102v33.93c0 .632-.482 1.058-1.11 1.102zm-7.385-14.336a1.438 1.438 0 0 1-.615-.185V6.418c.175-.109.406-.174.625-.174h.012c.494.01 1.089.382 1.089 1.134v19.049c0 .894-.482 1.265-1.11 1.31z" fill="#FFF"/></g></svg>