<svg width="48" height="48" viewBox="0 0 48 48" xmlns="http://www.w3.org/2000/svg"><title>9E7A4361-CCBC-4C20-BD7F-EB0CB4A8DDEF</title><g fill="none" fill-rule="evenodd"><path d="M0 0h48v48H0z"/><path d="M11.548 18.529a15.208 15.208 0 0 1 3.578-4.208v-.095l.053.052c.103-.083.207-.165.312-.245l-.165-.164a15.533 15.533 0 0 0-3.798 4.241l.02.417v.002zm-.027.047a15.575 15.575 0 0 0-2.058 7.766c0 4.212 1.67 8.042 4.361 10.821a14.957 14.957 0 0 0 4.969 3.39l-.02-.286-.073-.497-.115-.488-.152-.462-.18-.45-.23-.43-.224-.414-.273-.394-.292-.38-.318-.38-.658-.72-.715-.702-.72-.684-.725-.682-.72-.705-.658-.73-.329-.359-.278-.39-.273-.405-.235-.407-.212-.437-.198-.44-.141-.475-.118-.475-.07-.497-.037-.545.01-4.405.04.534.067.497.132.489.141.458.201.454.211.426.236.415.265.396.286.38.316.38.669.717.706.695.739.695.72.68.7.693.67.717.318.382.283.38.27.397.233.415.236.426.179.45.136.465.131.486.073.496.032.535-.018 4.19c.158.065.317.127.477.187v-14.16h2.89c1.18 0 1.886.47 2.126 1.416.257-.9.94-1.354 2.058-1.354h.658c.931 0 1.565.312 1.9.936l-.15-.77h10.387a15.686 15.686 0 0 0-.563-4.69h.245c.368 1.341.565 2.756.565 4.218 0 8.558-6.782 15.55-15.087 15.55S9.232 34.903 9.232 26.345c0-3.018.84-5.839 2.291-8.227l-.002.458zm7.08-6.881l.186-.076V5.132h.222v6.4c.183-.07.367-.136.553-.199l.443-.438V5.132h.222v5.543l.992-.982v-4.56h.236V9.46l.912-.903V5.132h.222v3.205l.085-.083v2.39a14.89 14.89 0 0 1 1.644-.091c6.581 0 12.215 4.316 14.374 10.343h.29c.25 0 .456.212.453.475v.283a.47.47 0 0 1-.36.462c.363 1.346.558 2.763.558 4.226 0 8.685-6.88 15.783-15.315 15.786C15.879 42.125 9 35.028 9 26.342c0-5.163 2.423-9.759 6.156-12.642l-.03-.03v-2.432l1.481 1.468c.115-.07.23-.137.347-.203l-1.827-1.82v-2.43l.08.08v-3.2h.236v3.434l.912.903V5.132h.222V9.69l.993.983v-5.54h.225v5.763l.807.799zm.122.208c.145-.06.29-.118.438-.173l-.086.085v.195c-.118.046-.236.094-.352.143v-.25zm-1.594.775a14.98 14.98 0 0 0-.347.2l.17.169c.114-.069.23-.135.347-.2l-.17-.17zm5.315-1.767a14.67 14.67 0 0 1 1.873-.12c6.449 0 11.98 4.21 14.13 10.105h-.252a15.457 15.457 0 0 0-3.389-5.382c-2.692-2.771-6.403-4.492-10.49-4.492-.728 0-1.443.055-2.143.16l.271-.27zm-3.633 29.65v.238l-.018-.245.018.007zM39.028 28.47a6.69 6.69 0 0 1-.03.211H36.5v.616h.377c.717-.016 1.522-.03 1.91.503a15.431 15.431 0 0 1-1.535 4.055v-3.317H36.5v4.544a15.409 15.409 0 0 1-1.691 2.087 2.214 2.214 0 0 1-.083.079v-9.804h4.3v1.026h.002zm-5.054 3.675a1.2 1.2 0 0 0-.728-.703l.728-3.822v4.525zm-4.768-.432V29.07l.458 2.373c-.193.073-.34.163-.458.271zm4.228 6.707c-.517.415-1.063.8-1.633 1.146v-6.572h-.693v6.962c-.527.285-1.072.532-1.632.75v-7.524c0-.693.166-1.211.857-1.45l-.763-4.256h1.538l.26 4.647h.187l.26-4.647h1.621l-.87 4.256c.728.263.87.714.87 1.45v5.238h-.002zm-4.886-6.167H27.02v-3.54h-.658v11.941h.658v-7.738h1.528v7.51c0 .23-.019.432-.054.616-1.073.326-2.196.53-3.355.595-.265-.318-.302-.807-.302-1.208V28.945c0-.598.118-1.016.34-1.254.222-.24.623-.356 1.188-.356.575 0 1.42-.084 1.854.356.222.238.329.656.329 1.254v3.308zm-4.23 9.408c-.725 0-1.44-.054-2.138-.16v-3.993c1.025 0 1.694-.355 2.01-1.07v3.988c0 .491.074.901.224 1.23-.032.002-.064.005-.096.005zm-2.807-6.15h.669v-6.914h-.669v6.913zm0 1.335v4.54a14.158 14.158 0 0 1-1.552-.4V27.261h2.221c.575 0 .977.12 1.21.344.235.226.34.633.34 1.22v6.46c0 .58-.108.987-.34 1.212-.351.359-.999.359-1.54.359-.117-.011-.235-.011-.339-.011zm17.563-14.73a16.14 16.14 0 0 0-.382-1.22h-.245c.147.403.278.813.392 1.23h.141a.435.435 0 0 0 .094-.01zm-.879-1.22c.15.403.282.813.399 1.23h-.596v.4h.332v.805h-.332l-.313.443.645-.098v1.083h-.645v-.491h-.955v.49h-.645v-1.082l.645.098-.313-.443h-.332v-.806h.332v-.399h-7.088c-.093.242-.246.396-.415.396-.168 0-.318-.152-.414-.396h-.345c-.094.242-.247.396-.415.396-.169 0-.319-.152-.415-.396h-.27c.206.282.329.624.329.996 0 .988-.696 1.789-1.752 1.789-1.057 0-1.914-.8-1.914-1.789 0-.602.372-.885.48-1.267a.394.394 0 0 1-.343-.394c0-.193.131-.35.308-.394-.113-.306-.447-.719-.447-1.17 0-.99.856-1.788 1.913-1.788s1.752.798 1.752 1.789c0 .369-.123.71-.329.998h.27c.097-.241.247-.404.415-.404.171 0 .321.16.415.404h.348c.096-.241.246-.404.414-.404.169 0 .319.16.415.404h8.866zm-12.248-.127c.303.01.543.326.543.725 0 .396-.24.71-.543.722l-.163.396c.423 0 .902.054.902.554 0 .602-.386 1.09-1.057 1.09-.672 0-1.218-.49-1.218-1.09 0-.473.169-.54.637-.695l-.136-.283.3-.274a.476.476 0 0 1-.287-.437c0-.2.118-.366.286-.44l-.26-.2.097-.285c-.465-.158-.637-.223-.637-.698 0-.605.546-1.09 1.218-1.09.671 0 1.057.488 1.057 1.09 0 .502-.412.554-.902.554l.163.36zm-6.872 2.987v2.451l3.599-3.583v-2.43l-3.599 3.562zm0-8.954v2.448l3.599-3.58v-2.432l-3.599 3.564zm0 2.985v2.45l3.599-3.585v-2.426l-3.599 3.56zm0 2.987v2.446l3.599-3.58v-2.433l-3.599 3.567zm-.352 2.982v2.451l-3.596-3.583v-2.43l3.596 3.562zm-2.116-11.05a15.11 15.11 0 0 0-1.45.994l.169.169c.465-.358.951-.689 1.456-.99l-.175-.173zm.344.34c-.506.3-.994.63-1.46.987l3.232 3.217v-2.448l-1.772-1.755zm-1.824 1.274l.052-.042 3.544 3.509v2.45l-3.596-3.585V14.32zm3.596 6.454v2.446l-3.596-3.58v-2.433l3.596 3.567zm-7.175-2.245l-.027.047-.021 3.605.037.505.067.477.107.454.129.44.187.412.203.407.212.394.235.372.268.377.294.336.597.69.658.668.669.646.658.63.65.664.607.682.297.358.257.358.25.38.21.38.21.42.168.419.125.44.118.453.072.478.025.496.018-4.182-.032-.497-.061-.467-.118-.464-.126-.429-.163-.432-.211-.407-.212-.39-.249-.367-.273-.361-.291-.358-.6-.679-.658-.657-.658-.64-.669-.657-.645-.646-.61-.69-.297-.358-.26-.355-.243-.37-.211-.396-.203-.402-.172-.418-.133-.442-.115-.45-.07-.474zm-.025-.41l.005-.009-.004-.087v.095z" fill="#FFF"/></g></svg>