<svg width="48" height="48" viewBox="0 0 48 48" xmlns="http://www.w3.org/2000/svg"><title>BC258C0D-98E4-434A-87AB-CF268A5D4BD2</title><g fill="none" fill-rule="evenodd"><path d="M0 0h48v48H0z"/><path d="M16.851 13.87L10.08 9.919a19.828 19.828 0 0 0-1.36 1.694l8.132 4.745 17.486-10.2A19.445 19.445 0 0 0 32.057 5l-15.206 8.87zm0 4.975l-9.287-5.418a20.117 20.117 0 0 0-.954 1.931l10.241 5.972 21.17-12.346a19.604 19.604 0 0 0-1.714-1.488L16.851 18.845zm0 4.972l-10.99-6.409a19.763 19.763 0 0 0-.53 2.179l11.52 6.72 23.933-13.96-.135-.205-.01-.015-.006-.008a18.702 18.702 0 0 0-.936-1.277c-.062-.08-.126-.16-.19-.238L16.85 23.817zm0 4.976L5.045 21.907c-.026.4-.042.804-.045 1.212a20.28 20.28 0 0 0 .326 3.692 19.763 19.763 0 0 0 2.33 6.379 19.667 19.667 0 0 0 5.538 6.145 19.501 19.501 0 0 0 4.915 2.574c.685.243 1.392.448 2.109.613a19.469 19.469 0 0 0 5.318.45 19.423 19.423 0 0 0 8.74-2.633A19.586 19.586 0 0 0 37.462 38a19.915 19.915 0 0 0 6.173-10.953 20.218 20.218 0 0 0 .365-3.82v.001c0-.092 0-.184-.002-.276a20.151 20.151 0 0 0-2.144-8.74v-.001L16.851 28.793z" fill="#FFF"/></g></svg>