<svg width="48" height="48" viewBox="0 0 48 48" xmlns="http://www.w3.org/2000/svg"><title>63DAB88D-1F65-4D4A-9F70-92DF0E61C4AA</title><g fill="none" fill-rule="evenodd"><path d="M0 0h48v48H0z"/><path d="M33.102 17.867l-.074-.003c-.01.147-.044.29-.088.43.081.107.059.175-.064.203-.17.732-.641 1.377-1.2 1.867-.284.229-.59.45-.937.57l-.008.067-.067.035-.055-.033c-.165.067-.336.138-.518.137-.026.123-.092.146-.197.07a4.421 4.421 0 0 1-1.427 0c-.105.078-.173.056-.2-.065-1.015-.196-1.92-.899-2.428-1.79l-.067-.008-.038-.066.03-.055-.074-.157-.067-.008-.035-.067.032-.056c-.16-.337-.234-.709-.29-1.075l-.074.013a4.923 4.923 0 0 1-.002-.945l.076.004c.028-.24.079-.48.15-.71l-.033-.054.097-.084.005-.074-.028-.06.041-.065.066-.005c.277-.742.847-1.36 1.512-1.778.202-.116.4-.252.63-.303l.009-.065.068-.037.058.03.073-.003.015-.065.07-.031.054.034c.598-.169 1.237-.157 1.846-.072l.054-.035.069.032.013.066c.382.06.747.227 1.075.43l.06-.025.063.043.001.065c.713.437 1.235 1.142 1.525 1.921l.067.009.038.067-.031.055.001.149.065.014.029.071-.038.053c.032.19.062.38.082.57l.075-.004c.025.263.027.53-.009.793m9.382 11.529a18.092 18.092 0 0 1-4.75-5.524l-.074-.155a43.75 43.75 0 0 0-.354-.703c-.017-.039-.05-.119-.068-.158a17.71 17.71 0 0 1-.503-1.266l-.067-.16c-.067-.258-.141-.514-.213-.77-.084-.056-.112-.13-.086-.226l.006-.058c-.09-.055-.117-.131-.082-.23l.017-.126c-.09-.058-.114-.135-.072-.231-.038-.37-.12-.734-.154-1.104a1.62 1.62 0 0 1-.05-.635c-.02-.7 0-1.404.075-2.101a.372.372 0 0 1 .05-.377 7.81 7.81 0 0 0 .154-.906l.07-.16a8.303 8.303 0 0 1-.007-.131l.077-.156c.041-.188.088-.375.136-.561l.07-.158c.075-.231.146-.464.213-.698l.069-.158.083-.195.07-.158c.046-.115.092-.23.14-.345l.079-.154c1.16-2.494 2.962-4.67 5.128-6.354.181-.132.366-.263.51-.438-.287.042-.577.04-.865.034L30.75 5.033c-.314.01-.629.002-.94-.027-3.444 4-6.887 8-10.334 11.996-.104.137-.26.25-.31.418 3.502 4.1 7.04 8.174 10.551 12.266.072.108.19.149.316.14h12.053c.291-.001.582.008.872-.019-.128-.17-.306-.287-.474-.411m-19.779 1.621h-.07l-.027.207c.085.102.067.171-.054.208l-.006.077.03.057-.102.078a.808.808 0 0 1-.074.294l.032.056-.037.066-.067.008c-.37.956-1.191 1.715-2.138 2.088l-.009.066-.07.037-.057-.031-.076-.002-.089.094-.055-.034-.072.011c-.035.124-.104.142-.206.055-.519.08-1.051.08-1.57-.002-.105.086-.171.066-.198-.062a1.548 1.548 0 0 1-.441-.144l-.055.035-.068-.033-.01-.067a3.687 3.687 0 0 1-2.007-2.078l-.067-.009-.034-.067.034-.055c-.197-.57-.288-1.19-.196-1.79-.084-.101-.068-.17.048-.204l.007-.225-.033-.052.097-.086v-.076l-.03-.058.037-.067.065-.01c.21-.756.735-1.4 1.35-1.871.294-.195.594-.407.939-.492l.008-.066.068-.037.057.03.075-.003.087-.094.056.034h.078c.034-.117.104-.137.207-.059a3.952 3.952 0 0 1 1.423 0c.105-.08.172-.06.202.061 1.172.23 2.194 1.117 2.645 2.218l.066.01.036.066-.033.055c.04.092.07.19.075.292l.102.077-.032.056.001.155c.118.032.137.101.057.205l.03.137.07-.002c.023.314.023.63.001.943m6.005-.603c-3.507-4.06-7-8.131-10.506-12.192-.064-.098-.18-.096-.284-.1H6.011c-.337.002-.675-.015-1.011.02.136.183.334.304.513.44 1.973 1.532 3.64 3.47 4.801 5.688.392.762.742 1.55.983 2.373l.071.158c.047.185.093.372.136.56l.077.155a8.636 8.636 0 0 1-.01.13l.082.156-.01.13c.084.056.11.132.08.229l-.006.198c.087.057.112.133.073.23.052.558.124 1.114.15 1.675.137.259.121.584 0 .847l-.028.248c.05.172.053.356-.043.512l-.008.275c.035.095.01.171-.074.23l.006.2c.033.094.008.171-.076.23l.015.2c.037.097.01.173-.08.226l.004.057c.027.096-.001.172-.086.227l.011.13a26.9 26.9 0 0 1-.082.153l-.062.344-.07.16.004.06-.083.153-.063.275-.08.153c-.044.139-.09.277-.138.415l-.073.156c-.048.115-.096.23-.146.344l-.067.159c-.179.38-.381.75-.565 1.128l-.095.143c-1.212 2.142-2.898 4.007-4.871 5.47a1.556 1.556 0 0 0-.18.192 3.74 3.74 0 0 1 .356-.035c3.946.002 7.892 0 11.838.001.315-.01.63-.003.944.026 3.532-4.1 7.064-8.2 10.594-12.302.089-.069.026-.165-.032-.227" fill="#FFF"/></g></svg>