<svg width="48" height="48" viewBox="0 0 48 48" xmlns="http://www.w3.org/2000/svg"><title>FE059775-9BF9-41C0-9289-E04E3C4F7EE7</title><g fill="none" fill-rule="evenodd"><path d="M0 0h48v48H0z"/><path d="M27.699 5.919v8.964h-3.87v.01c-.713 0-1.438.082-2.161.273a8.431 8.431 0 0 0-5.99 10.311c1.001 3.779 4.418 6.264 8.151 6.262v.01h3.87v8.965c7.986-1.767 13.96-8.883 13.96-17.398 0-8.514-5.974-15.63-13.96-17.397zM12.945 23.316c0-6.009 4.873-10.88 10.884-10.88.265 0 .528.013.787.031V5.513a18.11 18.11 0 0 0-.787-.02C13.983 5.493 6 13.473 6 23.316 6 33.16 13.983 41.14 23.83 41.14c.263 0 .526-.009.786-.02v-6.954c-.26.018-.522.03-.787.03-6.01 0-10.884-4.87-10.884-10.88z" fill="#FFF"/></g></svg>