<svg width="48" height="48" viewBox="0 0 48 48" xmlns="http://www.w3.org/2000/svg"><title>2F668DEC-9994-47FF-A917-5E0FF6020B23</title><g fill="none" fill-rule="evenodd"><path d="M0 0h48v48H0z"/><path d="M43.259 6.39c.082 0 .16.005.24.006v-.491H16.762C10.268 5.905 5 11.284 5 17.915c0 .038.004.078.004.12h26.732C31.8 11.592 36.933 6.391 43.26 6.391M5.239 41.806c-.08 0-.158-.004-.24-.005v.49h26.736c6.495 0 11.763-5.375 11.763-12.006 0-.042-.004-.081-.004-.122H16.762c-.064 6.44-5.197 11.643-11.523 11.643m38.02-12.129c.074 0 .149-.003.223-.006-.308-6.264-5.323-11.26-11.508-11.388.067 6.305 5.093 11.394 11.285 11.394M5.016 18.526c.31 6.266 5.323 11.26 11.508 11.388-.067-6.304-5.093-11.395-11.287-11.395-.073 0-.147.005-.221.007" fill="#FFF"/></g></svg>