<svg id="Слой_1" xmlns="http://www.w3.org/2000/svg" viewBox="0 0 48 48"><style>.st0{fill:none}</style><title>865948FF-AF98-4426-8A8B-E03433A88787</title><g id="elements_x2F_logos"><g id="logos_x2F_tinkoff_x5F_wh"><path id="Rectangle" class="st0" d="M0 0h48v48H0z"/><g id="Group" transform="translate(4 7)"><path id="Fill-13" d="M8.9 27.6l-.5.8c-.2-.5-.5-1-.6-1.4-.4.8-.9.8-1.5.8.1-1.8-2.1-3.6-1.1-5.7.2-.4.1-.9-.4-1.1-1.5-.8-.8 2.4-2.3 2.5.3-.4.4-1.1.4-1.2-.3.1-1.1.6-1.4-.1.9-.5 1.1-1.2 1.3-1.9.2-.9.3-1.4.4-1.7.2-.4.5-.8 1.1-1.6-.2 0-1.9.4-2.2.2 3-1.8 2.3-4.1 6.8-6.2-1.2-1-2.4-1.7-1.6-3.3 1.2 1.5 3.6 1 4.8.3-1.3-.3-2.9-1.4-3.2-2.6.5-.1 1.1.4 1.5.6.2-.5.2-1 .8-1.1-.7 1.6.7 2.4 2.1 2.4.2 0 1.1-.1 1.1-.1-.1-.3-.7-1.1-.3-1.4.3.3.7.6 1.1.9 2.7 2.1-1.3 4-2.9 4.9-2.5 1.4-1.9 3-.8 3.4 0 .2-.1.3-.3.3-.7.2-1.4-.3-2-.6 0 1 0 2 1.1 2.6l-.8.3c.7.5.9.8 1.7.9-.4.2-.8.2-1.2.2.1.3.2.7.4.9-1.7.2-2.3-.7-2.8-.7C6.4 19 6.4 21 9.1 21l-.3.5s.5.3 1 .4c-.2.1-.4.3-.5.5l.4.4c-1.1.2-1.4-1-2.1-.4-1.1.9 1.3 2.7 3.6 2.4-.2.2-.7.6-1 .8 1.9 1.8.9 3.4 1.7 4.7-1.5-.3-2.7-1.4-3-2.7m2.1-2c.5-.4.9-.6.9-1.6-.8.4-3 .4-3.9-.9-.3-.4 0-.5.3-.3.6.7 1.8.4 2.2.2-.1-.2-.3-.6-.4-.7.2-.2.6-.4.7-.8-.2-.1-1.2-.2-1.2-.2.2-.1.3-.3.2-.9-1 .3-2.1-.1-2.4-.5-.3-.3 0-.7.2-.4.5.5 2.8 1.1 3.7.2-.3-.1-.7-.4-.7-.6.8-.1 1.5-.6 1.5-1.2-.4 0-1.3 0-1.6-.2.4-.1.6-.3.8-.7-1.5-.1-1.6-1.2-1.6-1.4 1 .6 2.7.3 2.2-1.1-.8 0-1.6-1.3.6-2.5 2-1.1 4.3-2.3 4.1-4.2-.1-1.2-2.2-2.1-2.4-2.7-.8.4-1 .9-.6 1.7 0 0-1.9.2-2-1-.1-.5.3-1 .7-1.4-.2 0-1.6-.4-2.1.8-.8-.5-1.5-.5-2 0 .7.6 1.3 2.3 2.7 2.8-1 .5-2.6.3-3.6-1.4-.9 1.4-1.4 2.8.5 4.2-3.5 1.6-3.5 4.7-6.5 6.1.3.8 1 .8 1.8.7-1.3 1.7-.2 3.5-2.3 4.3.2.7.6 1.3 1.4 1.1-.2.3-.4.3-.7.7 1.1.7 2.5.2 2.8-2.1.1-.4.6-.2.4.3-1.3 2.7 2 4.7.8 6.7 1 0 1.8-.1 2.2-.5.2.4.3.8.3 1.2.6-.1.8-.5.8-.8.4 1.1 1.7 2.2 3.8 2.2-1.1-1.6 0-3.3-1.6-5.1"/><path id="Fill-14" d="M6 21.1c.4.4.9.4 1.8.4-1-.1-1.5-.4-1.9-1-.1-.3-.1-.7-.1-1.1 0-1 .3-2.3 1-3.6 0 .8.7 2.2 2.2 2.4-1.3-.6-2.1-1.9-1.7-3.2.3-.4.6-.9.9-1.4.2-.2.3-.4.5-.6-.2.7.6 1.3 1.1 1.4-.3-.3-.9-1.2.5-2.7-.4.2-.8.5-1.2.7 2.6-2.8 4.7-2.9 5.7-4.3-1.4 1-5.1 1.5-6.8 1 .9.6 3.2.6 3.7.4-1.8 1.8-5.8 3.6-6.5 5.2 1-1.1 1.6-1.3 2.4-1.5-.7 1-1.3 1.9-1.7 2.9-1.1 2.3-2.5 2.3-2.6 4.2.5-1.5 1.5-1.8 2.1-2.8-.1.6-.2 1.3-.2 2.1 0 .9.2 1.6.5 2.3-.1.9 0 2.5 1.1 3.6-.7-.9-.9-2.4-.8-3 .8 1.6 3.2 3.9 4.4 5.4-1-1.9-3.8-4.2-4.4-6.8"/><path id="Fill-15" d="M32.4 13.3c.8.3 1.5.5 2.4 1.5-.7-1.6-4.7-3.5-6.5-5.2.5.1 2.8.2 3.7-.4-1.7.5-5.4-.1-6.8-1 1 1.4 3.1 1.5 5.7 4.3-.3-.3-.8-.5-1.2-.7 1.4 1.5.8 2.4.5 2.7.5-.1 1.3-.8 1.1-1.4.2.2.3.4.5.6.4.5.7.9.9 1.4.4 1.3-.4 2.6-1.7 3.2 1.5-.2 2.2-1.6 2.2-2.4.7 1.3 1.1 2.6 1 3.6 0 .4 0 .7-.1 1.1-.3.7-.9.9-1.9 1 .9.1 1.4 0 1.7-.4-.6 2.6-3.4 4.9-4.6 6.8 1.2-1.5 3.5-3.7 4.4-5.4.1.6-.1 2.1-.8 3 1.1-1.1 1.2-2.7 1.1-3.6.3-.7.4-1.4.5-2.3 0-.8 0-1.5-.2-2.1.7 1 1.7 1.3 2.1 2.8-.1-1.9-1.5-1.9-2.6-4.2-.1-1-.7-1.9-1.4-2.9"/><path id="Fill-16" d="M37.2 22.2c0 .1.1.8.4 1.2-1.5-.1-.8-3.3-2.3-2.5-.4.2-.6.7-.4 1.1 1 2.1-1.3 3.9-1.1 5.7-.6 0-1.1 0-1.5-.8-.2.4-.5.9-.6 1.4l-.5-.8c-.3 1.3-1.5 2.5-3.1 2.6.8-1.2-.2-2.9 1.7-4.7-.2-.2-.8-.6-1-.8 2.3.3 4.7-1.5 3.6-2.4-.7-.6-1 .6-2.1.4l.4-.4c-.1-.2-.3-.3-.5-.5.5-.1 1-.4 1-.4L31 21c2.7 0 2.8-2.1 1.7-2.1-.5 0-1.2.9-2.8.7.2-.3.3-.6.4-.9-.4 0-.9 0-1.2-.2.8-.1 1-.4 1.7-.9l-.8-.3c1.1-.6 1.1-1.6 1.1-2.6-.6.3-1.3.9-2 .6-.2-.1-.3-.1-.3-.3 1.1-.4 1.7-2.1-.8-3.4-1.6-.9-5.6-2.8-2.9-4.9.4-.3.8-.5 1.1-.9.4.3-.2 1.1-.3 1.4 0 0 .9.1 1.1.1 1.4 0 2.8-.8 2.1-2.4.5.1.6.6.8 1.1.4-.2 1-.8 1.4-.7-.4 1.2-2 2.3-3.2 2.6 1.3.7 3.6 1.2 4.8-.3.9 1.7-.3 2.4-1.5 3.3 4.5 2.1 3.8 4.4 6.8 6.2-.4.2-2.1-.2-2.2-.2.6.8.9 1.2 1.1 1.6.2.4.3.8.4 1.7.1.7.4 1.5 1.3 1.9-.5.7-1.3.2-1.6.1m-.2-4.6c.8.1 1.5.1 1.8-.7-3.1-1.5-3-4.5-6.5-6.1 1.9-1.4 1.4-2.8.5-4.1-.9 1.7-2.6 1.9-3.6 1.4 1.4-.5 1.9-2.3 2.8-2.8-.5-.6-1.2-.6-2 0-.4-1.2-1.9-.8-2.1-.8.4.4.7.9.7 1.4-.1 1.2-2 1-2 1 .4-.8.2-1.3-.6-1.7-.3.6-2.3 1.5-2.4 2.7-.2 1.9 2.1 3.1 4.1 4.2 2.2 1.2 1.4 2.5.6 2.5-.4 1.4 1.3 1.6 2.2 1.1 0 .2-.1 1.3-1.6 1.4.1.4.4.6.8.7-.4.1-1.3.2-1.7.2.1.6.7 1.1 1.5 1.2-.1.2-.4.5-.7.6.9.9 3.2.3 3.7-.2.2-.2.5.1.2.4-.3.4-1.5.8-2.4.5-.1.5.1.7.2.9 0 0-.9.1-1.2.2.1.4.5.6.7.8-.2.1-.3.5-.4.7.4.2 1.6.5 2.2-.2.3-.3.5-.1.3.3-.9 1.3-3.1 1.3-3.9.9 0 1 .4 1.2.9 1.6-1.6 1.8-.5 3.5-1.7 5.1 2.1 0 3.5-1.2 3.8-2.2 0 .4.2.7.8.8 0-.4.1-.8.3-1.2.4.3 1.2.4 2.2.5-1.2-2 2.1-4 .8-6.7-.2-.4.4-.7.4-.3.3 2.3 1.7 2.8 2.8 2.1-.3-.4-.5-.4-.7-.7.8.2 1.2-.4 1.4-1.1-2-.8-.9-2.6-2.2-4.4"/><path id="Fill-17" d="M15.8 26.1l.6-.5c.1-.1.2-.1.3-.1l.9.1c0 .2.2.4.2.4l-.9-.2c-.1 0-.2 0-.3.1l-.4.3c-.1.1-.1.2 0 .3l.1.2-.3.2-.1-.2c-.3-.3-.3-.5-.1-.6m1.4-1.7l-.2.1c-.1.1-.2.1-.3 0l-.1-.1v-.2l.7-.8-.6-.5.8.3.3-.4c.2 0 .2.2.2.2.3 0 1.3.5 1.3 1.7 0 0 .2.3.5.3l1.4.1c.2 0 .8-.5 1.6 0 .2-.1.4-.2.6-.2.7 0 1.2.4 1.5.9.3.3.6.9.6.9-.2.2-.3.3-.4.2-.2-.1-.3-.3-.3-.5-.1-.4-.5-.7-.5-.7.1.2.2.5.2.7-.6-.6-.7-1.2-1.1-1.3-.2 0-.4 0-.6.2.2.5.2 1 .4 1.3.2.3.2.3.3.3.2.1.1.3 0 .5l-.2 1.3H23l.2-1.3c.1-.4-1-.4-1.6-1.1-.5.6-1.8.4-2.4.3-.2 0-.5 0-.6.2-.1.1-.2.1-.3.1l-1.1-.2c-.2 0-.3 0-.4.2l-.2.4v.3l.1.1c-.1.2-.3.4-.3.4l-.2-.3c-.1-.1-.1-.3 0-.5l.3-.7c0-.1.1-.2.3-.2h1.3l-.4-.7c-.3-.5.2-1.4.1-1.8.2.7-.5.4-.6.5m5.5 3l-.6 1.4h-.4l.6-1.4c.1-.2-.1-.3-.2-.5l.6.3v.2m-7-.1l.6-.5-.1-.2c-.1-.1 0-.1 0-.2l.3-.3c.1-.1.2-.1.3 0l1 .2h-1.1c-.2 0-.3.1-.4.3l-.1.2-.3.6c-.1.2-.1.5.1.8l.2.2-.2.7h.3l.3-.6s.4-.4.5-.8c-.1-.1-.2-.2-.1-.3l.1-.3c0-.1.1-.1.2-.1l1.1.2c.1 0 .3.1.5-.1.1-.1.1-.1.4-.1l.5.1c.7.1 1.5-.1 1.8-.3.1.2.3.4.4.6 0 .1 0 .2-.1.3l-.6 1.5h.9l.5-1.3c0-.1.1-.2.2-.3l-.3 1.6h.9l.2-1.6c.1-.4 0-.5-.1-.6-.4-.3-.4-1-.5-1.4.1 0 .1-.1.2 0 .2 0 .3.5.6.9.5.7 1.1 1.4 1.8.4-.1-.1-.1-.2-.2-.3l-.2-.2c-.1-.1-.7-.8-.9-1-.5-.5-1.4-.5-1.7-.2-.7-.4-1.5 0-1.7 0l-1.3-.1c-.1 0-.1 0-.2-.1l.2-.1c-.2-.9-.8-1.7-1.8-1.8 0 0-.1-.3-.2-.4l-.3.3c-.1 0-.2 0-.2.1l-1.3-.5.9 1s-.5.7-.6.8c-.1.1-.1.2 0 .4l.2.2c.1.1.2.1.3 0l.2-.1c.1-.1.4.1.5 0-.1.3-.1.5-.1.7l-.8-.1c-.2 0-.3 0-.4.1l-.7.6c-.2.2-.3.5-.2.8l.5.3"/><path id="Fill-18" d="M18.5 9c.3.2.9.5.9.5v-.4l-1.3-.5s0 .2.4.4"/><path id="Fill-19" d="M19.4 8.6v-.4l-1.5-.5s.2.2.6.5c.3.1.9.4.9.4"/><path id="Fill-20" d="M19.4 7.6v-.4l-1.7-.6s.3.3.7.5c.4.3 1 .5 1 .5"/><path id="Fill-21" d="M24.1 13.1h1.7c-.1-.2-.3-.5-.8-.5-.5.1-.8.3-.9.5"/><path id="Fill-22" d="M22.3 6.6l-1.7.6v.4s.6-.3.9-.5c.5-.2.8-.5.8-.5"/><path id="Fill-23" d="M22 8.6l-1.3.5v.4s.6-.3.9-.5c.4-.2.4-.4.4-.4"/><path id="Fill-24" d="M22.2 7.6l-1.5.5v.4s.6-.3.9-.5c.4-.2.6-.4.6-.4"/><path id="Fill-25" d="M15.1 12.7c-.5 0-.8.2-.8.5H16c-.1-.3-.4-.5-.9-.5"/><path id="Fill-26" d="M20 6.4l-2.7-1.1c.2-.5 1.3-1 2.7-1s2.5.5 2.7 1L20 6.4zm2.1 3.4l-1.8 1V6.9l2.4-.9-.6 3.8zm2.1 1.6c-.7.1-1.3 1-1.8 1.7l-.1.1h-.5v.1c-.1.6-.6 1.4-1.8 1.4-.6 0-1-.2-1.3-.4-.3-.2-.4-.5-.5-.7 0-.1 0-.2-.1-.3v-.1h-.5l-.1-.1c-.5-.8-1.1-1.6-1.8-1.7l1.9-1.1 2.3 1.3 2.3-1.3 2 1.1zm2.6 2.9c-.2.5-.4 1.1-.4 1.6v6h-.7c-.3-.3-.6-1.3-.6-1.3-.2.4 0 1.1.2 1.3h-.9c-.2-.3-.4-1.4-.4-1.4-.3.3-.1 1.1.1 1.4h-.6c0-.4.1-.9.1-.9-.3-.1-.6-.2-.6-.6.2.1.2.1.4.1l.3-.2c-.8 0-.9-.9-.2-1.3-.7 0-1.2-.4-.9-1.1-.5-.2-.6-1-.3-1.4-.3-.3-.3-.8-.1-1.2-.3 0-.7-.1-.9-.4h-.1c.4-.2.8-.4 1-.8h4.6zm-.4 11.9c0 1.2-.6 2.2-1.5 2.7l.3-.7h-.3l-.4.9c-.5.2-1 .3-1.5.3-1.7 0-2.2.1-2.8.7-.6-.6-1.1-.7-2.8-.7-.6 0-1.1-.1-1.5-.3l.4-.9H16l-.6.8c-.1 0-.2-.1-.3-.1l.3-.6h-.3l-.2.5c-.7-.6-1.2-1.4-1.2-2.5v-3.9h12.7v3.8zM17.8 19l.5.1c0 .3 0 .8-.2 1.1l-.6-.2c.2-.3.2-.6.3-1zm-.8-.4h.6c.1 0 0 .2-.1.2s-.5-.2-.5-.2zm-.1-1.9l-.4 1.6.2-2.6.7-.6.3.8-.9 2.5.1-1.7c.2-.1.1-.1 0 0zm-.3 2.7c-.2.1-.5 0-.4-.2.1.1.4.1.4.1v.1zm-.4.2c.1.1.4.1.4.1v.1c-.1.1-.5 0-.4-.2zm-.5-1.1c-.1-.1-.1-.3.1-.3.1 0 .3.2.5.3 0 0-.5.1-.6 0zm.5 1.5s.1.1.3.1c0 .1-.1.2-.2.2-.1-.1-.2-.2-.1-.3zm.3-1c-.2.1-.4-.1-.3-.3.5-.2.7-.1.8 0 .1.1.2.3.4.5 0 .2-.1.5-.2.7-.5-.1-.5-.6-.3-.8-.1-.1-.2-.2-.4-.1zm2.2.1l.5.1c.1.3 0 .9-.2 1.2l-.5-.2c.1-.2.2-.7.2-1.1zm.9.1l.4.1c.1.4 0 1-.2 1.4l-.5-.1c.2-.4.3-1 .3-1.4zm.8.1h.4c.2.3.4 1.1.1 1.6-.2 0-.3 0-.5-.1h-.1c.2-.4.2-1 .1-1.5zm.6-.2l.3-.3c.3.3.7.9.6 1.5l-.3.3-.2.2c.2-.6-.1-1.4-.4-1.7zm1.9.2c-.1.1-.1.2-.2.3l-.4.3c.1-.6-.3-1.2-.6-1.5l.4-.4.1.1c-.2.4.1 1.1.7 1.2zm-1-2.7c-.2.4-.2.8.1 1.2l-.2.2c-.7-.1-.9-1.1-.9-1.1v.3c-.4-.1-.6-.5-.6-1 .2.1.3.1.5.2v-.3c-.5-.1-.8-.4-.9-.7h-.1.3c.3 0 .5 0 .8-.1.2.3.5.5.9.5-.1.1-.1.4.1.8zM18 14.3c.3.4.9.8 1.5.9.1.2.2.5.4.7-.1.7.2 1.4.9 1.5.1.4.3.6.7.8l-.5.6c-.2.2-.5.3-.7.3l-2.3-.3c.1-.3-.2-.6-.9-.4l.9-2.6-.6-1.2-1.1.9-.1 2.7-.4-.2c-.6-.3-.8.8-.2.8h.2c0 .1 0 .2.1.3-.1 0-.1.2 0 .3-.1.1-.2.3 0 .4-.1.2-.1.6.3.7.3.1.5-.3.6-.5l3.6 1.1c.5.1.9.1 1.3-.3l.9-.8c-.1.5.1 1 .5 1.2 0 0-.1.5 0 .7h-9.4v-6c0-.6-.2-1.1-.4-1.6H18zM17.4 6l2.5.9v3.9l-1.8-1-.7-3.8zm6-.5c0-1-1.6-1.8-3.4-1.8-1.8 0-3.4.9-3.4 1.8v.2l.7 4.1-3.3 2c-.4.2-.8.8-.9 1.4h.6c.1-.6.6-1.2 1.4-1.2.8 0 1.2.5 1.7 1.2l.1.2.2.3h-4.9c.4.7.7 1.5.7 2.3v10.2c0 2.6 2 3.9 4.2 3.9 1.7 0 1.9-.1 2.8.9.9-.9 1.2-.9 2.8-.9 2.2 0 4.2-1.3 4.2-3.9V15.9c0-.8.3-1.6.7-2.3h-4.9l.2-.3.1-.2c.5-.7.9-1.1 1.7-1.2.9 0 1.3.6 1.4 1.2h.6c-.1-.6-.5-1.2-.9-1.4l-3.3-2 .7-4.1.2-.1z"/><path id="Fill-27" d="M26.1 18.2v-.3c-.9 0-1.1-1.1-1.1-1.1-.3.8.4 1.4 1.1 1.4"/><path id="Fill-28" d="M25 20l-.1-.3c-.8.2-1.2-1-1.2-1-.3.9.6 1.5 1.3 1.3"/><path id="Fill-29" d="M25.5 18.9c-.9.1-1.3-.9-1.3-.9-.1.6.3 1.2.9 1.3-.1.8.6 1.2 1.2.9l-.1-.3c-.6.1-1.1-.5-.7-1"/><path id="Fill-30" d="M24.9 15.7v-.3c-1.2-.3-1.1-1.1-1.1-1.1-.3.8.4 1.4 1.1 1.4"/><path id="Fill-31" d="M17.1 28.2l-.4.9h.3l.5-.9h-.4"/><path id="Fill-32" d="M17.8 28.2l-.5.9h.4l.4-.9h-.3"/><path id="Fill-33" d="M20.5 28.2l-.5.9h.3l.5-.9h-.3"/><path id="Fill-34" d="M21.1 28.2l-.4.9h.3l.5-.9h-.4"/><path id="Fill-35" d="M19.8 28.2l-.5.9h.4l.4-.9h-.3"/><path id="Fill-36" d="M23.7 29.1h.3l.5-.9h-.4l-.4.9"/><path id="Fill-37" d="M18.5 28.2l-.5.9h.3l.5-.9h-.3"/><path id="Fill-38" d="M19.1 28.2l-.4.9h.3l.5-.9h-.4"/><path id="Fill-39" d="M17.6 23.4c-.1 0-.1.1-.1.1 0 .1.1.1.1.1.1 0 .1-.1.1-.1 0-.1 0-.1-.1-.1"/><path id="Fill-40" d="M17.5 2.6l.5-1.1 1 .5 1-1 1.1 1 1-.5.5 1.1.6-.1c-.2.3-.3.6-.4 1-.7-.4-1.8-.7-2.8-.7-1.1 0-2.1.3-2.8.7-.1-.4-.2-.7-.4-1l.7.1zm2.5.5c1.4 0 2.5.5 3.1.9 0 0 .2-1.1.8-2l-1.1.1-.6-1.2-1.1.6L20 .4l-1 1.1-1.1-.6-.6 1.2-1.1-.1c.6 1 .8 2 .8 2 .6-.4 1.7-.9 3-.9z"/><path id="Fill-41" d="M21.2.9c.2 0 .3-.1.3-.3 0-.2-.2-.6-.2-.6s-.4.4-.4.5c0 .3.1.4.3.4"/><path id="Fill-42" d="M23 1.6c.1.1.3 0 .4-.1.1-.1 0-.6 0-.6s-.5.1-.5.3c-.1.1-.1.3.1.4"/><path id="Fill-43" d="M18.9.9c.2 0 .3-.2.3-.3 0-.2-.4-.5-.4-.5s-.2.4-.2.6c0 .1.2.2.3.2"/><path id="Fill-44" d="M17.1 1.6c.1-.1.2-.3.1-.4-.1-.1-.5-.4-.5-.4v.6c.1.2.3.3.4.2"/><path id="Fill-45" d="M37.1 11.7c.1.3.4 1.2-.2 1.9-.6-1.3-1.5-2.4-2.2-2.9-.2-.1.1-.3.5-.3 1.3-.3 2.9.3 3.6.5-.3.3-.6.4-1 .4.5.5.9.8 1.2 1.3-.5.2-.8-.2-1.9-.9m1.7-.2c.4-.1.7-.5.8-.8-1-.1-3.6-1.2-5.7-.3.8-.8 1.5-.9 1.6-2 .3.2.9.4 1.2-.2-.2-.7-.8-.1-.9-.3-.1-.2.7.1.9-.8-.6-.2-.8.3-.9.2-.1-.1.4-.3 0-1-.7.4-.3.8-.5.9-.2.1 0-.5-.8-.4-.1.8.7.8.6.9-.1.2-.3-.4-.9-.1 0 .6.5 1 1 .8-.1 1.2-1.2 1-2 2.3 1.7.9 2.5 2.4 3.6 3.5.4-.2 1-1.4 1-1.4 1.2.9 2 0 2 0-.4-.4-.4-.7-1-1.3"/><path id="Fill-46" d="M19.7 32.8H19l-.1.3h.1s0-.1.1-.1h.6c-.2.4-.7.7-.7 1 0 .1.1.2.2.2.2 0 .2-.1.2-.3.1-.4.3-.7.3-1.1"/><path id="Fill-47" d="M20.2 33.3v-.2h.7v-.3c-.2 0-.4.1-.7.1v.4c.2.1.4.2.4.5 0 .1-.1.3-.2.4h-.1c-.1 0 0-.1 0-.2s-.1-.1-.2-.1-.2.1-.2.2c0 .2.3.2.4.2.3 0 .6-.1.6-.5.1-.4-.3-.5-.7-.5"/><path id="Fill-48" d="M21.8 33.5c-.2 0-.3-.4-.3-.5 0-.1 0-.1.1-.1.2 0 .3.5.3.6h-.1m-.1-.8c-.2 0-.4.2-.4.4 0 .4.4.5.7.4 0 .3 0 .5-.1.5s-.1-.1-.1-.1c0-.1-.1-.1-.2-.1s-.1.1-.1.2.2.2.3.1c.4 0 .5-.3.5-.6 0-.4-.2-.8-.6-.8"/><path id="Fill-49" d="M18.4 32.7l-.5.5v.1s.1 0 .2-.1l-.2.7h-.2v.1l.7.1V34h-.1s-.1 0 0-.1l.1-1.2"/><path id="Fill-50" d="M23.5 33.5l-.6-1.9c1.3-.3 2.1-.5 2.8-.8V32l1 .4c-.9.4-2 .8-3.2 1.1M20 34.6c-1.2 0-2.3-.2-3.3-.4l.6-2c.4.1 1.4.2 2.7.2 1.2 0 2.2-.1 2.7-.2l.6 2c-.9.3-2.1.4-3.3.4m-6.6-2.2l1-.4v-1.2c.7.3 1.5.5 2.8.8l-.6 1.9c-1.2-.3-2.3-.7-3.2-1.1m12.6-.6v-1.5c-1.1.5-2.6.9-4.4 1.1l-.1.5c.2 0 .4 0 .6.1-.7.1-1.6.1-2.1.1s-1.4 0-2.1-.1c.3 0 .5 0 .6-.1l-.1-.5c-1.9-.2-3.3-.6-4.4-1.1v1.5l-1.5.6c1.1.6 2.4 1.1 4 1.5l-.2.6c.9.3 2.2.5 3.7.5 1.4 0 2.8-.3 3.7-.5l-.2-.6c1.5-.4 2.8-.9 4-1.5l-1.5-.6"/><path id="Fill-51" d="M1 12.6c.3-.4.7-.8 1.2-1.3-.4 0-.6-.2-1-.4.7-.2 2.3-.8 3.6-.5.4.1.7.2.5.3-.7.5-1.6 1.6-2.2 2.9-.5-.7-.2-1.6-.1-1.9-1.1.7-1.4 1.1-2 .9m1.2.2s.6 1.1 1 1.4c1.1-1.1 1.9-2.6 3.6-3.5-.8-1.4-1.9-1.2-2-2.4.5.1 1-.2 1-.8-.5-.3-.7.3-.9.1-.1-.1.7-.1.6-.9-.7 0-.6.5-.8.4-.1 0 .2-.5-.5-.9-.4.7.1.9 0 1 0 .2-.2-.3-.8-.1.2.8 1 .5.9.8-.1.2-.7-.4-.9.3.3.6.9.4 1.2.2.1 1.1.8 1.2 1.6 2-2.1-.9-4.7.2-5.7.3.1.3.4.7.8.8-.6.6-.6.9-1 1.3 0 0 .8.9 1.9 0"/><path id="Fill-52" d="M19.1 12v.6c.2-.3.7-.2.7-.2v.9s0 .5-.2.7h.9c-.2-.2-.2-.7-.2-.7v-.9s.4-.1.7.2V12h-1.9"/><path id="Fill-63" d="M21.8 28.9h.4l.6-1.4s0-.1.1-.1c-.3-.1-.4-.2-.6-.3.1.2.3.3.2.5l-.7 1.3"/><path id="Fill-71" d="M8.9 27.6l-.5.8c-.2-.5-.5-1-.6-1.4-.4.8-.9.8-1.5.8.1-1.8-2.1-3.6-1.1-5.7.2-.4.1-.9-.4-1.1-1.5-.8-.8 2.4-2.3 2.5.3-.4.4-1.1.4-1.2-.3.1-1.1.6-1.4-.1.9-.5 1.1-1.2 1.3-1.9.2-.9.3-1.4.4-1.7.2-.4.5-.8 1.1-1.6-.2 0-1.9.4-2.2.2 3-1.8 2.3-4.1 6.8-6.2-1.2-.9-2.4-1.6-1.5-3.3 1.2 1.5 3.6 1 4.8.3-1.3-.3-2.9-1.4-3.2-2.6.4-.1 1 .4 1.4.6.2-.5.2-1 .8-1.1-.7 1.6.7 2.4 2.1 2.4.2 0 1.1-.1 1.1-.1-.1-.3-.7-1.1-.3-1.4.3.3.7.6 1.1.9 2.7 2.1-1.3 4-2.9 4.9-2.5 1.4-1.9 3-.8 3.4 0 .2-.1.3-.3.3-.7.2-1.4-.3-2-.6 0 1 0 2 1.1 2.6l-.8.3c.7.5.9.8 1.7.9-.4.2-.8.2-1.2.2.1.3.2.7.4.9-1.7.2-2.3-.7-2.8-.7C6.4 19 6.4 21 9.1 21l-.3.5s.5.3 1 .4c-.2.1-.3.3-.5.5l.4.4c-1.1.2-1.4-1-2.1-.4-1.1.9 1.3 2.7 3.6 2.4-.2.2-.7.6-1 .8 1.9 1.8.9 3.4 1.7 4.7-1.5-.3-2.7-1.4-3-2.7m2.1-2c.5-.4.9-.6.9-1.6-.8.4-3 .4-3.9-.9-.3-.4 0-.5.3-.3.6.7 1.8.4 2.2.2-.1-.2-.3-.6-.4-.7.2-.2.6-.4.7-.8-.2-.1-1.2-.2-1.2-.2.2-.1.3-.3.2-.9-1 .3-2.1-.1-2.4-.5-.3-.3 0-.7.2-.4.5.5 2.8 1.1 3.7.2-.3-.1-.7-.4-.7-.6.8-.1 1.5-.6 1.5-1.2-.4 0-1.3 0-1.6-.2.4-.1.6-.3.8-.7-1.5-.1-1.6-1.2-1.6-1.4 1 .6 2.7.3 2.2-1.1-.8 0-1.6-1.3.6-2.5 2-1.1 4.3-2.3 4.1-4.2-.1-1.2-2.2-2.1-2.4-2.7-.8.4-1 .9-.6 1.7 0 0-1.9.2-2-1-.1-.5.3-1 .7-1.4-.2 0-1.6-.4-2.1.8-.8-.5-1.5-.5-2 .1.8.5 1.3 2.2 2.7 2.8-1 .5-2.6.3-3.6-1.4-.9 1.3-1.4 2.7.5 4.1-3.5 1.6-3.5 4.7-6.5 6.1.3.8 1 .8 1.8.7-1.3 1.7-.2 3.5-2.3 4.3.2.7.6 1.3 1.4 1.1-.2.3-.4.3-.7.7 1.1.7 2.5.2 2.8-2.1.1-.4.6-.2.4.3-1.3 2.7 2 4.7.8 6.7 1 0 1.8-.1 2.2-.5.3.3.4.8.3 1.2.6-.1.8-.5.8-.8.4 1.1 1.7 2.2 3.8 2.2-1.1-1.6 0-3.3-1.6-5.1"/><path id="Fill-72" d="M6 21.1c.4.4.9.4 1.7.4-1-.1-1.5-.4-1.9-1 0-.3-.1-.7-.1-1.1 0-1 .3-2.3 1-3.6 0 .8.7 2.2 2.2 2.4-1.3-.6-2.1-1.9-1.7-3.2.3-.4.6-.9.9-1.4.2-.2.3-.4.5-.6-.2.7.6 1.3 1.1 1.4-.3-.3-.9-1.2.5-2.7-.4.2-.8.5-1.2.7 2.6-2.8 4.7-2.9 5.7-4.3-1.4 1-5.1 1.5-6.8 1 .9.6 3.2.6 3.7.4-1.8 1.8-5.8 3.6-6.5 5.2 1-1.1 1.6-1.3 2.4-1.5-.7 1-1.3 1.9-1.7 2.9-1.1 2.3-2.5 2.3-2.6 4.2.5-1.5 1.5-1.8 2.1-2.8-.1.6-.2 1.3-.2 2.1 0 .9.2 1.6.5 2.3-.1.9 0 2.5 1.1 3.6-.7-.9-.9-2.4-.8-3 .8 1.6 3.2 3.9 4.4 5.4-.9-1.9-3.7-4.2-4.3-6.8"/><path id="Fill-73" d="M32.4 13.3c.8.3 1.5.5 2.4 1.5-.7-1.6-4.7-3.5-6.5-5.2.5.1 2.8.2 3.7-.4-1.7.5-5.4-.1-6.8-1 1 1.4 3.1 1.5 5.7 4.3-.3-.3-.8-.5-1.2-.7 1.4 1.5.8 2.4.5 2.7.5-.1 1.3-.8 1.1-1.4.2.2.3.4.5.6.4.5.7.9.9 1.4.4 1.3-.4 2.6-1.7 3.2 1.5-.2 2.2-1.5 2.2-2.4.7 1.3 1.1 2.6 1 3.6 0 .4 0 .7-.1 1.1-.3.7-.9.9-1.9 1 .9.1 1.4 0 1.7-.4-.6 2.6-3.4 4.9-4.6 6.8 1.2-1.5 3.5-3.7 4.4-5.4.1.6-.1 2.1-.8 3 1.1-1.1 1.2-2.7 1.1-3.6.3-.7.4-1.4.5-2.3 0-.8 0-1.5-.2-2.1.7 1 1.7 1.3 2.1 2.8-.1-1.9-1.5-1.9-2.6-4.2-.1-1-.7-1.9-1.4-2.9"/><path id="Fill-74" d="M37.2 22.2c0 .1.1.8.4 1.2-1.5-.1-.8-3.3-2.3-2.5-.4.2-.6.7-.4 1.1 1 2.1-1.3 3.9-1.1 5.7-.6 0-1.1 0-1.5-.8-.2.4-.5.9-.6 1.4l-.5-.8c-.3 1.3-1.5 2.5-3.1 2.6.8-1.2-.2-2.9 1.7-4.7-.2-.2-.8-.6-1-.8 2.3.3 4.7-1.5 3.6-2.4-.7-.6-1 .6-2.1.4l.4-.4-.5-.5c.5-.1 1-.4 1-.4L31 21c2.7 0 2.7-2.1 1.7-2.1-.5 0-1.2.9-2.8.7.2-.3.3-.6.4-.9-.4 0-.9 0-1.2-.2.8-.1 1-.4 1.7-.9l-.8-.3c1.1-.6 1.1-1.6 1.1-2.6-.6.3-1.3.9-2 .6-.2-.1-.3-.1-.3-.3 1.1-.4 1.7-2.1-.8-3.4-1.6-.9-5.6-2.8-2.9-4.9.4-.3.8-.5 1.1-.9.4.3-.2 1.1-.3 1.4 0 0 .9.1 1.1.1 1.4 0 2.8-.8 2.1-2.4.5.1.6.6.8 1.1.4-.2 1-.8 1.4-.7-.4 1.2-2 2.3-3.2 2.6 1.3.7 3.6 1.2 4.8-.3.9 1.7-.3 2.4-1.5 3.3 4.5 2.1 3.8 4.4 6.8 6.2-.4.2-2.1-.2-2.2-.2.6.8.9 1.2 1.1 1.6.2.4.3.8.4 1.7.1.7.4 1.5 1.3 1.9-.5.7-1.3.2-1.6.1m-.2-4.6c.8.1 1.5.1 1.8-.7-3.1-1.5-3-4.5-6.5-6.1 1.9-1.4 1.4-2.8.5-4.1-.9 1.7-2.6 1.9-3.6 1.4 1.4-.5 1.9-2.3 2.8-2.8-.5-.6-1.2-.6-2-.1-.4-1.2-1.8-.8-2.1-.8.4.4.7.9.7 1.4-.1 1.2-2 1-2 1 .4-.8.2-1.3-.6-1.7-.3.6-2.3 1.5-2.4 2.7-.2 1.9 2.1 3.1 4.1 4.2 2.2 1.2 1.4 2.5.6 2.5-.4 1.4 1.3 1.6 2.2 1.1 0 .2-.1 1.3-1.6 1.4.1.4.4.6.8.7-.4.2-1.3.3-1.7.3.1.6.7 1.1 1.5 1.2-.1.2-.4.5-.7.6.9.9 3.2.3 3.7-.2.2-.2.5.1.2.4-.3.4-1.5.8-2.4.5-.1.5.1.7.2.9 0 0-.9.1-1.2.2.1.4.5.6.7.8-.2.1-.3.5-.4.7.4.2 1.6.5 2.2-.2.3-.3.5-.1.3.3-.9 1.3-3.1 1.3-3.9.9 0 1 .4 1.2.9 1.6-1.6 1.8-.5 3.5-1.7 5.1 2.1 0 3.5-1.2 3.8-2.2 0 .4.2.7.8.8 0-.4.1-.8.3-1.2.4.3 1.2.4 2.2.5-1.2-2 2.1-4 .8-6.7-.2-.4.4-.7.4-.3.3 2.3 1.7 2.8 2.8 2.1-.3-.4-.5-.4-.7-.7.8.2 1.2-.4 1.4-1.1-2-.8-.9-2.6-2.2-4.4"/><path id="Fill-75" d="M15.8 26.1l.6-.5c.1-.1.2-.1.3-.1l.9.1c0 .2.2.4.2.4l-.9-.2c-.1 0-.2 0-.3.1l-.4.3c-.1.1-.1.2 0 .3l.1.2-.3.2-.1-.2c-.3-.3-.3-.5-.1-.6m1.4-1.7l-.2.1c-.1.1-.2.1-.3 0l-.1-.1v-.2l.7-.8-.6-.5.8.3.3-.4c.2 0 .2.2.2.2.3 0 1.3.5 1.3 1.7 0 0 .2.3.5.3l1.4.1c.2 0 .8-.5 1.6 0 .2-.1.4-.2.6-.2.7 0 1.2.4 1.5.9.3.3.6.9.6.9-.2.2-.3.3-.4.2-.2-.1-.3-.3-.3-.5-.1-.4-.5-.6-.5-.6.1.2.2.5.2.7-.6-.6-.7-1.2-1.1-1.3-.2 0-.4 0-.6.2.2.5.2 1 .4 1.3.2.3.2.3.3.3.2.1.1.3 0 .5l-.2 1.3H23l.2-1.3c.1-.4-1-.4-1.6-1.1-.5.6-1.8.4-2.4.3-.2 0-.5 0-.6.2-.1.1-.2.1-.3.1l-1.1-.2c-.2 0-.3 0-.4.2l-.2.4v.3l.1.1c-.1.2-.3.4-.3.4l-.2-.3c-.1-.1-.1-.3 0-.5l.3-.7c0-.1.1-.2.3-.2h1.3l-.4-.7c-.3-.5.2-1.4.1-1.8.2.6-.5.3-.6.4m5.5 3l-.6 1.4h-.4l.6-1.4c.1-.2-.1-.3-.2-.5l.6.3v.2m-7-.1l.6-.5-.1-.2c-.1-.1 0-.1 0-.2l.3-.3c.1-.1.2-.1.3 0l1 .2h-1.1c-.2 0-.3.1-.4.3l-.1.2-.3.6c-.1.2-.1.5.1.8l.2.2-.2.7h.3l.3-.6s.4-.4.5-.8c-.1-.1-.2-.2-.1-.3l.1-.3c0-.1.1-.1.2-.1l1.1.2c.1 0 .3.1.5-.1.1-.1.1-.1.4-.1l.5.1c.7.1 1.5-.1 1.8-.3.1.2.3.4.4.6 0 .1 0 .2-.1.3l-.6 1.5h.9l.5-1.3c0-.1.1-.2.2-.3l-.3 1.6h.9l.2-1.6c.1-.4 0-.5-.1-.6-.4-.3-.4-1-.5-1.4.1 0 .1-.1.2 0 .2 0 .3.5.6.9.5.7 1.1 1.4 1.8.4-.1-.1-.1-.2-.2-.3l-.2-.2c-.1-.1-.7-.8-.9-1-.5-.5-1.4-.5-1.7-.2-.7-.4-1.5 0-1.7 0l-1.3-.1c-.1 0-.1 0-.2-.1l.2-.1c-.2-.9-.8-1.7-1.8-1.8 0 0-.1-.3-.2-.4l-.3.3c-.1 0-.2 0-.2.1l-1.3-.5.9 1s-.5.7-.6.8c-.1.1-.1.2 0 .4l.2.2c.1.1.2.1.3 0l.2-.1c.1-.1.4.1.5 0-.1.3-.1.5-.1.7l-.8-.1c-.2 0-.3 0-.4.1l-.7.6c-.2.2-.3.5-.2.8l.5.3"/><path id="Fill-76" d="M18.5 9.1c.3.2.9.5.9.5v-.5l-1.3-.5s0 .2.4.5"/><path id="Fill-77" d="M19.4 8.6v-.4l-1.5-.5s.2.2.6.5c.3.1.9.4.9.4"/><path id="Fill-78" d="M19.4 7.7v-.5l-1.7-.6s.3.3.7.5c.4.3 1 .6 1 .6"/><path id="Fill-79" d="M24.1 13.2h1.7c-.1-.2-.3-.5-.8-.5s-.8.2-.9.5"/><path id="Fill-80" d="M22.3 6.6l-1.7.6v.4s.6-.3.9-.5c.5-.2.8-.5.8-.5"/><path id="Fill-81" d="M22 8.6l-1.3.5v.4s.6-.3.9-.5c.4-.2.4-.4.4-.4"/><path id="Fill-82" d="M22.2 7.6l-1.5.5v.4s.6-.3.9-.5c.4-.2.6-.4.6-.4"/><path id="Fill-83" d="M15.1 12.7c-.5 0-.8.2-.8.5H16c-.1-.3-.4-.5-.9-.5"/><path id="Fill-84" d="M20 6.4l-2.7-1.1c.2-.5 1.3-1 2.7-1 1.4 0 2.5.5 2.7 1L20 6.4zm2.1 3.4l-1.8 1V6.9l2.4-.9-.6 3.8zm2.1 1.6c-.7.1-1.3 1-1.8 1.7l-.1.1h-.5v.1c-.1.6-.6 1.4-1.8 1.4-.6 0-1-.2-1.3-.4-.3-.2-.4-.5-.5-.7 0-.1 0-.2-.1-.3v-.1h-.5l-.1-.1c-.5-.8-1.1-1.6-1.8-1.7l1.9-1.1 2.3 1.3 2.3-1.3 2 1.1zm2.6 2.9c-.2.5-.4 1.1-.4 1.6v6h-.7c-.3-.3-.6-1.3-.6-1.3-.2.4 0 1.1.2 1.3h-.9c-.2-.3-.4-1.4-.4-1.4-.3.3-.1 1.1.1 1.4h-.6c0-.4.1-.9.1-.9-.3-.1-.6-.2-.6-.6.2.1.2.1.4.1l.3-.2c-.8 0-.9-.9-.2-1.3-.7 0-1.2-.4-.9-1.1-.5-.2-.6-1-.3-1.4-.3-.3-.3-.8-.1-1.2-.3 0-.7-.1-.9-.4h-.1c.4-.2.8-.4 1-.8h4.6zm-.4 11.9c0 1.2-.6 2.2-1.5 2.7l.3-.7h-.3l-.4.9c-.5.2-1 .3-1.5.3-1.7 0-2.2.1-2.8.7-.6-.6-1.1-.7-2.8-.7-.6 0-1.1-.1-1.5-.3l.4-.9H16l-.6.8c-.1 0-.2-.1-.3-.1l.3-.6h-.3l-.2.5c-.7-.6-1.2-1.4-1.2-2.5v-3.9h12.7v3.8zM17.8 19l.5.1c0 .3 0 .8-.2 1.1l-.6-.2c.2-.3.2-.6.3-1zm-.8-.4h.6c.1 0 0 .2-.1.2s-.5-.2-.5-.2zm-.1-1.9l-.4 1.6.2-2.6.7-.6.3.8-.9 2.5.1-1.7c.2-.1.1-.1 0 0zm-.3 2.7c-.2.1-.5 0-.4-.2.1.1.4 0 .4 0v.2zm-.4.2c.1.1.4.1.4.1v.1c-.1.1-.5 0-.4-.2zm-.5-1.1c-.1-.1-.1-.3.1-.3.1 0 .4.2.5.3 0 0-.5.1-.6 0zm.5 1.5s.1.1.3.1c0 .1-.1.2-.2.2-.1-.1-.2-.2-.1-.3zm.3-1c-.2.1-.4-.1-.3-.3.5-.2.7-.1.8 0 .1.1.2.3.4.5 0 .2-.1.5-.2.7-.5-.1-.5-.6-.3-.8-.1-.1-.2-.2-.4-.1zm2.2.1l.5.1c.1.3 0 .9-.2 1.2l-.5-.2c.1-.2.2-.7.2-1.1zm.9.2l.4.1c.1.4 0 1-.2 1.4l-.5-.1c.2-.5.3-1.1.3-1.4zm.8.1h.4c.2.3.4 1.1.1 1.6-.2 0-.3 0-.5-.1h-.1c.2-.5.2-1.1.1-1.5zm.6-.3l.3-.3c.3.3.7.9.6 1.5l-.3.3-.2.2c.2-.6-.1-1.4-.4-1.7zm1.9.2c-.1.1-.1.2-.2.3l-.4.3c.1-.6-.3-1.2-.6-1.5l.4-.4.1.1c-.2.4.1 1.1.7 1.2zm-1-2.7c-.2.4-.2.8.1 1.2l-.2.2c-.7-.1-.9-1.1-.9-1.1v.3c-.4-.1-.6-.5-.6-1 .1.1.3.1.5.2v-.3c-.5-.1-.8-.4-.9-.7h-.1.3c.3 0 .5 0 .8-.1.2.3.5.5.9.5-.1.1-.1.4.1.8zM18 14.3c.3.4.9.8 1.5.9.1.2.2.5.4.7-.1.7.2 1.4.9 1.5.1.4.3.6.7.8l-.5.6c-.2.2-.5.3-.7.3l-2.3-.3c.1-.3-.2-.6-.9-.4l.9-2.6-.6-1.2-1.1.9-.1 2.7-.4-.2c-.6-.3-.8.8-.2.8h.2c0 .1 0 .2.1.3-.1 0-.1.2 0 .3-.1.1-.2.3 0 .4-.1.2-.1.6.3.7.3.1.5-.3.6-.5l3.6 1.1c.5.1.9.1 1.3-.3l.9-.8c-.1.5.1 1 .5 1.2 0 0-.1.5 0 .7h-9.4v-6c0-.6-.2-1.1-.4-1.6H18zM17.4 6l2.5.8v3.9l-1.8-1-.7-3.7zm6-.5c0-1-1.6-1.8-3.4-1.8-1.8 0-3.4.9-3.4 1.8v.2l.7 4.1-3.3 2c-.4.2-.8.8-.9 1.4h.6c.1-.6.6-1.2 1.4-1.2.8 0 1.2.5 1.7 1.2l.1.2.2.3h-4.9c.4.7.7 1.5.7 2.3v10.2c0 2.6 2 3.9 4.2 3.9 1.7 0 1.9-.1 2.8.9.9-.9 1.2-.9 2.8-.9 2.2 0 4.2-1.3 4.2-3.9V15.9c0-.8.3-1.6.7-2.3h-4.9l.2-.3.1-.2c.5-.7.9-1.1 1.7-1.2.9 0 1.3.6 1.4 1.2h.6c-.1-.6-.5-1.2-.9-1.4l-3.3-2 .7-4.1.2-.1z"/><path id="Fill-85" d="M26.1 18.2v-.3c-.9 0-1.1-1.1-1.1-1.1-.3.8.4 1.4 1.1 1.4"/><path id="Fill-86" d="M25 20l-.1-.3c-.8.2-1.2-1-1.2-1-.3.9.6 1.5 1.3 1.3"/><path id="Fill-87" d="M25.5 18.9c-.9.1-1.3-.9-1.3-.9-.1.6.3 1.2.9 1.3-.1.8.6 1.2 1.2.9l-.1-.3c-.6.1-1.1-.5-.7-1"/><path id="Fill-88" d="M24.9 15.7v-.3c-1.2-.3-1.1-1.1-1.1-1.1-.3.8.4 1.4 1.1 1.4"/><path id="Fill-89" d="M17.1 28.2l-.4.9h.3l.5-.9h-.4"/><path id="Fill-90" d="M17.8 28.2l-.5.9h.4l.4-.9h-.3"/><path id="Fill-91" d="M20.5 28.2l-.5.9h.3l.5-.9h-.3"/><path id="Fill-92" d="M21.1 28.2l-.4.9h.3l.5-.9h-.4"/><path id="Fill-93" d="M19.8 28.2l-.5.9h.4l.4-.9h-.3"/><path id="Fill-94" d="M23.7 29.1h.3l.5-.9h-.4l-.4.9"/><path id="Fill-95" d="M18.5 28.2l-.5.9h.3l.5-.9h-.3"/><path id="Fill-96" d="M19.1 28.2l-.4.9h.3l.5-.9h-.4"/><path id="Fill-97" d="M17.6 23.4c-.1 0-.1.1-.1.1 0 .1.1.1.1.1.1 0 .1-.1.1-.1 0-.1 0-.1-.1-.1"/><path id="Fill-98" d="M17.5 2.6l.5-1.1 1 .5 1-1 1.1 1 1-.5.5 1.1.6-.1c-.2.3-.3.6-.4 1-.7-.4-1.8-.7-2.8-.7-1.1 0-2.1.3-2.8.7-.1-.4-.2-.7-.4-1l.7.1zm2.5.5c1.4 0 2.5.5 3.1.9 0 0 .2-1.1.8-2l-1.1.1-.6-1.2-1.1.6L20 .4l-1 1.1-1.1-.6-.6 1.2-1.1-.1c.6 1 .8 2 .8 2 .6-.4 1.7-.9 3-.9z"/><path id="Fill-99" d="M21.2.9c.2 0 .3-.1.3-.3 0-.2-.2-.6-.2-.6s-.4.4-.4.5c0 .3.1.4.3.4"/><path id="Fill-100" d="M23 1.6c.1.1.3 0 .4-.1.1-.1 0-.6 0-.6s-.5.1-.5.3c-.1.1-.1.3.1.4"/><path id="Fill-101" d="M18.9.9c.2 0 .3-.2.3-.3 0-.2-.4-.5-.4-.5s-.2.4-.2.6c0 .1.2.2.3.2"/><path id="Fill-102" d="M17.1 1.6c.1-.1.2-.3.1-.4-.1-.1-.5-.4-.5-.4v.6c.1.2.3.3.4.2"/><path id="Fill-103" d="M37.1 11.8c.1.3.4 1.2-.2 1.9-.6-1.3-1.5-2.4-2.2-2.9-.2-.1.1-.3.5-.3 1.3-.3 2.9.3 3.6.5-.3.3-.6.4-1 .4.5.5.9.8 1.2 1.3-.5.1-.8-.3-1.9-.9m1.7-.3c.4-.1.7-.5.8-.8-1-.1-3.6-1.2-5.7-.3.8-.8 1.5-.9 1.6-2 .3.2.9.4 1.2-.2-.2-.7-.8-.1-.9-.3-.1-.3.7.1.9-.8-.6-.2-.8.3-.9.2-.1-.1.4-.3 0-1-.7.4-.3.8-.5.9-.2.1 0-.5-.8-.4-.1.8.7.8.6.9-.1.2-.3-.4-.9-.1 0 .6.5 1 1 .8-.1 1.2-1.2 1-2 2.3 1.7.9 2.5 2.4 3.6 3.5.4-.3 1-1.4 1-1.4 1.2.9 2 0 2 0-.4-.4-.4-.7-1-1.3"/><path id="Fill-104" d="M19.7 32.8h-.8l-.1.3h.1s0-.1.1-.1h.6c-.2.4-.7.7-.7 1 0 .1.1.2.2.2.2 0 .2-.1.2-.3.2-.4.4-.7.4-1.1"/><path id="Fill-105" d="M20.2 33.3v-.2h.7v-.3c-.2 0-.4.1-.7.1v.4c.2.1.4.2.4.5 0 .1-.1.3-.2.4h-.1c-.1 0 0-.1 0-.2s-.1-.1-.2-.1-.2.1-.2.2c0 .2.3.2.4.2.3 0 .6-.1.6-.5.1-.4-.4-.5-.7-.5"/><path id="Fill-106" d="M21.8 33.5c-.2 0-.3-.4-.3-.5 0 0 0-.1.1-.1.2 0 .3.5.3.6h-.1m-.1-.8c-.2 0-.4.2-.4.4 0 .4.4.5.7.4 0 .3 0 .5-.1.5s-.1-.1-.1-.1c0-.1-.1-.1-.2-.1s-.1.1-.1.2.2.2.3.1c.4 0 .5-.3.5-.6 0-.4-.3-.8-.6-.8"/><path id="Fill-107" d="M18.4 32.7l-.5.5v.1s.1 0 .2-.1l-.2.7h-.2v.1l.7.1V34h-.1s-.1 0 0-.1l.1-1.2"/><path id="Fill-108" d="M23.5 33.5l-.6-1.9c1.3-.3 2.1-.5 2.8-.8V32l1 .4c-.9.4-2 .8-3.2 1.1M20 34.6c-1.2 0-2.3-.2-3.3-.4l.6-2c.4.1 1.4.2 2.7.2 1.2 0 2.2-.1 2.7-.2l.6 2c-.9.3-2.1.4-3.3.4m-6.6-2.2l1-.4v-1.2c.7.3 1.5.5 2.8.8l-.6 1.9c-1.2-.3-2.3-.7-3.2-1.1m12.6-.6v-1.5c-1.1.5-2.6.9-4.4 1.1l-.1.5c.2 0 .4 0 .6.1-.7.1-1.6.1-2.1.1s-1.4 0-2.1-.1c.3 0 .5 0 .6-.1l-.1-.5c-1.8-.2-3.3-.6-4.4-1.1v1.5l-1.5.6c1.1.6 2.4 1.1 4 1.5l-.2.6c.9.3 2.2.5 3.7.5 1.4 0 2.8-.3 3.7-.5l-.2-.6c1.5-.4 2.8-.9 4-1.5l-1.5-.6"/><path id="Fill-109" d="M1 12.6c.3-.4.7-.8 1.2-1.3-.4 0-.6-.2-1-.4.7-.2 2.3-.8 3.6-.5.4.1.7.2.5.3-.7.5-1.6 1.6-2.2 2.9-.5-.7-.2-1.6-.1-1.8-1.1.6-1.4 1-2 .8m1.3.2s.6 1.1 1 1.4c1.1-1.1 1.9-2.6 3.6-3.5-.9-1.4-2-1.2-2.1-2.4.5.1 1-.2 1-.8-.5-.3-.7.3-.9.1-.1-.1.7-.1.6-.9-.7 0-.6.5-.8.4-.1 0 .2-.5-.5-.9-.4.7.1.9 0 1 0 .2-.2-.3-.8-.1.2.8 1 .5.9.8-.1.2-.7-.4-.9.3.3.6.9.4 1.2.2.1 1.1.8 1.2 1.6 2-2.1-.9-4.7.2-5.7.3.2.3.4.7.8.8-.6.6-.6.9-1 1.3 0 0 .8.9 2 0"/><path id="Fill-110" d="M19.1 12v.6c.2-.3.7-.2.7-.2v.9s0 .5-.2.7h.9c-.2-.2-.2-.7-.2-.7v-.9s.4-.1.7.2V12h-1.9"/></g></g></g></svg>