<svg width="48" height="48" viewBox="0 0 48 48" xmlns="http://www.w3.org/2000/svg"><title>865948FF-AF98-4426-8A8B-E03433A88787</title><g fill="none" fill-rule="evenodd"><path d="M0 0h48v48H0z"/><g fill="#FFF"><path d="M12.9 34.572l-.455.775c-.162-.51-.457-1.04-.647-1.414-.365.754-.942.769-1.498.773.123-1.807-2.141-3.623-1.146-5.683.198-.413.07-.917-.36-1.133-1.518-.773-.815 2.434-2.333 2.53.29-.364.4-1.125.444-1.19-.323.083-1.096.575-1.444-.055.887-.484 1.143-1.212 1.282-1.942.176-.926.258-1.354.437-1.734.187-.407.487-.759 1.128-1.591-.152.023-1.86.383-2.244.203 2.954-1.817 2.288-4.128 6.793-6.187-1.18-.879-2.39-1.58-1.523-3.259 1.234 1.485 3.58.971 4.846.281-1.252-.25-2.864-1.355-3.248-2.584.473-.073 1.083.439 1.435.678.17-.454.237-.982.785-1.096-.731 1.57.715 2.387 2.095 2.394.213 0 1.106-.089 1.106-.089-.142-.294-.72-1.097-.3-1.422.338.318.74.57 1.107.852 2.683 2.08-1.275 4.009-2.895 4.884-2.54 1.375-1.86 3.011-.8 3.43-.004.186-.118.268-.294.325-.742.248-1.44-.282-2.031-.623.036 1.027-.034 2.014 1.098 2.579l-.78.286c.67.51.875.781 1.683.887-.377.183-.846.18-1.247.218.101.284.185.668.397.923-1.655.197-2.316-.75-2.828-.71-1.09.08-1.023 2.139 1.663 2.142l-.279.46s.51.298.975.355c-.178.144-.351.34-.501.489l.429.37c-1.096.197-1.407-.971-2.117-.408-1.085.861 1.306 2.679 3.599 2.407-.193.247-.73.61-.964.8 1.869 1.768.947 3.432 1.715 4.652-1.61-.107-2.803-1.292-3.082-2.573m2.1-1.988c.518-.413.947-.619.927-1.615-.779.398-2.987.377-3.91-.895-.26-.362.018-.544.27-.26.631.718 1.801.393 2.228.186-.067-.246-.257-.568-.417-.705.16-.158.611-.392.705-.795-.243-.132-1.18-.226-1.18-.226.151-.144.339-.347.227-.884-.957.294-2.14-.105-2.408-.46-.265-.35.006-.676.226-.447.477.503 2.828 1.078 3.703.205-.325-.09-.683-.38-.748-.56.809-.081 1.455-.56 1.508-1.157-.448 0-1.293-.032-1.58-.25.388-.143.632-.284.754-.719-1.48-.09-1.597-1.19-1.604-1.373.963.557 2.66.31 2.221-1.062-.8-.043-1.61-1.343.596-2.538 2.004-1.086 4.284-2.257 4.083-4.187-.132-1.233-2.161-2.076-2.418-2.701-.847.404-1.018.872-.636 1.658 0 0-1.886.188-2.035-.975-.065-.522.283-1.01.656-1.383-.211 0-1.633-.381-2.061.78-.798-.546-1.479-.526-2.016.049.857.51 1.388 2.257 2.804 2.772-1.008.548-2.637.318-3.588-1.363-.899 1.358-1.416 2.703.512 4.138-3.51 1.6-3.485 4.66-6.538 6.117.31.833.963.833 1.794.703-1.32 1.719-.195 3.517-2.284 4.252.195.7.587 1.26 1.359 1.055-.22.343-.364.335-.705.712 1.142.72 2.497.198 2.804-2.113.055-.413.622-.155.425.25-1.302 2.698 1.991 4.727.826 6.706 1.029-.043 1.81-.123 2.24-.471.209.415.334.827.29 1.232.566-.115.774-.453.813-.836.372 1.085 1.7 2.246 3.829 2.246-1.129-1.61-.078-3.245-1.672-5.086"/><path d="M9.954 28.12c.387.406.858.448 1.75.39-.98-.117-1.53-.356-1.871-1.008a9.506 9.506 0 0 1-.098-1.08c-.03-1.033.309-2.264 1.021-3.61-.005.844.665 2.173 2.156 2.395-1.342-.588-2.13-1.911-1.7-3.19.28-.448.595-.91.946-1.379.178-.226.35-.445.518-.648-.18.653.608 1.328 1.136 1.44-.287-.279-.9-1.187.517-2.706a6.446 6.446 0 0 0-1.164.713c2.575-2.788 4.69-2.866 5.663-4.268-1.409.964-5.137 1.485-6.812 1.03.925.619 3.153.562 3.697.447-1.817 1.77-5.784 3.597-6.47 5.223.967-1.062 1.59-1.257 2.427-1.53-.658.985-1.252 1.852-1.66 2.856-1.056 2.297-2.468 2.326-2.56 4.22.481-1.468 1.458-1.84 2.135-2.804a9.494 9.494 0 0 0-.154 2.086 6.51 6.51 0 0 0 .467 2.283c-.069.937.015 2.536 1.086 3.591-.728-.923-.884-2.424-.82-3.01.839 1.622 3.231 3.861 4.387 5.367-1.156-1.936-3.99-4.197-4.597-6.807m26.471-7.782c.834.274 1.462.468 2.427 1.53-.685-1.626-4.656-3.454-6.473-5.224.547.115 2.774.173 3.699-.447-1.673.456-5.403-.065-6.812-1.029.973 1.402 3.088 1.48 5.664 4.268a6.398 6.398 0 0 0-1.165-.713c1.416 1.519.804 2.426.517 2.707.528-.113 1.316-.787 1.136-1.44.17.202.343.42.518.647.354.469.667.93.946 1.379.43 1.279-.36 2.602-1.698 3.19 1.49-.222 2.16-1.55 2.153-2.396.713 1.347 1.054 2.578 1.022 3.61a9.514 9.514 0 0 1-.097 1.08c-.343.653-.893.892-1.87 1.01.89.057 1.358.015 1.75-.39-.609 2.61-3.443 4.87-4.6 6.807 1.157-1.506 3.547-3.745 4.388-5.366.065.585-.092 2.086-.818 3.01 1.07-1.056 1.153-2.655 1.084-3.593.271-.673.44-1.425.466-2.282a9.283 9.283 0 0 0-.153-2.086c.677.964 1.654 1.336 2.136 2.804-.091-1.894-1.503-1.923-2.56-4.22-.408-1.004-1-1.87-1.66-2.856"/><path d="M41.193 29.23c.04.065.148.826.44 1.191-1.52-.097-.814-3.304-2.334-2.531-.429.216-.557.72-.357 1.133.994 2.06-1.271 3.876-1.144 5.683-.56-.004-1.14-.02-1.503-.773-.188.374-.485.904-.646 1.414l-.455-.775c-.281 1.281-1.474 2.466-3.083 2.573.764-1.22-.153-2.884 1.715-4.652-.234-.188-.77-.553-.964-.8 2.294.272 4.685-1.546 3.599-2.407-.71-.563-1.023.605-2.116.408l.429-.37c-.15-.15-.325-.344-.502-.49.467-.056.975-.354.975-.354l-.278-.46c2.686-.003 2.75-2.061 1.663-2.142-.51-.04-1.175.908-2.828.71.209-.255.294-.64.397-.923-.398-.038-.87-.035-1.247-.218.809-.106 1.012-.377 1.683-.887l-.778-.286c1.13-.565 1.061-1.552 1.094-2.579-.589.342-1.29.871-2.028.623-.177-.057-.292-.14-.296-.325 1.062-.419 1.738-2.055-.8-3.43-1.618-.875-5.578-2.804-2.894-4.884.366-.281.766-.534 1.104-.852.42.325-.154 1.128-.299 1.422 0 0 .892.09 1.104.09 1.383-.008 2.832-.825 2.1-2.395.548.114.613.642.78 1.096.353-.24.965-.751 1.439-.678-.385 1.23-1.995 2.333-3.248 2.584 1.265.69 3.611 1.204 4.844-.281.867 1.68-.34 2.38-1.523 3.26 4.505 2.058 3.841 4.368 6.795 6.186-.381.18-2.094-.181-2.247-.203.645.832.945 1.184 1.132 1.59.179.381.258.808.434 1.735.142.73.397 1.458 1.282 1.94-.346.632-1.12.14-1.439.056m-.175-4.592c.83.13 1.484.13 1.795-.704-3.054-1.457-3.029-4.515-6.54-6.116 1.93-1.435 1.41-2.78.514-4.138-.95 1.68-2.584 1.911-3.586 1.363 1.413-.515 1.946-2.262 2.802-2.772-.536-.575-1.22-.595-2.016-.05-.432-1.161-1.85-.78-2.063-.78.371.373.723.862.657 1.384-.147 1.163-2.034.976-2.034.976.38-.787.211-1.255-.635-1.66-.26.626-2.287 1.469-2.417 2.702-.203 1.93 2.078 3.101 4.081 4.187 2.205 1.195 1.396 2.495.597 2.538-.443 1.372 1.255 1.619 2.22 1.062-.005.182-.127 1.284-1.607 1.373.125.435.368.576.757.72-.29.217-1.133.25-1.581.25.054.596.7 1.074 1.51 1.154-.065.18-.424.472-.749.562.874.873 3.224.298 3.702-.205.22-.23.488.098.228.446-.271.356-1.452.755-2.41.46-.11.538.076.741.225.885 0 0-.936.094-1.178.226.091.403.546.637.705.795-.16.137-.348.46-.416.705.429.207 1.599.532 2.225-.185.256-.285.533-.103.274.259-.925 1.272-3.132 1.293-3.911.895-.022.996.407 1.202.926 1.615-1.594 1.841-.542 3.476-1.67 5.086 2.125 0 3.455-1.161 3.829-2.246.04.383.245.72.812.836-.044-.405.082-.817.288-1.232.431.348 1.216.428 2.24.471-1.163-1.98 2.13-4.008.825-6.706-.194-.405.373-.663.428-.25.305 2.311 1.662 2.834 2.805 2.113-.345-.377-.486-.37-.705-.712.769.204 1.162-.354 1.36-1.055-2.09-.735-.966-2.533-2.287-4.252m-21.26 8.418l.628-.478c.111-.085.183-.139.311-.122l.885.116c.048.213.19.421.19.421l-.942-.199c-.133-.015-.172-.009-.297.081l-.445.337c-.089.07-.091.179-.041.287l.072.156-.312.236-.118-.225c-.121-.24-.13-.458.069-.61m1.437-1.666l-.164.087c-.112.065-.17.095-.267-.029l-.072-.089c-.034-.042-.046-.148.026-.227l.7-.82-.645-.53.822.304.301-.376c.088.076.057.293.057.293.334 0 1.301.481 1.338 1.688 0 0 .218.324.497.342l1.426.086c.235 0 .826-.451 1.585-.025.192-.116.398-.208.61-.232.667-.05 1.16.418 1.527.887.268.34.635.862.635.862-.157.188-.314.251-.444.204-.198-.1-.261-.261-.324-.482-.1-.35-.485-.65-.485-.65.13.236.158.503.22.747-.556-.551-.662-1.227-1.05-1.319-.174-.043-.373.03-.56.247.197.456.187.986.387 1.339.153.265.185.288.254.347.165.118.07.33.046.485l-.211 1.326h-.355l.234-1.298c.07-.395-1.037-.395-1.604-1.149-.484.565-1.839.424-2.425.336-.236-.035-.467-.02-.597.213-.076.132-.204.092-.282.073l-1.069-.231c-.188-.044-.269-.006-.352.166l-.215.444c-.047.104-.045.18.04.262l.103.11a.886.886 0 0 1-.255.375l-.234-.263c-.112-.133-.118-.327-.028-.515l.346-.722c.04-.08.113-.167.26-.167l1.323-.022-.405-.66c-.303-.497.198-1.38.124-1.798-.038.56-.712.304-.818.38m5.505 3.056l-.57 1.41h-.355l.57-1.365c.06-.176-.053-.259-.195-.452.211.12.363.197.62.297-.023.039-.05.061-.07.11m-6.96-.16l.641-.545-.097-.197c-.07-.138-.033-.149.042-.203l.337-.253c.08-.065.161-.058.259-.034l1.017.24h-1.073c-.25.016-.322.112-.41.295l-.075.152-.276.568c-.094.196-.142.456.104.752l.195.231-.395.804h.333l.273-.559c.022-.02.427-.388.512-.772-.116-.094-.2-.16-.135-.295l.124-.265c.04-.089.055-.125.173-.1l1.069.231c.133.035.329.094.47-.12.148-.225.167-.2.507-.166l.545.058c.745.07 1.49-.117 1.78-.347.1.233.302.41.397.59.034.067-.023.162-.07.28l-.612 1.465h.944l.535-1.34a.766.766 0 0 1 .177-.278l-.306 1.618h.914l.245-1.603c.053-.354.021-.47-.149-.616-.383-.322-.373-1-.497-1.413a.37.37 0 0 1 .23-.046c.2.02.35.53.585.858.468.66 1.11 1.39 1.844.363a2.426 2.426 0 0 0-.238-.326l-.204-.24c-.12-.133-.688-.783-.923-1.018-.539-.541-1.364-.46-1.693-.197-.745-.39-1.53.02-1.716.005l-1.284-.077a.253.253 0 0 1-.209-.124l.238-.078c-.223-.93-.784-1.71-1.764-1.843 0 0-.057-.294-.206-.351l-.293.346a.955.955 0 0 0-.247.068l-1.25-.465.94.95s-.489.69-.627.832c-.091.128-.082.23.02.355l.183.239c.094.123.197.12.347.042l.206-.107c.088-.076.391.073.52-.046-.084.27-.123.53-.144.738l-.842-.102c-.185-.024-.268 0-.381.088l-.719.555c-.235.18-.308.493-.162.796l.29.607m2.744-18.236c.343.237.95.49.95.49v-.404l-1.336-.512s0 .164.386.426m.949-.488v-.401l-1.516-.544s.181.193.567.458c.343.236.95.486.95.486m-.001-.914v-.406l-1.66-.611s.325.263.71.526c.344.238.95.491.95.491"/><path d="M28.095 20.149h1.698c-.071-.243-.336-.49-.83-.49-.47 0-.75.268-.868.49m-1.776-6.521l-1.657.611v.406s.608-.253.949-.49c.386-.264.708-.527.708-.527m-.322 1.994l-1.335.512v.405s.606-.254.95-.491c.385-.262.385-.426.385-.426m.18-1.007l-1.515.544v.4s.608-.25.95-.486c.385-.265.565-.458.565-.458m-7.05 5.045c-.494 0-.759.246-.828.489h1.698a.96.96 0 0 0-.87-.49"/><path d="M24.047 13.427l-2.726-1.079c.23-.549 1.3-1.017 2.726-1.017s2.494.468 2.725 1.017l-2.725 1.08zm2.03 3.372l-1.839.968v-3.911l2.497-.85-.658 3.793zm2.149 1.63c-.69.121-1.281.966-1.767 1.725l-.055.089h-.517v.09c-.056.586-.612 1.384-1.84 1.384-.569 0-.996-.174-1.29-.411a1.513 1.513 0 0 1-.492-.708 1.23 1.23 0 0 1-.056-.266l-.004-.09h-.514l-.056-.088c-.488-.759-1.08-1.604-1.766-1.724l1.875-1.09 2.303 1.254 2.3-1.254 1.879 1.09zm2.528 2.877c-.196.514-.356 1.07-.356 1.625v5.975h-.693c-.315-.305-.58-1.325-.58-1.325-.173.369.024 1.11.21 1.325h-.894c-.221-.299-.413-1.36-.413-1.36-.267.305-.098 1.131.068 1.36h-.593c-.039-.424.082-.886.082-.886-.309-.058-.64-.222-.638-.568.156.148.22.146.438.142l.252-.2c-.838.027-.875-.892-.213-1.324-.662.022-1.158-.372-.916-1.079-.473-.244-.639-1.044-.29-1.395-.252-.275-.294-.812-.133-1.18-.334 0-.71-.135-.92-.363-.016.008-.034.013-.052.019a2.33 2.33 0 0 0 1.01-.766h4.63zm-.354 11.87c0 1.246-.575 2.192-1.53 2.718l.343-.699h-.331l-.44.894a4.326 4.326 0 0 1-1.544.267c-1.745 0-2.206.072-2.85.716-.647-.644-1.108-.716-2.849-.716a4.39 4.39 0 0 1-1.538-.262h.013l.439-.899h-.332l-.386.786a3.55 3.55 0 0 1-.267-.142l.318-.644h-.329l-.236.48c-.747-.552-1.187-1.412-1.187-2.5v-3.918H30.4v3.918zm-8.65-7.156l.537.066c.04.295-.037.793-.228 1.071l-.519-.15c.138-.33.173-.636.21-.987zm-.77-.393s.491-.024.63.029c.103.042.034.214-.098.196-.14-.017-.532-.225-.532-.225zm-.033-1.956l-.44 1.614.15-2.602.684-.587.348.766-.88 2.527.232-1.702c.023-.119-.074-.131-.094-.016zm-.339 2.69c-.232.094-.468-.033-.395-.184.107.1.407.051.407.051l-.012.133zm-.434.215c.106.104.43.065.43.065l.012.064c-.141.188-.532.104-.442-.129zm-.508-1.038c-.123-.083-.068-.263.07-.263.15.004.35.174.548.26 0 0-.518.068-.618.003zm.491 1.43s.15.063.337.077c-.022.103-.1.203-.228.174-.105-.023-.153-.155-.109-.252zm.349-.975c-.25.08-.36-.099-.347-.252.487-.18.703-.064.847.028.131.083.24.317.416.465-.03.2-.091.49-.163.684-.497-.129-.524-.568-.337-.837-.105-.122-.216-.153-.416-.088zm2.16.143l.534.063c.052.295-.047.918-.249 1.216l-.543-.157c.217-.286.297-.794.258-1.122zm.918.112l.44.056c.07.365.025.999-.208 1.36l-.514-.149c.226-.305.33-.934.282-1.267zm.789.098h.01a.649.649 0 0 0 .344-.047c.238.342.423 1.116.138 1.601a1.68 1.68 0 0 1-.468-.068l-.119-.035c.241-.376.205-1.036.095-1.45zm.672-.26l.311-.306c.32.278.737.9.606 1.49l-.34.311a1.2 1.2 0 0 1-.216.165c.211-.528-.06-1.338-.36-1.66zm1.832.176a1.03 1.03 0 0 0-.16.313l-.38.35c.077-.556-.295-1.214-.636-1.482l.404-.396.08.081c-.135.355.128 1.05.692 1.134zm-1.008-2.69c-.2.382-.179.822.055 1.22l-.155.154c-.68-.084-.949-1.1-.949-1.1a1.736 1.736 0 0 0-.02.27c-.396-.147-.649-.5-.628-.984.15.085.32.144.5.175l.045-.298c-.475-.082-.752-.38-.86-.731a1.373 1.373 0 0 1-.063-.01 2.84 2.84 0 0 0 1.054-.103c.198.28.548.482.9.522-.055.231-.029.524.121.886zm-3.9-2.266c.329.45.861.783 1.491.914.054.237.182.496.433.707-.104.698.196 1.35.946 1.524.078.355.3.625.668.753l-.521.604a.762.762 0 0 1-.675.278l-2.33-.265c.1-.26-.168-.56-.906-.432l.917-2.564-.56-1.192-1.059.905-.078 2.692-.449-.222c-.593-.254-.765.816-.203.82l.223.003c-.014.112.02.231.106.269-.106.045-.137.245-.004.315-.136.064-.152.267-.044.355-.118.197-.136.627.272.735.333.089.543-.272.614-.482l3.624 1.125c.515.147.88.066 1.306-.31l.946-.829c-.118.542.076 1.031.488 1.192 0 0-.06.485-.04.705h-9.44v-5.975c0-.556-.16-1.111-.352-1.625h4.628zm-.612-8.3l2.495.85v3.91l-1.837-.967-.658-3.793zm6.062-.465c0-.958-1.604-1.814-3.373-1.814-1.77 0-3.374.856-3.374 1.814l.037.232.704 4.063-3.343 1.952c-.357.21-.803.787-.86 1.366h.61c.102-.578.56-1.222 1.414-1.183.772.042 1.228.513 1.682 1.183l.117.178.169.266h-4.918c.36.726.705 1.497.705 2.333v10.244c0 2.636 2.022 3.89 4.21 3.89 1.69 0 1.917-.076 2.85.858.93-.934 1.156-.857 2.85-.857 2.187 0 4.208-1.255 4.208-3.89V22.93c0-.836.342-1.607.703-2.333h-4.92l.17-.266.117-.178c.451-.67.91-1.14 1.682-1.183.85-.039 1.31.605 1.41 1.183h.61c-.054-.579-.502-1.156-.857-1.366l-3.344-1.952.706-4.063.035-.232z"/><path d="M30.11 25.168l.005-.3c-.916-.021-1.128-1.107-1.128-1.107-.268.799.433 1.393 1.124 1.407m-1.159 1.835l-.093-.284c-.782.2-1.185-1.041-1.185-1.041-.252.903.622 1.541 1.278 1.325m.543-1.151c-.934.148-1.318-.941-1.318-.941-.104.593.28 1.194.897 1.258-.138.774.58 1.171 1.2.895l-.089-.269c-.54.18-1.046-.355-.69-.943m-.559-3.11l.007-.298c-1.233-.257-1.129-1.107-1.129-1.107-.267.801.433 1.393 1.122 1.405m-7.818 12.453l-.443.899h.334l.441-.899h-.332m.666 0l-.44.899h.334l.438-.899h-.332m2.672 0l-.44.899h.33l.442-.899h-.332m.67 0l-.444.899h.334l.44-.899h-.33m-1.337 0l-.443.899h.333l.442-.899h-.332m3.901.899h.332l.441-.899h-.332l-.44.899m-5.238-.899l-.44.899h.332l.44-.899h-.332m.666 0l-.44.899h.334l.44-.899h-.334m-1.511-4.824c-.06 0-.113.06-.113.136 0 .073.052.132.113.132.064 0 .116-.06.116-.132 0-.076-.052-.136-.116-.136m-.135-20.739l.524-1.116.976.518 1.075-1.063 1.076 1.063.973-.518.521 1.116.646-.1a5.1 5.1 0 0 0-.406.966c-.707-.414-1.758-.732-2.81-.732-1.055 0-2.103.318-2.812.732a5.036 5.036 0 0 0-.408-.966l.645.1zm2.576.49c1.368 0 2.465.454 3.07.943 0 0 .182-1.09.794-2.046l-1.102.124-.577-1.23-1.11.578-1.075-1.07-1.076 1.07-1.112-.577-.578 1.23-1.102-.125c.615.956.794 2.046.794 2.046.605-.49 1.702-.944 3.074-.944z"/><path d="M25.173 7.92a.293.293 0 0 0 .316-.267c.016-.159-.218-.588-.218-.588s-.35.378-.361.54c-.015.158.105.3.263.315m1.807.658a.292.292 0 0 0 .395-.124c.077-.14.027-.625.027-.625s-.467.21-.543.353a.297.297 0 0 0 .122.396m-4.062-.658a.292.292 0 0 0 .266-.315c-.014-.162-.36-.54-.36-.54s-.234.43-.219.588c.012.16.155.28.313.267m-1.806.658a.292.292 0 0 0 .12-.396c-.075-.143-.54-.353-.54-.353s-.049.485.029.625c.074.142.25.2.391.124m19.997 10.17c.119.265.355 1.187-.21 1.89-.642-1.288-1.527-2.39-2.242-2.866-.157-.1.086-.282.526-.34 1.334-.252 2.896.314 3.639.511-.346.261-.628.376-.98.42.54.454.932.838 1.213 1.266-.526.13-.819-.201-1.946-.881m1.68-.219c.386-.137.683-.506.831-.845-.979-.142-3.582-1.237-5.72-.345.8-.763 1.52-.86 1.587-1.957.333.24.895.375 1.21-.197-.22-.653-.778-.124-.855-.304-.11-.248.703.079.877-.77-.632-.218-.82.3-.933.18-.104-.115.401-.332.029-1.016-.659.385-.315.82-.454.867-.17.068-.036-.463-.763-.438-.07.78.684.807.558.931-.147.152-.344-.45-.894-.145.01.632.52.977 1.047.829-.085 1.2-1.183.976-2.002 2.328 1.733.89 2.516 2.442 3.582 3.513.353-.248.955-1.363.955-1.363 1.153.896 1.966.004 1.966.004-.398-.406-.413-.716-1.02-1.272M23.726 39.815l-.75-.028-.086.302.094.004c.03 0 .03-.059.058-.09a.69.69 0 0 1 .259-.023l.314.023c-.186.386-.67.75-.664 1.006.008.136.146.165.227.16.152-.005.2-.112.24-.276.09-.38.275-.671.407-1.106l-.093.003-.006.025m.512.449l.013-.232h.652l-.034-.258c-.179.005-.44.064-.682.066l-.044.505c.302-.013.499.119.499.436 0 .118-.077.34-.214.356a.139.139 0 0 1-.092-.023c-.066-.049.02-.102.02-.184 0-.104-.107-.142-.178-.13-.113.007-.154.08-.154.17 0 .186.276.238.395.238.268 0 .577-.15.577-.453 0-.4-.446-.483-.758-.491m1.564.206c-.232 0-.265-.363-.265-.538 0-.05.046-.12.096-.12.212 0 .27.493.288.632a.336.336 0 0 1-.12.026m-.147-.727a.414.414 0 0 0-.425.413c0 .377.403.5.703.357.037.292-.023.502-.134.51-.094 0-.08-.071-.094-.13-.025-.115-.114-.146-.207-.115-.097.027-.112.115-.095.179.043.148.226.152.313.14.385-.044.545-.329.545-.646 0-.367-.21-.708-.606-.708m-3.206-.077c-.034.042-.195.244-.541.502l.028.052c.039-.021.1-.05.204-.113l-.204.714c-.01.039-.058.043-.08.039l-.123-.019-.022.085.662.119.02-.083-.114-.026c-.033-.01-.055-.033-.049-.072l.302-1.185-.083-.013"/><path d="M27.464 40.51l-.587-1.916c1.25-.258 2.122-.525 2.787-.783v1.195l1.032.417c-.872.398-1.953.793-3.232 1.086m-3.415 1.12c-1.169 0-2.307-.176-3.282-.415l.62-2.006c.411.094 1.439.22 2.662.22 1.222 0 2.246-.126 2.66-.22l.622 2.006a14 14 0 0 1-3.282.414m-6.653-2.205l1.034-.417v-1.195c.665.258 1.537.525 2.788.783l-.586 1.915a17.052 17.052 0 0 1-3.236-1.086m12.588-.666v-1.464c-1.13.518-2.568.94-4.417 1.107l-.084.523c.158.021.355.041.622.057a17.33 17.33 0 0 1-2.056.141c-.487 0-1.37-.045-2.057-.14.264-.017.462-.037.62-.058l-.083-.523c-1.85-.168-3.29-.589-4.418-1.107v1.464l-1.533.63c1.135.593 2.442 1.075 3.951 1.465l-.178.613c.866.253 2.247.512 3.698.512 1.448 0 2.83-.259 3.694-.512l-.178-.613c1.509-.39 2.817-.872 3.952-1.464l-1.533-.631M5.038 19.629c.28-.428.67-.812 1.215-1.264-.356-.046-.635-.16-.983-.422.744-.197 2.31-.763 3.642-.51.437.057.685.238.524.34-.716.475-1.6 1.577-2.244 2.864-.562-.702-.326-1.624-.207-1.89-1.126.68-1.42 1.013-1.947.882m1.211.168s.603 1.115.954 1.363c1.067-1.071 1.852-2.624 3.583-3.513-.82-1.352-1.92-1.125-2-2.327.525.147 1.036-.2 1.046-.83-.551-.302-.746.299-.895.145-.124-.127.63-.15.558-.93-.727-.023-.592.505-.764.437-.136-.049.206-.483-.454-.867-.37.687.136.9.03 1.016-.11.12-.301-.398-.931-.18.17.849.985.522.875.77-.077.18-.634-.348-.853.305.313.57.876.436 1.207.197.069 1.1.787 1.19 1.59 1.956-2.138-.892-4.742.202-5.724.346.15.338.447.707.831.842-.605.56-.619.868-1.018 1.273 0 0 .81.893 1.965-.003m16.861-.815v.644c.223-.267.65-.215.65-.215v.928s-.014.458-.175.656h.927c-.161-.198-.176-.656-.176-.656v-.928s.428-.052.65.215v-.644h-1.877m2.666 16.873h.355l.57-1.41c.02-.048.047-.07.069-.11a4.14 4.14 0 0 1-.62-.296c.143.192.255.275.196.452l-.57 1.364"/><path d="M12.904 34.574l-.454.774c-.164-.51-.459-1.038-.647-1.414-.365.754-.942.77-1.499.773.124-1.805-2.141-3.62-1.145-5.68.198-.413.07-.918-.358-1.134-1.519-.772-.817 2.433-2.334 2.53.291-.365.399-1.125.443-1.19-.323.083-1.095.577-1.443-.055.887-.483 1.141-1.211 1.28-1.942.178-.925.26-1.353.438-1.733.187-.405.486-.757 1.128-1.59-.152.021-1.86.383-2.244.203 2.954-1.817 2.289-4.126 6.792-6.184-1.181-.88-2.388-1.58-1.522-3.26 1.234 1.486 3.578.972 4.844.283-1.25-.251-2.864-1.357-3.246-2.586.47-.072 1.082.44 1.433.68.17-.455.237-.983.785-1.096-.732 1.57.715 2.387 2.094 2.393.214 0 1.107-.09 1.107-.09-.143-.294-.72-1.097-.3-1.42.338.316.74.57 1.106.852 2.682 2.079-1.276 4.007-2.895 4.881-2.539 1.375-1.86 3.012-.799 3.43-.004.184-.117.266-.294.325-.742.247-1.439-.283-2.03-.623.035 1.027-.035 2.013 1.098 2.578l-.781.284c.67.512.875.783 1.682.888-.376.183-.845.18-1.245.217.1.285.184.67.396.925-1.653.196-2.315-.75-2.828-.712-1.09.082-1.021 2.14 1.663 2.142l-.279.46s.508.298.975.355c-.178.145-.35.34-.5.489l.428.37c-1.096.197-1.406-.972-2.116-.409-1.085.862 1.306 2.678 3.597 2.408-.192.247-.73.61-.962.8 1.866 1.766.946 3.43 1.714 4.65-1.61-.108-2.803-1.291-3.082-2.572m2.1-1.988c.519-.412.948-.618.926-1.615-.779.4-2.986.378-3.908-.894-.26-.362.019-.544.27-.259.63.717 1.8.393 2.227.186-.067-.248-.257-.568-.417-.706.16-.157.612-.392.704-.795-.242-.13-1.178-.225-1.178-.225.15-.146.338-.347.226-.885-.957.295-2.139-.105-2.408-.46-.264-.349.006-.675.228-.444.476.5 2.826 1.076 3.7.203-.324-.09-.683-.38-.747-.56.809-.082 1.454-.56 1.508-1.156-.448 0-1.293-.033-1.581-.25.388-.143.633-.284.755-.719-1.479-.09-1.596-1.19-1.604-1.373.963.557 2.66.31 2.221-1.061-.801-.043-1.609-1.342.595-2.536 2.005-1.087 4.283-2.259 4.081-4.187-.131-1.234-2.16-2.076-2.417-2.7-.846.403-1.016.872-.634 1.657 0 0-1.887.187-2.036-.975-.064-.522.283-1.01.657-1.382-.212 0-1.633-.38-2.061.779-.797-.545-1.478-.525-2.014.05.855.509 1.386 2.256 2.801 2.771-1.007.547-2.635.318-3.585-1.362-.9 1.357-1.417 2.701.511 4.136-3.51 1.6-3.484 4.658-6.536 6.115.31.832.962.832 1.794.702-1.32 1.718-.195 3.516-2.285 4.251.196.7.589 1.26 1.359 1.056-.219.342-.363.335-.704.711 1.142.72 2.496.199 2.803-2.113.054-.414.622-.155.426.25-1.302 2.697 1.99 4.726.825 6.705 1.028-.043 1.81-.124 2.238-.47.21.414.335.825.29 1.23.568-.115.774-.45.813-.837.373 1.087 1.701 2.247 3.827 2.247-1.128-1.61-.077-3.245-1.67-5.085"/><path d="M9.958 28.124c.389.406.859.447 1.75.391-.98-.119-1.53-.358-1.872-1.009a9.828 9.828 0 0 1-.096-1.08c-.031-1.033.308-2.262 1.02-3.61-.004.845.664 2.173 2.155 2.394-1.34-.587-2.129-1.91-1.699-3.189.28-.447.594-.908.946-1.378.177-.225.349-.443.517-.646-.18.652.608 1.326 1.135 1.44-.285-.28-.9-1.188.518-2.706a6.656 6.656 0 0 0-1.164.71c2.573-2.785 4.69-2.863 5.662-4.264-1.408.964-5.135 1.485-6.81 1.029.923.618 3.151.562 3.695.447-1.816 1.769-5.781 3.596-6.468 5.221.966-1.061 1.591-1.255 2.427-1.529-.658.985-1.251 1.85-1.66 2.855-1.055 2.296-2.466 2.326-2.56 4.22.482-1.468 1.458-1.84 2.136-2.804a9.513 9.513 0 0 0-.154 2.085c.024.856.195 1.609.467 2.283-.07.935.014 2.535 1.085 3.59-.728-.923-.884-2.424-.819-3.01.838 1.622 3.23 3.861 4.385 5.365-1.156-1.935-3.988-4.195-4.596-6.805m26.465-7.779c.832.274 1.459.468 2.425 1.53-.684-1.626-4.655-3.453-6.47-5.222.545.114 2.773.171 3.697-.447-1.673.456-5.402-.065-6.81-1.03.973 1.402 3.087 1.48 5.662 4.266a6.55 6.55 0 0 0-1.164-.711c1.415 1.518.803 2.426.516 2.706.528-.114 1.315-.788 1.136-1.44.17.203.342.42.518.646.354.47.667.931.945 1.378.43 1.28-.36 2.602-1.697 3.19 1.49-.221 2.16-1.55 2.152-2.395.713 1.348 1.054 2.577 1.022 3.61a9.582 9.582 0 0 1-.097 1.08c-.344.651-.893.89-1.87 1.01.892.055 1.359.014 1.75-.392-.608 2.61-3.44 4.87-4.598 6.805 1.157-1.504 3.545-3.743 4.387-5.364.064.585-.093 2.086-.82 3.008 1.072-1.054 1.154-2.654 1.085-3.59a6.6 6.6 0 0 0 .466-2.282 9.272 9.272 0 0 0-.153-2.085c.677.964 1.653 1.336 2.136 2.803-.093-1.893-1.504-1.923-2.561-4.219-.408-1.004-.999-1.87-1.657-2.855"/><path d="M41.188 29.232c.04.066.15.826.44 1.192-1.519-.098-.814-3.303-2.333-2.531-.428.216-.556.721-.358 1.133.993 2.06-1.27 3.876-1.143 5.681-.56-.004-1.14-.019-1.502-.773-.186.376-.484.904-.646 1.413l-.455-.773c-.282 1.28-1.475 2.465-3.082 2.572.764-1.22-.154-2.884 1.716-4.65-.236-.19-.772-.553-.965-.8 2.293.27 4.683-1.546 3.598-2.408-.71-.563-1.023.606-2.116.41l.429-.371c-.15-.149-.324-.343-.502-.489.467-.057.975-.354.975-.354l-.278-.46c2.685-.004 2.749-2.06 1.662-2.143-.51-.037-1.173.908-2.827.712.208-.256.295-.64.397-.925-.398-.037-.87-.034-1.247-.217.808-.105 1.01-.376 1.682-.886l-.777-.286c1.13-.565 1.06-1.551 1.094-2.578-.59.34-1.29.87-2.028.623-.177-.059-.292-.14-.295-.325 1.062-.418 1.738-2.055-.8-3.43-1.617-.874-5.577-2.802-2.894-4.881.367-.282.766-.536 1.103-.852.422.323-.153 1.126-.297 1.42 0 0 .892.09 1.104.09 1.383-.006 2.831-.824 2.098-2.395.55.115.614.643.782 1.096.352-.238.963-.75 1.436-.678-.384 1.23-1.994 2.335-3.246 2.586 1.264.69 3.61 1.203 4.844-.282.865 1.678-.34 2.38-1.524 3.26 4.504 2.056 3.839 4.366 6.793 6.183-.382.18-2.093-.182-2.246-.203.645.833.945 1.185 1.13 1.59.18.38.26.808.436 1.733.142.731.396 1.459 1.281 1.942-.348.632-1.118.138-1.44.054m-.174-4.591c.83.13 1.484.13 1.794-.702-3.054-1.457-3.027-4.515-6.537-6.115 1.93-1.435 1.409-2.78.513-4.136-.949 1.68-2.582 1.909-3.585 1.362 1.413-.515 1.946-2.262 2.801-2.772-.535-.575-1.218-.594-2.016-.05-.43-1.159-1.849-.778-2.062-.778.373.372.725.86.658 1.382-.147 1.162-2.034.975-2.034.975.38-.785.211-1.254-.636-1.657-.258.624-2.284 1.466-2.415 2.7-.203 1.928 2.077 3.1 4.08 4.187 2.203 1.194 1.395 2.493.597 2.536-.443 1.37 1.254 1.618 2.22 1.061-.005.182-.128 1.283-1.607 1.373.125.435.369.576.756.72-.289.216-1.133.249-1.58.249.053.596.7 1.074 1.509 1.155-.064.18-.424.472-.747.561.873.873 3.223.298 3.701-.203.219-.231.486.095.226.443-.27.356-1.451.756-2.408.461-.11.537.074.74.225.885 0 0-.936.093-1.178.225.09.403.545.638.704.795-.16.138-.348.458-.417.706.43.207 1.6.53 2.227-.186.254-.285.532-.103.272.259-.923 1.272-3.13 1.293-3.91.894-.022.997.409 1.202.927 1.615-1.596 1.84-.542 3.475-1.67 5.085 2.125 0 3.453-1.161 3.827-2.247.042.386.246.722.812.838-.044-.407.083-.817.289-1.232.43.347 1.214.428 2.24.47-1.163-1.978 2.128-4.007.823-6.704-.193-.405.374-.663.429-.25.305 2.312 1.66 2.834 2.804 2.113-.344-.376-.486-.37-.706-.711.77.205 1.162-.355 1.36-1.056-2.09-.735-.964-2.533-2.286-4.251M19.76 33.057l.626-.477c.112-.085.185-.14.312-.123l.884.117c.049.212.19.42.19.42l-.94-.198c-.134-.016-.173-.01-.298.08l-.445.338c-.089.069-.091.179-.04.286l.071.155-.31.236-.12-.224c-.12-.24-.129-.457.07-.61m1.436-1.665l-.163.087c-.113.065-.17.094-.269-.028l-.07-.09c-.036-.042-.047-.148.025-.228l.7-.817-.645-.531.822.303.3-.376c.089.076.058.293.058.293.333 0 1.3.482 1.337 1.688 0 0 .22.324.498.341l1.425.086c.236 0 .826-.45 1.585-.024a1.55 1.55 0 0 1 .608-.232c.67-.05 1.16.418 1.528.887.268.34.635.861.635.861-.158.188-.313.251-.444.204-.197-.102-.262-.262-.325-.482-.1-.35-.485-.65-.485-.65.132.236.158.503.222.748-.558-.552-.662-1.227-1.052-1.32-.173-.043-.374.031-.56.247.197.457.186.986.388 1.34.153.264.185.288.254.345.164.119.071.331.046.485l-.211 1.326h-.355l.234-1.297c.071-.395-1.036-.395-1.603-1.15-.484.567-1.838.425-2.425.337-.236-.035-.467-.02-.597.213-.076.13-.203.091-.28.073l-1.07-.231c-.188-.044-.269-.007-.353.167l-.213.443c-.047.104-.044.18.04.263l.102.109c-.062.212-.254.374-.254.374l-.233-.263c-.114-.132-.12-.325-.03-.513l.345-.724c.042-.08.116-.167.26-.167l1.323-.02-.404-.661c-.302-.496.198-1.379.124-1.796-.038.56-.713.304-.818.38m5.504 3.054l-.571 1.41h-.354l.57-1.366c.06-.176-.053-.258-.196-.451.212.12.363.198.62.296-.022.04-.049.062-.07.11m-6.958-.16l.642-.544-.098-.196c-.07-.14-.032-.148.042-.204l.339-.253c.078-.064.16-.057.256-.034l1.019.24h-1.075c-.248.016-.32.111-.41.296l-.073.15-.276.57c-.094.194-.143.456.104.75l.195.233-.396.801h.333l.274-.556c.021-.02.426-.39.511-.772-.116-.096-.2-.162-.135-.296l.124-.265c.04-.089.055-.125.173-.101l1.068.231c.133.037.329.095.471-.12.146-.223.166-.2.506-.166l.545.058c.745.071 1.49-.115 1.78-.345.1.232.302.408.397.589.034.067-.024.161-.07.279l-.612 1.464h.944l.534-1.336a.8.8 0 0 1 .177-.281l-.306 1.617h.915l.244-1.6c.053-.356.021-.471-.15-.617-.381-.323-.372-1-.496-1.412a.36.36 0 0 1 .23-.046c.2.018.35.529.586.857.468.66 1.108 1.389 1.84.363a2.315 2.315 0 0 0-.235-.326l-.205-.24c-.119-.132-.686-.783-.923-1.017-.537-.543-1.362-.46-1.691-.197-.745-.391-1.53.02-1.716.005l-1.283-.078a.254.254 0 0 1-.21-.124l.239-.078c-.223-.93-.784-1.709-1.764-1.842 0 0-.057-.294-.207-.35l-.292.345a.967.967 0 0 0-.246.069l-1.25-.466.939.95s-.488.69-.626.832c-.093.129-.084.23.02.354l.181.24c.095.123.197.118.348.042l.206-.107c.09-.076.39.073.52-.046-.083.27-.124.53-.143.737l-.844-.1c-.183-.026-.267 0-.38.086l-.718.555c-.235.18-.308.492-.163.795l.29.608m2.745-18.231c.341.237.947.49.947.49v-.403l-1.334-.513s0 .165.387.426m.947-.487v-.403l-1.514-.542s.18.193.567.457c.341.235.947.488.947.488m0-.916v-.404l-1.658-.612s.324.263.711.526c.341.238.947.49.947.49"/><path d="M28.094 20.156h1.696c-.07-.244-.333-.49-.829-.49a.956.956 0 0 0-.867.49m-1.775-6.52l-1.657.612v.404s.607-.252.95-.49c.385-.263.707-.526.707-.526m-.323 1.994l-1.334.512v.404s.607-.254.95-.49c.384-.262.384-.427.384-.427m.181-1.006l-1.515.542v.403s.608-.252.95-.488c.384-.264.565-.457.565-.457m-7.047 5.042c-.496 0-.759.247-.83.491h1.698a.96.96 0 0 0-.869-.49"/><path d="M24.048 13.435l-2.726-1.078c.231-.549 1.3-1.017 2.726-1.017 1.425 0 2.492.468 2.724 1.017l-2.724 1.078zm2.028 3.371l-1.837.968v-3.911l2.496-.85-.66 3.793zm2.148 1.63c-.689.12-1.28.965-1.766 1.726l-.054.087h-.517l-.002.09c-.054.587-.61 1.384-1.839 1.384-.567 0-.994-.174-1.289-.411a1.52 1.52 0 0 1-.492-.71 1.206 1.206 0 0 1-.055-.263l-.005-.09h-.513l-.056-.087c-.488-.76-1.079-1.605-1.765-1.725l1.874-1.09 2.303 1.253 2.3-1.254 1.876 1.09zm2.528 2.876c-.197.512-.355 1.068-.355 1.625v5.973h-.693c-.315-.306-.581-1.323-.581-1.323-.173.366.025 1.108.21 1.323h-.893c-.222-.3-.413-1.36-.413-1.36-.267.304-.098 1.13.068 1.36H27.5c-.037-.424.084-.887.084-.887-.31-.057-.64-.22-.64-.566.158.147.222.144.439.14l.252-.2c-.837.028-.875-.892-.212-1.322-.663.021-1.158-.374-.917-1.079-.472-.244-.638-1.043-.29-1.395-.251-.274-.293-.812-.132-1.18-.334 0-.71-.134-.92-.362-.016.008-.035.013-.052.019a2.317 2.317 0 0 0 1.01-.766h4.63zM30.4 33.177c0 1.246-.575 2.193-1.53 2.718l.343-.698h-.332l-.44.894a4.324 4.324 0 0 1-1.542.267c-1.745 0-2.206.07-2.85.715-.647-.644-1.107-.715-2.849-.715a4.337 4.337 0 0 1-1.536-.264h.011l.44-.897h-.33l-.386.785a3.113 3.113 0 0 1-.267-.141l.317-.644h-.33l-.235.48c-.748-.552-1.186-1.412-1.186-2.5v-3.916H30.4v3.916zm-8.647-7.153l.535.067c.04.293-.036.792-.227 1.07l-.519-.15c.138-.33.173-.637.211-.987zm-.771-.393s.492-.023.63.03c.103.042.033.214-.1.195-.137-.017-.53-.225-.53-.225zm-.033-1.954l-.44 1.612.15-2.601.684-.587.348.766-.88 2.526.233-1.7c.021-.119-.075-.132-.095-.016zm-.339 2.689c-.23.092-.467-.034-.394-.183.107.097.406.05.406.05l-.012.133zm-.434.215c.107.103.43.064.43.064l.012.065c-.142.188-.532.103-.442-.13zm-.507-1.04c-.124-.082-.068-.261.07-.261.149.003.35.174.547.259 0 0-.518.07-.617.002zm.491 1.431s.148.062.336.077c-.022.103-.102.203-.228.174-.105-.023-.153-.154-.108-.25zm.348-.975c-.249.081-.358-.099-.348-.252.488-.178.705-.063.848.028.13.083.24.318.415.465-.028.2-.09.49-.161.683-.498-.128-.524-.568-.339-.835-.104-.123-.214-.154-.415-.089zm2.16.143l.533.064c.053.294-.047.917-.248 1.215l-.544-.157c.218-.286.297-.794.259-1.122zm.918.113l.44.055c.07.366.024 1-.21 1.36l-.511-.149c.224-.306.33-.935.28-1.266zm.788.098h.01a.659.659 0 0 0 .344-.048c.238.342.424 1.116.138 1.6a1.609 1.609 0 0 1-.468-.068l-.119-.035c.241-.375.207-1.036.095-1.45zm.672-.26l.313-.307c.317.278.735.9.605 1.49l-.341.313a1.23 1.23 0 0 1-.217.163c.212-.527-.058-1.338-.36-1.66zm1.83.175a1.05 1.05 0 0 0-.158.313l-.38.349c.077-.555-.296-1.213-.636-1.48l.403-.397.08.082c-.134.354.129 1.05.691 1.133zm-1.006-2.688c-.2.381-.179.82.056 1.22l-.156.153c-.68-.085-.949-1.1-.949-1.1-.013.09-.022.18-.02.27-.396-.147-.648-.5-.627-.983.15.083.319.143.497.174l.047-.297c-.475-.083-.752-.38-.858-.732-.023-.002-.043-.008-.065-.009a2.816 2.816 0 0 0 1.054-.104c.198.281.548.483.9.522-.055.23-.029.524.121.886zm-3.898-2.266c.328.45.86.783 1.49.913.053.237.182.497.432.707-.104.698.196 1.35.946 1.524.078.355.3.625.668.753l-.521.603a.767.767 0 0 1-.675.279l-2.33-.266c.101-.26-.167-.56-.905-.43l.916-2.566-.559-1.19-1.059.905-.077 2.691-.45-.222c-.592-.256-.764.815-.202.82l.223.003c-.014.11.019.231.105.268-.105.045-.138.244-.004.315-.134.064-.152.267-.044.355-.118.198-.136.626.273.735.334.088.543-.273.612-.482l3.625 1.125c.514.147.878.064 1.304-.31l.947-.83c-.12.543.076 1.032.488 1.193 0 0-.06.487-.041.705h-9.436v-5.973c0-.557-.16-1.113-.352-1.625h4.626zm-.613-8.299l2.494.85v3.911l-1.837-.968-.657-3.793zm6.06-.465c0-.956-1.603-1.812-3.372-1.812-1.77 0-3.373.856-3.373 1.812l.037.234.704 4.061-3.343 1.953c-.356.208-.8.785-.857 1.366h.61c.1-.58.558-1.223 1.41-1.183.772.04 1.23.51 1.683 1.183l.117.177.169.264h-4.916c.36.727.704 1.498.704 2.334v10.24c0 2.636 2.02 3.89 4.208 3.89 1.69 0 1.917-.077 2.85.857.93-.934 1.156-.857 2.85-.857 2.185 0 4.206-1.254 4.206-3.89v-10.24c0-.836.343-1.607.704-2.334h-4.92l.17-.264.117-.177c.452-.673.91-1.143 1.683-1.183.85-.04 1.31.603 1.41 1.183h.608c-.054-.58-.501-1.158-.856-1.366l-3.343-1.953.705-4.06.035-.235z"/><path d="M30.109 25.172l.005-.3c-.918-.021-1.127-1.105-1.127-1.105-.269.798.431 1.392 1.122 1.405m-1.159 1.835l-.091-.283c-.783.2-1.187-1.042-1.187-1.042-.25.902.623 1.541 1.278 1.325m.544-1.151c-.935.148-1.318-.941-1.318-.941-.104.593.28 1.194.898 1.258-.14.774.578 1.17 1.2.895l-.09-.27c-.54.182-1.046-.353-.69-.942m-.559-3.108l.008-.3c-1.233-.254-1.13-1.105-1.13-1.105-.267.8.434 1.392 1.122 1.405M21.12 35.197l-.442.897h.332l.44-.897h-.33m.665 0l-.44.897h.334l.437-.897h-.331m2.671 0l-.44.897h.331l.44-.897h-.331m.669 0l-.443.897h.334l.438-.897h-.33m-1.335 0l-.441.897h.331l.442-.897h-.332m3.901.897h.332l.44-.897h-.332l-.44.897m-5.236-.897l-.44.897h.332l.44-.897h-.332m.665 0l-.44.897h.334l.44-.897h-.334m-1.51-4.822c-.06 0-.114.059-.114.134 0 .073.054.133.114.133.063 0 .116-.06.116-.133 0-.075-.053-.134-.116-.134m-.136-20.734L22 8.525l.974.519L24.05 7.98l1.075 1.064.973-.519.52 1.116.647-.1a4.917 4.917 0 0 0-.406.966c-.708-.414-1.759-.732-2.81-.732-1.054 0-2.102.318-2.81.732a5.013 5.013 0 0 0-.41-.965l.645.1zm2.576.49c1.368 0 2.464.453 3.07.942 0 0 .18-1.089.794-2.045l-1.103.124-.577-1.23-1.109.578-1.075-1.069-1.076 1.07-1.111-.578-.577 1.23-1.103-.125c.614.956.794 2.045.794 2.045.604-.489 1.702-.943 3.073-.943z"/><path d="M25.173 7.93a.295.295 0 0 0 .316-.266c.016-.16-.218-.588-.218-.588s-.35.377-.361.538c-.015.159.105.3.263.316m1.807.657a.29.29 0 0 0 .394-.124c.077-.14.027-.625.027-.625s-.466.21-.543.354a.297.297 0 0 0 .123.395m-4.062-.657a.294.294 0 0 0 .266-.316c-.014-.161-.36-.538-.36-.538s-.234.428-.219.588c.013.158.155.28.313.266m-1.804.657a.293.293 0 0 0 .12-.395c-.075-.144-.541-.354-.541-.354s-.05.485.028.625c.074.144.25.2.393.124m19.99 10.167c.118.265.355 1.186-.21 1.89-.642-1.287-1.526-2.39-2.241-2.865-.157-.102.086-.281.527-.339 1.332-.253 2.892.312 3.637.51-.347.26-.628.376-.981.42.54.453.934.837 1.213 1.266-.524.129-.818-.202-1.945-.882m1.68-.219c.385-.137.683-.504.831-.845-.98-.14-3.581-1.235-5.72-.344.8-.762 1.52-.86 1.589-1.956.332.24.893.374 1.21-.197-.222-.652-.778-.124-.857-.303-.108-.25.703.076.876-.771-.63-.217-.82.299-.932.18-.104-.115.4-.332.03-1.016-.658.385-.316.82-.455.868-.168.067-.035-.463-.761-.44-.071.783.682.807.558.932-.149.15-.346-.45-.894-.145.01.631.52.978 1.046.828-.086 1.2-1.183.976-2.002 2.327 1.732.89 2.516 2.441 3.582 3.514.352-.25.953-1.363.953-1.363 1.154.895 1.965.004 1.965.004-.397-.407-.411-.717-1.019-1.273m-19.059 21.28l-.75-.028-.086.301.094.005c.031 0 .031-.059.059-.09a.682.682 0 0 1 .258-.023l.314.023c-.185.386-.67.75-.663 1.006.007.136.145.163.228.16.151-.005.198-.112.238-.277.091-.38.275-.669.407-1.105l-.093.003-.006.025m.514.449l.01-.232h.653l-.035-.258c-.178.006-.44.064-.68.066l-.045.505c.302-.013.499.119.499.436 0 .118-.077.338-.214.355a.139.139 0 0 1-.092-.022c-.066-.049.02-.103.02-.184 0-.106-.107-.143-.179-.13-.112.007-.152.08-.152.17 0 .186.276.238.394.238.268 0 .577-.15.577-.453 0-.4-.447-.482-.757-.49m1.564.205c-.233 0-.266-.363-.266-.539 0-.05.044-.12.096-.12.212 0 .27.494.288.633a.335.335 0 0 1-.118.026m-.149-.727a.414.414 0 0 0-.426.413c0 .377.404.5.703.358.037.292-.023.501-.133.509-.094 0-.08-.071-.094-.132-.025-.113-.115-.144-.207-.113-.098.028-.112.114-.095.18.043.147.225.15.313.14.384-.044.545-.33.545-.647 0-.367-.21-.708-.606-.708m-3.204-.077c-.036.043-.197.244-.543.503l.03.05c.037-.02.098-.049.203-.112l-.204.714c-.011.039-.059.042-.081.039l-.121-.018-.023.084.662.119.02-.084-.114-.025c-.034-.01-.055-.034-.05-.073l.303-1.184-.083-.013"/><path d="M27.463 40.509l-.588-1.914c1.252-.259 2.123-.525 2.788-.782v1.193l1.032.417c-.872.398-1.954.793-3.232 1.086m-3.414 1.12c-1.167 0-2.307-.176-3.28-.415l.619-2.007c.41.095 1.438.222 2.66.222 1.223 0 2.247-.127 2.66-.222l.622 2.007c-.979.24-2.118.414-3.281.414m-6.65-2.205l1.033-.417v-1.193c.665.257 1.536.523 2.787.782l-.587 1.914a16.964 16.964 0 0 1-3.233-1.086m12.583-.665v-1.464c-1.13.519-2.567.94-4.416 1.106l-.084.524c.157.021.356.04.622.058-.685.094-1.57.14-2.055.14-.486 0-1.37-.046-2.057-.14.265-.017.463-.037.62-.058l-.083-.524c-1.85-.167-3.289-.587-4.416-1.106v1.464l-1.532.63c1.134.592 2.44 1.074 3.95 1.464l-.178.613c.865.253 2.246.514 3.696.514 1.448 0 2.829-.26 3.694-.514l-.178-.613c1.507-.39 2.817-.872 3.951-1.464l-1.534-.63M5.044 19.636c.28-.429.671-.813 1.215-1.265-.356-.045-.635-.162-.984-.421.745-.198 2.31-.763 3.642-.51.437.058.685.237.524.338-.716.476-1.6 1.579-2.244 2.865-.562-.703-.324-1.624-.208-1.89-1.125.681-1.418 1.012-1.945.883m1.211.168s.603 1.113.953 1.362c1.067-1.072 1.852-2.623 3.582-3.513-.819-1.35-1.918-1.124-2-2.327.526.15 1.035-.198 1.046-.828-.55-.303-.747.299-.895.145-.123-.127.63-.149.559-.93-.727-.023-.594.505-.764.438-.137-.05.205-.483-.454-.868-.37.687.136.9.03 1.015-.111.12-.301-.396-.932-.18.171.848.987.522.876.772-.078.179-.634-.35-.853.303.313.571.876.436 1.206.198.07 1.1.788 1.19 1.591 1.955-2.139-.891-4.741.203-5.724.346.151.339.448.706.833.84-.607.56-.62.87-1.018 1.276 0 0 .81.891 1.964-.004m16.855-.817v.645c.223-.267.652-.214.652-.214v.928s-.016.458-.177.655h.927c-.161-.197-.176-.655-.176-.655v-.928s.428-.053.65.214v-.645H23.11"/></g></g></svg>