<svg width="48" height="48" viewBox="0 0 48 48" xmlns="http://www.w3.org/2000/svg"><title>E0087485-5A0F-4537-9617-2C8D610F0359</title><g fill="none" fill-rule="evenodd"><path d="M0 0h48v48H0z"/><path d="M44 20.648l-8.626.002c-1.442-5.066-6.068-8.736-11.493-8.648-6.504.105-11.692 5.56-11.59 12.188.006.36.03.718.066 1.07L4 25.266v2.58h8.908c1.596 4.809 6.095 8.237 11.344 8.152 6.502-.104 11.69-5.56 11.588-12.186a11.429 11.429 0 0 0-.023-.577L44 23.229v-2.581zm-10.665 3.204c.08 5.216-4.004 9.512-9.124 9.594-3.827.062-7.148-2.25-8.615-5.602l8.65-.002-1.673 4.843 9.195-7.435-16.888.01a9.342 9.342 0 0 1-.082-1.111c-.082-5.217 4.003-9.512 9.123-9.595 4.012-.064 7.468 2.482 8.815 6.098h-8.981l1.673-4.843-9.196 7.437 17.07-.01c.017.204.03.408.033.616z" fill="#FFF"/></g></svg>