<svg width="48" height="48" viewBox="0 0 48 48" xmlns="http://www.w3.org/2000/svg"><title>C44DA0FB-75BA-4847-B082-2CCD1D8216E6</title><g fill="none" fill-rule="evenodd"><path d="M0 0h48v48H0z"/><path d="M44 28.297c-.127-2.8-1.362-5.533-3.464-7.413.175-.74.392-1.474.457-2.237a9.743 9.743 0 0 0-.14-2.499 8.853 8.853 0 0 0-3.497-5.506c-1.418-1.048-3.174-1.616-4.937-1.64-1.708-.001-3.417.01-5.127.005-1.77-.01-3.539.001-5.306-.005-.005 3.744.003 7.487-.005 11.231.008.31-.029.623.032.927-.018 2.407.003 4.813-.021 7.219-.053 2.042-1.13 4.01-2.8 5.188-1.518 1.13-3.483 1.506-5.34 1.265-2.208-.407-4.24-1.847-5.16-3.915-.565-1.14-.645-2.434-.595-3.684.001-2.965.003-5.93 0-8.895.013-1.275-.023-2.55.013-3.825.035-.647.553-1.108 1.089-1.396.826-.08 1.658-.044 2.49-.048.756-.005 1.514.02 2.271-.005 1.08-.066 1.935-1.142 1.814-2.202-.065-.995-.959-1.85-1.964-1.852-1.247-.017-2.493-.002-3.74-.006-1.059-.034-2.141.16-3.074.68-1.77.916-2.976 2.835-2.995 4.827.002.69-.012 1.38.023 2.068-.036.585-.004 1.172-.009 1.758-.008 2.965-.006 5.931.002 8.896-.003.363-.023.728.003 1.092-.046 2.872 1.265 5.703 3.358 7.658a11.074 11.074 0 0 0 6.592 2.96 11.184 11.184 0 0 0 7.705-2.119c2.092-1.531 3.605-3.825 4.153-6.355.14-.586.224-1.184.24-1.787.011-5.205-.008-10.408.005-15.613.91.001 1.82.007 2.73-.002 1.186-.009 2.372.012 3.557-.006 1.207.074 2.398.561 3.224 1.456 1.058 1.078 1.481 2.65 1.31 4.127h-.053c-.04.98-.738 1.726-1.033 2.616-.217.723.15 1.54.828 1.873 1.887 1.009 3.116 3.038 3.257 5.154.027 1.151-.187 2.32-.739 3.34-.769 1.507-2.195 2.591-3.79 3.117-1.095.217-2.214.146-3.325.15-1.587-.002-3.173-.013-4.76.007-1.006-.024-1.94.775-2.052 1.773-.181 1.132.757 2.288 1.916 2.312 1.632.027 3.265.006 4.898.01 1.142-.016 2.294.055 3.428-.14 3.028-.476 5.743-2.448 7.213-5.116.866-1.597 1.4-3.436 1.252-5.262l.066-.18" fill="#FFF"/></g></svg>