<svg width="48" height="48" viewBox="0 0 48 48" xmlns="http://www.w3.org/2000/svg"><title>7D802D0D-D8FA-41B0-90BD-A523B4B70833</title><g fill="none" fill-rule="evenodd"><path d="M0 0h48v48H0z"/><g fill="#FFF"><path d="M26.445 41.971a16.22 16.22 0 0 1-10.848-2.097H14.18a17.017 17.017 0 0 0 9.747 3.051 16.98 16.98 0 0 0 9.742-3.05h-1.4a16.201 16.201 0 0 1-5.824 2.096m-5.034-31.279c-.365.059-.72.132-1.08.211l-4.267 9.373h3.595l4.268-9.373 4.265 9.373h3.604l-4.278-9.38a16.344 16.344 0 0 0-6.107-.204"/><path d="M38.416 34.825a16.674 16.674 0 0 1-4.748 5.05h4.562c.541 0 1.056-.275 1.35-.722.295-.451.345-1.02.117-1.511l-1.281-2.817M8.281 39.153c.299.447.81.721 1.352.721h4.547a16.785 16.785 0 0 1-4.734-5.049l-1.281 2.817c-.223.49-.179 1.06.116 1.51m18.852-29.11l-1.737-3.804a1.595 1.595 0 0 0-1.469-.934c-.63 0-1.21.36-1.467.934l-1.733 3.804a17.247 17.247 0 0 1 3.2-.305c1.096 0 2.164.108 3.206.305"/><path d="M7.073 26.332c0 3.107.87 6.01 2.373 8.493l.391-.858a15.464 15.464 0 0 1-1.792-5.157c-.697-4.322.457-8.505 2.868-11.784a16.059 16.059 0 0 1 9.418-6.123l.396-.861c-7.787 1.472-13.654 8.203-13.654 16.29m20.06-16.29l.385.854a16.264 16.264 0 0 1 5.87 2.627c3.333 2.387 5.74 6.013 6.429 10.331a15.522 15.522 0 0 1-1.794 10.109l.393.862a16.288 16.288 0 0 0 2.377-8.493c0-8.087-5.88-14.818-13.66-16.29"/><path d="M16.924 36.585H12.24l3.186-7.007v-7.891l-5.589 12.28a15.93 15.93 0 0 0 4.634 5.176c.363.257.744.504 1.126.731h6.59a8.727 8.727 0 0 1-5.263-3.289M32.383 21.58v7.892l3.243 7.113h-4.722a8.7 8.7 0 0 1-5.259 3.29h6.625a16.094 16.094 0 0 0 4.677-4.235 16.24 16.24 0 0 0 1.076-1.677l-5.64-12.383"/><path d="M28.195 20.896v11.279c0 2.119-1.884 3.869-4.268 3.876-2.377-.007-4.268-1.757-4.268-3.876l-.002-11.266H16.08v11.266c.002 3.995 3.53 7.196 7.847 7.2h.009c4.31 0 7.84-3.205 7.843-7.2V20.896h-3.584"/></g></g></svg>