<svg width="48" height="48" viewBox="0 0 48 48" xmlns="http://www.w3.org/2000/svg"><title>45914197-E8F6-4D20-9B40-3BAC0EC2A899</title><g fill="none" fill-rule="evenodd"><path d="M0 0h48v48H0z"/><path d="M11.55 38.361a19.03 19.03 0 0 0 21.958 2.093A18.968 18.968 0 0 0 43 24a18.94 18.94 0 0 0-2.719-9.808c-.665.718-1.677 1.588-2.851 2.649 0 0-3.504 3.254-6.062 5.493-2.557 2.237-10.74 9.139-12.33 10.385-1.317 1.03-5.766 4.356-7.488 5.642zM9.8 36.635A18.954 18.954 0 0 1 5 24a18.967 18.967 0 0 1 9.492-16.455 19.036 19.036 0 0 1 19.016 0c1.328.766 2.54 1.68 3.622 2.712-4.231-.285-13.354.48-14.45.699-1.154.23-1.222 1.339-.83 1.639.392.3 2.362 1.452 2.95 1.822.59.368.507.646.3.993-.208.346-2.382 3.161-2.382 3.161-.796.959-10.182 14.206-12.918 18.064z" fill="#FFF"/></g></svg>