<svg width="48" height="48" viewBox="0 0 48 48" xmlns="http://www.w3.org/2000/svg"><title>E3386055-84EE-48EA-88C8-B0CE32673EED</title><g fill="none" fill-rule="evenodd"><path d="M0 0h48v48H0z"/><path d="M24.574 22.26c.134 5.973.54 13.456 2.567 18.51.202.524.54 1.114.81 1.64-1.283.328-2.635.59-3.985.59-1.419 0-2.768-.262-3.984-.59.338-.657.607-1.247.878-1.839 1.89-4.986 2.43-12.404 2.498-18.31h1.216zm-.067-4.593c.337 0 .674 0 .945.131L25.384 9.2h1.081s-.135 2.363.338 8.795C32.61 19.243 37 24.23 37 30.268c0 4.529-2.431 8.4-6.01 10.632-.068-.066-.203-.263-.338-.394-3.85-4.79-4.795-11.945-5.065-18.18.54.132 1.08.197 1.621.263 1.08 6.826 4.321 11.354 6.955 14.176 1.216-1.574 1.96-3.347 1.96-5.317 0-2.295-.946-4.33-2.5-5.97-1.553-1.642-3.647-2.955-6.212-3.61a14.578 14.578 0 0 0-3.445-.395 15.42 15.42 0 0 0-3.443.394c-4.998 1.247-8.712 5.054-8.712 9.581 0 1.97.742 3.743 1.89 5.317 2.701-2.822 5.876-7.35 6.956-14.176.541-.066 1.08-.131 1.689-.262-.27 6.234-1.216 13.323-5.066 18.113v-.065c-.135.196-.27.394-.405.525C13.296 38.67 11 34.797 11 30.268c0-6.038 4.322-11.025 10.198-12.273.337-6.432.27-8.795.27-8.795h1.08l-.068 8.598c.27-.13.608-.13.878-.13V5h1.149v12.667z" fill="#FFF"/></g></svg>