<svg width="48" height="48" viewBox="0 0 48 48" xmlns="http://www.w3.org/2000/svg"><title>389ED968-DA37-4CAB-9404-5A96E4626F15</title><g fill="none" fill-rule="evenodd"><path d="M0 0h48v48H0z"/><path d="M31.764 28.633c-.15-.009-.243-.019-.336-.02-1.217 0-2.434.012-3.65-.008-.339-.005-.417.111-.416.43.009 3.446.007 6.893.003 10.34-.001 1.443-.655 2.516-1.934 3.144-2.213 1.086-4.832-.557-4.845-3.03-.017-3.471-.004-6.942-.004-10.413 0-.462.002-.463-.467-.463-1.287-.001-2.574 0-3.926 0v.436c0 3.41.002 6.822 0 10.233-.002 1.822-1.082 3.149-2.852 3.512-1.783.366-3.721-1.038-3.927-2.851a8.285 8.285 0 0 1-.053-.93c-.003-4.931-.003-9.862 0-14.793 0-1.198.645-2.103 1.696-2.363.251-.062.52-.075.78-.075 8.112-.003 16.224-.004 24.336-.001 1.47 0 2.42.959 2.42 2.422 0 5.027.003 10.054 0 15.08-.001 1.727-1.059 3.11-2.642 3.478-2.196.509-4.177-1.143-4.181-3.5-.007-3.364-.002-6.727-.002-10.09v-.538zm6.018-9.713c-.587.027-1.13-.207-1.665-.485-3.955-2.06-7.913-4.115-11.866-6.18-.224-.117-.388-.081-.595.026-4.04 2.105-8.078 4.21-12.126 6.298-1.808.932-3.93-.053-4.435-2.029-.349-1.365.278-2.792 1.565-3.488 1.07-.58 2.156-1.126 3.235-1.687 3.713-1.932 7.433-3.851 11.132-5.809.661-.35 1.196-.36 1.865-.007 4.758 2.505 9.538 4.969 14.306 7.456 1.887.984 2.324 3.315.936 4.892-.574.653-1.4 1.013-2.352 1.012" fill="#FFF"/></g></svg>