<svg width="48" height="48" viewBox="0 0 48 48" xmlns="http://www.w3.org/2000/svg"><title>00FB3637-D913-4EF3-A6FC-A4F324BD8B88</title><g fill="none" fill-rule="evenodd"><path d="M0 0h48v48H0z"/><g fill="#FFF"><path d="M9.047 13.016l.658 1.192h14.248l-.623-1.192zm2.361 4.726l.602 1.196h14.247l-.604-1.196zm-1.153-2.39l.604 1.252h14.245l-.603-1.252zm-2.36-4.672l.604 1.193H22.78l-.602-1.192zM6.689 8.341c.054.107.164.33.274.493l.384.705H21.63c-.164-.49-.164-.869-.055-1.198H6.69zm20.776 12.933l-.604-1.193H12.632l.604 1.193zm-12.474 3.478l8.45 16.899 7.973-16.899zM31.688 6.276v1.09h1.92c.384 0 2.324-.325 1.482 2.174-.713 2.063-2.14 5.648-3.018 7.767L29 23.608h2.907l2.031-4.235c4.354-10.159 5.56-11.954 6.603-12.008h2.03v-1.09H31.687zM6.14 7.473h16.094c.219-.053.384-.107.493-.107h2.652v-1.09H3.999v1.09h1.099c.602 0 .878 0 1.042.107m21.872 14.943H13.785l.604 1.193h14.227zm11.047 1.302c1.645 0 3.016-1.303 3.016-2.987 0-1.629-1.371-2.99-3.016-2.99-1.646 0-3.018 1.361-3.018 2.99 0 1.684 1.372 2.987 3.018 2.987"/><path d="M17.132 25.673h25.602v-.92H17.132z"/></g></g></svg>