<svg width="48" height="48" viewBox="0 0 48 48" xmlns="http://www.w3.org/2000/svg" xmlns:xlink="http://www.w3.org/1999/xlink"><title>6FAAB709-88F4-4C41-9944-B4D17C960A22</title><defs><path id="a" d="M39.091.16H0v30.589h39.091V.159z"/></defs><g fill="none" fill-rule="evenodd"><path d="M0 0h48v48H0z"/><g transform="translate(4 8)"><mask id="b" fill="#fff"><use xlink:href="#a"/></mask><path d="M39.091.231c-.012.152-.003.264-.032.365-.874 3.006-.874 3.006-4.118 3.006-6.896 0-13.79.041-20.685-.031-1.565-.016-2.841.258-3.817 1.6h26.658c-.515 1.253-1.264 2.207-1.917 3.211-.313.48-.81.317-1.241.317-8.495.007-16.99.03-25.483-.024-1.232-.008-1.904.397-2.293 1.586h27.33c-1.224 1.417-2.459 2.464-3.798 3.402-.325.228-.741.105-1.114.105-7.77.007-15.542.005-23.313.006-1.179 0-1.977.943-1.61 2.037 1.496 4.442 4.163 8.145 7.836 11.199.32.266.67.292 1.057.292 7.009-.003 14.018-.009 21.027.009.706.001.854-.138.568-.796-1.203-2.768-2.967-5.15-5.22-7.222-.47-.43-.987-.456-1.57-.455-6.437.008-12.875-.026-19.312.033-1.071.01-1.545-.362-1.939-1.234-1.013-2.247-1.047-2.232 1.417-2.232 6.97 0 13.942.01 20.913-.016.778-.002 1.37.2 1.94.697 4.31 3.74 7.445 8.14 8.603 13.7.178.854-.104.965-.886.963-8.723-.02-17.446-.017-26.168-.004-.562 0-1.012-.134-1.464-.465C5.435 26.602 2.013 21.86.102 16.1c-.158-.472-.122-.918.034-1.387C2.047 8.948 5.513 4.235 10.54.569c.383-.279.77-.41 1.255-.41 8.914.01 17.828.007 26.74.011.182 0 .363.04.556.061" fill="#FFF" mask="url(#b)"/></g></g></svg>