<svg width="48" height="48" viewBox="0 0 48 48" xmlns="http://www.w3.org/2000/svg"><title>358574C2-12E6-4497-862A-E85F099F3A48</title><g fill="none" fill-rule="evenodd"><path d="M0 0h48v48H0z"/><g fill="#FFF"><path d="M27.272 27.546l-.398-8.849c-.02-.01-.03-.01-.049-.01-.087-.019-.184-.038-.272-.058l-.456 10.052c.243-.223.486-.456.728-.689l.447-.446m-2.369 4.56l-.34.252-.408 9.092h1.496l-.438-9.577c-.106.078-.204.156-.31.233m2.699-14.971l-.437-9.49-.233-.058-.427 9.383c.107.03.214.049.32.068.253.048.515.078.777.097m-2.175 12.157l-.504-11.206c-.01 0-.02 0-.02-.01-.088-.029-.165-.068-.243-.106l-.563 12.457c.271-.223.544-.446.806-.67l.524-.465m2.146 12.158l-.505-11.08c-.078.067-.165.145-.243.213-.087.077-.175.145-.262.223l-.485 10.644h1.495m1.923 0l-.572-12.76c-.059.05-.118.107-.176.165-.058.059-.126.117-.184.175L28 41.45h1.496m1.428-18.164l-.214-4.85c-.01 0-.029 0-.039.009-.088.03-.174.049-.262.077l-.262 5.783c.174-.223.35-.446.524-.68.088-.106.175-.223.253-.339m.495 18.164l-.66-14.651-.088.087c-.03.029-.058.068-.088.097l-.66 14.467h1.496m-2.311-15.884l-.311-6.772h-.05c-.086.01-.183.01-.28.02l-.35 7.85c.214-.224.427-.457.63-.7.118-.125.244-.262.36-.398m-3.321-8.8L25.33 6.82c-.049-.039-.107-.077-.156-.116l-.436 9.625c.048.029.107.048.165.077.281.136.572.262.883.359M16.658 36.89l-.204 4.56h1.495l-.223-5.036-.525.233a8.924 8.924 0 0 1-.543.242m-1.962.796l-.165 3.765h1.495l-.194-4.211c-.184.077-.369.155-.553.223-.194.078-.388.145-.583.223m3.933-1.708l-.252 5.473h1.495l-.272-5.977c-.155.077-.31.165-.475.252-.166.078-.331.165-.496.252m14.722 5.473l-.748-16.524-.757 16.524h1.505M22.98 33.465c-.136.086-.272.174-.398.262l-.35 7.723h1.495l-.378-8.238c-.126.088-.243.165-.37.253m.467-28.458l-.457 10.09c.302.282.612.534.952.758l-.495-10.848M22.98 31.31c.194-.155.398-.3.592-.456l-.592-13.137-.05-.912a1.432 1.432 0 0 0-.135-.126l-.68 15.03h.33c.176-.137.35-.262.535-.399"/><path d="M32.603 21.19H31.43v.66h2.728v20.172h-20.18V21.85h8.05v-.66h-8.72v21.492h21.511V21.19h-2.215"/><path d="M20.6 34.92l-.3 6.53h1.504l-.32-7.044c-.146.087-.29.174-.436.252a5.356 5.356 0 0 1-.448.261"/></g></g></svg>