<svg width="160" height="64" viewBox="0 0 160 64" xmlns="http://www.w3.org/2000/svg" xmlns:xlink="http://www.w3.org/1999/xlink"><title>7908B067-9BDF-406A-B878-E88079B0CFAC</title><defs><path id="a" d="M47.465 27.954H0V0h94.93v27.954H47.465z"/></defs><g transform="translate(33 18)" fill="none" fill-rule="evenodd"><mask id="b" fill="#fff"><use xlink:href="#a"/></mask><path d="M66.493 13.735c-.586 0-1.062.476-1.062 1.057 0 .587.476 1.058 1.062 1.058a1.058 1.058 0 1 0 0-2.115zM29.695 14.74s.53-1.765.61-2.041c.215-.718.535-1.848.535-1.848h.053s.295 1.171.487 1.837c.075.26.582 2.052.582 2.052h-2.267zm3.225 3.204h1.917l-2.895-8.805a3.49 3.49 0 0 0-1.087-.166c-.439 0-.595.058-.94.166l-3.07 8.805h1.836s.247-.771.548-1.73h3.174l.517 1.73zm62.01 0s-.908-1.928-1.13-2.364c-.25-.494-.481-.836-.994-.957v-.029c.344-.064.616-.271.912-.9.284-.617.368-.749.534-.894.164-.148.387-.091.387-.091l.085-1.147a4.253 4.253 0 0 0-.775-.017c-.449.028-.684.155-.904.379-.172.17-.291.424-.438.722-.156.318-.279.575-.436.9-.16.331-.238.48-.668.48h-.28v-2.38h-1.67v6.298h1.67V15.37l.228-.004c.474 0 .556.118.808.617.297.595.858 1.96.858 1.96h1.813zm-6.828 0v-6.299h-1.665v2.382h-1.884v-2.382h-1.66v6.299h1.66v-2.572h1.884v2.572h1.665zm-45.723-6.356l-.007 6.025a6.4 6.4 0 0 0 2.425.48c1.767 0 2.712-.909 2.712-2.406 0-1.355-.837-2.194-2.4-2.194-.398 0-.63.053-1.067.157v-2.062h-1.663zm3.41 4.176c0 .621-.22 1.047-1.02 1.047-.268 0-.379 0-.728-.098v-1.816c.434-.084.472-.098.729-.098.763 0 1.019.37 1.019.965zm36.232 1.575c-.441-.664-.555-1.056-.555-1.892v-1.696c0-.917-.105-1.253-.35-1.59-.338-.47-.9-.674-1.939-.674-.733 0-1.451.078-2.139.253l.246 1.215c.466-.065.957-.121 1.308-.121 1.1 0 1.227.16 1.227.98v.308a3.19 3.19 0 0 0-.84-.112c-1.663 0-2.539.807-2.539 2.14 0 1.252.936 1.936 2.082 1.936.426 0 .87-.08 1.22-.22.213-.094.305-.146.58-.326.166.242.499.487.634.532l1.065-.733zm-2.115-.726a2.478 2.478 0 0 1-.896.155c-.596 0-.931-.234-.931-.841 0-.632.426-.846 1.25-.846.2 0 .399.03.49.062v.453c0 .49.026.81.087 1.017zm-16.24.726c-.44-.664-.553-1.056-.553-1.892v-1.696c0-.917-.107-1.253-.351-1.59-.337-.47-.9-.674-1.938-.674-.732 0-1.453.078-2.14.253l.246 1.215c.468-.065.955-.121 1.308-.121 1.101 0 1.228.16 1.228.98v.308a3.207 3.207 0 0 0-.84-.112c-1.665 0-2.54.807-2.54 2.14 0 1.252.935 1.936 2.082 1.936.426 0 .87-.08 1.222-.22.211-.094.303-.146.578-.326.167.242.498.487.633.532l1.065-.733zm-2.114-.726a2.48 2.48 0 0 1-.895.155c-.595 0-.934-.234-.934-.841 0-.632.427-.846 1.252-.846.198 0 .398.03.491.062v.453c0 .49.025.81.086 1.017zm-20.492 1.33v-6.068c-.913-.271-1.616-.388-2.533-.388-.915 0-1.6.117-2.514.388v3.107c0 .845-.015 1.099-.108 1.372-.092.24-.215.526-.55.749l.453.969c1.336-.376 1.84-.954 1.84-2.792v-2.286c.44-.065.528-.08.88-.08.353 0 .427.015.867.08v4.95h1.665zm12.589 2.064v-2.263c.21.124.63.307 1.34.307 1.408 0 2.446-1.165 2.446-3.294 0-2.293-1.031-3.275-2.726-3.275-.431 0-.711.044-1.06.21V8.988h-1.657v2.704c-.349-.166-.63-.21-1.06-.21-1.696 0-2.728 1.022-2.728 3.314 0 2.13.933 3.255 2.445 3.255.712 0 1.132-.183 1.343-.307v2.263h1.657zm-3.737-5.21c0-1.265.383-1.933 1.146-1.933.323 0 .536-.002.934.187v3.477a2.27 2.27 0 0 1-.853.134c-.87 0-1.227-.706-1.227-1.866zm5.816-.04c0 1.158-.464 1.905-1.227 1.905-.32 0-.49-.016-.852-.134v-3.477c.397-.19.61-.187.932-.187.764 0 1.147.628 1.147 1.893zm20.077.453c0-1.56-.918-2.636-2.849-2.636a5.14 5.14 0 0 0-1.316.165l-.004-2.246a11.49 11.49 0 0 1 1.463-.084c.568 0 1.287.03 1.918.107l.044-1.301c-.718-.16-1.758-.258-2.565-.258-.795 0-2.031.198-2.62.356l-.001 8.303a7.866 7.866 0 0 0 2.733.487c2.105 0 3.197-1.11 3.197-2.893zm-1.77.125c0 .842-.467 1.396-1.33 1.396-.34 0-.62 0-1.065-.12v-2.547a5.401 5.401 0 0 1 1.065-.079c.877.033 1.33.44 1.33 1.35zM9.004 4.421l-2.49 7.437h5.019L9.035 4.42h-.031zM.279 24.223a.281.281 0 0 0-.28.285v3.162c0 .158.126.284.28.284h17.479a.28.28 0 0 0 .277-.284v-3.162a.28.28 0 0 0-.277-.285H.279zM9.019 0c1.912 0 2.514 1.363 3.016 2.728.213.577 5.182 14.115 5.33 14.521.042.112.015.3-.16.366-.177.067-2.759 1.066-2.901 1.12a.28.28 0 0 1-.356-.168c-.053-.14-1.123-3.09-1.244-3.422H5.342c-.12.331-1.202 3.287-1.252 3.422-.05.136-.204.227-.355.167-.152-.06-2.745-1.06-2.898-1.119a.286.286 0 0 1-.164-.366c.183-.508 5.075-13.828 5.326-14.521C6.483 1.385 7.106 0 9.019 0z" fill="#EE3523" mask="url(#b)"/></g></svg>