<svg width="160" height="64" viewBox="0 0 160 64" xmlns="http://www.w3.org/2000/svg"><title>D9F295F2-0B44-4982-BBBD-6822E8FD1766</title><g fill="#1E5378" fill-rule="evenodd"><path d="M12 31.868c0 8.168 6.459 14.813 14.398 14.813s14.399-6.645 14.399-14.813c0-8.167-6.46-14.813-14.399-14.813-7.94 0-14.398 6.646-14.398 14.813m.497 0c0-7.885 6.236-14.302 13.901-14.302 7.667 0 13.901 6.417 13.901 14.302S34.065 46.17 26.4 46.17s-13.902-6.417-13.902-14.302"/><path d="M16.59 27.746c3.652-2.497 7.688-3.948 14.532-2.717.379-.23.588-.445.684-.91-1.709-.643-3.561-.87-5.956-.827-2.159.06-6.035.896-8.103 2.17l.628-.82c1.45-.883 5.223-2.061 8.05-2.117 1.996-.04 3.032.075 5.4.74-.205-.422-.7-.633-1.416-.968-2.295-1.074-6.581-1.174-10.094.435.445-.301.88-.582 1.448-.855 1.158-.55 3.052-1.085 5.421-1.045 1.894.034 4.141.72 5.519 2.146.23.28.36.58.42.818 1.09.575 1.722 1.113 2.08 1.75.143.323.206.682.141 1.08.453.286.668.522.89.83.165.264.284.557.315.83.042.355.08.756-.277 1.222.378.19.667.727.714.967.171.856-.357 1.689-1.056 2.34-.8.733-2.568 1.601-4.008 1.984-2.863.751-5.39 1.07-7.4 1.456.896.222 2.123.526 4.128.526 4.266 0 8.043-2.105 8.043-2.105s-.088.278-.17.515c-2.709 1.712-7.028 2.434-8.865 2.347-1.877-.09-3.446-.378-4.986-.871-.473.13-.937.286-1.385.493 2.344 1.11 4.113 1.36 6.12 1.513 2.043.155 5.427-.357 8.284-1.436-.13.134-.197.35-.33.478-1.462.796-4.557 1.603-6.109 1.67-1.546.066-3.433.007-5.072-.32-1.416-.283-2.563-.75-3.768-1.3a.941.941 0 0 0-.367.629c4.701 2.56 9.108 2.616 14.117.994l-.458.458c-5.518 2.33-9.832 1.429-13.17-.25-.105-.052-.242-.107-.337-.172.306.564 2.86 2.503 5.708 2.746 1.965.168 4.364-.182 5.786-.777l-.832.454c-.69.355-2.514 1.155-5.07.98-3.403-.241-5.317-1.81-6.175-2.63-.4-.383-.587-.83-.709-1.375-.77-.42-1.252-.854-1.652-1.504-.235-.384-.19-.813-.13-1.173.02-.114.047-.219.09-.324-.37-.278-.743-.576-.904-.876-.335-.633-.129-1.178.104-1.597-.202-.24-.387-.477-.473-.723a2.27 2.27 0 0 1-.08-.872c.063-.534.337-1.02.686-1.44.745-.895 1.91-1.589 3.916-2.28 1.958-.678 2.748-.78 4.226-1.137 1.725-.416 3.787-.55 5.517-1.178-4.814-.883-9.815-.082-13.893 2.846l.278-.818zm16.401-3.094c-.063.247-.318.533-.493.727a15.99 15.99 0 0 1 1.56.543c-.061-.484-.605-.955-1.067-1.27zm-14.834 10.03a10.04 10.04 0 0 1-.783-.498c-.142.32.12.67.404.838.118-.124.255-.226.379-.34zm16.23-6.56c.345.178.656.308.96.53.219-.433.085-.715-.369-1.117-.176.217-.378.41-.59.587zm-1.029.656c-.705.339-1.712.69-3.158 1.069-1.182.309-4.07.742-7.169 1.444-.986.222-3.642.876-4.949 2.034.364.304.59.38.997.618.543-.361 1.272-.702 2.366-1.008 1.904-.53 3.322-.758 5.034-1.038 1.7-.281 4.893-.977 6.664-1.64.576-.216 1.113-.492 1.513-.816-.123-.144-1.262-.717-1.298-.663zM19.96 36.496a6.27 6.27 0 0 1 .937-.472 34.326 34.326 0 0 1-1.52-.696 3.56 3.56 0 0 0-.607.48c.393.236.786.47 1.19.688zm-1.638.17c-.006.333.186.63.613.99.053-.18.129-.312.256-.484a13.725 13.725 0 0 1-.869-.505zm2.405-6.128c3.484-1.065 7.145-1.392 10.848-2.425-1.446-.407-2.239-.578-3.77-.39-2.223.272-4.667.777-6.759 1.424-.818.253-5.139 1.527-3.892 3.312 0 .022.742-1.059 3.573-1.921zm13.07-3.72a13.177 13.177 0 0 0-2.03-.737 4.652 4.652 0 0 1-1.29.753c.938.173 1.646.446 2.436.685.143.074.783-.553.884-.7zm1.718 3.496a9.287 9.287 0 0 1-.351.29c-.79.633-2.035 1.138-3.765 1.62-3.588 1.003-6.19 1.153-9.154 1.91-.574.145-1.178.348-1.737.587.56.287 1.152.559 1.764.8 1.199-.356 1.78-.52 3.523-.829.663-.116 2.705-.49 4.188-.817 2.663-.592 6.57-1.877 5.532-3.561zm18.825 8.069h2.957l.356-2.262h2.035l.356 2.262H63l-2.497-13.085h-3.666L54.34 38.383zm4.33-9.133l.551 3.993H58.12l.551-3.993zm7.171.963c.46 0 1.318-.318 1.318-1.268 0-1.124-.987-1.197-1.262-1.197-.331 0-.953.052-1.579.358l-.024-2.791a8.779 8.779 0 0 1 2.502-.336c2.338.002 3.395 1.721 3.395 3.39 0 1.633-.91 2.627-1.774 3.007v.127c.829.273 1.96 1.121 1.96 3.099 0 2.434-1.627 3.781-3.704 3.781-1.115-.001-1.84-.17-2.71-.67l.05-2.684c.805.366 1.35.391 1.9.391.92 0 1.288-.703 1.288-1.23 0-.725-.44-1.214-1.416-1.214h-1.169v-2.763h1.225zm5.819-4.915h8.02V38.38h-2.938v-9.934H74.6v9.937l-2.939-.003zm9.623 13.082l2.927.003v-4.316h.983c2.896.002 3.788-2.699 3.788-4.415 0-1.694-1.02-4.354-3.788-4.351l-3.91-.003V38.38zm2.927-10.2h.696c.664 0 1.08.411 1.08 1.495 0 1.419-.702 1.515-1.08 1.515h-.696v-3.01zm10.383 10.203c3.48 0 4.652-3.35 4.652-6.702 0-3.35-1.173-6.702-4.652-6.702-3.477 0-4.65 3.352-4.65 6.702 0 3.352 1.173 6.702 4.65 6.702m0-3.154c-1.032 0-1.566-1.249-1.566-3.548 0-2.302.534-3.548 1.566-3.548 1.034 0 1.571 1.246 1.571 3.548 0 2.3-.537 3.548-1.57 3.548m17.161 3.154h3.474c.75 0 3.898-.327 3.903-4.287.005-3.343-2.439-3.925-4.012-3.925h-.518v-1.734h3.85v-3.14h-6.697v13.086zm2.847-2.617v-2.978h.425c.34 0 1.259.02 1.259 1.363 0 1.385-.92 1.615-1.259 1.615h-.425zm15.115-10.468h2.836v4.709h2.027v-4.71h2.835v13.086h-2.835v-5.235h-2.027v5.235h-2.836zm9.481.073h2.861l-.003 4.665h.621l1.64-4.665h3.114l-2.236 6.153 2.548 6.812h-3.366l-1.642-5.21h-.68l.004 5.21h-2.861zm-90.311-.073h6.092l.002 3.263h-3.067v9.822l-3.027-.003zm51.641 0h2.467l2.18 3.081 2.193-3.081h2.462V38.38h-2.903v-7.982l-1.751 2.292-1.742-2.292v7.985l-2.906-.003zm19.246 13.085h2.955l.357-2.264h2.037l.355 2.264h2.956l-2.497-13.085h-3.666l-2.497 13.085zm4.332-9.132l.549 3.99h-1.103l.554-3.99z"/></g></svg>