<svg width="160" height="64" viewBox="0 0 160 64" xmlns="http://www.w3.org/2000/svg"><title>F95E519A-0C22-43AE-BB2A-41185A3C8FEA</title><g fill="none" fill-rule="evenodd"><path fill="#D33B40" d="M51.165 51.794h57.59V12.287h-57.59z"/><path d="M106.48 13.89H53.008v36.018h53.904V13.891h-.432zm-.432.872v34.274H53.872V14.762h52.176z" fill="#FFF"/><path fill="#FFF" d="M81.154 26.288l12.45-2.727v25.911h-12.45V26.288"/><path d="M93.512 23.136l-12.79 2.8v23.972h21.227V27.083l-8.293-3.979-.144.032zm.04.883l7.533 3.615v21.402H81.586V26.64l11.966-2.62zM57.015 36.26h2.36v-2.18h1.09v5.633h-1.09v-2.508h-2.36v2.508h-1.088v-5.632h1.088v2.179m10.577.641c0 1.715-1.223 2.939-2.98 2.939-1.759 0-2.981-1.224-2.981-2.939 0-1.714 1.222-2.947 2.98-2.947s2.98 1.233 2.98 2.947zm-1.122 0c0-1.14-.77-1.95-1.859-1.95-1.088 0-1.858.81-1.858 1.95s.77 1.943 1.858 1.943c1.089 0 1.859-.802 1.859-1.943zm2.67-2.921h.753l1.515 3.681 1.582-3.682h.754l.937 5.734h-1.105l-.502-3.47-1.532 3.546h-.301l-1.465-3.547-.57 3.471h-1.105l1.038-5.734m9.642 1.047h-2.01v1.259h1.926v.946h-1.925v1.537h2.009v.945h-3.098v-5.632h3.098v.945M59.483 46.437c-.315.167-.732.31-1.3.31-.92 0-1.48-.318-1.921-.74-.607-.587-.843-1.247-.843-2.026 0-.961.394-1.652.843-2.074.528-.5 1.182-.7 1.93-.7.37 0 .811.064 1.291.327v1.207a1.682 1.682 0 0 0-1.268-.596c-1.055 0-1.74.875-1.74 1.852 0 1.176.897 1.812 1.78 1.812.488 0 .921-.215 1.228-.58v1.208m2.466-5.11c.725 0 1.095.19 1.34.397.4.342.519.795.519 1.192 0 .517-.205.97-.615 1.248a1.45 1.45 0 0 1-.575.23l1.64 2.233H62.98l-1.402-2.13h-.126v2.13h-1.024v-5.3h1.52zm-.496 2.44h.291c.197 0 1.009-.024 1.009-.803 0-.787-.804-.795-.993-.795h-.307v1.598zm6.254-1.55h-1.89V43.4h1.812v.89h-1.812v1.446h1.89v.89h-2.914v-5.3h2.914v.89m2.297-.889c.732 0 1.37.08 1.954.516.638.486 1.008 1.256 1.008 2.138 0 .882-.362 1.645-1.056 2.138-.614.437-1.189.508-1.922.508h-1.354v-5.3h1.37zm-.346 4.41h.315c.26 0 .827-.016 1.283-.35.418-.301.654-.842.654-1.406 0-.556-.228-1.096-.645-1.414-.426-.318-.946-.35-1.292-.35h-.315v3.52zm4.162.89h1.024v-5.3H73.82zm4.033-4.41v4.41h-1.024v-4.41h-1.182v-.89h3.387v.89h-1.181" fill="#FFF"/></g></svg>