<svg width="160" height="64" viewBox="0 0 160 64" xmlns="http://www.w3.org/2000/svg"><title>B9ED368D-96AE-42F0-91A0-78FAE124BA9F</title><g fill="none" fill-rule="evenodd"><path fill="#000" d="M29 18.478h27.295v27.518H29z"/><path fill="#FFF200" d="M29.79 19.274h25.715V45.2H29.79z"/><path d="M31.154 39.962l3.354 3.448 7.86-8.04 8.123 8.205 3.403-3.398-8.04-8.106 1.545-1.508v-3.216l.97-.828v2.519l1.25 1.028 3.732-3.763 1.2.928c.708-2.636-3.387-8.62-6.774-5.304l-3.946 3.945.806.978-2.007 1.972-1.94-1.923 1.02-.929-4.324-4.21c-3.256-2.702-6.594 1.41-6.709 5.421l1.184-.994 3.633 3.945 1.299-1.093v-2.421l.805.613v3.166l1.579 1.592-8.023 7.973zm32.112-18.185v2.387h1.02c1.397-.265 1.019-2.287 0-2.387h-1.02zm-2.893-2.37v10.808h2.893v-3.514l2.467 3.514h3.42L66.11 25.89c3.52-1.724 2.204-6.432-1.496-6.482h-4.242zm13.384 5.404c.953 0 1.726.729 1.726 1.624 0 .895-.773 1.625-1.726 1.625-.938 0-1.71-.73-1.71-1.625s.772-1.624 1.71-1.624zm-.609-2.388c.79 0 1.53.266 2.137.696v-.414h2.828l.017 7.51h-2.861l.016-.465a3.687 3.687 0 0 1-2.137.68c-2.105 0-3.83-1.79-3.83-3.995s1.726-4.012 3.83-4.012zm6.479.282h3.009v7.51h-3.01v-7.51zm1.512-4.293c.872 0 1.579.729 1.579 1.608 0 .878-.707 1.607-1.58 1.607-.887 0-1.594-.73-1.594-1.607 0-.879.707-1.608 1.595-1.608zm22.84 4.293h3.008v7.51h-3.009v-7.51zm1.495-4.293c.888 0 1.595.729 1.595 1.608 0 .878-.707 1.607-1.595 1.607-.871 0-1.578-.73-1.578-1.607 0-.879.707-1.608 1.578-1.608zm-22.28 4.293v2.387h1.037v5.123h2.91v-5.123h2.73v5.123h3.009V25.06h1.874v-2.321h-1.957v-1.674c-.05-.614 1.381-.863 1.875-.365v-2.454c-2.763-.879-4.999.696-4.983 3.133v1.326h-2.565v-1.64c-.033-.614 1.217-.863 1.94-.365v-2.454c-2.4-.712-4.965.464-4.949 3.116v1.327l-.92.016zm15.851 7.725c2.582-.016 3.535-1.094 4.095-2.669h-2.615c-1.184 1.525-2.91.415-2.828-.828h5.525c0-3.05-1.612-4.493-4.176-4.493-2.565 0-4.176 1.824-4.176 4.045 0 2.222 1.874 3.962 4.175 3.945zm-.97-5.27c.033-.913 2.006-.913 2.137 0h-2.137zm21.458 5.27c2.597-.016 3.552-1.094 4.11-2.669h-2.63c-1.184 1.525-2.911.415-2.828-.828h5.525c0-3.05-1.595-4.493-4.177-4.493-2.565 0-4.176 1.824-4.176 4.045 0 2.222 1.873 3.962 4.176 3.945zm-.97-5.27c.032-.913 2.005-.913 2.137 0h-2.138zm-3.996-2.305l-.888 1.823c-1.118-.348-2.203-.281-2.17.033.033.199-.148.547 1.594.796 2.598.414 2.385 5.288-1.973 4.923-1.2-.083-2.17-.398-2.975-.879l.97-1.956c1.365.68 2.68 1.078 2.778.398.116-.845-1.43-.547-2.367-1.26-1.677-1.044-.724-4.277 2.022-4.31.97-.066 1.973.1 3.01.432zm10.293-.15v7.51h2.812v-4.592c.082-1.144 2.319-1.343 2.335 0v4.592h2.844v-4.708c-.066-2.636-2.811-3.912-5.294-2.238v-.564h-2.697zM62.033 34.807l-1.874 11.14h5.31c3.602 0 5.081-4.51 2.516-6.051 2.187-2.04 1.07-5.106-1.282-5.139l-4.67.05zm2.154 6.647l-.378 1.84h1.233c1.397.066 1.233-1.84.428-1.84h-1.283zm.624-3.995L64.5 38.95l.379.016c1.134.066 1.792-1.508.427-1.508h-.494zm4.374 8.504h3.223l.97-1.956h3.65l.543 1.99h2.976l-2.581-11.124h-3.042l-5.739 11.09zm5.246-4.293h2.006l-.641-2.935-1.365 2.935zm7.136 4.326h2.976l.756-6.979 4.259 6.946h3.19l1.331-11.157h-2.976l-.838 6.98-4.26-7.013h-3.074l-1.364 11.223zm14.65-11.223l-2.088 11.19h3.14l.839-4.178 2.812 4.178h4.126l-4.028-5.869 5.147-5.337h-3.996l-3.519 3.945.56-3.945-2.993.016z" fill="#000"/></g></svg>