<svg width="160" height="64" viewBox="0 0 160 64" xmlns="http://www.w3.org/2000/svg" xmlns:xlink="http://www.w3.org/1999/xlink"><title>6F1D6434-4C19-474D-8CEC-48DD9683593B</title><defs><path id="a" d="M9.788 10.302V.324H.42v9.978h9.368z"/></defs><g fill="none" fill-rule="evenodd"><path fill="#EE3D42" d="M25.044 33H45.12V22.782H25.044z"/><path fill="#221F20" d="M25.044 42.82h20.078V32.8H25.044z"/><path fill="#FEFEFE" d="M28.545 33.41H41.61v-1.22H28.545z"/><path d="M57.931 27.785c2.185 0 3.556 1.425 3.556 3.395 0 2.05-1.371 3.232-3.556 3.232h-4.346v3.352h-1.851v-9.979h6.197zm.106 4.977c.96 0 1.56-.663 1.56-1.556 0-.984-.6-1.77-1.666-1.77h-4.346v3.326h4.452zm10.315 5.28c-3.184 0-5.823-2.113-5.823-5.28 0-3.126 2.639-5.282 5.823-5.282 3.199 0 5.795 2.156 5.795 5.282 0 3.167-2.596 5.28-5.795 5.28m0-8.858c-2.32 0-3.906 1.569-3.906 3.578 0 2.063 1.52 3.59 3.906 3.59 2.372 0 3.876-1.54 3.876-3.59 0-2.009-1.504-3.578-3.876-3.578m13.473 8.846c-3.346 0-5.865-2.115-5.865-5.28 0-3.114 2.557-5.27 5.865-5.27 1.973 0 3.384.56 4.652 1.489l-.99 1.466a5.723 5.723 0 0 0-3.608-1.225c-2.442 0-3.96 1.543-3.96 3.54 0 2.062 1.533 3.55 3.985 3.55 1.532 0 2.744-.493 3.665-1.196l.985 1.463c-1.264.93-2.756 1.463-4.73 1.463m20.738-2.688l-1.145 2.423h-2l4.863-9.98h1.944l4.88 9.98h-2l-1.145-2.423h-5.397zm.772-1.622h3.854l-1.921-4.045-1.933 4.045zm17.576 4.044v-4.27h-6.542v4.27h-1.853v-9.979h1.853v4.073h6.543v-4.073h1.853v9.979z" fill="#221F20"/><g transform="translate(125.086 27.461)"><mask id="b" fill="#fff"><use xlink:href="#a"/></mask><path fill="#221F20" mask="url(#b)" d="M.42 10.302V.324h1.856V4.98L7.298.324h2.276L4.406 5.128l5.382 5.174h-2.49L2.276 5.46v4.842z"/></g><path d="M94.839 31.443h-4.34V29.34h7.15v-1.563h-9.004v9.97h6.194c2.182 0 3.687-1.185 3.687-3.152 0-2.046-1.505-3.152-3.687-3.152m.107 4.655H90.5v-3.004h4.447c1.161 0 1.82.611 1.82 1.501 0 .983-.523 1.503-1.82 1.503" fill="#221F20"/></g></svg>