<svg width="160" height="64" viewBox="0 0 160 64" xmlns="http://www.w3.org/2000/svg" xmlns:xlink="http://www.w3.org/1999/xlink"><title>0F54E7C8-7CA2-426F-A2FB-F667A5367A95</title><defs><path id="a" d="M0 23.836h119.843V.019H0z"/></defs><g fill="none" fill-rule="evenodd"><path d="M27.14 27.935l10.538-6.145a11.6 11.6 0 0 0-1.373-.697l-9.165 5.344-4.081-2.38c-.291.324-.564.665-.82 1.02l4.9 2.858zm12.755-4.442c-.325-.318-.67-.617-1.03-.896L27.14 29.433l-5.597-3.264c-.212.375-.404.764-.575 1.163l6.172 3.598 12.755-7.437zM27.14 32.427l-6.622-3.86c-.13.428-.236.866-.318 1.313l6.94 4.046 14.418-8.406a12.062 12.062 0 0 0-.768-1.05l-13.65 7.957zm16.356-.355c0 6.576-5.26 11.908-11.748 11.908C25.259 43.98 20 38.648 20 32.072c0-.268.01-.533.027-.795l7.113 4.147 15.066-8.784a12 12 0 0 1 1.29 5.432z" fill="#006533"/><path d="M27.14 26.437l-4.08-2.38c-.291.325-.565.665-.82 1.02l4.9 2.858 10.534-6.143c-.441-.261-.9-.495-1.373-.697l-9.161 5.342zm0 2.996l-5.595-3.263a12.04 12.04 0 0 0-.575 1.163l6.17 3.597 12.754-7.436a11.809 11.809 0 0 0-1.033-.895L27.14 29.433zm0 2.994l-6.621-3.86c-.083.272-.155.546-.22.824-.036.162-.07.325-.1.489l6.94 4.047 14.42-8.407a12.417 12.417 0 0 0-.082-.124l-.006-.009a13.327 13.327 0 0 0-.18-.262h-.001a11.263 11.263 0 0 0-.386-.512 10.763 10.763 0 0 0-.115-.143l-13.65 7.957zm0 2.997l-7.113-4.147a12.203 12.203 0 0 0 .169 2.954 11.9 11.9 0 0 0 1.404 3.84 11.845 11.845 0 0 0 3.337 3.702 11.75 11.75 0 0 0 2.96 1.55c.413.147.84.27 1.271.369a11.733 11.733 0 0 0 3.204.271 11.704 11.704 0 0 0 5.265-1.586 11.8 11.8 0 0 0 1.92-1.408 11.991 11.991 0 0 0 3.719-6.596 12.171 12.171 0 0 0 .22-2.3l-.001-.167a12.133 12.133 0 0 0-1.291-5.264L27.14 35.424z"/><g transform="translate(20 20.145)"><path d="M115.555 10.988c.854 1.22 2.841 3.94 4.288 5.425h-4.096c-.297-.654-.733-1.732-2.005-3.676l-1.848-2.81 1.604-2.102c.959-1.255 2.196-2.934 2.527-3.782h2.86v.018c-1.151.671-3.086 2.65-3.644 3.269l-1.272 1.378 1.586 2.28zM109.07 5.42c0-.671-.087-.848-.697-.99v-.388h4.01v.389c-.61.141-.698.318-.698.99v9.612c0 .672.087.849.697.99v.389h-4.01v-.39c.61-.14.698-.317.698-.989V5.421zm-5.944 4.612h-4.707v5.001c0 .672.087.849.697.99v.389h-4.01v-.39c.611-.14.698-.317.698-.989V5.421c0-.671-.087-.848-.697-.99v-.388h4.01v.389c-.61.141-.698.318-.698.99V9.22h4.707v-3.8c0-.671-.087-.848-.698-.99v-.388h4.01v.389c-.61.141-.697.318-.697.99v9.612c0 .672.087.849.697.99v.389h-4.01v-.39c.61-.14.698-.317.698-.989v-5zM89.459 11.11L87.82 6.128l-1.69 4.983h3.329zm1.604 5.302c-.105-.672-.488-1.909-.82-2.898l-.523-1.573h-3.87c-.4 1.237-.697 2.244-.854 2.951-.14.707-.244 1.237-.261 1.52H82.52c.296-.477.854-1.573 1.69-3.64l2.25-5.62c.505-1.254.592-1.643.592-1.997 0-.247-.07-.583-.697-.724v-.39h3.486c.053.372.088.796.454 1.839l2.562 7.404c.506 1.449 1.046 2.686 1.308 3.128h-3.103zm-13.841-.778c1.586 0 2.214-1.078 2.214-3.234 0-2.014-.541-3.145-2.598-3.145h-1.063v5.301c0 .796.209 1.078 1.08 1.078h.367zM76.646 4.82c-.767 0-.871.195-.871.725v2.933h.68c3.347 0 5.717.39 5.717 3.8 0 3.322-1.848 4.135-4.828 4.135h-4.881v-.39c.61-.14.697-.317.697-.989V5.421c0-.671-.087-.848-.697-.99v-.388h9.082a34.663 34.663 0 0 0 0 2.686h-.663l-.156-.512c-.384-1.273-.82-1.397-2.406-1.397h-1.674zm-10.023 5.92c1.621 0 2.004-1.325 2.004-3.251 0-1.626-.557-2.669-2.196-2.669h-.279c-.523 0-.767.089-.767.672v5.248h1.238zm-4.55 5.673v-.39c.61-.14.697-.317.697-.989V5.421c0-.671-.087-.848-.697-.99v-.388h5.055c2.423 0 4.236.583 4.236 3.552 0 3.021-1.813 3.923-4.759 3.923h-1.22v3.516c0 .672.087.849.697.99v.389h-4.009zM55.64 4.82c-.522 0-.61.142-.61.566v3.835h1.622c.68 0 1.743-.071 2.161-.371v1.555c-.418-.3-1.481-.372-2.161-.372H55.03v4.613c0 .742.296.989 1.9.989h.348c1.587 0 2.005-.106 2.353-1.643l.105-.46h.767a39.858 39.858 0 0 0 0 2.88h-8.786v-.388c.61-.141.698-.318.698-.99V5.421c0-.671-.088-.848-.698-.99v-.388h8.507a34.502 34.502 0 0 0 0 2.686h-.662l-.157-.512C59.022 4.944 58.586 4.82 57 4.82h-1.36zM45.39 15.635c1.587 0 2.214-1.078 2.214-3.234 0-2.014-.54-3.145-2.597-3.145h-1.063v5.301c0 .796.209 1.078 1.08 1.078h.366zM44.815 4.82c-.767 0-.871.195-.871.725v2.933h.68c3.346 0 5.717.39 5.717 3.8 0 3.322-1.848 4.135-4.829 4.135h-4.88v-.39c.61-.14.697-.317.697-.989V5.421c0-.671-.087-.848-.697-.99v-.388h9.082a34.663 34.663 0 0 0 0 2.686h-.663l-.157-.512c-.383-1.273-.819-1.397-2.405-1.397h-1.674zm-5.665 9.931l.383.743c-1.115.724-2.615 1.13-4.166 1.13-3.66 0-5.77-1.978-5.77-6.237 0-4.082 1.691-6.556 6.014-6.556 1.918 0 3.208.424 3.556.565a31.71 31.71 0 0 0 0 2.58h-.784l-.21-.777c-.278-.92-.819-1.555-2.475-1.555-2.597 0-3.26 1.944-3.26 5.284 0 3.18.645 5.548 3.661 5.548 1.43 0 2.319-.353 3.05-.725z" fill="#006533"/><mask id="b" fill="#fff"><use xlink:href="#a"/></mask><path fill="#006533" mask="url(#b)" d="M30.538 20.742h89.305v-1.237H30.538z"/></g></g></svg>